ISO-10303-21;
HEADER;
/* Generated by software containing ST-Developer
 * from STEP Tools, Inc. (www.steptools.com) 
 */

FILE_DESCRIPTION(
/* description */ (''),
/* implementation_level */ '2;1');

FILE_NAME(
/* name */ 'Femur 2.step',
/* time_stamp */ '2026-09-01T13:41:06+04:00',
/* author */ (''),
/* organization */ (''),
/* preprocessor_version */ 'ST-DEVELOPER v20.1',
/* originating_system */ 'Autodesk Translation Framework v15.8.0.0',
/* authorisation */ '');

FILE_SCHEMA (('AUTOMOTIVE_DESIGN { 1 0 10303 214 3 1 1 }'));
ENDSEC;

DATA;
#10=MECHANICAL_DESIGN_GEOMETRIC_PRESENTATION_REPRESENTATION('',(#13),#584);
#11=SHAPE_REPRESENTATION_RELATIONSHIP('SRR','None',#591,#12);
#12=ADVANCED_BREP_SHAPE_REPRESENTATION('',(#14),#583);
#13=STYLED_ITEM('',(#600),#14);
#14=MANIFOLD_SOLID_BREP('Body1',#342);
#15=FACE_BOUND('',#67,.T.);
#16=FACE_BOUND('',#69,.T.);
#17=FACE_BOUND('',#70,.T.);
#18=FACE_BOUND('',#72,.T.);
#19=FACE_BOUND('',#73,.T.);
#20=FACE_BOUND('',#74,.T.);
#21=FACE_BOUND('',#76,.T.);
#22=FACE_BOUND('',#77,.T.);
#23=FACE_BOUND('',#84,.T.);
#24=FACE_BOUND('',#85,.T.);
#25=FACE_BOUND('',#86,.T.);
#26=FACE_BOUND('',#87,.T.);
#27=PLANE('',#362);
#28=PLANE('',#375);
#29=PLANE('',#379);
#30=PLANE('',#380);
#31=PLANE('',#381);
#32=PLANE('',#383);
#33=PLANE('',#384);
#34=PLANE('',#385);
#35=PLANE('',#388);
#36=PLANE('',#389);
#37=PLANE('',#390);
#38=FACE_OUTER_BOUND('',#57,.T.);
#39=FACE_OUTER_BOUND('',#58,.T.);
#40=FACE_OUTER_BOUND('',#59,.T.);
#41=FACE_OUTER_BOUND('',#60,.T.);
#42=FACE_OUTER_BOUND('',#61,.T.);
#43=FACE_OUTER_BOUND('',#62,.T.);
#44=FACE_OUTER_BOUND('',#63,.T.);
#45=FACE_OUTER_BOUND('',#64,.T.);
#46=FACE_OUTER_BOUND('',#65,.T.);
#47=FACE_OUTER_BOUND('',#66,.T.);
#48=FACE_OUTER_BOUND('',#68,.T.);
#49=FACE_OUTER_BOUND('',#71,.T.);
#50=FACE_OUTER_BOUND('',#75,.T.);
#51=FACE_OUTER_BOUND('',#78,.T.);
#52=FACE_OUTER_BOUND('',#79,.T.);
#53=FACE_OUTER_BOUND('',#80,.T.);
#54=FACE_OUTER_BOUND('',#81,.T.);
#55=FACE_OUTER_BOUND('',#82,.T.);
#56=FACE_OUTER_BOUND('',#83,.T.);
#57=EDGE_LOOP('',(#229,#230,#231,#232));
#58=EDGE_LOOP('',(#233,#234,#235,#236));
#59=EDGE_LOOP('',(#237,#238,#239,#240));
#60=EDGE_LOOP('',(#241,#242,#243,#244));
#61=EDGE_LOOP('',(#245,#246,#247,#248));
#62=EDGE_LOOP('',(#249,#250,#251,#252));
#63=EDGE_LOOP('',(#253,#254,#255,#256));
#64=EDGE_LOOP('',(#257));
#65=EDGE_LOOP('',(#258,#259,#260,#261));
#66=EDGE_LOOP('',(#262));
#67=EDGE_LOOP('',(#263));
#68=EDGE_LOOP('',(#264,#265,#266,#267));
#69=EDGE_LOOP('',(#268));
#70=EDGE_LOOP('',(#269));
#71=EDGE_LOOP('',(#270,#271,#272,#273,#274,#275));
#72=EDGE_LOOP('',(#276));
#73=EDGE_LOOP('',(#277));
#74=EDGE_LOOP('',(#278));
#75=EDGE_LOOP('',(#279,#280,#281,#282));
#76=EDGE_LOOP('',(#283));
#77=EDGE_LOOP('',(#284));
#78=EDGE_LOOP('',(#285,#286,#287,#288,#289));
#79=EDGE_LOOP('',(#290,#291,#292,#293));
#80=EDGE_LOOP('',(#294,#295,#296,#297));
#81=EDGE_LOOP('',(#298,#299,#300,#301));
#82=EDGE_LOOP('',(#302,#303,#304,#305,#306));
#83=EDGE_LOOP('',(#307,#308,#309,#310));
#84=EDGE_LOOP('',(#311));
#85=EDGE_LOOP('',(#312));
#86=EDGE_LOOP('',(#313));
#87=EDGE_LOOP('',(#314));
#88=LINE('',#495,#115);
#89=LINE('',#501,#116);
#90=LINE('',#506,#117);
#91=LINE('',#508,#118);
#92=LINE('',#510,#119);
#93=LINE('',#511,#120);
#94=LINE('',#516,#121);
#95=LINE('',#522,#122);
#96=LINE('',#528,#123);
#97=LINE('',#534,#124);
#98=LINE('',#541,#125);
#99=LINE('',#547,#126);
#100=LINE('',#548,#127);
#101=LINE('',#549,#128);
#102=LINE('',#553,#129);
#103=LINE('',#557,#130);
#104=LINE('',#559,#131);
#105=LINE('',#561,#132);
#106=LINE('',#562,#133);
#107=LINE('',#564,#134);
#108=LINE('',#565,#135);
#109=LINE('',#567,#136);
#110=LINE('',#570,#137);
#111=LINE('',#571,#138);
#112=LINE('',#575,#139);
#113=LINE('',#577,#140);
#114=LINE('',#578,#141);
#115=VECTOR('',#397,1.6);
#116=VECTOR('',#404,1.6);
#117=VECTOR('',#409,10.);
#118=VECTOR('',#410,10.);
#119=VECTOR('',#411,10.);
#120=VECTOR('',#412,10.);
#121=VECTOR('',#417,1.6);
#122=VECTOR('',#424,1.6);
#123=VECTOR('',#431,1.6);
#124=VECTOR('',#438,3.);
#125=VECTOR('',#447,4.);
#126=VECTOR('',#454,10.);
#127=VECTOR('',#455,10.);
#128=VECTOR('',#456,10.);
#129=VECTOR('',#459,10.);
#130=VECTOR('',#462,10.);
#131=VECTOR('',#463,10.);
#132=VECTOR('',#464,10.);
#133=VECTOR('',#465,10.);
#134=VECTOR('',#468,10.);
#135=VECTOR('',#469,10.);
#136=VECTOR('',#472,10.);
#137=VECTOR('',#475,10.);
#138=VECTOR('',#476,10.);
#139=VECTOR('',#481,10.);
#140=VECTOR('',#484,10.);
#141=VECTOR('',#485,10.);
#142=CIRCLE('',#357,1.6);
#143=CIRCLE('',#358,1.6);
#144=CIRCLE('',#360,1.6);
#145=CIRCLE('',#361,1.6);
#146=CIRCLE('',#364,1.6);
#147=CIRCLE('',#365,1.6);
#148=CIRCLE('',#367,1.6);
#149=CIRCLE('',#368,1.6);
#150=CIRCLE('',#370,1.6);
#151=CIRCLE('',#371,1.6);
#152=CIRCLE('',#373,3.);
#153=CIRCLE('',#374,3.);
#154=CIRCLE('',#377,4.);
#155=CIRCLE('',#378,4.);
#156=CIRCLE('',#382,15.);
#157=CIRCLE('',#387,15.);
#158=VERTEX_POINT('',#492);
#159=VERTEX_POINT('',#494);
#160=VERTEX_POINT('',#498);
#161=VERTEX_POINT('',#500);
#162=VERTEX_POINT('',#504);
#163=VERTEX_POINT('',#505);
#164=VERTEX_POINT('',#507);
#165=VERTEX_POINT('',#509);
#166=VERTEX_POINT('',#513);
#167=VERTEX_POINT('',#515);
#168=VERTEX_POINT('',#519);
#169=VERTEX_POINT('',#521);
#170=VERTEX_POINT('',#525);
#171=VERTEX_POINT('',#527);
#172=VERTEX_POINT('',#531);
#173=VERTEX_POINT('',#533);
#174=VERTEX_POINT('',#538);
#175=VERTEX_POINT('',#540);
#176=VERTEX_POINT('',#545);
#177=VERTEX_POINT('',#546);
#178=VERTEX_POINT('',#551);
#179=VERTEX_POINT('',#552);
#180=VERTEX_POINT('',#554);
#181=VERTEX_POINT('',#556);
#182=VERTEX_POINT('',#558);
#183=VERTEX_POINT('',#560);
#184=VERTEX_POINT('',#569);
#185=VERTEX_POINT('',#573);
#186=EDGE_CURVE('',#158,#158,#142,.T.);
#187=EDGE_CURVE('',#158,#159,#88,.T.);
#188=EDGE_CURVE('',#159,#159,#143,.T.);
#189=EDGE_CURVE('',#160,#160,#144,.T.);
#190=EDGE_CURVE('',#160,#161,#89,.T.);
#191=EDGE_CURVE('',#161,#161,#145,.T.);
#192=EDGE_CURVE('',#162,#163,#90,.T.);
#193=EDGE_CURVE('',#163,#164,#91,.T.);
#194=EDGE_CURVE('',#165,#164,#92,.T.);
#195=EDGE_CURVE('',#162,#165,#93,.T.);
#196=EDGE_CURVE('',#166,#166,#146,.T.);
#197=EDGE_CURVE('',#166,#167,#94,.T.);
#198=EDGE_CURVE('',#167,#167,#147,.T.);
#199=EDGE_CURVE('',#168,#168,#148,.T.);
#200=EDGE_CURVE('',#168,#169,#95,.T.);
#201=EDGE_CURVE('',#169,#169,#149,.T.);
#202=EDGE_CURVE('',#170,#170,#150,.T.);
#203=EDGE_CURVE('',#170,#171,#96,.T.);
#204=EDGE_CURVE('',#171,#171,#151,.T.);
#205=EDGE_CURVE('',#172,#172,#152,.T.);
#206=EDGE_CURVE('',#172,#173,#97,.T.);
#207=EDGE_CURVE('',#173,#173,#153,.T.);
#208=EDGE_CURVE('',#174,#174,#154,.T.);
#209=EDGE_CURVE('',#174,#175,#98,.T.);
#210=EDGE_CURVE('',#175,#175,#155,.T.);
#211=EDGE_CURVE('',#176,#177,#99,.T.);
#212=EDGE_CURVE('',#176,#164,#100,.T.);
#213=EDGE_CURVE('',#177,#163,#101,.T.);
#214=EDGE_CURVE('',#178,#179,#102,.T.);
#215=EDGE_CURVE('',#179,#180,#156,.T.);
#216=EDGE_CURVE('',#180,#181,#103,.T.);
#217=EDGE_CURVE('',#181,#182,#104,.T.);
#218=EDGE_CURVE('',#182,#183,#105,.T.);
#219=EDGE_CURVE('',#183,#178,#106,.T.);
#220=EDGE_CURVE('',#183,#165,#107,.T.);
#221=EDGE_CURVE('',#162,#182,#108,.T.);
#222=EDGE_CURVE('',#177,#181,#109,.T.);
#223=EDGE_CURVE('',#177,#184,#110,.T.);
#224=EDGE_CURVE('',#184,#180,#111,.T.);
#225=EDGE_CURVE('',#185,#184,#157,.T.);
#226=EDGE_CURVE('',#185,#179,#112,.T.);
#227=EDGE_CURVE('',#176,#185,#113,.T.);
#228=EDGE_CURVE('',#176,#178,#114,.T.);
#229=ORIENTED_EDGE('',*,*,#186,.F.);
#230=ORIENTED_EDGE('',*,*,#187,.T.);
#231=ORIENTED_EDGE('',*,*,#188,.F.);
#232=ORIENTED_EDGE('',*,*,#187,.F.);
#233=ORIENTED_EDGE('',*,*,#189,.F.);
#234=ORIENTED_EDGE('',*,*,#190,.T.);
#235=ORIENTED_EDGE('',*,*,#191,.F.);
#236=ORIENTED_EDGE('',*,*,#190,.F.);
#237=ORIENTED_EDGE('',*,*,#192,.T.);
#238=ORIENTED_EDGE('',*,*,#193,.T.);
#239=ORIENTED_EDGE('',*,*,#194,.F.);
#240=ORIENTED_EDGE('',*,*,#195,.F.);
#241=ORIENTED_EDGE('',*,*,#196,.F.);
#242=ORIENTED_EDGE('',*,*,#197,.T.);
#243=ORIENTED_EDGE('',*,*,#198,.F.);
#244=ORIENTED_EDGE('',*,*,#197,.F.);
#245=ORIENTED_EDGE('',*,*,#199,.F.);
#246=ORIENTED_EDGE('',*,*,#200,.T.);
#247=ORIENTED_EDGE('',*,*,#201,.F.);
#248=ORIENTED_EDGE('',*,*,#200,.F.);
#249=ORIENTED_EDGE('',*,*,#202,.F.);
#250=ORIENTED_EDGE('',*,*,#203,.T.);
#251=ORIENTED_EDGE('',*,*,#204,.F.);
#252=ORIENTED_EDGE('',*,*,#203,.F.);
#253=ORIENTED_EDGE('',*,*,#205,.F.);
#254=ORIENTED_EDGE('',*,*,#206,.T.);
#255=ORIENTED_EDGE('',*,*,#207,.F.);
#256=ORIENTED_EDGE('',*,*,#206,.F.);
#257=ORIENTED_EDGE('',*,*,#205,.T.);
#258=ORIENTED_EDGE('',*,*,#208,.F.);
#259=ORIENTED_EDGE('',*,*,#209,.T.);
#260=ORIENTED_EDGE('',*,*,#210,.F.);
#261=ORIENTED_EDGE('',*,*,#209,.F.);
#262=ORIENTED_EDGE('',*,*,#208,.T.);
#263=ORIENTED_EDGE('',*,*,#207,.T.);
#264=ORIENTED_EDGE('',*,*,#211,.F.);
#265=ORIENTED_EDGE('',*,*,#212,.T.);
#266=ORIENTED_EDGE('',*,*,#193,.F.);
#267=ORIENTED_EDGE('',*,*,#213,.F.);
#268=ORIENTED_EDGE('',*,*,#186,.T.);
#269=ORIENTED_EDGE('',*,*,#189,.T.);
#270=ORIENTED_EDGE('',*,*,#214,.T.);
#271=ORIENTED_EDGE('',*,*,#215,.T.);
#272=ORIENTED_EDGE('',*,*,#216,.T.);
#273=ORIENTED_EDGE('',*,*,#217,.T.);
#274=ORIENTED_EDGE('',*,*,#218,.T.);
#275=ORIENTED_EDGE('',*,*,#219,.T.);
#276=ORIENTED_EDGE('',*,*,#196,.T.);
#277=ORIENTED_EDGE('',*,*,#199,.T.);
#278=ORIENTED_EDGE('',*,*,#202,.T.);
#279=ORIENTED_EDGE('',*,*,#220,.F.);
#280=ORIENTED_EDGE('',*,*,#218,.F.);
#281=ORIENTED_EDGE('',*,*,#221,.F.);
#282=ORIENTED_EDGE('',*,*,#195,.T.);
#283=ORIENTED_EDGE('',*,*,#188,.T.);
#284=ORIENTED_EDGE('',*,*,#191,.T.);
#285=ORIENTED_EDGE('',*,*,#221,.T.);
#286=ORIENTED_EDGE('',*,*,#217,.F.);
#287=ORIENTED_EDGE('',*,*,#222,.F.);
#288=ORIENTED_EDGE('',*,*,#213,.T.);
#289=ORIENTED_EDGE('',*,*,#192,.F.);
#290=ORIENTED_EDGE('',*,*,#223,.F.);
#291=ORIENTED_EDGE('',*,*,#222,.T.);
#292=ORIENTED_EDGE('',*,*,#216,.F.);
#293=ORIENTED_EDGE('',*,*,#224,.F.);
#294=ORIENTED_EDGE('',*,*,#225,.T.);
#295=ORIENTED_EDGE('',*,*,#224,.T.);
#296=ORIENTED_EDGE('',*,*,#215,.F.);
#297=ORIENTED_EDGE('',*,*,#226,.F.);
#298=ORIENTED_EDGE('',*,*,#227,.T.);
#299=ORIENTED_EDGE('',*,*,#226,.T.);
#300=ORIENTED_EDGE('',*,*,#214,.F.);
#301=ORIENTED_EDGE('',*,*,#228,.F.);
#302=ORIENTED_EDGE('',*,*,#228,.T.);
#303=ORIENTED_EDGE('',*,*,#219,.F.);
#304=ORIENTED_EDGE('',*,*,#220,.T.);
#305=ORIENTED_EDGE('',*,*,#194,.T.);
#306=ORIENTED_EDGE('',*,*,#212,.F.);
#307=ORIENTED_EDGE('',*,*,#211,.T.);
#308=ORIENTED_EDGE('',*,*,#223,.T.);
#309=ORIENTED_EDGE('',*,*,#225,.F.);
#310=ORIENTED_EDGE('',*,*,#227,.F.);
#311=ORIENTED_EDGE('',*,*,#198,.T.);
#312=ORIENTED_EDGE('',*,*,#201,.T.);
#313=ORIENTED_EDGE('',*,*,#204,.T.);
#314=ORIENTED_EDGE('',*,*,#210,.T.);
#315=CYLINDRICAL_SURFACE('',#356,1.6);
#316=CYLINDRICAL_SURFACE('',#359,1.6);
#317=CYLINDRICAL_SURFACE('',#363,1.6);
#318=CYLINDRICAL_SURFACE('',#366,1.6);
#319=CYLINDRICAL_SURFACE('',#369,1.6);
#320=CYLINDRICAL_SURFACE('',#372,3.);
#321=CYLINDRICAL_SURFACE('',#376,4.);
#322=CYLINDRICAL_SURFACE('',#386,15.);
#323=ADVANCED_FACE('',(#38),#315,.F.);
#324=ADVANCED_FACE('',(#39),#316,.F.);
#325=ADVANCED_FACE('',(#40),#27,.T.);
#326=ADVANCED_FACE('',(#41),#317,.F.);
#327=ADVANCED_FACE('',(#42),#318,.F.);
#328=ADVANCED_FACE('',(#43),#319,.F.);
#329=ADVANCED_FACE('',(#44),#320,.T.);
#330=ADVANCED_FACE('',(#45),#28,.T.);
#331=ADVANCED_FACE('',(#46),#321,.T.);
#332=ADVANCED_FACE('',(#47,#15),#29,.F.);
#333=ADVANCED_FACE('',(#48,#16,#17),#30,.T.);
#334=ADVANCED_FACE('',(#49,#18,#19,#20),#31,.T.);
#335=ADVANCED_FACE('',(#50,#21,#22),#32,.T.);
#336=ADVANCED_FACE('',(#51),#33,.T.);
#337=ADVANCED_FACE('',(#52),#34,.T.);
#338=ADVANCED_FACE('',(#53),#322,.T.);
#339=ADVANCED_FACE('',(#54),#35,.T.);
#340=ADVANCED_FACE('',(#55),#36,.T.);
#341=ADVANCED_FACE('',(#56,#23,#24,#25,#26),#37,.F.);
#342=CLOSED_SHELL('',(#323,#324,#325,#326,#327,#328,#329,#330,#331,#332,
#333,#334,#335,#336,#337,#338,#339,#340,#341));
#343=DERIVED_UNIT_ELEMENT(#345,1.);
#344=DERIVED_UNIT_ELEMENT(#586,-3.);
#345=(
MASS_UNIT()
NAMED_UNIT(*)
SI_UNIT(.KILO.,.GRAM.)
);
#346=DERIVED_UNIT((#343,#344));
#347=MEASURE_REPRESENTATION_ITEM('density measure',
POSITIVE_RATIO_MEASURE(7850.),#346);
#348=PROPERTY_DEFINITION_REPRESENTATION(#353,#350);
#349=PROPERTY_DEFINITION_REPRESENTATION(#354,#351);
#350=REPRESENTATION('material name',(#352),#583);
#351=REPRESENTATION('density',(#347),#583);
#352=DESCRIPTIVE_REPRESENTATION_ITEM('Steel','Steel');
#353=PROPERTY_DEFINITION('material property','material name',#593);
#354=PROPERTY_DEFINITION('material property','density of part',#593);
#355=AXIS2_PLACEMENT_3D('',#490,#391,#392);
#356=AXIS2_PLACEMENT_3D('',#491,#393,#394);
#357=AXIS2_PLACEMENT_3D('',#493,#395,#396);
#358=AXIS2_PLACEMENT_3D('',#496,#398,#399);
#359=AXIS2_PLACEMENT_3D('',#497,#400,#401);
#360=AXIS2_PLACEMENT_3D('',#499,#402,#403);
#361=AXIS2_PLACEMENT_3D('',#502,#405,#406);
#362=AXIS2_PLACEMENT_3D('',#503,#407,#408);
#363=AXIS2_PLACEMENT_3D('',#512,#413,#414);
#364=AXIS2_PLACEMENT_3D('',#514,#415,#416);
#365=AXIS2_PLACEMENT_3D('',#517,#418,#419);
#366=AXIS2_PLACEMENT_3D('',#518,#420,#421);
#367=AXIS2_PLACEMENT_3D('',#520,#422,#423);
#368=AXIS2_PLACEMENT_3D('',#523,#425,#426);
#369=AXIS2_PLACEMENT_3D('',#524,#427,#428);
#370=AXIS2_PLACEMENT_3D('',#526,#429,#430);
#371=AXIS2_PLACEMENT_3D('',#529,#432,#433);
#372=AXIS2_PLACEMENT_3D('',#530,#434,#435);
#373=AXIS2_PLACEMENT_3D('',#532,#436,#437);
#374=AXIS2_PLACEMENT_3D('',#535,#439,#440);
#375=AXIS2_PLACEMENT_3D('',#536,#441,#442);
#376=AXIS2_PLACEMENT_3D('',#537,#443,#444);
#377=AXIS2_PLACEMENT_3D('',#539,#445,#446);
#378=AXIS2_PLACEMENT_3D('',#542,#448,#449);
#379=AXIS2_PLACEMENT_3D('',#543,#450,#451);
#380=AXIS2_PLACEMENT_3D('',#544,#452,#453);
#381=AXIS2_PLACEMENT_3D('',#550,#457,#458);
#382=AXIS2_PLACEMENT_3D('',#555,#460,#461);
#383=AXIS2_PLACEMENT_3D('',#563,#466,#467);
#384=AXIS2_PLACEMENT_3D('',#566,#470,#471);
#385=AXIS2_PLACEMENT_3D('',#568,#473,#474);
#386=AXIS2_PLACEMENT_3D('',#572,#477,#478);
#387=AXIS2_PLACEMENT_3D('',#574,#479,#480);
#388=AXIS2_PLACEMENT_3D('',#576,#482,#483);
#389=AXIS2_PLACEMENT_3D('',#579,#486,#487);
#390=AXIS2_PLACEMENT_3D('',#580,#488,#489);
#391=DIRECTION('axis',(0.,0.,1.));
#392=DIRECTION('refdir',(1.,0.,0.));
#393=DIRECTION('center_axis',(1.,0.,0.));
#394=DIRECTION('ref_axis',(0.,0.,1.));
#395=DIRECTION('center_axis',(1.,0.,0.));
#396=DIRECTION('ref_axis',(0.,0.,1.));
#397=DIRECTION('',(1.,0.,0.));
#398=DIRECTION('center_axis',(-1.,0.,0.));
#399=DIRECTION('ref_axis',(0.,0.,1.));
#400=DIRECTION('center_axis',(1.,0.,0.));
#401=DIRECTION('ref_axis',(0.,0.,1.));
#402=DIRECTION('center_axis',(1.,0.,0.));
#403=DIRECTION('ref_axis',(0.,0.,1.));
#404=DIRECTION('',(1.,0.,0.));
#405=DIRECTION('center_axis',(-1.,0.,0.));
#406=DIRECTION('ref_axis',(0.,0.,1.));
#407=DIRECTION('center_axis',(-0.357393086102742,-0.93395405775978,0.));
#408=DIRECTION('ref_axis',(-0.93395405775978,0.357393086102742,0.));
#409=DIRECTION('',(-0.93395405775978,0.357393086102742,0.));
#410=DIRECTION('',(0.,0.,-1.));
#411=DIRECTION('',(-0.93395405775978,0.357393086102742,0.));
#412=DIRECTION('',(0.,0.,-1.));
#413=DIRECTION('center_axis',(0.,-1.,0.));
#414=DIRECTION('ref_axis',(-1.,0.,0.));
#415=DIRECTION('center_axis',(0.,-1.,0.));
#416=DIRECTION('ref_axis',(-1.,0.,0.));
#417=DIRECTION('',(0.,-1.,0.));
#418=DIRECTION('center_axis',(0.,1.,0.));
#419=DIRECTION('ref_axis',(-1.,0.,0.));
#420=DIRECTION('center_axis',(0.,-1.,0.));
#421=DIRECTION('ref_axis',(-1.,0.,0.));
#422=DIRECTION('center_axis',(0.,-1.,0.));
#423=DIRECTION('ref_axis',(-1.,0.,0.));
#424=DIRECTION('',(0.,-1.,0.));
#425=DIRECTION('center_axis',(0.,1.,0.));
#426=DIRECTION('ref_axis',(-1.,0.,0.));
#427=DIRECTION('center_axis',(0.,-1.,0.));
#428=DIRECTION('ref_axis',(-1.,0.,0.));
#429=DIRECTION('center_axis',(0.,-1.,0.));
#430=DIRECTION('ref_axis',(-1.,0.,0.));
#431=DIRECTION('',(0.,-1.,0.));
#432=DIRECTION('center_axis',(0.,1.,0.));
#433=DIRECTION('ref_axis',(-1.,0.,0.));
#434=DIRECTION('center_axis',(0.,-1.,0.));
#435=DIRECTION('ref_axis',(1.,0.,0.));
#436=DIRECTION('center_axis',(0.,-1.,0.));
#437=DIRECTION('ref_axis',(1.,0.,0.));
#438=DIRECTION('',(0.,1.,0.));
#439=DIRECTION('center_axis',(0.,1.,0.));
#440=DIRECTION('ref_axis',(1.,0.,0.));
#441=DIRECTION('center_axis',(0.,-1.,0.));
#442=DIRECTION('ref_axis',(1.,0.,0.));
#443=DIRECTION('center_axis',(0.,-1.,0.));
#444=DIRECTION('ref_axis',(-1.,0.,0.));
#445=DIRECTION('center_axis',(0.,-1.,0.));
#446=DIRECTION('ref_axis',(-1.,0.,0.));
#447=DIRECTION('',(0.,1.,0.));
#448=DIRECTION('center_axis',(0.,1.,0.));
#449=DIRECTION('ref_axis',(-1.,0.,0.));
#450=DIRECTION('center_axis',(0.,1.,0.));
#451=DIRECTION('ref_axis',(-1.,0.,0.));
#452=DIRECTION('center_axis',(-1.,0.,0.));
#453=DIRECTION('ref_axis',(0.,0.,-1.));
#454=DIRECTION('',(0.,0.,1.));
#455=DIRECTION('',(0.,-1.,0.));
#456=DIRECTION('',(0.,-1.,0.));
#457=DIRECTION('center_axis',(0.,1.,0.));
#458=DIRECTION('ref_axis',(1.,0.,0.));
#459=DIRECTION('',(-0.99744550212315,0.,0.0714315777110982));
#460=DIRECTION('center_axis',(0.,1.,0.));
#461=DIRECTION('ref_axis',(1.,0.,0.));
#462=DIRECTION('',(0.99744550212315,0.,0.0714315777110982));
#463=DIRECTION('',(1.,0.,0.));
#464=DIRECTION('',(0.,0.,-1.));
#465=DIRECTION('',(-1.,0.,0.));
#466=DIRECTION('center_axis',(1.,0.,0.));
#467=DIRECTION('ref_axis',(0.,0.,-1.));
#468=DIRECTION('',(0.,-1.,0.));
#469=DIRECTION('',(0.,1.,0.));
#470=DIRECTION('center_axis',(0.,0.,1.));
#471=DIRECTION('ref_axis',(1.,0.,0.));
#472=DIRECTION('',(0.,1.,0.));
#473=DIRECTION('center_axis',(-0.0714315777110982,0.,0.99744550212315));
#474=DIRECTION('ref_axis',(0.99744550212315,0.,0.0714315777110982));
#475=DIRECTION('',(-0.99744550212315,0.,-0.0714315777110982));
#476=DIRECTION('',(0.,1.,0.));
#477=DIRECTION('center_axis',(0.,1.,0.));
#478=DIRECTION('ref_axis',(-1.,0.,-1.22464679914735E-16));
#479=DIRECTION('center_axis',(0.,1.,0.));
#480=DIRECTION('ref_axis',(1.,0.,0.));
#481=DIRECTION('',(0.,1.,0.));
#482=DIRECTION('center_axis',(-0.0714315777110982,0.,-0.99744550212315));
#483=DIRECTION('ref_axis',(-0.99744550212315,0.,0.0714315777110982));
#484=DIRECTION('',(-0.99744550212315,0.,0.0714315777110982));
#485=DIRECTION('',(0.,1.,0.));
#486=DIRECTION('center_axis',(0.,0.,-1.));
#487=DIRECTION('ref_axis',(-1.,0.,0.));
#488=DIRECTION('center_axis',(0.,1.,0.));
#489=DIRECTION('ref_axis',(1.,0.,0.));
#490=CARTESIAN_POINT('',(0.,0.,0.));
#491=CARTESIAN_POINT('Origin',(-3.75,-8.1,-10.));
#492=CARTESIAN_POINT('',(-3.75,-8.1,-11.6));
#493=CARTESIAN_POINT('Origin',(-3.75,-8.1,-10.));
#494=CARTESIAN_POINT('',(3.75,-8.1,-11.6));
#495=CARTESIAN_POINT('',(-3.75,-8.1,-11.6));
#496=CARTESIAN_POINT('Origin',(3.75,-8.1,-10.));
#497=CARTESIAN_POINT('Origin',(-3.75,-8.1,10.));
#498=CARTESIAN_POINT('',(-3.75,-8.1,8.4));
#499=CARTESIAN_POINT('Origin',(-3.75,-8.1,10.));
#500=CARTESIAN_POINT('',(3.75,-8.1,8.4));
#501=CARTESIAN_POINT('',(-3.75,-8.1,8.4));
#502=CARTESIAN_POINT('Origin',(3.75,-8.1,10.));
#503=CARTESIAN_POINT('Origin',(3.75,-17.07,19.5));
#504=CARTESIAN_POINT('',(3.75,-17.07,19.5));
#505=CARTESIAN_POINT('',(-3.75,-14.2,19.5));
#506=CARTESIAN_POINT('',(3.75,-17.07,19.5));
#507=CARTESIAN_POINT('',(-3.75,-14.2,-19.5));
#508=CARTESIAN_POINT('',(-3.75,-14.2,19.5));
#509=CARTESIAN_POINT('',(3.75,-17.07,-19.5));
#510=CARTESIAN_POINT('',(3.75,-17.07,-19.5));
#511=CARTESIAN_POINT('',(3.75,-17.07,19.5));
#512=CARTESIAN_POINT('Origin',(-20.7416415534142,6.,-10.));
#513=CARTESIAN_POINT('',(-19.1416415534142,6.,-10.));
#514=CARTESIAN_POINT('Origin',(-20.7416415534142,6.,-10.));
#515=CARTESIAN_POINT('',(-19.1416415534142,0.,-10.));
#516=CARTESIAN_POINT('',(-19.1416415534142,6.,-10.));
#517=CARTESIAN_POINT('Origin',(-20.7416415534142,0.,-10.));
#518=CARTESIAN_POINT('Origin',(-20.7416415534142,6.,2.22044604925031E-15));
#519=CARTESIAN_POINT('',(-19.1416415534142,6.,2.02450256138674E-15));
#520=CARTESIAN_POINT('Origin',(-20.7416415534142,6.,2.22044604925031E-15));
#521=CARTESIAN_POINT('',(-19.1416415534142,0.,2.02450256138674E-15));
#522=CARTESIAN_POINT('',(-19.1416415534142,6.,2.41638953711389E-15));
#523=CARTESIAN_POINT('Origin',(-20.7416415534142,0.,2.22044604925031E-15));
#524=CARTESIAN_POINT('Origin',(-20.7416415534142,6.,10.));
#525=CARTESIAN_POINT('',(-19.1416415534142,6.,10.));
#526=CARTESIAN_POINT('Origin',(-20.7416415534142,6.,10.));
#527=CARTESIAN_POINT('',(-19.1416415534142,0.,10.));
#528=CARTESIAN_POINT('',(-19.1416415534142,6.,10.));
#529=CARTESIAN_POINT('Origin',(-20.7416415534142,0.,10.));
#530=CARTESIAN_POINT('Origin',(-66.05,-3.,0.));
#531=CARTESIAN_POINT('',(-69.05,-9.,-3.67394039744206E-16));
#532=CARTESIAN_POINT('Origin',(-66.05,-9.,0.));
#533=CARTESIAN_POINT('',(-69.05,-3.,-3.67394039744206E-16));
#534=CARTESIAN_POINT('',(-69.05,-3.,-3.67394039744206E-16));
#535=CARTESIAN_POINT('Origin',(-66.05,-3.,0.));
#536=CARTESIAN_POINT('Origin',(-66.05,-9.,0.));
#537=CARTESIAN_POINT('Origin',(-66.05,6.,0.));
#538=CARTESIAN_POINT('',(-62.05,-3.,-4.89858719658942E-16));
#539=CARTESIAN_POINT('Origin',(-66.05,-3.,0.));
#540=CARTESIAN_POINT('',(-62.05,0.,-4.89858719658942E-16));
#541=CARTESIAN_POINT('',(-62.05,6.,4.89858719658942E-16));
#542=CARTESIAN_POINT('Origin',(-66.05,0.,0.));
#543=CARTESIAN_POINT('Origin',(-66.05,-3.,0.));
#544=CARTESIAN_POINT('Origin',(-3.75,6.,19.5));
#545=CARTESIAN_POINT('',(-3.75,0.,-19.5));
#546=CARTESIAN_POINT('',(-3.75,0.,19.5));
#547=CARTESIAN_POINT('',(-3.75,0.,9.75));
#548=CARTESIAN_POINT('',(-3.75,6.,-19.5));
#549=CARTESIAN_POINT('',(-3.75,6.,19.5));
#550=CARTESIAN_POINT('Origin',(-38.65,6.,0.));
#551=CARTESIAN_POINT('',(-3.75,6.,-19.5));
#552=CARTESIAN_POINT('',(-67.1214736656665,6.,-14.9616825318473));
#553=CARTESIAN_POINT('',(-3.75,6.,-19.5));
#554=CARTESIAN_POINT('',(-67.1214736656665,6.,14.9616825318473));
#555=CARTESIAN_POINT('Origin',(-66.05,6.,0.));
#556=CARTESIAN_POINT('',(-3.75,6.,19.5));
#557=CARTESIAN_POINT('',(-3.75,6.,19.5));
#558=CARTESIAN_POINT('',(3.75,6.,19.5));
#559=CARTESIAN_POINT('',(3.75,6.,19.5));
#560=CARTESIAN_POINT('',(3.75,6.,-19.5));
#561=CARTESIAN_POINT('',(3.75,6.,-19.5));
#562=CARTESIAN_POINT('',(-3.75,6.,-19.5));
#563=CARTESIAN_POINT('Origin',(3.75,0.,19.5));
#564=CARTESIAN_POINT('',(3.75,6.,-19.5));
#565=CARTESIAN_POINT('',(3.75,0.,19.5));
#566=CARTESIAN_POINT('Origin',(-3.75,0.,19.5));
#567=CARTESIAN_POINT('',(-3.75,0.,19.5));
#568=CARTESIAN_POINT('Origin',(-67.1214736656665,0.,14.9616825318473));
#569=CARTESIAN_POINT('',(-67.1214736656665,0.,14.9616825318473));
#570=CARTESIAN_POINT('',(-3.75,0.,19.5));
#571=CARTESIAN_POINT('',(-67.1214736656665,0.,14.9616825318473));
#572=CARTESIAN_POINT('Origin',(-66.05,0.,0.));
#573=CARTESIAN_POINT('',(-67.1214736656665,0.,-14.9616825318473));
#574=CARTESIAN_POINT('Origin',(-66.05,0.,0.));
#575=CARTESIAN_POINT('',(-67.1214736656665,0.,-14.9616825318473));
#576=CARTESIAN_POINT('Origin',(-3.75,0.,-19.5));
#577=CARTESIAN_POINT('',(-3.75,0.,-19.5));
#578=CARTESIAN_POINT('',(-3.75,0.,-19.5));
#579=CARTESIAN_POINT('Origin',(3.75,0.,-19.5));
#580=CARTESIAN_POINT('Origin',(-38.65,0.,0.));
#581=UNCERTAINTY_MEASURE_WITH_UNIT(LENGTH_MEASURE(0.01),#585,
'DISTANCE_ACCURACY_VALUE',
'Maximum model space distance between geometric entities at asserted c
onnectivities');
#582=UNCERTAINTY_MEASURE_WITH_UNIT(LENGTH_MEASURE(0.01),#585,
'DISTANCE_ACCURACY_VALUE',
'Maximum model space distance between geometric entities at asserted c
onnectivities');
#583=(
GEOMETRIC_REPRESENTATION_CONTEXT(3)
GLOBAL_UNCERTAINTY_ASSIGNED_CONTEXT((#581))
GLOBAL_UNIT_ASSIGNED_CONTEXT((#585,#587,#588))
REPRESENTATION_CONTEXT('','3D')
);
#584=(
GEOMETRIC_REPRESENTATION_CONTEXT(3)
GLOBAL_UNCERTAINTY_ASSIGNED_CONTEXT((#582))
GLOBAL_UNIT_ASSIGNED_CONTEXT((#585,#587,#588))
REPRESENTATION_CONTEXT('','3D')
);
#585=(
LENGTH_UNIT()
NAMED_UNIT(*)
SI_UNIT(.MILLI.,.METRE.)
);
#586=(
LENGTH_UNIT()
NAMED_UNIT(*)
SI_UNIT($,.METRE.)
);
#587=(
NAMED_UNIT(*)
PLANE_ANGLE_UNIT()
SI_UNIT($,.RADIAN.)
);
#588=(
NAMED_UNIT(*)
SI_UNIT($,.STERADIAN.)
SOLID_ANGLE_UNIT()
);
#589=SHAPE_DEFINITION_REPRESENTATION(#590,#591);
#590=PRODUCT_DEFINITION_SHAPE('',$,#593);
#591=SHAPE_REPRESENTATION('',(#355),#583);
#592=PRODUCT_DEFINITION_CONTEXT('part definition',#597,'design');
#593=PRODUCT_DEFINITION('Femur(2)','Femur(2) v2',#594,#592);
#594=PRODUCT_DEFINITION_FORMATION('',$,#599);
#595=PRODUCT_RELATED_PRODUCT_CATEGORY('Femur(2) v2','Femur(2) v2',(#599));
#596=APPLICATION_PROTOCOL_DEFINITION('international standard',
'automotive_design',2009,#597);
#597=APPLICATION_CONTEXT(
'Core Data for Automotive Mechanical Design Process');
#598=PRODUCT_CONTEXT('part definition',#597,'mechanical');
#599=PRODUCT('Femur(2)','Femur(2) v2',$,(#598));
#600=PRESENTATION_STYLE_ASSIGNMENT((#601));
#601=SURFACE_STYLE_USAGE(.BOTH.,#602);
#602=SURFACE_SIDE_STYLE('',(#603));
#603=SURFACE_STYLE_FILL_AREA(#604);
#604=FILL_AREA_STYLE('Steel - Satin',(#605));
#605=FILL_AREA_STYLE_COLOUR('Steel - Satin',#606);
#606=COLOUR_RGB('Steel - Satin',0.627450980392157,0.627450980392157,0.627450980392157);
ENDSEC;
END-ISO-10303-21;
