ISO-10303-21;
HEADER;
/* Generated by software containing ST-Developer
 * from STEP Tools, Inc. (www.steptools.com) 
 */

FILE_DESCRIPTION(
/* description */ (''),
/* implementation_level */ '2;1');

FILE_NAME(
/* name */ 'Body Top.step',
/* time_stamp */ '2026-09-01T13:55:31+04:00',
/* author */ (''),
/* organization */ (''),
/* preprocessor_version */ 'ST-DEVELOPER v20.1',
/* originating_system */ 'Autodesk Translation Framework v15.8.0.0',
/* authorisation */ '');

FILE_SCHEMA (('AUTOMOTIVE_DESIGN { 1 0 10303 214 3 1 1 }'));
ENDSEC;

DATA;
#10=MECHANICAL_DESIGN_GEOMETRIC_PRESENTATION_REPRESENTATION('',(#13),#1047);
#11=SHAPE_REPRESENTATION_RELATIONSHIP('SRR','None',#1054,#12);
#12=ADVANCED_BREP_SHAPE_REPRESENTATION('',(#14),#1046);
#13=STYLED_ITEM('',(#1063),#14);
#14=MANIFOLD_SOLID_BREP('Body1',#635);
#15=FACE_BOUND('',#116,.T.);
#16=FACE_BOUND('',#117,.T.);
#17=FACE_BOUND('',#118,.T.);
#18=FACE_BOUND('',#119,.T.);
#19=FACE_BOUND('',#120,.T.);
#20=FACE_BOUND('',#121,.T.);
#21=FACE_BOUND('',#122,.T.);
#22=FACE_BOUND('',#123,.T.);
#23=FACE_BOUND('',#124,.T.);
#24=FACE_BOUND('',#125,.T.);
#25=FACE_BOUND('',#126,.T.);
#26=FACE_BOUND('',#127,.T.);
#27=FACE_BOUND('',#129,.T.);
#28=FACE_BOUND('',#130,.T.);
#29=FACE_BOUND('',#131,.T.);
#30=FACE_BOUND('',#132,.T.);
#31=FACE_BOUND('',#133,.T.);
#32=FACE_BOUND('',#134,.T.);
#33=FACE_BOUND('',#135,.T.);
#34=FACE_BOUND('',#136,.T.);
#35=FACE_BOUND('',#137,.T.);
#36=FACE_BOUND('',#138,.T.);
#37=FACE_BOUND('',#139,.T.);
#38=FACE_BOUND('',#140,.T.);
#39=PLANE('',#685);
#40=PLANE('',#686);
#41=PLANE('',#687);
#42=PLANE('',#688);
#43=PLANE('',#689);
#44=PLANE('',#690);
#45=PLANE('',#691);
#46=PLANE('',#692);
#47=PLANE('',#693);
#48=PLANE('',#694);
#49=PLANE('',#695);
#50=PLANE('',#696);
#51=PLANE('',#697);
#52=PLANE('',#698);
#53=PLANE('',#699);
#54=PLANE('',#700);
#55=PLANE('',#701);
#56=PLANE('',#702);
#57=FACE_OUTER_BOUND('',#87,.T.);
#58=FACE_OUTER_BOUND('',#88,.T.);
#59=FACE_OUTER_BOUND('',#89,.T.);
#60=FACE_OUTER_BOUND('',#90,.T.);
#61=FACE_OUTER_BOUND('',#91,.T.);
#62=FACE_OUTER_BOUND('',#92,.T.);
#63=FACE_OUTER_BOUND('',#93,.T.);
#64=FACE_OUTER_BOUND('',#94,.T.);
#65=FACE_OUTER_BOUND('',#95,.T.);
#66=FACE_OUTER_BOUND('',#96,.T.);
#67=FACE_OUTER_BOUND('',#97,.T.);
#68=FACE_OUTER_BOUND('',#98,.T.);
#69=FACE_OUTER_BOUND('',#99,.T.);
#70=FACE_OUTER_BOUND('',#100,.T.);
#71=FACE_OUTER_BOUND('',#101,.T.);
#72=FACE_OUTER_BOUND('',#102,.T.);
#73=FACE_OUTER_BOUND('',#103,.T.);
#74=FACE_OUTER_BOUND('',#104,.T.);
#75=FACE_OUTER_BOUND('',#105,.T.);
#76=FACE_OUTER_BOUND('',#106,.T.);
#77=FACE_OUTER_BOUND('',#107,.T.);
#78=FACE_OUTER_BOUND('',#108,.T.);
#79=FACE_OUTER_BOUND('',#109,.T.);
#80=FACE_OUTER_BOUND('',#110,.T.);
#81=FACE_OUTER_BOUND('',#111,.T.);
#82=FACE_OUTER_BOUND('',#112,.T.);
#83=FACE_OUTER_BOUND('',#113,.T.);
#84=FACE_OUTER_BOUND('',#114,.T.);
#85=FACE_OUTER_BOUND('',#115,.T.);
#86=FACE_OUTER_BOUND('',#128,.T.);
#87=EDGE_LOOP('',(#425,#426,#427,#428));
#88=EDGE_LOOP('',(#429,#430,#431,#432));
#89=EDGE_LOOP('',(#433,#434,#435,#436));
#90=EDGE_LOOP('',(#437,#438,#439,#440));
#91=EDGE_LOOP('',(#441,#442,#443,#444));
#92=EDGE_LOOP('',(#445,#446,#447,#448));
#93=EDGE_LOOP('',(#449,#450,#451,#452));
#94=EDGE_LOOP('',(#453,#454,#455,#456));
#95=EDGE_LOOP('',(#457,#458,#459,#460));
#96=EDGE_LOOP('',(#461,#462,#463,#464));
#97=EDGE_LOOP('',(#465,#466,#467,#468));
#98=EDGE_LOOP('',(#469,#470,#471,#472));
#99=EDGE_LOOP('',(#473,#474,#475,#476));
#100=EDGE_LOOP('',(#477,#478,#479,#480));
#101=EDGE_LOOP('',(#481,#482,#483,#484));
#102=EDGE_LOOP('',(#485,#486,#487,#488));
#103=EDGE_LOOP('',(#489,#490,#491,#492));
#104=EDGE_LOOP('',(#493,#494,#495,#496));
#105=EDGE_LOOP('',(#497,#498,#499,#500));
#106=EDGE_LOOP('',(#501,#502,#503,#504));
#107=EDGE_LOOP('',(#505,#506,#507,#508));
#108=EDGE_LOOP('',(#509,#510,#511,#512));
#109=EDGE_LOOP('',(#513,#514,#515,#516));
#110=EDGE_LOOP('',(#517,#518,#519,#520));
#111=EDGE_LOOP('',(#521,#522,#523,#524));
#112=EDGE_LOOP('',(#525,#526,#527,#528));
#113=EDGE_LOOP('',(#529,#530,#531,#532));
#114=EDGE_LOOP('',(#533,#534,#535,#536));
#115=EDGE_LOOP('',(#537,#538,#539,#540,#541,#542,#543,#544,#545,#546,#547,
#548,#549,#550,#551,#552));
#116=EDGE_LOOP('',(#553));
#117=EDGE_LOOP('',(#554));
#118=EDGE_LOOP('',(#555));
#119=EDGE_LOOP('',(#556));
#120=EDGE_LOOP('',(#557));
#121=EDGE_LOOP('',(#558));
#122=EDGE_LOOP('',(#559));
#123=EDGE_LOOP('',(#560));
#124=EDGE_LOOP('',(#561));
#125=EDGE_LOOP('',(#562));
#126=EDGE_LOOP('',(#563));
#127=EDGE_LOOP('',(#564));
#128=EDGE_LOOP('',(#565,#566,#567,#568,#569,#570,#571,#572,#573,#574,#575,
#576,#577,#578,#579,#580));
#129=EDGE_LOOP('',(#581));
#130=EDGE_LOOP('',(#582));
#131=EDGE_LOOP('',(#583));
#132=EDGE_LOOP('',(#584));
#133=EDGE_LOOP('',(#585));
#134=EDGE_LOOP('',(#586));
#135=EDGE_LOOP('',(#587));
#136=EDGE_LOOP('',(#588));
#137=EDGE_LOOP('',(#589));
#138=EDGE_LOOP('',(#590));
#139=EDGE_LOOP('',(#591));
#140=EDGE_LOOP('',(#592));
#141=LINE('',#878,#201);
#142=LINE('',#884,#202);
#143=LINE('',#890,#203);
#144=LINE('',#896,#204);
#145=LINE('',#902,#205);
#146=LINE('',#908,#206);
#147=LINE('',#914,#207);
#148=LINE('',#920,#208);
#149=LINE('',#926,#209);
#150=LINE('',#932,#210);
#151=LINE('',#938,#211);
#152=LINE('',#944,#212);
#153=LINE('',#949,#213);
#154=LINE('',#951,#214);
#155=LINE('',#953,#215);
#156=LINE('',#954,#216);
#157=LINE('',#957,#217);
#158=LINE('',#959,#218);
#159=LINE('',#960,#219);
#160=LINE('',#963,#220);
#161=LINE('',#965,#221);
#162=LINE('',#966,#222);
#163=LINE('',#969,#223);
#164=LINE('',#971,#224);
#165=LINE('',#972,#225);
#166=LINE('',#975,#226);
#167=LINE('',#977,#227);
#168=LINE('',#978,#228);
#169=LINE('',#981,#229);
#170=LINE('',#983,#230);
#171=LINE('',#984,#231);
#172=LINE('',#987,#232);
#173=LINE('',#989,#233);
#174=LINE('',#990,#234);
#175=LINE('',#993,#235);
#176=LINE('',#995,#236);
#177=LINE('',#996,#237);
#178=LINE('',#999,#238);
#179=LINE('',#1001,#239);
#180=LINE('',#1002,#240);
#181=LINE('',#1005,#241);
#182=LINE('',#1007,#242);
#183=LINE('',#1008,#243);
#184=LINE('',#1011,#244);
#185=LINE('',#1013,#245);
#186=LINE('',#1014,#246);
#187=LINE('',#1017,#247);
#188=LINE('',#1019,#248);
#189=LINE('',#1020,#249);
#190=LINE('',#1023,#250);
#191=LINE('',#1025,#251);
#192=LINE('',#1026,#252);
#193=LINE('',#1029,#253);
#194=LINE('',#1031,#254);
#195=LINE('',#1032,#255);
#196=LINE('',#1035,#256);
#197=LINE('',#1037,#257);
#198=LINE('',#1038,#258);
#199=LINE('',#1040,#259);
#200=LINE('',#1041,#260);
#201=VECTOR('',#709,1.6);
#202=VECTOR('',#716,1.6);
#203=VECTOR('',#723,1.6);
#204=VECTOR('',#730,1.6);
#205=VECTOR('',#737,1.6);
#206=VECTOR('',#744,1.6);
#207=VECTOR('',#751,1.6);
#208=VECTOR('',#758,1.6);
#209=VECTOR('',#765,1.6);
#210=VECTOR('',#772,1.6);
#211=VECTOR('',#779,1.6);
#212=VECTOR('',#786,1.6);
#213=VECTOR('',#791,10.);
#214=VECTOR('',#792,10.);
#215=VECTOR('',#793,10.);
#216=VECTOR('',#794,10.);
#217=VECTOR('',#797,10.);
#218=VECTOR('',#798,10.);
#219=VECTOR('',#799,10.);
#220=VECTOR('',#802,10.);
#221=VECTOR('',#803,10.);
#222=VECTOR('',#804,10.);
#223=VECTOR('',#807,10.);
#224=VECTOR('',#808,10.);
#225=VECTOR('',#809,10.);
#226=VECTOR('',#812,10.);
#227=VECTOR('',#813,10.);
#228=VECTOR('',#814,10.);
#229=VECTOR('',#817,10.);
#230=VECTOR('',#818,10.);
#231=VECTOR('',#819,10.);
#232=VECTOR('',#822,10.);
#233=VECTOR('',#823,10.);
#234=VECTOR('',#824,10.);
#235=VECTOR('',#827,10.);
#236=VECTOR('',#828,10.);
#237=VECTOR('',#829,10.);
#238=VECTOR('',#832,10.);
#239=VECTOR('',#833,10.);
#240=VECTOR('',#834,10.);
#241=VECTOR('',#837,10.);
#242=VECTOR('',#838,10.);
#243=VECTOR('',#839,10.);
#244=VECTOR('',#842,10.);
#245=VECTOR('',#843,10.);
#246=VECTOR('',#844,10.);
#247=VECTOR('',#847,10.);
#248=VECTOR('',#848,10.);
#249=VECTOR('',#849,10.);
#250=VECTOR('',#852,10.);
#251=VECTOR('',#853,10.);
#252=VECTOR('',#854,10.);
#253=VECTOR('',#857,10.);
#254=VECTOR('',#858,10.);
#255=VECTOR('',#859,10.);
#256=VECTOR('',#862,10.);
#257=VECTOR('',#863,10.);
#258=VECTOR('',#864,10.);
#259=VECTOR('',#867,10.);
#260=VECTOR('',#868,10.);
#261=CIRCLE('',#650,1.6);
#262=CIRCLE('',#651,1.6);
#263=CIRCLE('',#653,1.6);
#264=CIRCLE('',#654,1.6);
#265=CIRCLE('',#656,1.6);
#266=CIRCLE('',#657,1.6);
#267=CIRCLE('',#659,1.6);
#268=CIRCLE('',#660,1.6);
#269=CIRCLE('',#662,1.6);
#270=CIRCLE('',#663,1.6);
#271=CIRCLE('',#665,1.6);
#272=CIRCLE('',#666,1.6);
#273=CIRCLE('',#668,1.6);
#274=CIRCLE('',#669,1.6);
#275=CIRCLE('',#671,1.6);
#276=CIRCLE('',#672,1.6);
#277=CIRCLE('',#674,1.6);
#278=CIRCLE('',#675,1.6);
#279=CIRCLE('',#677,1.6);
#280=CIRCLE('',#678,1.6);
#281=CIRCLE('',#680,1.6);
#282=CIRCLE('',#681,1.6);
#283=CIRCLE('',#683,1.6);
#284=CIRCLE('',#684,1.6);
#285=VERTEX_POINT('',#875);
#286=VERTEX_POINT('',#877);
#287=VERTEX_POINT('',#881);
#288=VERTEX_POINT('',#883);
#289=VERTEX_POINT('',#887);
#290=VERTEX_POINT('',#889);
#291=VERTEX_POINT('',#893);
#292=VERTEX_POINT('',#895);
#293=VERTEX_POINT('',#899);
#294=VERTEX_POINT('',#901);
#295=VERTEX_POINT('',#905);
#296=VERTEX_POINT('',#907);
#297=VERTEX_POINT('',#911);
#298=VERTEX_POINT('',#913);
#299=VERTEX_POINT('',#917);
#300=VERTEX_POINT('',#919);
#301=VERTEX_POINT('',#923);
#302=VERTEX_POINT('',#925);
#303=VERTEX_POINT('',#929);
#304=VERTEX_POINT('',#931);
#305=VERTEX_POINT('',#935);
#306=VERTEX_POINT('',#937);
#307=VERTEX_POINT('',#941);
#308=VERTEX_POINT('',#943);
#309=VERTEX_POINT('',#947);
#310=VERTEX_POINT('',#948);
#311=VERTEX_POINT('',#950);
#312=VERTEX_POINT('',#952);
#313=VERTEX_POINT('',#956);
#314=VERTEX_POINT('',#958);
#315=VERTEX_POINT('',#962);
#316=VERTEX_POINT('',#964);
#317=VERTEX_POINT('',#968);
#318=VERTEX_POINT('',#970);
#319=VERTEX_POINT('',#974);
#320=VERTEX_POINT('',#976);
#321=VERTEX_POINT('',#980);
#322=VERTEX_POINT('',#982);
#323=VERTEX_POINT('',#986);
#324=VERTEX_POINT('',#988);
#325=VERTEX_POINT('',#992);
#326=VERTEX_POINT('',#994);
#327=VERTEX_POINT('',#998);
#328=VERTEX_POINT('',#1000);
#329=VERTEX_POINT('',#1004);
#330=VERTEX_POINT('',#1006);
#331=VERTEX_POINT('',#1010);
#332=VERTEX_POINT('',#1012);
#333=VERTEX_POINT('',#1016);
#334=VERTEX_POINT('',#1018);
#335=VERTEX_POINT('',#1022);
#336=VERTEX_POINT('',#1024);
#337=VERTEX_POINT('',#1028);
#338=VERTEX_POINT('',#1030);
#339=VERTEX_POINT('',#1034);
#340=VERTEX_POINT('',#1036);
#341=EDGE_CURVE('',#285,#285,#261,.T.);
#342=EDGE_CURVE('',#285,#286,#141,.T.);
#343=EDGE_CURVE('',#286,#286,#262,.T.);
#344=EDGE_CURVE('',#287,#287,#263,.T.);
#345=EDGE_CURVE('',#287,#288,#142,.T.);
#346=EDGE_CURVE('',#288,#288,#264,.T.);
#347=EDGE_CURVE('',#289,#289,#265,.T.);
#348=EDGE_CURVE('',#289,#290,#143,.T.);
#349=EDGE_CURVE('',#290,#290,#266,.T.);
#350=EDGE_CURVE('',#291,#291,#267,.T.);
#351=EDGE_CURVE('',#291,#292,#144,.T.);
#352=EDGE_CURVE('',#292,#292,#268,.T.);
#353=EDGE_CURVE('',#293,#293,#269,.T.);
#354=EDGE_CURVE('',#293,#294,#145,.T.);
#355=EDGE_CURVE('',#294,#294,#270,.T.);
#356=EDGE_CURVE('',#295,#295,#271,.T.);
#357=EDGE_CURVE('',#295,#296,#146,.T.);
#358=EDGE_CURVE('',#296,#296,#272,.T.);
#359=EDGE_CURVE('',#297,#297,#273,.T.);
#360=EDGE_CURVE('',#297,#298,#147,.T.);
#361=EDGE_CURVE('',#298,#298,#274,.T.);
#362=EDGE_CURVE('',#299,#299,#275,.T.);
#363=EDGE_CURVE('',#299,#300,#148,.T.);
#364=EDGE_CURVE('',#300,#300,#276,.T.);
#365=EDGE_CURVE('',#301,#301,#277,.T.);
#366=EDGE_CURVE('',#301,#302,#149,.T.);
#367=EDGE_CURVE('',#302,#302,#278,.T.);
#368=EDGE_CURVE('',#303,#303,#279,.T.);
#369=EDGE_CURVE('',#303,#304,#150,.T.);
#370=EDGE_CURVE('',#304,#304,#280,.T.);
#371=EDGE_CURVE('',#305,#305,#281,.T.);
#372=EDGE_CURVE('',#305,#306,#151,.T.);
#373=EDGE_CURVE('',#306,#306,#282,.T.);
#374=EDGE_CURVE('',#307,#307,#283,.T.);
#375=EDGE_CURVE('',#307,#308,#152,.T.);
#376=EDGE_CURVE('',#308,#308,#284,.T.);
#377=EDGE_CURVE('',#309,#310,#153,.T.);
#378=EDGE_CURVE('',#309,#311,#154,.T.);
#379=EDGE_CURVE('',#312,#311,#155,.T.);
#380=EDGE_CURVE('',#310,#312,#156,.T.);
#381=EDGE_CURVE('',#310,#313,#157,.T.);
#382=EDGE_CURVE('',#314,#312,#158,.T.);
#383=EDGE_CURVE('',#313,#314,#159,.T.);
#384=EDGE_CURVE('',#315,#313,#160,.T.);
#385=EDGE_CURVE('',#316,#314,#161,.T.);
#386=EDGE_CURVE('',#315,#316,#162,.T.);
#387=EDGE_CURVE('',#317,#315,#163,.T.);
#388=EDGE_CURVE('',#318,#316,#164,.T.);
#389=EDGE_CURVE('',#317,#318,#165,.T.);
#390=EDGE_CURVE('',#319,#317,#166,.T.);
#391=EDGE_CURVE('',#320,#318,#167,.T.);
#392=EDGE_CURVE('',#319,#320,#168,.T.);
#393=EDGE_CURVE('',#321,#319,#169,.T.);
#394=EDGE_CURVE('',#322,#320,#170,.T.);
#395=EDGE_CURVE('',#321,#322,#171,.T.);
#396=EDGE_CURVE('',#323,#321,#172,.T.);
#397=EDGE_CURVE('',#324,#322,#173,.T.);
#398=EDGE_CURVE('',#323,#324,#174,.T.);
#399=EDGE_CURVE('',#323,#325,#175,.T.);
#400=EDGE_CURVE('',#326,#324,#176,.T.);
#401=EDGE_CURVE('',#325,#326,#177,.T.);
#402=EDGE_CURVE('',#325,#327,#178,.T.);
#403=EDGE_CURVE('',#328,#326,#179,.T.);
#404=EDGE_CURVE('',#327,#328,#180,.T.);
#405=EDGE_CURVE('',#327,#329,#181,.T.);
#406=EDGE_CURVE('',#330,#328,#182,.T.);
#407=EDGE_CURVE('',#329,#330,#183,.T.);
#408=EDGE_CURVE('',#331,#329,#184,.T.);
#409=EDGE_CURVE('',#332,#330,#185,.T.);
#410=EDGE_CURVE('',#331,#332,#186,.T.);
#411=EDGE_CURVE('',#333,#331,#187,.T.);
#412=EDGE_CURVE('',#334,#332,#188,.T.);
#413=EDGE_CURVE('',#333,#334,#189,.T.);
#414=EDGE_CURVE('',#335,#333,#190,.T.);
#415=EDGE_CURVE('',#336,#334,#191,.T.);
#416=EDGE_CURVE('',#335,#336,#192,.T.);
#417=EDGE_CURVE('',#337,#335,#193,.T.);
#418=EDGE_CURVE('',#338,#336,#194,.T.);
#419=EDGE_CURVE('',#337,#338,#195,.T.);
#420=EDGE_CURVE('',#339,#337,#196,.T.);
#421=EDGE_CURVE('',#340,#338,#197,.T.);
#422=EDGE_CURVE('',#339,#340,#198,.T.);
#423=EDGE_CURVE('',#309,#339,#199,.T.);
#424=EDGE_CURVE('',#311,#340,#200,.T.);
#425=ORIENTED_EDGE('',*,*,#341,.F.);
#426=ORIENTED_EDGE('',*,*,#342,.T.);
#427=ORIENTED_EDGE('',*,*,#343,.F.);
#428=ORIENTED_EDGE('',*,*,#342,.F.);
#429=ORIENTED_EDGE('',*,*,#344,.F.);
#430=ORIENTED_EDGE('',*,*,#345,.T.);
#431=ORIENTED_EDGE('',*,*,#346,.F.);
#432=ORIENTED_EDGE('',*,*,#345,.F.);
#433=ORIENTED_EDGE('',*,*,#347,.F.);
#434=ORIENTED_EDGE('',*,*,#348,.T.);
#435=ORIENTED_EDGE('',*,*,#349,.F.);
#436=ORIENTED_EDGE('',*,*,#348,.F.);
#437=ORIENTED_EDGE('',*,*,#350,.F.);
#438=ORIENTED_EDGE('',*,*,#351,.T.);
#439=ORIENTED_EDGE('',*,*,#352,.F.);
#440=ORIENTED_EDGE('',*,*,#351,.F.);
#441=ORIENTED_EDGE('',*,*,#353,.F.);
#442=ORIENTED_EDGE('',*,*,#354,.T.);
#443=ORIENTED_EDGE('',*,*,#355,.F.);
#444=ORIENTED_EDGE('',*,*,#354,.F.);
#445=ORIENTED_EDGE('',*,*,#356,.F.);
#446=ORIENTED_EDGE('',*,*,#357,.T.);
#447=ORIENTED_EDGE('',*,*,#358,.F.);
#448=ORIENTED_EDGE('',*,*,#357,.F.);
#449=ORIENTED_EDGE('',*,*,#359,.F.);
#450=ORIENTED_EDGE('',*,*,#360,.T.);
#451=ORIENTED_EDGE('',*,*,#361,.F.);
#452=ORIENTED_EDGE('',*,*,#360,.F.);
#453=ORIENTED_EDGE('',*,*,#362,.F.);
#454=ORIENTED_EDGE('',*,*,#363,.T.);
#455=ORIENTED_EDGE('',*,*,#364,.F.);
#456=ORIENTED_EDGE('',*,*,#363,.F.);
#457=ORIENTED_EDGE('',*,*,#365,.F.);
#458=ORIENTED_EDGE('',*,*,#366,.T.);
#459=ORIENTED_EDGE('',*,*,#367,.F.);
#460=ORIENTED_EDGE('',*,*,#366,.F.);
#461=ORIENTED_EDGE('',*,*,#368,.F.);
#462=ORIENTED_EDGE('',*,*,#369,.T.);
#463=ORIENTED_EDGE('',*,*,#370,.F.);
#464=ORIENTED_EDGE('',*,*,#369,.F.);
#465=ORIENTED_EDGE('',*,*,#371,.F.);
#466=ORIENTED_EDGE('',*,*,#372,.T.);
#467=ORIENTED_EDGE('',*,*,#373,.F.);
#468=ORIENTED_EDGE('',*,*,#372,.F.);
#469=ORIENTED_EDGE('',*,*,#374,.F.);
#470=ORIENTED_EDGE('',*,*,#375,.T.);
#471=ORIENTED_EDGE('',*,*,#376,.F.);
#472=ORIENTED_EDGE('',*,*,#375,.F.);
#473=ORIENTED_EDGE('',*,*,#377,.F.);
#474=ORIENTED_EDGE('',*,*,#378,.T.);
#475=ORIENTED_EDGE('',*,*,#379,.F.);
#476=ORIENTED_EDGE('',*,*,#380,.F.);
#477=ORIENTED_EDGE('',*,*,#381,.F.);
#478=ORIENTED_EDGE('',*,*,#380,.T.);
#479=ORIENTED_EDGE('',*,*,#382,.F.);
#480=ORIENTED_EDGE('',*,*,#383,.F.);
#481=ORIENTED_EDGE('',*,*,#384,.T.);
#482=ORIENTED_EDGE('',*,*,#383,.T.);
#483=ORIENTED_EDGE('',*,*,#385,.F.);
#484=ORIENTED_EDGE('',*,*,#386,.F.);
#485=ORIENTED_EDGE('',*,*,#387,.T.);
#486=ORIENTED_EDGE('',*,*,#386,.T.);
#487=ORIENTED_EDGE('',*,*,#388,.F.);
#488=ORIENTED_EDGE('',*,*,#389,.F.);
#489=ORIENTED_EDGE('',*,*,#390,.T.);
#490=ORIENTED_EDGE('',*,*,#389,.T.);
#491=ORIENTED_EDGE('',*,*,#391,.F.);
#492=ORIENTED_EDGE('',*,*,#392,.F.);
#493=ORIENTED_EDGE('',*,*,#393,.T.);
#494=ORIENTED_EDGE('',*,*,#392,.T.);
#495=ORIENTED_EDGE('',*,*,#394,.F.);
#496=ORIENTED_EDGE('',*,*,#395,.F.);
#497=ORIENTED_EDGE('',*,*,#396,.T.);
#498=ORIENTED_EDGE('',*,*,#395,.T.);
#499=ORIENTED_EDGE('',*,*,#397,.F.);
#500=ORIENTED_EDGE('',*,*,#398,.F.);
#501=ORIENTED_EDGE('',*,*,#399,.F.);
#502=ORIENTED_EDGE('',*,*,#398,.T.);
#503=ORIENTED_EDGE('',*,*,#400,.F.);
#504=ORIENTED_EDGE('',*,*,#401,.F.);
#505=ORIENTED_EDGE('',*,*,#402,.F.);
#506=ORIENTED_EDGE('',*,*,#401,.T.);
#507=ORIENTED_EDGE('',*,*,#403,.F.);
#508=ORIENTED_EDGE('',*,*,#404,.F.);
#509=ORIENTED_EDGE('',*,*,#405,.F.);
#510=ORIENTED_EDGE('',*,*,#404,.T.);
#511=ORIENTED_EDGE('',*,*,#406,.F.);
#512=ORIENTED_EDGE('',*,*,#407,.F.);
#513=ORIENTED_EDGE('',*,*,#408,.T.);
#514=ORIENTED_EDGE('',*,*,#407,.T.);
#515=ORIENTED_EDGE('',*,*,#409,.F.);
#516=ORIENTED_EDGE('',*,*,#410,.F.);
#517=ORIENTED_EDGE('',*,*,#411,.T.);
#518=ORIENTED_EDGE('',*,*,#410,.T.);
#519=ORIENTED_EDGE('',*,*,#412,.F.);
#520=ORIENTED_EDGE('',*,*,#413,.F.);
#521=ORIENTED_EDGE('',*,*,#414,.T.);
#522=ORIENTED_EDGE('',*,*,#413,.T.);
#523=ORIENTED_EDGE('',*,*,#415,.F.);
#524=ORIENTED_EDGE('',*,*,#416,.F.);
#525=ORIENTED_EDGE('',*,*,#417,.T.);
#526=ORIENTED_EDGE('',*,*,#416,.T.);
#527=ORIENTED_EDGE('',*,*,#418,.F.);
#528=ORIENTED_EDGE('',*,*,#419,.F.);
#529=ORIENTED_EDGE('',*,*,#420,.T.);
#530=ORIENTED_EDGE('',*,*,#419,.T.);
#531=ORIENTED_EDGE('',*,*,#421,.F.);
#532=ORIENTED_EDGE('',*,*,#422,.F.);
#533=ORIENTED_EDGE('',*,*,#423,.T.);
#534=ORIENTED_EDGE('',*,*,#422,.T.);
#535=ORIENTED_EDGE('',*,*,#424,.F.);
#536=ORIENTED_EDGE('',*,*,#378,.F.);
#537=ORIENTED_EDGE('',*,*,#424,.T.);
#538=ORIENTED_EDGE('',*,*,#421,.T.);
#539=ORIENTED_EDGE('',*,*,#418,.T.);
#540=ORIENTED_EDGE('',*,*,#415,.T.);
#541=ORIENTED_EDGE('',*,*,#412,.T.);
#542=ORIENTED_EDGE('',*,*,#409,.T.);
#543=ORIENTED_EDGE('',*,*,#406,.T.);
#544=ORIENTED_EDGE('',*,*,#403,.T.);
#545=ORIENTED_EDGE('',*,*,#400,.T.);
#546=ORIENTED_EDGE('',*,*,#397,.T.);
#547=ORIENTED_EDGE('',*,*,#394,.T.);
#548=ORIENTED_EDGE('',*,*,#391,.T.);
#549=ORIENTED_EDGE('',*,*,#388,.T.);
#550=ORIENTED_EDGE('',*,*,#385,.T.);
#551=ORIENTED_EDGE('',*,*,#382,.T.);
#552=ORIENTED_EDGE('',*,*,#379,.T.);
#553=ORIENTED_EDGE('',*,*,#374,.T.);
#554=ORIENTED_EDGE('',*,*,#371,.T.);
#555=ORIENTED_EDGE('',*,*,#368,.T.);
#556=ORIENTED_EDGE('',*,*,#365,.T.);
#557=ORIENTED_EDGE('',*,*,#362,.T.);
#558=ORIENTED_EDGE('',*,*,#359,.T.);
#559=ORIENTED_EDGE('',*,*,#356,.T.);
#560=ORIENTED_EDGE('',*,*,#353,.T.);
#561=ORIENTED_EDGE('',*,*,#350,.T.);
#562=ORIENTED_EDGE('',*,*,#347,.T.);
#563=ORIENTED_EDGE('',*,*,#344,.T.);
#564=ORIENTED_EDGE('',*,*,#341,.T.);
#565=ORIENTED_EDGE('',*,*,#423,.F.);
#566=ORIENTED_EDGE('',*,*,#377,.T.);
#567=ORIENTED_EDGE('',*,*,#381,.T.);
#568=ORIENTED_EDGE('',*,*,#384,.F.);
#569=ORIENTED_EDGE('',*,*,#387,.F.);
#570=ORIENTED_EDGE('',*,*,#390,.F.);
#571=ORIENTED_EDGE('',*,*,#393,.F.);
#572=ORIENTED_EDGE('',*,*,#396,.F.);
#573=ORIENTED_EDGE('',*,*,#399,.T.);
#574=ORIENTED_EDGE('',*,*,#402,.T.);
#575=ORIENTED_EDGE('',*,*,#405,.T.);
#576=ORIENTED_EDGE('',*,*,#408,.F.);
#577=ORIENTED_EDGE('',*,*,#411,.F.);
#578=ORIENTED_EDGE('',*,*,#414,.F.);
#579=ORIENTED_EDGE('',*,*,#417,.F.);
#580=ORIENTED_EDGE('',*,*,#420,.F.);
#581=ORIENTED_EDGE('',*,*,#376,.T.);
#582=ORIENTED_EDGE('',*,*,#373,.T.);
#583=ORIENTED_EDGE('',*,*,#370,.T.);
#584=ORIENTED_EDGE('',*,*,#367,.T.);
#585=ORIENTED_EDGE('',*,*,#364,.T.);
#586=ORIENTED_EDGE('',*,*,#361,.T.);
#587=ORIENTED_EDGE('',*,*,#358,.T.);
#588=ORIENTED_EDGE('',*,*,#355,.T.);
#589=ORIENTED_EDGE('',*,*,#352,.T.);
#590=ORIENTED_EDGE('',*,*,#349,.T.);
#591=ORIENTED_EDGE('',*,*,#346,.T.);
#592=ORIENTED_EDGE('',*,*,#343,.T.);
#593=CYLINDRICAL_SURFACE('',#649,1.6);
#594=CYLINDRICAL_SURFACE('',#652,1.6);
#595=CYLINDRICAL_SURFACE('',#655,1.6);
#596=CYLINDRICAL_SURFACE('',#658,1.6);
#597=CYLINDRICAL_SURFACE('',#661,1.6);
#598=CYLINDRICAL_SURFACE('',#664,1.6);
#599=CYLINDRICAL_SURFACE('',#667,1.6);
#600=CYLINDRICAL_SURFACE('',#670,1.6);
#601=CYLINDRICAL_SURFACE('',#673,1.6);
#602=CYLINDRICAL_SURFACE('',#676,1.6);
#603=CYLINDRICAL_SURFACE('',#679,1.6);
#604=CYLINDRICAL_SURFACE('',#682,1.6);
#605=ADVANCED_FACE('',(#57),#593,.F.);
#606=ADVANCED_FACE('',(#58),#594,.F.);
#607=ADVANCED_FACE('',(#59),#595,.F.);
#608=ADVANCED_FACE('',(#60),#596,.F.);
#609=ADVANCED_FACE('',(#61),#597,.F.);
#610=ADVANCED_FACE('',(#62),#598,.F.);
#611=ADVANCED_FACE('',(#63),#599,.F.);
#612=ADVANCED_FACE('',(#64),#600,.F.);
#613=ADVANCED_FACE('',(#65),#601,.F.);
#614=ADVANCED_FACE('',(#66),#602,.F.);
#615=ADVANCED_FACE('',(#67),#603,.F.);
#616=ADVANCED_FACE('',(#68),#604,.F.);
#617=ADVANCED_FACE('',(#69),#39,.T.);
#618=ADVANCED_FACE('',(#70),#40,.T.);
#619=ADVANCED_FACE('',(#71),#41,.T.);
#620=ADVANCED_FACE('',(#72),#42,.T.);
#621=ADVANCED_FACE('',(#73),#43,.T.);
#622=ADVANCED_FACE('',(#74),#44,.T.);
#623=ADVANCED_FACE('',(#75),#45,.T.);
#624=ADVANCED_FACE('',(#76),#46,.T.);
#625=ADVANCED_FACE('',(#77),#47,.T.);
#626=ADVANCED_FACE('',(#78),#48,.T.);
#627=ADVANCED_FACE('',(#79),#49,.T.);
#628=ADVANCED_FACE('',(#80),#50,.T.);
#629=ADVANCED_FACE('',(#81),#51,.T.);
#630=ADVANCED_FACE('',(#82),#52,.T.);
#631=ADVANCED_FACE('',(#83),#53,.T.);
#632=ADVANCED_FACE('',(#84),#54,.T.);
#633=ADVANCED_FACE('',(#85,#15,#16,#17,#18,#19,#20,#21,#22,#23,#24,#25,
#26),#55,.T.);
#634=ADVANCED_FACE('',(#86,#27,#28,#29,#30,#31,#32,#33,#34,#35,#36,#37,
#38),#56,.F.);
#635=CLOSED_SHELL('',(#605,#606,#607,#608,#609,#610,#611,#612,#613,#614,
#615,#616,#617,#618,#619,#620,#621,#622,#623,#624,#625,#626,#627,#628,#629,
#630,#631,#632,#633,#634));
#636=DERIVED_UNIT_ELEMENT(#638,1.);
#637=DERIVED_UNIT_ELEMENT(#1049,-3.);
#638=(
MASS_UNIT()
NAMED_UNIT(*)
SI_UNIT(.KILO.,.GRAM.)
);
#639=DERIVED_UNIT((#636,#637));
#640=MEASURE_REPRESENTATION_ITEM('density measure',
POSITIVE_RATIO_MEASURE(7850.),#639);
#641=PROPERTY_DEFINITION_REPRESENTATION(#646,#643);
#642=PROPERTY_DEFINITION_REPRESENTATION(#647,#644);
#643=REPRESENTATION('material name',(#645),#1046);
#644=REPRESENTATION('density',(#640),#1046);
#645=DESCRIPTIVE_REPRESENTATION_ITEM('Steel','Steel');
#646=PROPERTY_DEFINITION('material property','material name',#1056);
#647=PROPERTY_DEFINITION('material property','density of part',#1056);
#648=AXIS2_PLACEMENT_3D('',#873,#703,#704);
#649=AXIS2_PLACEMENT_3D('',#874,#705,#706);
#650=AXIS2_PLACEMENT_3D('',#876,#707,#708);
#651=AXIS2_PLACEMENT_3D('',#879,#710,#711);
#652=AXIS2_PLACEMENT_3D('',#880,#712,#713);
#653=AXIS2_PLACEMENT_3D('',#882,#714,#715);
#654=AXIS2_PLACEMENT_3D('',#885,#717,#718);
#655=AXIS2_PLACEMENT_3D('',#886,#719,#720);
#656=AXIS2_PLACEMENT_3D('',#888,#721,#722);
#657=AXIS2_PLACEMENT_3D('',#891,#724,#725);
#658=AXIS2_PLACEMENT_3D('',#892,#726,#727);
#659=AXIS2_PLACEMENT_3D('',#894,#728,#729);
#660=AXIS2_PLACEMENT_3D('',#897,#731,#732);
#661=AXIS2_PLACEMENT_3D('',#898,#733,#734);
#662=AXIS2_PLACEMENT_3D('',#900,#735,#736);
#663=AXIS2_PLACEMENT_3D('',#903,#738,#739);
#664=AXIS2_PLACEMENT_3D('',#904,#740,#741);
#665=AXIS2_PLACEMENT_3D('',#906,#742,#743);
#666=AXIS2_PLACEMENT_3D('',#909,#745,#746);
#667=AXIS2_PLACEMENT_3D('',#910,#747,#748);
#668=AXIS2_PLACEMENT_3D('',#912,#749,#750);
#669=AXIS2_PLACEMENT_3D('',#915,#752,#753);
#670=AXIS2_PLACEMENT_3D('',#916,#754,#755);
#671=AXIS2_PLACEMENT_3D('',#918,#756,#757);
#672=AXIS2_PLACEMENT_3D('',#921,#759,#760);
#673=AXIS2_PLACEMENT_3D('',#922,#761,#762);
#674=AXIS2_PLACEMENT_3D('',#924,#763,#764);
#675=AXIS2_PLACEMENT_3D('',#927,#766,#767);
#676=AXIS2_PLACEMENT_3D('',#928,#768,#769);
#677=AXIS2_PLACEMENT_3D('',#930,#770,#771);
#678=AXIS2_PLACEMENT_3D('',#933,#773,#774);
#679=AXIS2_PLACEMENT_3D('',#934,#775,#776);
#680=AXIS2_PLACEMENT_3D('',#936,#777,#778);
#681=AXIS2_PLACEMENT_3D('',#939,#780,#781);
#682=AXIS2_PLACEMENT_3D('',#940,#782,#783);
#683=AXIS2_PLACEMENT_3D('',#942,#784,#785);
#684=AXIS2_PLACEMENT_3D('',#945,#787,#788);
#685=AXIS2_PLACEMENT_3D('',#946,#789,#790);
#686=AXIS2_PLACEMENT_3D('',#955,#795,#796);
#687=AXIS2_PLACEMENT_3D('',#961,#800,#801);
#688=AXIS2_PLACEMENT_3D('',#967,#805,#806);
#689=AXIS2_PLACEMENT_3D('',#973,#810,#811);
#690=AXIS2_PLACEMENT_3D('',#979,#815,#816);
#691=AXIS2_PLACEMENT_3D('',#985,#820,#821);
#692=AXIS2_PLACEMENT_3D('',#991,#825,#826);
#693=AXIS2_PLACEMENT_3D('',#997,#830,#831);
#694=AXIS2_PLACEMENT_3D('',#1003,#835,#836);
#695=AXIS2_PLACEMENT_3D('',#1009,#840,#841);
#696=AXIS2_PLACEMENT_3D('',#1015,#845,#846);
#697=AXIS2_PLACEMENT_3D('',#1021,#850,#851);
#698=AXIS2_PLACEMENT_3D('',#1027,#855,#856);
#699=AXIS2_PLACEMENT_3D('',#1033,#860,#861);
#700=AXIS2_PLACEMENT_3D('',#1039,#865,#866);
#701=AXIS2_PLACEMENT_3D('',#1042,#869,#870);
#702=AXIS2_PLACEMENT_3D('',#1043,#871,#872);
#703=DIRECTION('axis',(0.,0.,1.));
#704=DIRECTION('refdir',(1.,0.,0.));
#705=DIRECTION('center_axis',(0.,-1.,0.));
#706=DIRECTION('ref_axis',(-1.,0.,0.));
#707=DIRECTION('center_axis',(0.,-1.,0.));
#708=DIRECTION('ref_axis',(-1.,0.,0.));
#709=DIRECTION('',(0.,-1.,0.));
#710=DIRECTION('center_axis',(0.,1.,0.));
#711=DIRECTION('ref_axis',(-1.,0.,0.));
#712=DIRECTION('center_axis',(0.,-1.,0.));
#713=DIRECTION('ref_axis',(-1.,0.,0.));
#714=DIRECTION('center_axis',(0.,-1.,0.));
#715=DIRECTION('ref_axis',(-1.,0.,0.));
#716=DIRECTION('',(0.,-1.,0.));
#717=DIRECTION('center_axis',(0.,1.,0.));
#718=DIRECTION('ref_axis',(-1.,0.,0.));
#719=DIRECTION('center_axis',(0.,-1.,0.));
#720=DIRECTION('ref_axis',(-1.,0.,0.));
#721=DIRECTION('center_axis',(0.,-1.,0.));
#722=DIRECTION('ref_axis',(-1.,0.,0.));
#723=DIRECTION('',(0.,-1.,0.));
#724=DIRECTION('center_axis',(0.,1.,0.));
#725=DIRECTION('ref_axis',(-1.,0.,0.));
#726=DIRECTION('center_axis',(0.,-1.,0.));
#727=DIRECTION('ref_axis',(-1.,0.,0.));
#728=DIRECTION('center_axis',(0.,-1.,0.));
#729=DIRECTION('ref_axis',(-1.,0.,0.));
#730=DIRECTION('',(0.,-1.,0.));
#731=DIRECTION('center_axis',(0.,1.,0.));
#732=DIRECTION('ref_axis',(-1.,0.,0.));
#733=DIRECTION('center_axis',(0.,-1.,0.));
#734=DIRECTION('ref_axis',(-1.,0.,0.));
#735=DIRECTION('center_axis',(0.,-1.,0.));
#736=DIRECTION('ref_axis',(-1.,0.,0.));
#737=DIRECTION('',(0.,-1.,0.));
#738=DIRECTION('center_axis',(0.,1.,0.));
#739=DIRECTION('ref_axis',(-1.,0.,0.));
#740=DIRECTION('center_axis',(0.,-1.,0.));
#741=DIRECTION('ref_axis',(-1.,0.,0.));
#742=DIRECTION('center_axis',(0.,-1.,0.));
#743=DIRECTION('ref_axis',(-1.,0.,0.));
#744=DIRECTION('',(0.,-1.,0.));
#745=DIRECTION('center_axis',(0.,1.,0.));
#746=DIRECTION('ref_axis',(-1.,0.,0.));
#747=DIRECTION('center_axis',(0.,-1.,0.));
#748=DIRECTION('ref_axis',(-1.,0.,0.));
#749=DIRECTION('center_axis',(0.,-1.,0.));
#750=DIRECTION('ref_axis',(-1.,0.,0.));
#751=DIRECTION('',(0.,-1.,0.));
#752=DIRECTION('center_axis',(0.,1.,0.));
#753=DIRECTION('ref_axis',(-1.,0.,0.));
#754=DIRECTION('center_axis',(0.,-1.,0.));
#755=DIRECTION('ref_axis',(-1.,0.,0.));
#756=DIRECTION('center_axis',(0.,-1.,0.));
#757=DIRECTION('ref_axis',(-1.,0.,0.));
#758=DIRECTION('',(0.,-1.,0.));
#759=DIRECTION('center_axis',(0.,1.,0.));
#760=DIRECTION('ref_axis',(-1.,0.,0.));
#761=DIRECTION('center_axis',(0.,-1.,0.));
#762=DIRECTION('ref_axis',(-1.,0.,0.));
#763=DIRECTION('center_axis',(0.,-1.,0.));
#764=DIRECTION('ref_axis',(-1.,0.,0.));
#765=DIRECTION('',(0.,-1.,0.));
#766=DIRECTION('center_axis',(0.,1.,0.));
#767=DIRECTION('ref_axis',(-1.,0.,0.));
#768=DIRECTION('center_axis',(0.,-1.,0.));
#769=DIRECTION('ref_axis',(-1.,0.,0.));
#770=DIRECTION('center_axis',(0.,-1.,0.));
#771=DIRECTION('ref_axis',(-1.,0.,0.));
#772=DIRECTION('',(0.,-1.,0.));
#773=DIRECTION('center_axis',(0.,1.,0.));
#774=DIRECTION('ref_axis',(-1.,0.,0.));
#775=DIRECTION('center_axis',(0.,-1.,0.));
#776=DIRECTION('ref_axis',(-1.,0.,0.));
#777=DIRECTION('center_axis',(0.,-1.,0.));
#778=DIRECTION('ref_axis',(-1.,0.,0.));
#779=DIRECTION('',(0.,-1.,0.));
#780=DIRECTION('center_axis',(0.,1.,0.));
#781=DIRECTION('ref_axis',(-1.,0.,0.));
#782=DIRECTION('center_axis',(0.,-1.,0.));
#783=DIRECTION('ref_axis',(-1.,0.,0.));
#784=DIRECTION('center_axis',(0.,-1.,0.));
#785=DIRECTION('ref_axis',(-1.,0.,0.));
#786=DIRECTION('',(0.,-1.,0.));
#787=DIRECTION('center_axis',(0.,1.,0.));
#788=DIRECTION('ref_axis',(-1.,0.,0.));
#789=DIRECTION('center_axis',(0.,0.,-1.));
#790=DIRECTION('ref_axis',(-1.,0.,0.));
#791=DIRECTION('',(1.,0.,0.));
#792=DIRECTION('',(0.,1.,0.));
#793=DIRECTION('',(-1.,0.,0.));
#794=DIRECTION('',(0.,1.,0.));
#795=DIRECTION('center_axis',(-0.707106781186548,0.,-0.707106781186548));
#796=DIRECTION('ref_axis',(-0.707106781186548,0.,0.707106781186548));
#797=DIRECTION('',(0.707106781186547,0.,-0.707106781186547));
#798=DIRECTION('',(-0.707106781186547,0.,0.707106781186547));
#799=DIRECTION('',(0.,1.,0.));
#800=DIRECTION('center_axis',(0.,0.,-1.));
#801=DIRECTION('ref_axis',(-1.,0.,0.));
#802=DIRECTION('',(-1.,0.,0.));
#803=DIRECTION('',(-1.,0.,0.));
#804=DIRECTION('',(0.,1.,0.));
#805=DIRECTION('center_axis',(0.6,0.,-0.8));
#806=DIRECTION('ref_axis',(-0.8,0.,-0.6));
#807=DIRECTION('',(-0.8,0.,-0.6));
#808=DIRECTION('',(-0.8,0.,-0.6));
#809=DIRECTION('',(0.,1.,0.));
#810=DIRECTION('center_axis',(1.,0.,0.));
#811=DIRECTION('ref_axis',(0.,0.,-1.));
#812=DIRECTION('',(0.,0.,-1.));
#813=DIRECTION('',(0.,0.,-1.));
#814=DIRECTION('',(0.,1.,0.));
#815=DIRECTION('center_axis',(0.6,0.,0.8));
#816=DIRECTION('ref_axis',(0.8,0.,-0.6));
#817=DIRECTION('',(0.8,0.,-0.6));
#818=DIRECTION('',(0.8,0.,-0.6));
#819=DIRECTION('',(0.,1.,0.));
#820=DIRECTION('center_axis',(0.,0.,1.));
#821=DIRECTION('ref_axis',(1.,0.,0.));
#822=DIRECTION('',(1.,0.,0.));
#823=DIRECTION('',(1.,0.,0.));
#824=DIRECTION('',(0.,1.,0.));
#825=DIRECTION('center_axis',(-0.707106781186548,0.,0.707106781186548));
#826=DIRECTION('ref_axis',(0.707106781186548,0.,0.707106781186548));
#827=DIRECTION('',(-0.707106781186547,0.,-0.707106781186547));
#828=DIRECTION('',(0.707106781186547,0.,0.707106781186547));
#829=DIRECTION('',(0.,1.,0.));
#830=DIRECTION('center_axis',(0.,0.,1.));
#831=DIRECTION('ref_axis',(1.,0.,0.));
#832=DIRECTION('',(-1.,0.,0.));
#833=DIRECTION('',(1.,0.,0.));
#834=DIRECTION('',(0.,1.,0.));
#835=DIRECTION('center_axis',(0.707106781186548,0.,0.707106781186548));
#836=DIRECTION('ref_axis',(0.707106781186548,0.,-0.707106781186548));
#837=DIRECTION('',(-0.707106781186547,0.,0.707106781186547));
#838=DIRECTION('',(0.707106781186547,0.,-0.707106781186547));
#839=DIRECTION('',(0.,1.,0.));
#840=DIRECTION('center_axis',(0.,0.,1.));
#841=DIRECTION('ref_axis',(1.,0.,0.));
#842=DIRECTION('',(1.,0.,0.));
#843=DIRECTION('',(1.,0.,0.));
#844=DIRECTION('',(0.,1.,0.));
#845=DIRECTION('center_axis',(-0.6,0.,0.8));
#846=DIRECTION('ref_axis',(0.8,0.,0.6));
#847=DIRECTION('',(0.8,0.,0.6));
#848=DIRECTION('',(0.8,0.,0.6));
#849=DIRECTION('',(0.,1.,0.));
#850=DIRECTION('center_axis',(-1.,0.,0.));
#851=DIRECTION('ref_axis',(0.,0.,1.));
#852=DIRECTION('',(0.,0.,1.));
#853=DIRECTION('',(0.,0.,1.));
#854=DIRECTION('',(0.,1.,0.));
#855=DIRECTION('center_axis',(-0.6,0.,-0.8));
#856=DIRECTION('ref_axis',(-0.8,0.,0.6));
#857=DIRECTION('',(-0.8,0.,0.6));
#858=DIRECTION('',(-0.8,0.,0.6));
#859=DIRECTION('',(0.,1.,0.));
#860=DIRECTION('center_axis',(0.,0.,-1.));
#861=DIRECTION('ref_axis',(-1.,0.,0.));
#862=DIRECTION('',(-1.,0.,0.));
#863=DIRECTION('',(-1.,0.,0.));
#864=DIRECTION('',(0.,1.,0.));
#865=DIRECTION('center_axis',(0.707106781186548,0.,-0.707106781186548));
#866=DIRECTION('ref_axis',(-0.707106781186548,0.,-0.707106781186548));
#867=DIRECTION('',(-0.707106781186547,0.,-0.707106781186547));
#868=DIRECTION('',(-0.707106781186547,0.,-0.707106781186547));
#869=DIRECTION('center_axis',(0.,1.,0.));
#870=DIRECTION('ref_axis',(0.,0.,1.));
#871=DIRECTION('center_axis',(0.,1.,0.));
#872=DIRECTION('ref_axis',(1.,0.,0.));
#873=CARTESIAN_POINT('',(0.,0.,0.));
#874=CARTESIAN_POINT('Origin',(5.,7.75,51.55));
#875=CARTESIAN_POINT('',(6.6,7.75,51.55));
#876=CARTESIAN_POINT('Origin',(5.,7.75,51.55));
#877=CARTESIAN_POINT('',(6.6,0.,51.55));
#878=CARTESIAN_POINT('',(6.6,7.75,51.55));
#879=CARTESIAN_POINT('Origin',(5.,0.,51.55));
#880=CARTESIAN_POINT('Origin',(138.93,7.75,-55.24));
#881=CARTESIAN_POINT('',(140.53,7.75,-55.24));
#882=CARTESIAN_POINT('Origin',(138.93,7.75,-55.24));
#883=CARTESIAN_POINT('',(140.53,0.,-55.24));
#884=CARTESIAN_POINT('',(140.53,7.75,-55.24));
#885=CARTESIAN_POINT('Origin',(138.93,0.,-55.24));
#886=CARTESIAN_POINT('Origin',(-138.930001892447,7.75,-55.240000834465));
#887=CARTESIAN_POINT('',(-137.330001892447,7.75,-55.240000834465));
#888=CARTESIAN_POINT('Origin',(-138.930001892447,7.75,-55.240000834465));
#889=CARTESIAN_POINT('',(-137.330001892447,0.,-55.240000834465));
#890=CARTESIAN_POINT('',(-137.330001892447,7.75,-55.240000834465));
#891=CARTESIAN_POINT('Origin',(-138.930001892447,0.,-55.240000834465));
#892=CARTESIAN_POINT('Origin',(-5.,7.75,-51.55));
#893=CARTESIAN_POINT('',(-3.4,7.75,-51.55));
#894=CARTESIAN_POINT('Origin',(-5.,7.75,-51.55));
#895=CARTESIAN_POINT('',(-3.4,0.,-51.55));
#896=CARTESIAN_POINT('',(-3.4,7.75,-51.55));
#897=CARTESIAN_POINT('Origin',(-5.,0.,-51.55));
#898=CARTESIAN_POINT('Origin',(138.93,7.75,55.24));
#899=CARTESIAN_POINT('',(140.53,7.75,55.24));
#900=CARTESIAN_POINT('Origin',(138.93,7.75,55.24));
#901=CARTESIAN_POINT('',(140.53,0.,55.24));
#902=CARTESIAN_POINT('',(140.53,7.75,55.24));
#903=CARTESIAN_POINT('Origin',(138.93,0.,55.24));
#904=CARTESIAN_POINT('Origin',(-138.93,7.75,55.24));
#905=CARTESIAN_POINT('',(-137.33,7.75,55.24));
#906=CARTESIAN_POINT('Origin',(-138.93,7.75,55.24));
#907=CARTESIAN_POINT('',(-137.33,0.,55.24));
#908=CARTESIAN_POINT('',(-137.33,7.75,55.24));
#909=CARTESIAN_POINT('Origin',(-138.93,0.,55.24));
#910=CARTESIAN_POINT('Origin',(-5.,7.75,51.55));
#911=CARTESIAN_POINT('',(-3.4,7.75,51.55));
#912=CARTESIAN_POINT('Origin',(-5.,7.75,51.55));
#913=CARTESIAN_POINT('',(-3.4,0.,51.55));
#914=CARTESIAN_POINT('',(-3.4,7.75,51.55));
#915=CARTESIAN_POINT('Origin',(-5.,0.,51.55));
#916=CARTESIAN_POINT('Origin',(130.93,7.75,-61.24));
#917=CARTESIAN_POINT('',(132.53,7.75,-61.24));
#918=CARTESIAN_POINT('Origin',(130.93,7.75,-61.24));
#919=CARTESIAN_POINT('',(132.53,0.,-61.24));
#920=CARTESIAN_POINT('',(132.53,7.75,-61.24));
#921=CARTESIAN_POINT('Origin',(130.93,0.,-61.24));
#922=CARTESIAN_POINT('Origin',(-130.930001892447,7.75,-61.240000834465));
#923=CARTESIAN_POINT('',(-129.330001892447,7.75,-61.240000834465));
#924=CARTESIAN_POINT('Origin',(-130.930001892447,7.75,-61.240000834465));
#925=CARTESIAN_POINT('',(-129.330001892447,0.,-61.240000834465));
#926=CARTESIAN_POINT('',(-129.330001892447,7.75,-61.240000834465));
#927=CARTESIAN_POINT('Origin',(-130.930001892447,0.,-61.240000834465));
#928=CARTESIAN_POINT('Origin',(5.,7.75,-51.55));
#929=CARTESIAN_POINT('',(6.6,7.75,-51.55));
#930=CARTESIAN_POINT('Origin',(5.,7.75,-51.55));
#931=CARTESIAN_POINT('',(6.6,0.,-51.55));
#932=CARTESIAN_POINT('',(6.6,7.75,-51.55));
#933=CARTESIAN_POINT('Origin',(5.,0.,-51.55));
#934=CARTESIAN_POINT('Origin',(130.93,7.75,61.24));
#935=CARTESIAN_POINT('',(132.53,7.75,61.24));
#936=CARTESIAN_POINT('Origin',(130.93,7.75,61.24));
#937=CARTESIAN_POINT('',(132.53,0.,61.24));
#938=CARTESIAN_POINT('',(132.53,7.75,61.24));
#939=CARTESIAN_POINT('Origin',(130.93,0.,61.24));
#940=CARTESIAN_POINT('Origin',(-130.93,7.75,61.24));
#941=CARTESIAN_POINT('',(-129.33,7.75,61.24));
#942=CARTESIAN_POINT('Origin',(-130.93,7.75,61.24));
#943=CARTESIAN_POINT('',(-129.33,0.,61.24));
#944=CARTESIAN_POINT('',(-129.33,7.75,61.24));
#945=CARTESIAN_POINT('Origin',(-130.93,0.,61.24));
#946=CARTESIAN_POINT('Origin',(40.,0.,-60.));
#947=CARTESIAN_POINT('',(-40.,0.,-60.));
#948=CARTESIAN_POINT('',(40.,0.,-60.));
#949=CARTESIAN_POINT('',(-40.,0.,-60.));
#950=CARTESIAN_POINT('',(-40.,7.75,-60.));
#951=CARTESIAN_POINT('',(-40.,0.,-60.));
#952=CARTESIAN_POINT('',(40.,7.75,-60.));
#953=CARTESIAN_POINT('',(-40.,7.75,-60.));
#954=CARTESIAN_POINT('',(40.,0.,-60.));
#955=CARTESIAN_POINT('Origin',(60.,0.,-80.));
#956=CARTESIAN_POINT('',(60.,0.,-80.));
#957=CARTESIAN_POINT('',(40.,0.,-60.));
#958=CARTESIAN_POINT('',(60.,7.75,-80.));
#959=CARTESIAN_POINT('',(40.,7.75,-60.));
#960=CARTESIAN_POINT('',(60.,0.,-80.));
#961=CARTESIAN_POINT('Origin',(120.,0.,-80.));
#962=CARTESIAN_POINT('',(120.,0.,-80.));
#963=CARTESIAN_POINT('',(160.,0.,-80.));
#964=CARTESIAN_POINT('',(120.,7.75,-80.));
#965=CARTESIAN_POINT('',(160.,7.75,-80.));
#966=CARTESIAN_POINT('',(120.,0.,-80.));
#967=CARTESIAN_POINT('Origin',(160.,0.,-50.));
#968=CARTESIAN_POINT('',(160.,0.,-50.));
#969=CARTESIAN_POINT('',(160.,0.,-50.));
#970=CARTESIAN_POINT('',(160.,7.75,-50.));
#971=CARTESIAN_POINT('',(160.,7.75,-50.));
#972=CARTESIAN_POINT('',(160.,0.,-50.));
#973=CARTESIAN_POINT('Origin',(160.,0.,50.));
#974=CARTESIAN_POINT('',(160.,0.,50.));
#975=CARTESIAN_POINT('',(160.,0.,80.));
#976=CARTESIAN_POINT('',(160.,7.75,50.));
#977=CARTESIAN_POINT('',(160.,7.75,80.));
#978=CARTESIAN_POINT('',(160.,0.,50.));
#979=CARTESIAN_POINT('Origin',(120.,0.,80.));
#980=CARTESIAN_POINT('',(120.,0.,80.));
#981=CARTESIAN_POINT('',(120.,0.,80.));
#982=CARTESIAN_POINT('',(120.,7.75,80.));
#983=CARTESIAN_POINT('',(120.,7.75,80.));
#984=CARTESIAN_POINT('',(120.,0.,80.));
#985=CARTESIAN_POINT('Origin',(60.,0.,80.));
#986=CARTESIAN_POINT('',(60.,0.,80.));
#987=CARTESIAN_POINT('',(-160.,0.,80.));
#988=CARTESIAN_POINT('',(60.,7.75,80.));
#989=CARTESIAN_POINT('',(-160.,7.75,80.));
#990=CARTESIAN_POINT('',(60.,0.,80.));
#991=CARTESIAN_POINT('Origin',(40.,0.,60.));
#992=CARTESIAN_POINT('',(40.,0.,60.));
#993=CARTESIAN_POINT('',(60.,0.,80.));
#994=CARTESIAN_POINT('',(40.,7.75,60.));
#995=CARTESIAN_POINT('',(60.,7.75,80.));
#996=CARTESIAN_POINT('',(40.,0.,60.));
#997=CARTESIAN_POINT('Origin',(-40.,0.,60.));
#998=CARTESIAN_POINT('',(-40.,0.,60.));
#999=CARTESIAN_POINT('',(40.,0.,60.));
#1000=CARTESIAN_POINT('',(-40.,7.75,60.));
#1001=CARTESIAN_POINT('',(40.,7.75,60.));
#1002=CARTESIAN_POINT('',(-40.,0.,60.));
#1003=CARTESIAN_POINT('Origin',(-60.,0.,80.));
#1004=CARTESIAN_POINT('',(-60.,0.,80.));
#1005=CARTESIAN_POINT('',(-40.,0.,60.));
#1006=CARTESIAN_POINT('',(-60.,7.75,80.));
#1007=CARTESIAN_POINT('',(-40.,7.75,60.));
#1008=CARTESIAN_POINT('',(-60.,0.,80.));
#1009=CARTESIAN_POINT('Origin',(-120.,0.,80.));
#1010=CARTESIAN_POINT('',(-120.,0.,80.));
#1011=CARTESIAN_POINT('',(-120.,0.,80.));
#1012=CARTESIAN_POINT('',(-120.,7.75,80.));
#1013=CARTESIAN_POINT('',(-120.,7.75,80.));
#1014=CARTESIAN_POINT('',(-120.,0.,80.));
#1015=CARTESIAN_POINT('Origin',(-160.,0.,50.));
#1016=CARTESIAN_POINT('',(-160.,0.,50.));
#1017=CARTESIAN_POINT('',(-160.,0.,50.));
#1018=CARTESIAN_POINT('',(-160.,7.75,50.));
#1019=CARTESIAN_POINT('',(-160.,7.75,50.));
#1020=CARTESIAN_POINT('',(-160.,0.,50.));
#1021=CARTESIAN_POINT('Origin',(-160.,0.,-50.));
#1022=CARTESIAN_POINT('',(-160.,0.,-50.));
#1023=CARTESIAN_POINT('',(-160.,0.,-80.));
#1024=CARTESIAN_POINT('',(-160.,7.75,-50.));
#1025=CARTESIAN_POINT('',(-160.,7.75,-80.));
#1026=CARTESIAN_POINT('',(-160.,0.,-50.));
#1027=CARTESIAN_POINT('Origin',(-120.,0.,-80.));
#1028=CARTESIAN_POINT('',(-120.,0.,-80.));
#1029=CARTESIAN_POINT('',(-120.,0.,-80.));
#1030=CARTESIAN_POINT('',(-120.,7.75,-80.));
#1031=CARTESIAN_POINT('',(-120.,7.75,-80.));
#1032=CARTESIAN_POINT('',(-120.,0.,-80.));
#1033=CARTESIAN_POINT('Origin',(-60.,0.,-80.));
#1034=CARTESIAN_POINT('',(-60.,0.,-80.));
#1035=CARTESIAN_POINT('',(160.,0.,-80.));
#1036=CARTESIAN_POINT('',(-60.,7.75,-80.));
#1037=CARTESIAN_POINT('',(160.,7.75,-80.));
#1038=CARTESIAN_POINT('',(-60.,0.,-80.));
#1039=CARTESIAN_POINT('Origin',(-40.,0.,-60.));
#1040=CARTESIAN_POINT('',(-40.,0.,-60.));
#1041=CARTESIAN_POINT('',(-40.,7.75,-60.));
#1042=CARTESIAN_POINT('Origin',(0.,7.75,0.));
#1043=CARTESIAN_POINT('Origin',(0.,0.,0.));
#1044=UNCERTAINTY_MEASURE_WITH_UNIT(LENGTH_MEASURE(0.01),#1048,
'DISTANCE_ACCURACY_VALUE',
'Maximum model space distance between geometric entities at asserted c
onnectivities');
#1045=UNCERTAINTY_MEASURE_WITH_UNIT(LENGTH_MEASURE(0.01),#1048,
'DISTANCE_ACCURACY_VALUE',
'Maximum model space distance between geometric entities at asserted c
onnectivities');
#1046=(
GEOMETRIC_REPRESENTATION_CONTEXT(3)
GLOBAL_UNCERTAINTY_ASSIGNED_CONTEXT((#1044))
GLOBAL_UNIT_ASSIGNED_CONTEXT((#1048,#1050,#1051))
REPRESENTATION_CONTEXT('','3D')
);
#1047=(
GEOMETRIC_REPRESENTATION_CONTEXT(3)
GLOBAL_UNCERTAINTY_ASSIGNED_CONTEXT((#1045))
GLOBAL_UNIT_ASSIGNED_CONTEXT((#1048,#1050,#1051))
REPRESENTATION_CONTEXT('','3D')
);
#1048=(
LENGTH_UNIT()
NAMED_UNIT(*)
SI_UNIT(.MILLI.,.METRE.)
);
#1049=(
LENGTH_UNIT()
NAMED_UNIT(*)
SI_UNIT($,.METRE.)
);
#1050=(
NAMED_UNIT(*)
PLANE_ANGLE_UNIT()
SI_UNIT($,.RADIAN.)
);
#1051=(
NAMED_UNIT(*)
SI_UNIT($,.STERADIAN.)
SOLID_ANGLE_UNIT()
);
#1052=SHAPE_DEFINITION_REPRESENTATION(#1053,#1054);
#1053=PRODUCT_DEFINITION_SHAPE('',$,#1056);
#1054=SHAPE_REPRESENTATION('',(#648),#1046);
#1055=PRODUCT_DEFINITION_CONTEXT('part definition',#1060,'design');
#1056=PRODUCT_DEFINITION('top plate new','top plate new v2',#1057,#1055);
#1057=PRODUCT_DEFINITION_FORMATION('',$,#1062);
#1058=PRODUCT_RELATED_PRODUCT_CATEGORY('top plate new v2',
'top plate new v2',(#1062));
#1059=APPLICATION_PROTOCOL_DEFINITION('international standard',
'automotive_design',2009,#1060);
#1060=APPLICATION_CONTEXT(
'Core Data for Automotive Mechanical Design Process');
#1061=PRODUCT_CONTEXT('part definition',#1060,'mechanical');
#1062=PRODUCT('top plate new','top plate new v2',$,(#1061));
#1063=PRESENTATION_STYLE_ASSIGNMENT((#1064));
#1064=SURFACE_STYLE_USAGE(.BOTH.,#1065);
#1065=SURFACE_SIDE_STYLE('',(#1066));
#1066=SURFACE_STYLE_FILL_AREA(#1067);
#1067=FILL_AREA_STYLE('Steel - Satin',(#1068));
#1068=FILL_AREA_STYLE_COLOUR('Steel - Satin',#1069);
#1069=COLOUR_RGB('Steel - Satin',0.627450980392157,0.627450980392157,0.627450980392157);
ENDSEC;
END-ISO-10303-21;
