ISO-10303-21;
HEADER;
/* Generated by software containing ST-Developer
 * from STEP Tools, Inc. (www.steptools.com) 
 */

FILE_DESCRIPTION(
/* description */ (''),
/* implementation_level */ '2;1');

FILE_NAME(
/* name */ 'Femur 1.step',
/* time_stamp */ '2026-09-01T13:39:26+04:00',
/* author */ (''),
/* organization */ (''),
/* preprocessor_version */ 'ST-DEVELOPER v20.1',
/* originating_system */ 'Autodesk Translation Framework v15.8.0.0',
/* authorisation */ '');

FILE_SCHEMA (('AUTOMOTIVE_DESIGN { 1 0 10303 214 3 1 1 }'));
ENDSEC;

DATA;
#10=MECHANICAL_DESIGN_GEOMETRIC_PRESENTATION_REPRESENTATION('',(#13),#1576);
#11=SHAPE_REPRESENTATION_RELATIONSHIP('SRR','None',#1583,#12);
#12=ADVANCED_BREP_SHAPE_REPRESENTATION('',(#14),#1575);
#13=STYLED_ITEM('',(#1592),#14);
#14=MANIFOLD_SOLID_BREP('Body1',#934);
#15=FACE_BOUND('',#130,.T.);
#16=FACE_BOUND('',#131,.T.);
#17=FACE_BOUND('',#132,.T.);
#18=FACE_BOUND('',#133,.T.);
#19=FACE_BOUND('',#134,.T.);
#20=FACE_BOUND('',#156,.T.);
#21=FACE_BOUND('',#157,.T.);
#22=FACE_BOUND('',#158,.T.);
#23=FACE_BOUND('',#160,.T.);
#24=FACE_BOUND('',#161,.T.);
#25=FACE_BOUND('',#162,.T.);
#26=FACE_BOUND('',#164,.T.);
#27=FACE_BOUND('',#165,.T.);
#28=FACE_BOUND('',#166,.T.);
#29=FACE_BOUND('',#168,.T.);
#30=FACE_BOUND('',#172,.T.);
#31=FACE_BOUND('',#173,.T.);
#32=FACE_BOUND('',#175,.T.);
#33=FACE_BOUND('',#176,.T.);
#34=FACE_BOUND('',#177,.T.);
#35=FACE_BOUND('',#178,.T.);
#36=FACE_BOUND('',#179,.T.);
#37=FACE_BOUND('',#182,.T.);
#38=FACE_BOUND('',#183,.T.);
#39=PLANE('',#951);
#40=PLANE('',#955);
#41=PLANE('',#959);
#42=PLANE('',#984);
#43=PLANE('',#988);
#44=PLANE('',#992);
#45=PLANE('',#996);
#46=PLANE('',#997);
#47=PLANE('',#1001);
#48=PLANE('',#1005);
#49=PLANE('',#1009);
#50=PLANE('',#1016);
#51=PLANE('',#1020);
#52=PLANE('',#1024);
#53=PLANE('',#1025);
#54=PLANE('',#1026);
#55=PLANE('',#1027);
#56=PLANE('',#1028);
#57=PLANE('',#1030);
#58=PLANE('',#1031);
#59=PLANE('',#1032);
#60=PLANE('',#1033);
#61=PLANE('',#1035);
#62=PLANE('',#1036);
#63=PLANE('',#1037);
#64=PLANE('',#1038);
#65=PLANE('',#1040);
#66=FACE_OUTER_BOUND('',#115,.T.);
#67=FACE_OUTER_BOUND('',#116,.T.);
#68=FACE_OUTER_BOUND('',#117,.T.);
#69=FACE_OUTER_BOUND('',#118,.T.);
#70=FACE_OUTER_BOUND('',#119,.T.);
#71=FACE_OUTER_BOUND('',#120,.T.);
#72=FACE_OUTER_BOUND('',#121,.T.);
#73=FACE_OUTER_BOUND('',#122,.T.);
#74=FACE_OUTER_BOUND('',#123,.T.);
#75=FACE_OUTER_BOUND('',#124,.T.);
#76=FACE_OUTER_BOUND('',#125,.T.);
#77=FACE_OUTER_BOUND('',#126,.T.);
#78=FACE_OUTER_BOUND('',#127,.T.);
#79=FACE_OUTER_BOUND('',#128,.T.);
#80=FACE_OUTER_BOUND('',#129,.T.);
#81=FACE_OUTER_BOUND('',#135,.T.);
#82=FACE_OUTER_BOUND('',#136,.T.);
#83=FACE_OUTER_BOUND('',#137,.T.);
#84=FACE_OUTER_BOUND('',#138,.T.);
#85=FACE_OUTER_BOUND('',#139,.T.);
#86=FACE_OUTER_BOUND('',#140,.T.);
#87=FACE_OUTER_BOUND('',#141,.T.);
#88=FACE_OUTER_BOUND('',#142,.T.);
#89=FACE_OUTER_BOUND('',#143,.T.);
#90=FACE_OUTER_BOUND('',#144,.T.);
#91=FACE_OUTER_BOUND('',#145,.T.);
#92=FACE_OUTER_BOUND('',#146,.T.);
#93=FACE_OUTER_BOUND('',#147,.T.);
#94=FACE_OUTER_BOUND('',#148,.T.);
#95=FACE_OUTER_BOUND('',#149,.T.);
#96=FACE_OUTER_BOUND('',#150,.T.);
#97=FACE_OUTER_BOUND('',#151,.T.);
#98=FACE_OUTER_BOUND('',#152,.T.);
#99=FACE_OUTER_BOUND('',#153,.T.);
#100=FACE_OUTER_BOUND('',#154,.T.);
#101=FACE_OUTER_BOUND('',#155,.T.);
#102=FACE_OUTER_BOUND('',#159,.T.);
#103=FACE_OUTER_BOUND('',#163,.T.);
#104=FACE_OUTER_BOUND('',#167,.T.);
#105=FACE_OUTER_BOUND('',#169,.T.);
#106=FACE_OUTER_BOUND('',#170,.T.);
#107=FACE_OUTER_BOUND('',#171,.T.);
#108=FACE_OUTER_BOUND('',#174,.T.);
#109=FACE_OUTER_BOUND('',#180,.T.);
#110=FACE_OUTER_BOUND('',#181,.T.);
#111=FACE_OUTER_BOUND('',#184,.T.);
#112=FACE_OUTER_BOUND('',#185,.T.);
#113=FACE_OUTER_BOUND('',#186,.T.);
#114=FACE_OUTER_BOUND('',#187,.T.);
#115=EDGE_LOOP('',(#609,#610,#611,#612));
#116=EDGE_LOOP('',(#613));
#117=EDGE_LOOP('',(#614,#615,#616,#617));
#118=EDGE_LOOP('',(#618));
#119=EDGE_LOOP('',(#619,#620,#621,#622));
#120=EDGE_LOOP('',(#623));
#121=EDGE_LOOP('',(#624,#625,#626,#627));
#122=EDGE_LOOP('',(#628,#629,#630,#631));
#123=EDGE_LOOP('',(#632,#633,#634,#635));
#124=EDGE_LOOP('',(#636,#637,#638,#639));
#125=EDGE_LOOP('',(#640,#641,#642,#643));
#126=EDGE_LOOP('',(#644,#645,#646,#647));
#127=EDGE_LOOP('',(#648,#649,#650,#651));
#128=EDGE_LOOP('',(#652,#653,#654,#655));
#129=EDGE_LOOP('',(#656));
#130=EDGE_LOOP('',(#657));
#131=EDGE_LOOP('',(#658));
#132=EDGE_LOOP('',(#659));
#133=EDGE_LOOP('',(#660));
#134=EDGE_LOOP('',(#661));
#135=EDGE_LOOP('',(#662,#663,#664,#665));
#136=EDGE_LOOP('',(#666,#667,#668,#669));
#137=EDGE_LOOP('',(#670,#671,#672,#673));
#138=EDGE_LOOP('',(#674,#675,#676,#677));
#139=EDGE_LOOP('',(#678,#679,#680,#681));
#140=EDGE_LOOP('',(#682,#683,#684,#685));
#141=EDGE_LOOP('',(#686,#687,#688,#689));
#142=EDGE_LOOP('',(#690,#691,#692,#693));
#143=EDGE_LOOP('',(#694,#695,#696,#697));
#144=EDGE_LOOP('',(#698,#699,#700,#701));
#145=EDGE_LOOP('',(#702,#703,#704,#705));
#146=EDGE_LOOP('',(#706,#707,#708,#709));
#147=EDGE_LOOP('',(#710,#711,#712,#713));
#148=EDGE_LOOP('',(#714,#715,#716,#717));
#149=EDGE_LOOP('',(#718,#719,#720,#721));
#150=EDGE_LOOP('',(#722,#723,#724,#725));
#151=EDGE_LOOP('',(#726,#727,#728,#729));
#152=EDGE_LOOP('',(#730,#731,#732,#733));
#153=EDGE_LOOP('',(#734,#735,#736,#737));
#154=EDGE_LOOP('',(#738,#739,#740,#741));
#155=EDGE_LOOP('',(#742,#743,#744,#745));
#156=EDGE_LOOP('',(#746,#747,#748,#749,#750,#751));
#157=EDGE_LOOP('',(#752,#753,#754,#755,#756,#757,#758,#759));
#158=EDGE_LOOP('',(#760,#761,#762,#763,#764,#765));
#159=EDGE_LOOP('',(#766,#767,#768,#769));
#160=EDGE_LOOP('',(#770,#771,#772,#773,#774,#775));
#161=EDGE_LOOP('',(#776,#777,#778,#779,#780,#781,#782,#783));
#162=EDGE_LOOP('',(#784,#785,#786,#787,#788,#789));
#163=EDGE_LOOP('',(#790,#791,#792,#793));
#164=EDGE_LOOP('',(#794));
#165=EDGE_LOOP('',(#795));
#166=EDGE_LOOP('',(#796));
#167=EDGE_LOOP('',(#797,#798,#799,#800));
#168=EDGE_LOOP('',(#801));
#169=EDGE_LOOP('',(#802,#803,#804,#805));
#170=EDGE_LOOP('',(#806,#807,#808,#809));
#171=EDGE_LOOP('',(#810,#811,#812,#813));
#172=EDGE_LOOP('',(#814));
#173=EDGE_LOOP('',(#815));
#174=EDGE_LOOP('',(#816,#817,#818,#819,#820,#821));
#175=EDGE_LOOP('',(#822));
#176=EDGE_LOOP('',(#823));
#177=EDGE_LOOP('',(#824));
#178=EDGE_LOOP('',(#825));
#179=EDGE_LOOP('',(#826));
#180=EDGE_LOOP('',(#827,#828,#829,#830,#831));
#181=EDGE_LOOP('',(#832,#833,#834,#835));
#182=EDGE_LOOP('',(#836));
#183=EDGE_LOOP('',(#837));
#184=EDGE_LOOP('',(#838,#839,#840,#841,#842));
#185=EDGE_LOOP('',(#843,#844,#845,#846,#847,#848,#849,#850));
#186=EDGE_LOOP('',(#851,#852,#853,#854));
#187=EDGE_LOOP('',(#855,#856,#857,#858,#859,#860,#861,#862));
#188=LINE('',#1317,#271);
#189=LINE('',#1324,#272);
#190=LINE('',#1331,#273);
#191=LINE('',#1338,#274);
#192=LINE('',#1344,#275);
#193=LINE('',#1350,#276);
#194=LINE('',#1356,#277);
#195=LINE('',#1362,#278);
#196=LINE('',#1368,#279);
#197=LINE('',#1374,#280);
#198=LINE('',#1380,#281);
#199=LINE('',#1388,#282);
#200=LINE('',#1391,#283);
#201=LINE('',#1394,#284);
#202=LINE('',#1396,#285);
#203=LINE('',#1397,#286);
#204=LINE('',#1403,#287);
#205=LINE('',#1406,#288);
#206=LINE('',#1408,#289);
#207=LINE('',#1409,#290);
#208=LINE('',#1415,#291);
#209=LINE('',#1417,#292);
#210=LINE('',#1418,#293);
#211=LINE('',#1422,#294);
#212=LINE('',#1424,#295);
#213=LINE('',#1426,#296);
#214=LINE('',#1427,#297);
#215=LINE('',#1433,#298);
#216=LINE('',#1436,#299);
#217=LINE('',#1438,#300);
#218=LINE('',#1439,#301);
#219=LINE('',#1445,#302);
#220=LINE('',#1448,#303);
#221=LINE('',#1450,#304);
#222=LINE('',#1451,#305);
#223=LINE('',#1457,#306);
#224=LINE('',#1460,#307);
#225=LINE('',#1462,#308);
#226=LINE('',#1463,#309);
#227=LINE('',#1472,#310);
#228=LINE('',#1475,#311);
#229=LINE('',#1478,#312);
#230=LINE('',#1480,#313);
#231=LINE('',#1481,#314);
#232=LINE('',#1487,#315);
#233=LINE('',#1490,#316);
#234=LINE('',#1492,#317);
#235=LINE('',#1493,#318);
#236=LINE('',#1499,#319);
#237=LINE('',#1501,#320);
#238=LINE('',#1502,#321);
#239=LINE('',#1506,#322);
#240=LINE('',#1508,#323);
#241=LINE('',#1510,#324);
#242=LINE('',#1511,#325);
#243=LINE('',#1515,#326);
#244=LINE('',#1517,#327);
#245=LINE('',#1519,#328);
#246=LINE('',#1520,#329);
#247=LINE('',#1522,#330);
#248=LINE('',#1523,#331);
#249=LINE('',#1526,#332);
#250=LINE('',#1529,#333);
#251=LINE('',#1532,#334);
#252=LINE('',#1534,#335);
#253=LINE('',#1535,#336);
#254=LINE('',#1539,#337);
#255=LINE('',#1541,#338);
#256=LINE('',#1543,#339);
#257=LINE('',#1544,#340);
#258=LINE('',#1546,#341);
#259=LINE('',#1547,#342);
#260=LINE('',#1551,#343);
#261=LINE('',#1555,#344);
#262=LINE('',#1557,#345);
#263=LINE('',#1559,#346);
#264=LINE('',#1560,#347);
#265=LINE('',#1562,#348);
#266=LINE('',#1563,#349);
#267=LINE('',#1565,#350);
#268=LINE('',#1567,#351);
#269=LINE('',#1569,#352);
#270=LINE('',#1571,#353);
#271=VECTOR('',#1047,1.6);
#272=VECTOR('',#1056,1.6);
#273=VECTOR('',#1065,1.6);
#274=VECTOR('',#1074,1.6);
#275=VECTOR('',#1081,1.6);
#276=VECTOR('',#1088,0.750000000000002);
#277=VECTOR('',#1095,0.750000000000002);
#278=VECTOR('',#1102,0.750000000000002);
#279=VECTOR('',#1109,1.6);
#280=VECTOR('',#1116,0.750000000000002);
#281=VECTOR('',#1123,10.35);
#282=VECTOR('',#1132,10.);
#283=VECTOR('',#1135,10.);
#284=VECTOR('',#1138,10.);
#285=VECTOR('',#1139,10.);
#286=VECTOR('',#1140,10.);
#287=VECTOR('',#1147,10.);
#288=VECTOR('',#1150,10.);
#289=VECTOR('',#1151,10.);
#290=VECTOR('',#1152,10.);
#291=VECTOR('',#1159,10.);
#292=VECTOR('',#1162,10.);
#293=VECTOR('',#1163,10.);
#294=VECTOR('',#1166,10.);
#295=VECTOR('',#1167,10.);
#296=VECTOR('',#1168,10.);
#297=VECTOR('',#1169,10.);
#298=VECTOR('',#1176,10.);
#299=VECTOR('',#1179,10.);
#300=VECTOR('',#1180,10.);
#301=VECTOR('',#1181,10.);
#302=VECTOR('',#1188,10.);
#303=VECTOR('',#1191,10.);
#304=VECTOR('',#1192,10.);
#305=VECTOR('',#1193,10.);
#306=VECTOR('',#1200,10.);
#307=VECTOR('',#1203,10.);
#308=VECTOR('',#1204,10.);
#309=VECTOR('',#1205,10.);
#310=VECTOR('',#1216,10.);
#311=VECTOR('',#1219,10.);
#312=VECTOR('',#1222,10.);
#313=VECTOR('',#1223,10.);
#314=VECTOR('',#1224,10.);
#315=VECTOR('',#1231,10.);
#316=VECTOR('',#1234,10.);
#317=VECTOR('',#1235,10.);
#318=VECTOR('',#1236,10.);
#319=VECTOR('',#1243,10.);
#320=VECTOR('',#1246,10.);
#321=VECTOR('',#1247,10.);
#322=VECTOR('',#1250,10.);
#323=VECTOR('',#1251,10.);
#324=VECTOR('',#1252,10.);
#325=VECTOR('',#1253,10.);
#326=VECTOR('',#1256,10.);
#327=VECTOR('',#1257,10.);
#328=VECTOR('',#1258,10.);
#329=VECTOR('',#1259,10.);
#330=VECTOR('',#1262,10.);
#331=VECTOR('',#1263,10.);
#332=VECTOR('',#1266,10.);
#333=VECTOR('',#1269,10.);
#334=VECTOR('',#1272,10.);
#335=VECTOR('',#1273,10.);
#336=VECTOR('',#1274,10.);
#337=VECTOR('',#1277,10.);
#338=VECTOR('',#1278,10.);
#339=VECTOR('',#1279,10.);
#340=VECTOR('',#1280,10.);
#341=VECTOR('',#1283,10.);
#342=VECTOR('',#1284,10.);
#343=VECTOR('',#1287,10.);
#344=VECTOR('',#1290,10.);
#345=VECTOR('',#1291,10.);
#346=VECTOR('',#1292,10.);
#347=VECTOR('',#1293,10.);
#348=VECTOR('',#1296,10.);
#349=VECTOR('',#1297,10.);
#350=VECTOR('',#1300,10.);
#351=VECTOR('',#1303,10.);
#352=VECTOR('',#1306,10.);
#353=VECTOR('',#1309,10.);
#354=CIRCLE('',#949,1.6);
#355=CIRCLE('',#950,1.6);
#356=CIRCLE('',#953,1.6);
#357=CIRCLE('',#954,1.6);
#358=CIRCLE('',#957,1.6);
#359=CIRCLE('',#958,1.6);
#360=CIRCLE('',#961,1.6);
#361=CIRCLE('',#962,1.6);
#362=CIRCLE('',#964,1.6);
#363=CIRCLE('',#965,1.6);
#364=CIRCLE('',#967,0.750000000000002);
#365=CIRCLE('',#968,0.750000000000002);
#366=CIRCLE('',#970,0.750000000000002);
#367=CIRCLE('',#971,0.750000000000002);
#368=CIRCLE('',#973,0.750000000000002);
#369=CIRCLE('',#974,0.750000000000002);
#370=CIRCLE('',#976,1.6);
#371=CIRCLE('',#977,1.6);
#372=CIRCLE('',#979,0.750000000000002);
#373=CIRCLE('',#980,0.750000000000002);
#374=CIRCLE('',#982,10.35);
#375=CIRCLE('',#983,10.35);
#376=CIRCLE('',#986,0.999999999999996);
#377=CIRCLE('',#987,0.999999999999996);
#378=CIRCLE('',#990,2.00000000000001);
#379=CIRCLE('',#991,2.00000000000001);
#380=CIRCLE('',#994,0.999999999999996);
#381=CIRCLE('',#995,0.999999999999996);
#382=CIRCLE('',#999,5.);
#383=CIRCLE('',#1000,5.);
#384=CIRCLE('',#1003,1.5);
#385=CIRCLE('',#1004,1.5);
#386=CIRCLE('',#1007,4.99999999999998);
#387=CIRCLE('',#1008,4.99999999999998);
#388=CIRCLE('',#1011,1.5);
#389=CIRCLE('',#1012,1.5);
#390=CIRCLE('',#1014,0.999999999999997);
#391=CIRCLE('',#1015,0.999999999999997);
#392=CIRCLE('',#1018,1.);
#393=CIRCLE('',#1019,1.);
#394=CIRCLE('',#1022,2.);
#395=CIRCLE('',#1023,2.);
#396=CIRCLE('',#1029,15.);
#397=CIRCLE('',#1034,15.);
#398=VERTEX_POINT('',#1314);
#399=VERTEX_POINT('',#1316);
#400=VERTEX_POINT('',#1321);
#401=VERTEX_POINT('',#1323);
#402=VERTEX_POINT('',#1328);
#403=VERTEX_POINT('',#1330);
#404=VERTEX_POINT('',#1335);
#405=VERTEX_POINT('',#1337);
#406=VERTEX_POINT('',#1341);
#407=VERTEX_POINT('',#1343);
#408=VERTEX_POINT('',#1347);
#409=VERTEX_POINT('',#1349);
#410=VERTEX_POINT('',#1353);
#411=VERTEX_POINT('',#1355);
#412=VERTEX_POINT('',#1359);
#413=VERTEX_POINT('',#1361);
#414=VERTEX_POINT('',#1365);
#415=VERTEX_POINT('',#1367);
#416=VERTEX_POINT('',#1371);
#417=VERTEX_POINT('',#1373);
#418=VERTEX_POINT('',#1377);
#419=VERTEX_POINT('',#1379);
#420=VERTEX_POINT('',#1384);
#421=VERTEX_POINT('',#1385);
#422=VERTEX_POINT('',#1387);
#423=VERTEX_POINT('',#1389);
#424=VERTEX_POINT('',#1393);
#425=VERTEX_POINT('',#1395);
#426=VERTEX_POINT('',#1399);
#427=VERTEX_POINT('',#1401);
#428=VERTEX_POINT('',#1405);
#429=VERTEX_POINT('',#1407);
#430=VERTEX_POINT('',#1411);
#431=VERTEX_POINT('',#1413);
#432=VERTEX_POINT('',#1420);
#433=VERTEX_POINT('',#1421);
#434=VERTEX_POINT('',#1423);
#435=VERTEX_POINT('',#1425);
#436=VERTEX_POINT('',#1429);
#437=VERTEX_POINT('',#1431);
#438=VERTEX_POINT('',#1435);
#439=VERTEX_POINT('',#1437);
#440=VERTEX_POINT('',#1441);
#441=VERTEX_POINT('',#1443);
#442=VERTEX_POINT('',#1447);
#443=VERTEX_POINT('',#1449);
#444=VERTEX_POINT('',#1453);
#445=VERTEX_POINT('',#1455);
#446=VERTEX_POINT('',#1459);
#447=VERTEX_POINT('',#1461);
#448=VERTEX_POINT('',#1468);
#449=VERTEX_POINT('',#1469);
#450=VERTEX_POINT('',#1471);
#451=VERTEX_POINT('',#1473);
#452=VERTEX_POINT('',#1477);
#453=VERTEX_POINT('',#1479);
#454=VERTEX_POINT('',#1483);
#455=VERTEX_POINT('',#1485);
#456=VERTEX_POINT('',#1489);
#457=VERTEX_POINT('',#1491);
#458=VERTEX_POINT('',#1495);
#459=VERTEX_POINT('',#1497);
#460=VERTEX_POINT('',#1504);
#461=VERTEX_POINT('',#1505);
#462=VERTEX_POINT('',#1507);
#463=VERTEX_POINT('',#1509);
#464=VERTEX_POINT('',#1513);
#465=VERTEX_POINT('',#1514);
#466=VERTEX_POINT('',#1516);
#467=VERTEX_POINT('',#1518);
#468=VERTEX_POINT('',#1525);
#469=VERTEX_POINT('',#1527);
#470=VERTEX_POINT('',#1531);
#471=VERTEX_POINT('',#1533);
#472=VERTEX_POINT('',#1537);
#473=VERTEX_POINT('',#1538);
#474=VERTEX_POINT('',#1540);
#475=VERTEX_POINT('',#1542);
#476=VERTEX_POINT('',#1549);
#477=VERTEX_POINT('',#1550);
#478=VERTEX_POINT('',#1552);
#479=VERTEX_POINT('',#1554);
#480=VERTEX_POINT('',#1556);
#481=VERTEX_POINT('',#1558);
#482=EDGE_CURVE('',#398,#398,#354,.T.);
#483=EDGE_CURVE('',#398,#399,#188,.T.);
#484=EDGE_CURVE('',#399,#399,#355,.T.);
#485=EDGE_CURVE('',#400,#400,#356,.T.);
#486=EDGE_CURVE('',#400,#401,#189,.T.);
#487=EDGE_CURVE('',#401,#401,#357,.T.);
#488=EDGE_CURVE('',#402,#402,#358,.T.);
#489=EDGE_CURVE('',#402,#403,#190,.T.);
#490=EDGE_CURVE('',#403,#403,#359,.T.);
#491=EDGE_CURVE('',#404,#404,#360,.T.);
#492=EDGE_CURVE('',#404,#405,#191,.T.);
#493=EDGE_CURVE('',#405,#405,#361,.T.);
#494=EDGE_CURVE('',#406,#406,#362,.T.);
#495=EDGE_CURVE('',#406,#407,#192,.T.);
#496=EDGE_CURVE('',#407,#407,#363,.T.);
#497=EDGE_CURVE('',#408,#408,#364,.T.);
#498=EDGE_CURVE('',#408,#409,#193,.T.);
#499=EDGE_CURVE('',#409,#409,#365,.T.);
#500=EDGE_CURVE('',#410,#410,#366,.T.);
#501=EDGE_CURVE('',#410,#411,#194,.T.);
#502=EDGE_CURVE('',#411,#411,#367,.T.);
#503=EDGE_CURVE('',#412,#412,#368,.T.);
#504=EDGE_CURVE('',#412,#413,#195,.T.);
#505=EDGE_CURVE('',#413,#413,#369,.T.);
#506=EDGE_CURVE('',#414,#414,#370,.T.);
#507=EDGE_CURVE('',#414,#415,#196,.T.);
#508=EDGE_CURVE('',#415,#415,#371,.T.);
#509=EDGE_CURVE('',#416,#416,#372,.T.);
#510=EDGE_CURVE('',#416,#417,#197,.T.);
#511=EDGE_CURVE('',#417,#417,#373,.T.);
#512=EDGE_CURVE('',#418,#418,#374,.T.);
#513=EDGE_CURVE('',#418,#419,#198,.T.);
#514=EDGE_CURVE('',#419,#419,#375,.T.);
#515=EDGE_CURVE('',#420,#421,#376,.T.);
#516=EDGE_CURVE('',#422,#420,#199,.T.);
#517=EDGE_CURVE('',#423,#422,#377,.T.);
#518=EDGE_CURVE('',#423,#421,#200,.T.);
#519=EDGE_CURVE('',#421,#424,#201,.T.);
#520=EDGE_CURVE('',#425,#423,#202,.T.);
#521=EDGE_CURVE('',#425,#424,#203,.T.);
#522=EDGE_CURVE('',#424,#426,#378,.T.);
#523=EDGE_CURVE('',#427,#425,#379,.T.);
#524=EDGE_CURVE('',#427,#426,#204,.T.);
#525=EDGE_CURVE('',#426,#428,#205,.T.);
#526=EDGE_CURVE('',#429,#427,#206,.T.);
#527=EDGE_CURVE('',#429,#428,#207,.T.);
#528=EDGE_CURVE('',#428,#430,#380,.T.);
#529=EDGE_CURVE('',#431,#429,#381,.T.);
#530=EDGE_CURVE('',#431,#430,#208,.T.);
#531=EDGE_CURVE('',#430,#420,#209,.T.);
#532=EDGE_CURVE('',#422,#431,#210,.T.);
#533=EDGE_CURVE('',#432,#433,#211,.T.);
#534=EDGE_CURVE('',#434,#432,#212,.T.);
#535=EDGE_CURVE('',#435,#434,#213,.T.);
#536=EDGE_CURVE('',#435,#433,#214,.T.);
#537=EDGE_CURVE('',#433,#436,#382,.T.);
#538=EDGE_CURVE('',#437,#435,#383,.T.);
#539=EDGE_CURVE('',#437,#436,#215,.T.);
#540=EDGE_CURVE('',#436,#438,#216,.T.);
#541=EDGE_CURVE('',#439,#437,#217,.T.);
#542=EDGE_CURVE('',#439,#438,#218,.T.);
#543=EDGE_CURVE('',#438,#440,#384,.T.);
#544=EDGE_CURVE('',#441,#439,#385,.T.);
#545=EDGE_CURVE('',#441,#440,#219,.T.);
#546=EDGE_CURVE('',#440,#442,#220,.T.);
#547=EDGE_CURVE('',#443,#441,#221,.T.);
#548=EDGE_CURVE('',#443,#442,#222,.T.);
#549=EDGE_CURVE('',#442,#444,#386,.T.);
#550=EDGE_CURVE('',#445,#443,#387,.T.);
#551=EDGE_CURVE('',#445,#444,#223,.T.);
#552=EDGE_CURVE('',#444,#446,#224,.T.);
#553=EDGE_CURVE('',#447,#445,#225,.T.);
#554=EDGE_CURVE('',#447,#446,#226,.T.);
#555=EDGE_CURVE('',#446,#432,#388,.T.);
#556=EDGE_CURVE('',#434,#447,#389,.T.);
#557=EDGE_CURVE('',#448,#449,#390,.T.);
#558=EDGE_CURVE('',#450,#448,#227,.T.);
#559=EDGE_CURVE('',#451,#450,#391,.T.);
#560=EDGE_CURVE('',#451,#449,#228,.T.);
#561=EDGE_CURVE('',#449,#452,#229,.T.);
#562=EDGE_CURVE('',#453,#451,#230,.T.);
#563=EDGE_CURVE('',#453,#452,#231,.T.);
#564=EDGE_CURVE('',#452,#454,#392,.T.);
#565=EDGE_CURVE('',#455,#453,#393,.T.);
#566=EDGE_CURVE('',#455,#454,#232,.T.);
#567=EDGE_CURVE('',#454,#456,#233,.T.);
#568=EDGE_CURVE('',#457,#455,#234,.T.);
#569=EDGE_CURVE('',#457,#456,#235,.T.);
#570=EDGE_CURVE('',#456,#458,#394,.T.);
#571=EDGE_CURVE('',#459,#457,#395,.T.);
#572=EDGE_CURVE('',#459,#458,#236,.T.);
#573=EDGE_CURVE('',#458,#448,#237,.T.);
#574=EDGE_CURVE('',#450,#459,#238,.T.);
#575=EDGE_CURVE('',#460,#461,#239,.T.);
#576=EDGE_CURVE('',#460,#462,#240,.T.);
#577=EDGE_CURVE('',#463,#462,#241,.T.);
#578=EDGE_CURVE('',#461,#463,#242,.T.);
#579=EDGE_CURVE('',#464,#465,#243,.T.);
#580=EDGE_CURVE('',#464,#466,#244,.T.);
#581=EDGE_CURVE('',#467,#466,#245,.T.);
#582=EDGE_CURVE('',#465,#467,#246,.T.);
#583=EDGE_CURVE('',#462,#467,#247,.T.);
#584=EDGE_CURVE('',#466,#463,#248,.T.);
#585=EDGE_CURVE('',#461,#468,#249,.T.);
#586=EDGE_CURVE('',#469,#468,#396,.T.);
#587=EDGE_CURVE('',#460,#469,#250,.T.);
#588=EDGE_CURVE('',#470,#465,#251,.T.);
#589=EDGE_CURVE('',#470,#471,#252,.T.);
#590=EDGE_CURVE('',#471,#464,#253,.T.);
#591=EDGE_CURVE('',#472,#473,#254,.T.);
#592=EDGE_CURVE('',#473,#474,#255,.T.);
#593=EDGE_CURVE('',#475,#474,#256,.T.);
#594=EDGE_CURVE('',#472,#475,#257,.T.);
#595=EDGE_CURVE('',#470,#474,#258,.T.);
#596=EDGE_CURVE('',#471,#473,#259,.T.);
#597=EDGE_CURVE('',#476,#477,#260,.T.);
#598=EDGE_CURVE('',#477,#478,#397,.T.);
#599=EDGE_CURVE('',#478,#479,#261,.T.);
#600=EDGE_CURVE('',#479,#480,#262,.T.);
#601=EDGE_CURVE('',#480,#481,#263,.T.);
#602=EDGE_CURVE('',#481,#476,#264,.T.);
#603=EDGE_CURVE('',#470,#476,#265,.T.);
#604=EDGE_CURVE('',#475,#481,#266,.T.);
#605=EDGE_CURVE('',#472,#480,#267,.T.);
#606=EDGE_CURVE('',#471,#479,#268,.T.);
#607=EDGE_CURVE('',#468,#478,#269,.T.);
#608=EDGE_CURVE('',#469,#477,#270,.T.);
#609=ORIENTED_EDGE('',*,*,#482,.F.);
#610=ORIENTED_EDGE('',*,*,#483,.T.);
#611=ORIENTED_EDGE('',*,*,#484,.T.);
#612=ORIENTED_EDGE('',*,*,#483,.F.);
#613=ORIENTED_EDGE('',*,*,#484,.F.);
#614=ORIENTED_EDGE('',*,*,#485,.F.);
#615=ORIENTED_EDGE('',*,*,#486,.T.);
#616=ORIENTED_EDGE('',*,*,#487,.T.);
#617=ORIENTED_EDGE('',*,*,#486,.F.);
#618=ORIENTED_EDGE('',*,*,#487,.F.);
#619=ORIENTED_EDGE('',*,*,#488,.F.);
#620=ORIENTED_EDGE('',*,*,#489,.T.);
#621=ORIENTED_EDGE('',*,*,#490,.T.);
#622=ORIENTED_EDGE('',*,*,#489,.F.);
#623=ORIENTED_EDGE('',*,*,#490,.F.);
#624=ORIENTED_EDGE('',*,*,#491,.F.);
#625=ORIENTED_EDGE('',*,*,#492,.T.);
#626=ORIENTED_EDGE('',*,*,#493,.F.);
#627=ORIENTED_EDGE('',*,*,#492,.F.);
#628=ORIENTED_EDGE('',*,*,#494,.F.);
#629=ORIENTED_EDGE('',*,*,#495,.T.);
#630=ORIENTED_EDGE('',*,*,#496,.F.);
#631=ORIENTED_EDGE('',*,*,#495,.F.);
#632=ORIENTED_EDGE('',*,*,#497,.F.);
#633=ORIENTED_EDGE('',*,*,#498,.T.);
#634=ORIENTED_EDGE('',*,*,#499,.F.);
#635=ORIENTED_EDGE('',*,*,#498,.F.);
#636=ORIENTED_EDGE('',*,*,#500,.F.);
#637=ORIENTED_EDGE('',*,*,#501,.T.);
#638=ORIENTED_EDGE('',*,*,#502,.F.);
#639=ORIENTED_EDGE('',*,*,#501,.F.);
#640=ORIENTED_EDGE('',*,*,#503,.F.);
#641=ORIENTED_EDGE('',*,*,#504,.T.);
#642=ORIENTED_EDGE('',*,*,#505,.F.);
#643=ORIENTED_EDGE('',*,*,#504,.F.);
#644=ORIENTED_EDGE('',*,*,#506,.F.);
#645=ORIENTED_EDGE('',*,*,#507,.T.);
#646=ORIENTED_EDGE('',*,*,#508,.F.);
#647=ORIENTED_EDGE('',*,*,#507,.F.);
#648=ORIENTED_EDGE('',*,*,#509,.F.);
#649=ORIENTED_EDGE('',*,*,#510,.T.);
#650=ORIENTED_EDGE('',*,*,#511,.F.);
#651=ORIENTED_EDGE('',*,*,#510,.F.);
#652=ORIENTED_EDGE('',*,*,#512,.F.);
#653=ORIENTED_EDGE('',*,*,#513,.T.);
#654=ORIENTED_EDGE('',*,*,#514,.T.);
#655=ORIENTED_EDGE('',*,*,#513,.F.);
#656=ORIENTED_EDGE('',*,*,#514,.F.);
#657=ORIENTED_EDGE('',*,*,#509,.T.);
#658=ORIENTED_EDGE('',*,*,#506,.T.);
#659=ORIENTED_EDGE('',*,*,#503,.T.);
#660=ORIENTED_EDGE('',*,*,#500,.T.);
#661=ORIENTED_EDGE('',*,*,#497,.T.);
#662=ORIENTED_EDGE('',*,*,#515,.F.);
#663=ORIENTED_EDGE('',*,*,#516,.F.);
#664=ORIENTED_EDGE('',*,*,#517,.F.);
#665=ORIENTED_EDGE('',*,*,#518,.T.);
#666=ORIENTED_EDGE('',*,*,#519,.F.);
#667=ORIENTED_EDGE('',*,*,#518,.F.);
#668=ORIENTED_EDGE('',*,*,#520,.F.);
#669=ORIENTED_EDGE('',*,*,#521,.T.);
#670=ORIENTED_EDGE('',*,*,#522,.F.);
#671=ORIENTED_EDGE('',*,*,#521,.F.);
#672=ORIENTED_EDGE('',*,*,#523,.F.);
#673=ORIENTED_EDGE('',*,*,#524,.T.);
#674=ORIENTED_EDGE('',*,*,#525,.F.);
#675=ORIENTED_EDGE('',*,*,#524,.F.);
#676=ORIENTED_EDGE('',*,*,#526,.F.);
#677=ORIENTED_EDGE('',*,*,#527,.T.);
#678=ORIENTED_EDGE('',*,*,#528,.F.);
#679=ORIENTED_EDGE('',*,*,#527,.F.);
#680=ORIENTED_EDGE('',*,*,#529,.F.);
#681=ORIENTED_EDGE('',*,*,#530,.T.);
#682=ORIENTED_EDGE('',*,*,#531,.F.);
#683=ORIENTED_EDGE('',*,*,#530,.F.);
#684=ORIENTED_EDGE('',*,*,#532,.F.);
#685=ORIENTED_EDGE('',*,*,#516,.T.);
#686=ORIENTED_EDGE('',*,*,#533,.F.);
#687=ORIENTED_EDGE('',*,*,#534,.F.);
#688=ORIENTED_EDGE('',*,*,#535,.F.);
#689=ORIENTED_EDGE('',*,*,#536,.T.);
#690=ORIENTED_EDGE('',*,*,#537,.F.);
#691=ORIENTED_EDGE('',*,*,#536,.F.);
#692=ORIENTED_EDGE('',*,*,#538,.F.);
#693=ORIENTED_EDGE('',*,*,#539,.T.);
#694=ORIENTED_EDGE('',*,*,#540,.F.);
#695=ORIENTED_EDGE('',*,*,#539,.F.);
#696=ORIENTED_EDGE('',*,*,#541,.F.);
#697=ORIENTED_EDGE('',*,*,#542,.T.);
#698=ORIENTED_EDGE('',*,*,#543,.F.);
#699=ORIENTED_EDGE('',*,*,#542,.F.);
#700=ORIENTED_EDGE('',*,*,#544,.F.);
#701=ORIENTED_EDGE('',*,*,#545,.T.);
#702=ORIENTED_EDGE('',*,*,#546,.F.);
#703=ORIENTED_EDGE('',*,*,#545,.F.);
#704=ORIENTED_EDGE('',*,*,#547,.F.);
#705=ORIENTED_EDGE('',*,*,#548,.T.);
#706=ORIENTED_EDGE('',*,*,#549,.F.);
#707=ORIENTED_EDGE('',*,*,#548,.F.);
#708=ORIENTED_EDGE('',*,*,#550,.F.);
#709=ORIENTED_EDGE('',*,*,#551,.T.);
#710=ORIENTED_EDGE('',*,*,#552,.F.);
#711=ORIENTED_EDGE('',*,*,#551,.F.);
#712=ORIENTED_EDGE('',*,*,#553,.F.);
#713=ORIENTED_EDGE('',*,*,#554,.T.);
#714=ORIENTED_EDGE('',*,*,#555,.F.);
#715=ORIENTED_EDGE('',*,*,#554,.F.);
#716=ORIENTED_EDGE('',*,*,#556,.F.);
#717=ORIENTED_EDGE('',*,*,#534,.T.);
#718=ORIENTED_EDGE('',*,*,#557,.F.);
#719=ORIENTED_EDGE('',*,*,#558,.F.);
#720=ORIENTED_EDGE('',*,*,#559,.F.);
#721=ORIENTED_EDGE('',*,*,#560,.T.);
#722=ORIENTED_EDGE('',*,*,#561,.F.);
#723=ORIENTED_EDGE('',*,*,#560,.F.);
#724=ORIENTED_EDGE('',*,*,#562,.F.);
#725=ORIENTED_EDGE('',*,*,#563,.T.);
#726=ORIENTED_EDGE('',*,*,#564,.F.);
#727=ORIENTED_EDGE('',*,*,#563,.F.);
#728=ORIENTED_EDGE('',*,*,#565,.F.);
#729=ORIENTED_EDGE('',*,*,#566,.T.);
#730=ORIENTED_EDGE('',*,*,#567,.F.);
#731=ORIENTED_EDGE('',*,*,#566,.F.);
#732=ORIENTED_EDGE('',*,*,#568,.F.);
#733=ORIENTED_EDGE('',*,*,#569,.T.);
#734=ORIENTED_EDGE('',*,*,#570,.F.);
#735=ORIENTED_EDGE('',*,*,#569,.F.);
#736=ORIENTED_EDGE('',*,*,#571,.F.);
#737=ORIENTED_EDGE('',*,*,#572,.T.);
#738=ORIENTED_EDGE('',*,*,#573,.F.);
#739=ORIENTED_EDGE('',*,*,#572,.F.);
#740=ORIENTED_EDGE('',*,*,#574,.F.);
#741=ORIENTED_EDGE('',*,*,#558,.T.);
#742=ORIENTED_EDGE('',*,*,#575,.F.);
#743=ORIENTED_EDGE('',*,*,#576,.T.);
#744=ORIENTED_EDGE('',*,*,#577,.F.);
#745=ORIENTED_EDGE('',*,*,#578,.F.);
#746=ORIENTED_EDGE('',*,*,#526,.T.);
#747=ORIENTED_EDGE('',*,*,#523,.T.);
#748=ORIENTED_EDGE('',*,*,#520,.T.);
#749=ORIENTED_EDGE('',*,*,#517,.T.);
#750=ORIENTED_EDGE('',*,*,#532,.T.);
#751=ORIENTED_EDGE('',*,*,#529,.T.);
#752=ORIENTED_EDGE('',*,*,#547,.T.);
#753=ORIENTED_EDGE('',*,*,#544,.T.);
#754=ORIENTED_EDGE('',*,*,#541,.T.);
#755=ORIENTED_EDGE('',*,*,#538,.T.);
#756=ORIENTED_EDGE('',*,*,#535,.T.);
#757=ORIENTED_EDGE('',*,*,#556,.T.);
#758=ORIENTED_EDGE('',*,*,#553,.T.);
#759=ORIENTED_EDGE('',*,*,#550,.T.);
#760=ORIENTED_EDGE('',*,*,#568,.T.);
#761=ORIENTED_EDGE('',*,*,#565,.T.);
#762=ORIENTED_EDGE('',*,*,#562,.T.);
#763=ORIENTED_EDGE('',*,*,#559,.T.);
#764=ORIENTED_EDGE('',*,*,#574,.T.);
#765=ORIENTED_EDGE('',*,*,#571,.T.);
#766=ORIENTED_EDGE('',*,*,#579,.F.);
#767=ORIENTED_EDGE('',*,*,#580,.T.);
#768=ORIENTED_EDGE('',*,*,#581,.F.);
#769=ORIENTED_EDGE('',*,*,#582,.F.);
#770=ORIENTED_EDGE('',*,*,#525,.T.);
#771=ORIENTED_EDGE('',*,*,#528,.T.);
#772=ORIENTED_EDGE('',*,*,#531,.T.);
#773=ORIENTED_EDGE('',*,*,#515,.T.);
#774=ORIENTED_EDGE('',*,*,#519,.T.);
#775=ORIENTED_EDGE('',*,*,#522,.T.);
#776=ORIENTED_EDGE('',*,*,#546,.T.);
#777=ORIENTED_EDGE('',*,*,#549,.T.);
#778=ORIENTED_EDGE('',*,*,#552,.T.);
#779=ORIENTED_EDGE('',*,*,#555,.T.);
#780=ORIENTED_EDGE('',*,*,#533,.T.);
#781=ORIENTED_EDGE('',*,*,#537,.T.);
#782=ORIENTED_EDGE('',*,*,#540,.T.);
#783=ORIENTED_EDGE('',*,*,#543,.T.);
#784=ORIENTED_EDGE('',*,*,#567,.T.);
#785=ORIENTED_EDGE('',*,*,#570,.T.);
#786=ORIENTED_EDGE('',*,*,#573,.T.);
#787=ORIENTED_EDGE('',*,*,#557,.T.);
#788=ORIENTED_EDGE('',*,*,#561,.T.);
#789=ORIENTED_EDGE('',*,*,#564,.T.);
#790=ORIENTED_EDGE('',*,*,#583,.T.);
#791=ORIENTED_EDGE('',*,*,#581,.T.);
#792=ORIENTED_EDGE('',*,*,#584,.T.);
#793=ORIENTED_EDGE('',*,*,#577,.T.);
#794=ORIENTED_EDGE('',*,*,#482,.T.);
#795=ORIENTED_EDGE('',*,*,#485,.T.);
#796=ORIENTED_EDGE('',*,*,#488,.T.);
#797=ORIENTED_EDGE('',*,*,#575,.T.);
#798=ORIENTED_EDGE('',*,*,#585,.T.);
#799=ORIENTED_EDGE('',*,*,#586,.F.);
#800=ORIENTED_EDGE('',*,*,#587,.F.);
#801=ORIENTED_EDGE('',*,*,#512,.T.);
#802=ORIENTED_EDGE('',*,*,#579,.T.);
#803=ORIENTED_EDGE('',*,*,#588,.F.);
#804=ORIENTED_EDGE('',*,*,#589,.T.);
#805=ORIENTED_EDGE('',*,*,#590,.T.);
#806=ORIENTED_EDGE('',*,*,#591,.T.);
#807=ORIENTED_EDGE('',*,*,#592,.T.);
#808=ORIENTED_EDGE('',*,*,#593,.F.);
#809=ORIENTED_EDGE('',*,*,#594,.F.);
#810=ORIENTED_EDGE('',*,*,#589,.F.);
#811=ORIENTED_EDGE('',*,*,#595,.T.);
#812=ORIENTED_EDGE('',*,*,#592,.F.);
#813=ORIENTED_EDGE('',*,*,#596,.F.);
#814=ORIENTED_EDGE('',*,*,#491,.T.);
#815=ORIENTED_EDGE('',*,*,#494,.T.);
#816=ORIENTED_EDGE('',*,*,#597,.T.);
#817=ORIENTED_EDGE('',*,*,#598,.T.);
#818=ORIENTED_EDGE('',*,*,#599,.T.);
#819=ORIENTED_EDGE('',*,*,#600,.T.);
#820=ORIENTED_EDGE('',*,*,#601,.T.);
#821=ORIENTED_EDGE('',*,*,#602,.T.);
#822=ORIENTED_EDGE('',*,*,#511,.T.);
#823=ORIENTED_EDGE('',*,*,#508,.T.);
#824=ORIENTED_EDGE('',*,*,#505,.T.);
#825=ORIENTED_EDGE('',*,*,#502,.T.);
#826=ORIENTED_EDGE('',*,*,#499,.T.);
#827=ORIENTED_EDGE('',*,*,#603,.T.);
#828=ORIENTED_EDGE('',*,*,#602,.F.);
#829=ORIENTED_EDGE('',*,*,#604,.F.);
#830=ORIENTED_EDGE('',*,*,#593,.T.);
#831=ORIENTED_EDGE('',*,*,#595,.F.);
#832=ORIENTED_EDGE('',*,*,#604,.T.);
#833=ORIENTED_EDGE('',*,*,#601,.F.);
#834=ORIENTED_EDGE('',*,*,#605,.F.);
#835=ORIENTED_EDGE('',*,*,#594,.T.);
#836=ORIENTED_EDGE('',*,*,#493,.T.);
#837=ORIENTED_EDGE('',*,*,#496,.T.);
#838=ORIENTED_EDGE('',*,*,#605,.T.);
#839=ORIENTED_EDGE('',*,*,#600,.F.);
#840=ORIENTED_EDGE('',*,*,#606,.F.);
#841=ORIENTED_EDGE('',*,*,#596,.T.);
#842=ORIENTED_EDGE('',*,*,#591,.F.);
#843=ORIENTED_EDGE('',*,*,#590,.F.);
#844=ORIENTED_EDGE('',*,*,#606,.T.);
#845=ORIENTED_EDGE('',*,*,#599,.F.);
#846=ORIENTED_EDGE('',*,*,#607,.F.);
#847=ORIENTED_EDGE('',*,*,#585,.F.);
#848=ORIENTED_EDGE('',*,*,#578,.T.);
#849=ORIENTED_EDGE('',*,*,#584,.F.);
#850=ORIENTED_EDGE('',*,*,#580,.F.);
#851=ORIENTED_EDGE('',*,*,#586,.T.);
#852=ORIENTED_EDGE('',*,*,#607,.T.);
#853=ORIENTED_EDGE('',*,*,#598,.F.);
#854=ORIENTED_EDGE('',*,*,#608,.F.);
#855=ORIENTED_EDGE('',*,*,#588,.T.);
#856=ORIENTED_EDGE('',*,*,#582,.T.);
#857=ORIENTED_EDGE('',*,*,#583,.F.);
#858=ORIENTED_EDGE('',*,*,#576,.F.);
#859=ORIENTED_EDGE('',*,*,#587,.T.);
#860=ORIENTED_EDGE('',*,*,#608,.T.);
#861=ORIENTED_EDGE('',*,*,#597,.F.);
#862=ORIENTED_EDGE('',*,*,#603,.F.);
#863=CYLINDRICAL_SURFACE('',#948,1.6);
#864=CYLINDRICAL_SURFACE('',#952,1.6);
#865=CYLINDRICAL_SURFACE('',#956,1.6);
#866=CYLINDRICAL_SURFACE('',#960,1.6);
#867=CYLINDRICAL_SURFACE('',#963,1.6);
#868=CYLINDRICAL_SURFACE('',#966,0.750000000000002);
#869=CYLINDRICAL_SURFACE('',#969,0.750000000000002);
#870=CYLINDRICAL_SURFACE('',#972,0.750000000000002);
#871=CYLINDRICAL_SURFACE('',#975,1.6);
#872=CYLINDRICAL_SURFACE('',#978,0.750000000000002);
#873=CYLINDRICAL_SURFACE('',#981,10.35);
#874=CYLINDRICAL_SURFACE('',#985,0.999999999999996);
#875=CYLINDRICAL_SURFACE('',#989,2.00000000000001);
#876=CYLINDRICAL_SURFACE('',#993,0.999999999999996);
#877=CYLINDRICAL_SURFACE('',#998,5.);
#878=CYLINDRICAL_SURFACE('',#1002,1.5);
#879=CYLINDRICAL_SURFACE('',#1006,4.99999999999998);
#880=CYLINDRICAL_SURFACE('',#1010,1.5);
#881=CYLINDRICAL_SURFACE('',#1013,0.999999999999997);
#882=CYLINDRICAL_SURFACE('',#1017,1.);
#883=CYLINDRICAL_SURFACE('',#1021,2.);
#884=CYLINDRICAL_SURFACE('',#1039,15.);
#885=ADVANCED_FACE('',(#66),#863,.F.);
#886=ADVANCED_FACE('',(#67),#39,.T.);
#887=ADVANCED_FACE('',(#68),#864,.F.);
#888=ADVANCED_FACE('',(#69),#40,.T.);
#889=ADVANCED_FACE('',(#70),#865,.F.);
#890=ADVANCED_FACE('',(#71),#41,.T.);
#891=ADVANCED_FACE('',(#72),#866,.F.);
#892=ADVANCED_FACE('',(#73),#867,.F.);
#893=ADVANCED_FACE('',(#74),#868,.F.);
#894=ADVANCED_FACE('',(#75),#869,.F.);
#895=ADVANCED_FACE('',(#76),#870,.F.);
#896=ADVANCED_FACE('',(#77),#871,.F.);
#897=ADVANCED_FACE('',(#78),#872,.F.);
#898=ADVANCED_FACE('',(#79),#873,.F.);
#899=ADVANCED_FACE('',(#80,#15,#16,#17,#18,#19),#42,.T.);
#900=ADVANCED_FACE('',(#81),#874,.F.);
#901=ADVANCED_FACE('',(#82),#43,.F.);
#902=ADVANCED_FACE('',(#83),#875,.F.);
#903=ADVANCED_FACE('',(#84),#44,.F.);
#904=ADVANCED_FACE('',(#85),#876,.F.);
#905=ADVANCED_FACE('',(#86),#45,.F.);
#906=ADVANCED_FACE('',(#87),#46,.F.);
#907=ADVANCED_FACE('',(#88),#877,.F.);
#908=ADVANCED_FACE('',(#89),#47,.F.);
#909=ADVANCED_FACE('',(#90),#878,.F.);
#910=ADVANCED_FACE('',(#91),#48,.F.);
#911=ADVANCED_FACE('',(#92),#879,.F.);
#912=ADVANCED_FACE('',(#93),#49,.F.);
#913=ADVANCED_FACE('',(#94),#880,.F.);
#914=ADVANCED_FACE('',(#95),#881,.F.);
#915=ADVANCED_FACE('',(#96),#50,.F.);
#916=ADVANCED_FACE('',(#97),#882,.F.);
#917=ADVANCED_FACE('',(#98),#51,.F.);
#918=ADVANCED_FACE('',(#99),#883,.F.);
#919=ADVANCED_FACE('',(#100),#52,.F.);
#920=ADVANCED_FACE('',(#101,#20,#21,#22),#53,.T.);
#921=ADVANCED_FACE('',(#102,#23,#24,#25),#54,.T.);
#922=ADVANCED_FACE('',(#103,#26,#27,#28),#55,.T.);
#923=ADVANCED_FACE('',(#104,#29),#56,.F.);
#924=ADVANCED_FACE('',(#105),#57,.F.);
#925=ADVANCED_FACE('',(#106),#58,.T.);
#926=ADVANCED_FACE('',(#107,#30,#31),#59,.T.);
#927=ADVANCED_FACE('',(#108,#32,#33,#34,#35,#36),#60,.T.);
#928=ADVANCED_FACE('',(#109),#61,.T.);
#929=ADVANCED_FACE('',(#110,#37,#38),#62,.T.);
#930=ADVANCED_FACE('',(#111),#63,.T.);
#931=ADVANCED_FACE('',(#112),#64,.T.);
#932=ADVANCED_FACE('',(#113),#884,.T.);
#933=ADVANCED_FACE('',(#114),#65,.T.);
#934=CLOSED_SHELL('',(#885,#886,#887,#888,#889,#890,#891,#892,#893,#894,
#895,#896,#897,#898,#899,#900,#901,#902,#903,#904,#905,#906,#907,#908,#909,
#910,#911,#912,#913,#914,#915,#916,#917,#918,#919,#920,#921,#922,#923,#924,
#925,#926,#927,#928,#929,#930,#931,#932,#933));
#935=DERIVED_UNIT_ELEMENT(#937,1.);
#936=DERIVED_UNIT_ELEMENT(#1578,-3.);
#937=(
MASS_UNIT()
NAMED_UNIT(*)
SI_UNIT(.KILO.,.GRAM.)
);
#938=DERIVED_UNIT((#935,#936));
#939=MEASURE_REPRESENTATION_ITEM('density measure',
POSITIVE_RATIO_MEASURE(7850.),#938);
#940=PROPERTY_DEFINITION_REPRESENTATION(#945,#942);
#941=PROPERTY_DEFINITION_REPRESENTATION(#946,#943);
#942=REPRESENTATION('material name',(#944),#1575);
#943=REPRESENTATION('density',(#939),#1575);
#944=DESCRIPTIVE_REPRESENTATION_ITEM('Steel','Steel');
#945=PROPERTY_DEFINITION('material property','material name',#1585);
#946=PROPERTY_DEFINITION('material property','density of part',#1585);
#947=AXIS2_PLACEMENT_3D('',#1312,#1041,#1042);
#948=AXIS2_PLACEMENT_3D('',#1313,#1043,#1044);
#949=AXIS2_PLACEMENT_3D('',#1315,#1045,#1046);
#950=AXIS2_PLACEMENT_3D('',#1318,#1048,#1049);
#951=AXIS2_PLACEMENT_3D('',#1319,#1050,#1051);
#952=AXIS2_PLACEMENT_3D('',#1320,#1052,#1053);
#953=AXIS2_PLACEMENT_3D('',#1322,#1054,#1055);
#954=AXIS2_PLACEMENT_3D('',#1325,#1057,#1058);
#955=AXIS2_PLACEMENT_3D('',#1326,#1059,#1060);
#956=AXIS2_PLACEMENT_3D('',#1327,#1061,#1062);
#957=AXIS2_PLACEMENT_3D('',#1329,#1063,#1064);
#958=AXIS2_PLACEMENT_3D('',#1332,#1066,#1067);
#959=AXIS2_PLACEMENT_3D('',#1333,#1068,#1069);
#960=AXIS2_PLACEMENT_3D('',#1334,#1070,#1071);
#961=AXIS2_PLACEMENT_3D('',#1336,#1072,#1073);
#962=AXIS2_PLACEMENT_3D('',#1339,#1075,#1076);
#963=AXIS2_PLACEMENT_3D('',#1340,#1077,#1078);
#964=AXIS2_PLACEMENT_3D('',#1342,#1079,#1080);
#965=AXIS2_PLACEMENT_3D('',#1345,#1082,#1083);
#966=AXIS2_PLACEMENT_3D('',#1346,#1084,#1085);
#967=AXIS2_PLACEMENT_3D('',#1348,#1086,#1087);
#968=AXIS2_PLACEMENT_3D('',#1351,#1089,#1090);
#969=AXIS2_PLACEMENT_3D('',#1352,#1091,#1092);
#970=AXIS2_PLACEMENT_3D('',#1354,#1093,#1094);
#971=AXIS2_PLACEMENT_3D('',#1357,#1096,#1097);
#972=AXIS2_PLACEMENT_3D('',#1358,#1098,#1099);
#973=AXIS2_PLACEMENT_3D('',#1360,#1100,#1101);
#974=AXIS2_PLACEMENT_3D('',#1363,#1103,#1104);
#975=AXIS2_PLACEMENT_3D('',#1364,#1105,#1106);
#976=AXIS2_PLACEMENT_3D('',#1366,#1107,#1108);
#977=AXIS2_PLACEMENT_3D('',#1369,#1110,#1111);
#978=AXIS2_PLACEMENT_3D('',#1370,#1112,#1113);
#979=AXIS2_PLACEMENT_3D('',#1372,#1114,#1115);
#980=AXIS2_PLACEMENT_3D('',#1375,#1117,#1118);
#981=AXIS2_PLACEMENT_3D('',#1376,#1119,#1120);
#982=AXIS2_PLACEMENT_3D('',#1378,#1121,#1122);
#983=AXIS2_PLACEMENT_3D('',#1381,#1124,#1125);
#984=AXIS2_PLACEMENT_3D('',#1382,#1126,#1127);
#985=AXIS2_PLACEMENT_3D('',#1383,#1128,#1129);
#986=AXIS2_PLACEMENT_3D('',#1386,#1130,#1131);
#987=AXIS2_PLACEMENT_3D('',#1390,#1133,#1134);
#988=AXIS2_PLACEMENT_3D('',#1392,#1136,#1137);
#989=AXIS2_PLACEMENT_3D('',#1398,#1141,#1142);
#990=AXIS2_PLACEMENT_3D('',#1400,#1143,#1144);
#991=AXIS2_PLACEMENT_3D('',#1402,#1145,#1146);
#992=AXIS2_PLACEMENT_3D('',#1404,#1148,#1149);
#993=AXIS2_PLACEMENT_3D('',#1410,#1153,#1154);
#994=AXIS2_PLACEMENT_3D('',#1412,#1155,#1156);
#995=AXIS2_PLACEMENT_3D('',#1414,#1157,#1158);
#996=AXIS2_PLACEMENT_3D('',#1416,#1160,#1161);
#997=AXIS2_PLACEMENT_3D('',#1419,#1164,#1165);
#998=AXIS2_PLACEMENT_3D('',#1428,#1170,#1171);
#999=AXIS2_PLACEMENT_3D('',#1430,#1172,#1173);
#1000=AXIS2_PLACEMENT_3D('',#1432,#1174,#1175);
#1001=AXIS2_PLACEMENT_3D('',#1434,#1177,#1178);
#1002=AXIS2_PLACEMENT_3D('',#1440,#1182,#1183);
#1003=AXIS2_PLACEMENT_3D('',#1442,#1184,#1185);
#1004=AXIS2_PLACEMENT_3D('',#1444,#1186,#1187);
#1005=AXIS2_PLACEMENT_3D('',#1446,#1189,#1190);
#1006=AXIS2_PLACEMENT_3D('',#1452,#1194,#1195);
#1007=AXIS2_PLACEMENT_3D('',#1454,#1196,#1197);
#1008=AXIS2_PLACEMENT_3D('',#1456,#1198,#1199);
#1009=AXIS2_PLACEMENT_3D('',#1458,#1201,#1202);
#1010=AXIS2_PLACEMENT_3D('',#1464,#1206,#1207);
#1011=AXIS2_PLACEMENT_3D('',#1465,#1208,#1209);
#1012=AXIS2_PLACEMENT_3D('',#1466,#1210,#1211);
#1013=AXIS2_PLACEMENT_3D('',#1467,#1212,#1213);
#1014=AXIS2_PLACEMENT_3D('',#1470,#1214,#1215);
#1015=AXIS2_PLACEMENT_3D('',#1474,#1217,#1218);
#1016=AXIS2_PLACEMENT_3D('',#1476,#1220,#1221);
#1017=AXIS2_PLACEMENT_3D('',#1482,#1225,#1226);
#1018=AXIS2_PLACEMENT_3D('',#1484,#1227,#1228);
#1019=AXIS2_PLACEMENT_3D('',#1486,#1229,#1230);
#1020=AXIS2_PLACEMENT_3D('',#1488,#1232,#1233);
#1021=AXIS2_PLACEMENT_3D('',#1494,#1237,#1238);
#1022=AXIS2_PLACEMENT_3D('',#1496,#1239,#1240);
#1023=AXIS2_PLACEMENT_3D('',#1498,#1241,#1242);
#1024=AXIS2_PLACEMENT_3D('',#1500,#1244,#1245);
#1025=AXIS2_PLACEMENT_3D('',#1503,#1248,#1249);
#1026=AXIS2_PLACEMENT_3D('',#1512,#1254,#1255);
#1027=AXIS2_PLACEMENT_3D('',#1521,#1260,#1261);
#1028=AXIS2_PLACEMENT_3D('',#1524,#1264,#1265);
#1029=AXIS2_PLACEMENT_3D('',#1528,#1267,#1268);
#1030=AXIS2_PLACEMENT_3D('',#1530,#1270,#1271);
#1031=AXIS2_PLACEMENT_3D('',#1536,#1275,#1276);
#1032=AXIS2_PLACEMENT_3D('',#1545,#1281,#1282);
#1033=AXIS2_PLACEMENT_3D('',#1548,#1285,#1286);
#1034=AXIS2_PLACEMENT_3D('',#1553,#1288,#1289);
#1035=AXIS2_PLACEMENT_3D('',#1561,#1294,#1295);
#1036=AXIS2_PLACEMENT_3D('',#1564,#1298,#1299);
#1037=AXIS2_PLACEMENT_3D('',#1566,#1301,#1302);
#1038=AXIS2_PLACEMENT_3D('',#1568,#1304,#1305);
#1039=AXIS2_PLACEMENT_3D('',#1570,#1307,#1308);
#1040=AXIS2_PLACEMENT_3D('',#1572,#1310,#1311);
#1041=DIRECTION('axis',(0.,0.,1.));
#1042=DIRECTION('refdir',(1.,0.,0.));
#1043=DIRECTION('center_axis',(0.,1.,0.));
#1044=DIRECTION('ref_axis',(1.,0.,0.));
#1045=DIRECTION('center_axis',(0.,1.,0.));
#1046=DIRECTION('ref_axis',(1.,0.,0.));
#1047=DIRECTION('',(0.,1.,0.));
#1048=DIRECTION('center_axis',(0.,1.,0.));
#1049=DIRECTION('ref_axis',(1.,0.,0.));
#1050=DIRECTION('center_axis',(0.,-1.,0.));
#1051=DIRECTION('ref_axis',(1.,0.,0.));
#1052=DIRECTION('center_axis',(0.,1.,0.));
#1053=DIRECTION('ref_axis',(1.,0.,0.));
#1054=DIRECTION('center_axis',(0.,1.,0.));
#1055=DIRECTION('ref_axis',(1.,0.,0.));
#1056=DIRECTION('',(0.,1.,0.));
#1057=DIRECTION('center_axis',(0.,1.,0.));
#1058=DIRECTION('ref_axis',(1.,0.,0.));
#1059=DIRECTION('center_axis',(0.,-1.,0.));
#1060=DIRECTION('ref_axis',(1.,0.,0.));
#1061=DIRECTION('center_axis',(0.,1.,0.));
#1062=DIRECTION('ref_axis',(1.,0.,0.));
#1063=DIRECTION('center_axis',(0.,1.,0.));
#1064=DIRECTION('ref_axis',(1.,0.,0.));
#1065=DIRECTION('',(0.,1.,0.));
#1066=DIRECTION('center_axis',(0.,1.,0.));
#1067=DIRECTION('ref_axis',(1.,0.,0.));
#1068=DIRECTION('center_axis',(0.,-1.,0.));
#1069=DIRECTION('ref_axis',(1.,0.,0.));
#1070=DIRECTION('center_axis',(-1.,0.,0.));
#1071=DIRECTION('ref_axis',(0.,0.,-1.));
#1072=DIRECTION('center_axis',(-1.,0.,0.));
#1073=DIRECTION('ref_axis',(0.,0.,-1.));
#1074=DIRECTION('',(-1.,0.,0.));
#1075=DIRECTION('center_axis',(1.,0.,0.));
#1076=DIRECTION('ref_axis',(0.,0.,-1.));
#1077=DIRECTION('center_axis',(-1.,0.,0.));
#1078=DIRECTION('ref_axis',(0.,0.,-1.));
#1079=DIRECTION('center_axis',(-1.,0.,0.));
#1080=DIRECTION('ref_axis',(0.,0.,-1.));
#1081=DIRECTION('',(-1.,0.,0.));
#1082=DIRECTION('center_axis',(1.,0.,0.));
#1083=DIRECTION('ref_axis',(0.,0.,-1.));
#1084=DIRECTION('center_axis',(0.,1.,0.));
#1085=DIRECTION('ref_axis',(1.,0.,0.));
#1086=DIRECTION('center_axis',(0.,1.,0.));
#1087=DIRECTION('ref_axis',(1.,0.,0.));
#1088=DIRECTION('',(0.,1.,0.));
#1089=DIRECTION('center_axis',(0.,-1.,0.));
#1090=DIRECTION('ref_axis',(1.,0.,0.));
#1091=DIRECTION('center_axis',(0.,1.,0.));
#1092=DIRECTION('ref_axis',(1.,0.,0.));
#1093=DIRECTION('center_axis',(0.,1.,0.));
#1094=DIRECTION('ref_axis',(1.,0.,0.));
#1095=DIRECTION('',(0.,1.,0.));
#1096=DIRECTION('center_axis',(0.,-1.,0.));
#1097=DIRECTION('ref_axis',(1.,0.,0.));
#1098=DIRECTION('center_axis',(0.,1.,0.));
#1099=DIRECTION('ref_axis',(1.,0.,0.));
#1100=DIRECTION('center_axis',(0.,1.,0.));
#1101=DIRECTION('ref_axis',(1.,0.,0.));
#1102=DIRECTION('',(0.,1.,0.));
#1103=DIRECTION('center_axis',(0.,-1.,0.));
#1104=DIRECTION('ref_axis',(1.,0.,0.));
#1105=DIRECTION('center_axis',(0.,1.,0.));
#1106=DIRECTION('ref_axis',(1.,0.,0.));
#1107=DIRECTION('center_axis',(0.,1.,0.));
#1108=DIRECTION('ref_axis',(1.,0.,0.));
#1109=DIRECTION('',(0.,1.,0.));
#1110=DIRECTION('center_axis',(0.,-1.,0.));
#1111=DIRECTION('ref_axis',(1.,0.,0.));
#1112=DIRECTION('center_axis',(0.,1.,0.));
#1113=DIRECTION('ref_axis',(1.,0.,0.));
#1114=DIRECTION('center_axis',(0.,1.,0.));
#1115=DIRECTION('ref_axis',(1.,0.,0.));
#1116=DIRECTION('',(0.,1.,0.));
#1117=DIRECTION('center_axis',(0.,-1.,0.));
#1118=DIRECTION('ref_axis',(1.,0.,0.));
#1119=DIRECTION('center_axis',(0.,1.,0.));
#1120=DIRECTION('ref_axis',(1.,0.,0.));
#1121=DIRECTION('center_axis',(0.,1.,0.));
#1122=DIRECTION('ref_axis',(1.,0.,0.));
#1123=DIRECTION('',(0.,1.,0.));
#1124=DIRECTION('center_axis',(0.,1.,0.));
#1125=DIRECTION('ref_axis',(1.,0.,0.));
#1126=DIRECTION('center_axis',(0.,-1.,0.));
#1127=DIRECTION('ref_axis',(1.,0.,0.));
#1128=DIRECTION('center_axis',(-1.,0.,0.));
#1129=DIRECTION('ref_axis',(0.,0.902175159958641,-0.431369888556909));
#1130=DIRECTION('center_axis',(1.,0.,0.));
#1131=DIRECTION('ref_axis',(0.,0.902175159958641,-0.431369888556909));
#1132=DIRECTION('',(-1.,0.,0.));
#1133=DIRECTION('center_axis',(-1.,0.,0.));
#1134=DIRECTION('ref_axis',(0.,0.902175159958641,-0.431369888556909));
#1135=DIRECTION('',(-1.,0.,0.));
#1136=DIRECTION('center_axis',(0.,0.,1.));
#1137=DIRECTION('ref_axis',(0.,1.,0.));
#1138=DIRECTION('',(0.,-1.,0.));
#1139=DIRECTION('',(0.,1.,0.));
#1140=DIRECTION('',(-1.,0.,0.));
#1141=DIRECTION('center_axis',(-1.,0.,0.));
#1142=DIRECTION('ref_axis',(0.,-4.4408920985006E-15,1.));
#1143=DIRECTION('center_axis',(1.,0.,0.));
#1144=DIRECTION('ref_axis',(0.,-4.4408920985006E-15,1.));
#1145=DIRECTION('center_axis',(-1.,0.,0.));
#1146=DIRECTION('ref_axis',(0.,-4.4408920985006E-15,1.));
#1147=DIRECTION('',(-1.,0.,0.));
#1148=DIRECTION('center_axis',(0.,-1.,0.));
#1149=DIRECTION('ref_axis',(0.,0.,1.));
#1150=DIRECTION('',(0.,0.,-1.));
#1151=DIRECTION('',(0.,0.,1.));
#1152=DIRECTION('',(-1.,0.,0.));
#1153=DIRECTION('center_axis',(-1.,0.,0.));
#1154=DIRECTION('ref_axis',(0.,-1.,0.));
#1155=DIRECTION('center_axis',(1.,0.,0.));
#1156=DIRECTION('ref_axis',(0.,-1.,0.));
#1157=DIRECTION('center_axis',(-1.,0.,0.));
#1158=DIRECTION('ref_axis',(0.,-1.,0.));
#1159=DIRECTION('',(-1.,0.,0.));
#1160=DIRECTION('center_axis',(0.,0.902175159958643,-0.431369888556906));
#1161=DIRECTION('ref_axis',(0.,-0.431369888556906,-0.902175159958643));
#1162=DIRECTION('',(0.,0.431369888556906,0.902175159958643));
#1163=DIRECTION('',(0.,-0.431369888556906,-0.902175159958643));
#1164=DIRECTION('center_axis',(0.,4.30373397056192E-16,-1.));
#1165=DIRECTION('ref_axis',(0.,-1.,-4.30373397056192E-16));
#1166=DIRECTION('',(0.,1.,4.30373397056192E-16));
#1167=DIRECTION('',(-1.,0.,0.));
#1168=DIRECTION('',(0.,-1.,-4.30373397056192E-16));
#1169=DIRECTION('',(-1.,0.,0.));
#1170=DIRECTION('center_axis',(-1.,0.,0.));
#1171=DIRECTION('ref_axis',(0.,8.88178419700126E-16,-1.));
#1172=DIRECTION('center_axis',(1.,0.,0.));
#1173=DIRECTION('ref_axis',(0.,8.88178419700126E-16,-1.));
#1174=DIRECTION('center_axis',(-1.,0.,0.));
#1175=DIRECTION('ref_axis',(0.,8.88178419700126E-16,-1.));
#1176=DIRECTION('',(-1.,0.,0.));
#1177=DIRECTION('center_axis',(0.,0.902175159958643,-0.431369888556905));
#1178=DIRECTION('ref_axis',(0.,-0.431369888556905,-0.902175159958643));
#1179=DIRECTION('',(0.,0.431369888556905,0.902175159958643));
#1180=DIRECTION('',(0.,-0.431369888556905,-0.902175159958643));
#1181=DIRECTION('',(-1.,0.,0.));
#1182=DIRECTION('center_axis',(-1.,0.,0.));
#1183=DIRECTION('ref_axis',(0.,0.902175159958643,-0.431369888556906));
#1184=DIRECTION('center_axis',(1.,0.,0.));
#1185=DIRECTION('ref_axis',(0.,0.902175159958643,-0.431369888556906));
#1186=DIRECTION('center_axis',(-1.,0.,0.));
#1187=DIRECTION('ref_axis',(0.,0.902175159958643,-0.431369888556906));
#1188=DIRECTION('',(-1.,0.,0.));
#1189=DIRECTION('center_axis',(0.,0.,1.));
#1190=DIRECTION('ref_axis',(0.,1.,0.));
#1191=DIRECTION('',(0.,-1.,0.));
#1192=DIRECTION('',(0.,1.,0.));
#1193=DIRECTION('',(-1.,0.,0.));
#1194=DIRECTION('center_axis',(-1.,0.,0.));
#1195=DIRECTION('ref_axis',(0.,1.77635683940026E-15,1.));
#1196=DIRECTION('center_axis',(1.,0.,0.));
#1197=DIRECTION('ref_axis',(0.,1.77635683940026E-15,1.));
#1198=DIRECTION('center_axis',(-1.,0.,0.));
#1199=DIRECTION('ref_axis',(0.,1.77635683940026E-15,1.));
#1200=DIRECTION('',(-1.,0.,0.));
#1201=DIRECTION('center_axis',(0.,-0.902175159958643,0.431369888556905));
#1202=DIRECTION('ref_axis',(0.,0.431369888556905,0.902175159958643));
#1203=DIRECTION('',(0.,-0.431369888556905,-0.902175159958643));
#1204=DIRECTION('',(0.,0.431369888556905,0.902175159958643));
#1205=DIRECTION('',(-1.,0.,0.));
#1206=DIRECTION('center_axis',(-1.,0.,0.));
#1207=DIRECTION('ref_axis',(0.,-0.902175159958643,0.431369888556905));
#1208=DIRECTION('center_axis',(1.,0.,0.));
#1209=DIRECTION('ref_axis',(0.,-0.902175159958643,0.431369888556905));
#1210=DIRECTION('center_axis',(-1.,0.,0.));
#1211=DIRECTION('ref_axis',(0.,-0.902175159958643,0.431369888556905));
#1212=DIRECTION('center_axis',(-1.,0.,0.));
#1213=DIRECTION('ref_axis',(0.,1.,1.11022302462516E-15));
#1214=DIRECTION('center_axis',(1.,0.,0.));
#1215=DIRECTION('ref_axis',(0.,1.,1.11022302462516E-15));
#1216=DIRECTION('',(-1.,0.,0.));
#1217=DIRECTION('center_axis',(-1.,0.,0.));
#1218=DIRECTION('ref_axis',(0.,1.,1.11022302462516E-15));
#1219=DIRECTION('',(-1.,0.,0.));
#1220=DIRECTION('center_axis',(0.,-0.902175159958643,0.431369888556905));
#1221=DIRECTION('ref_axis',(0.,0.431369888556905,0.902175159958643));
#1222=DIRECTION('',(0.,-0.431369888556905,-0.902175159958643));
#1223=DIRECTION('',(0.,0.431369888556905,0.902175159958643));
#1224=DIRECTION('',(-1.,0.,0.));
#1225=DIRECTION('center_axis',(-1.,0.,0.));
#1226=DIRECTION('ref_axis',(0.,-0.902175159958645,0.431369888556902));
#1227=DIRECTION('center_axis',(1.,0.,0.));
#1228=DIRECTION('ref_axis',(0.,-0.902175159958645,0.431369888556902));
#1229=DIRECTION('center_axis',(-1.,0.,0.));
#1230=DIRECTION('ref_axis',(0.,-0.902175159958645,0.431369888556902));
#1231=DIRECTION('',(-1.,0.,0.));
#1232=DIRECTION('center_axis',(0.,0.,-1.));
#1233=DIRECTION('ref_axis',(0.,-1.,0.));
#1234=DIRECTION('',(0.,1.,0.));
#1235=DIRECTION('',(0.,-1.,0.));
#1236=DIRECTION('',(-1.,0.,0.));
#1237=DIRECTION('center_axis',(-1.,0.,0.));
#1238=DIRECTION('ref_axis',(0.,0.,-1.));
#1239=DIRECTION('center_axis',(1.,0.,0.));
#1240=DIRECTION('ref_axis',(0.,0.,-1.));
#1241=DIRECTION('center_axis',(-1.,0.,0.));
#1242=DIRECTION('ref_axis',(0.,0.,-1.));
#1243=DIRECTION('',(-1.,0.,0.));
#1244=DIRECTION('center_axis',(0.,1.,-2.81309524789482E-17));
#1245=DIRECTION('ref_axis',(0.,-2.81309524789482E-17,-1.));
#1246=DIRECTION('',(0.,2.81309524789482E-17,1.));
#1247=DIRECTION('',(0.,-2.81309524789482E-17,-1.));
#1248=DIRECTION('center_axis',(1.,0.,0.));
#1249=DIRECTION('ref_axis',(0.,0.,1.));
#1250=DIRECTION('',(0.,0.,-1.));
#1251=DIRECTION('',(0.,-1.,0.));
#1252=DIRECTION('',(0.,0.,1.));
#1253=DIRECTION('',(0.,-1.,0.));
#1254=DIRECTION('center_axis',(-1.,0.,0.));
#1255=DIRECTION('ref_axis',(0.,0.,-1.));
#1256=DIRECTION('',(0.,0.,1.));
#1257=DIRECTION('',(0.,-1.,0.));
#1258=DIRECTION('',(0.,0.,-1.));
#1259=DIRECTION('',(0.,-1.,0.));
#1260=DIRECTION('center_axis',(0.,-1.,0.));
#1261=DIRECTION('ref_axis',(0.,0.,-1.));
#1262=DIRECTION('',(-0.99744550212315,0.,0.0714315777110982));
#1263=DIRECTION('',(0.99744550212315,0.,0.0714315777110985));
#1264=DIRECTION('center_axis',(0.,1.,0.));
#1265=DIRECTION('ref_axis',(1.,0.,0.));
#1266=DIRECTION('',(0.99744550212315,0.,0.0714315777110984));
#1267=DIRECTION('center_axis',(0.,1.,0.));
#1268=DIRECTION('ref_axis',(1.,0.,0.));
#1269=DIRECTION('',(0.99744550212315,0.,-0.0714315777110984));
#1270=DIRECTION('center_axis',(0.,1.,0.));
#1271=DIRECTION('ref_axis',(1.,0.,0.));
#1272=DIRECTION('',(0.99744550212315,0.,-0.0714315777110984));
#1273=DIRECTION('',(0.,0.,-1.));
#1274=DIRECTION('',(0.99744550212315,0.,0.0714315777110984));
#1275=DIRECTION('center_axis',(0.357393086102742,-0.93395405775978,0.));
#1276=DIRECTION('ref_axis',(0.93395405775978,0.357393086102742,0.));
#1277=DIRECTION('',(0.93395405775978,0.357393086102742,0.));
#1278=DIRECTION('',(0.,0.,1.));
#1279=DIRECTION('',(0.93395405775978,0.357393086102742,0.));
#1280=DIRECTION('',(0.,0.,1.));
#1281=DIRECTION('center_axis',(1.,0.,0.));
#1282=DIRECTION('ref_axis',(0.,0.,1.));
#1283=DIRECTION('',(0.,-1.,0.));
#1284=DIRECTION('',(0.,-1.,0.));
#1285=DIRECTION('center_axis',(0.,1.,0.));
#1286=DIRECTION('ref_axis',(1.,0.,0.));
#1287=DIRECTION('',(0.99744550212315,0.,-0.0714315777110984));
#1288=DIRECTION('center_axis',(0.,1.,0.));
#1289=DIRECTION('ref_axis',(1.,0.,0.));
#1290=DIRECTION('',(-0.99744550212315,0.,-0.0714315777110984));
#1291=DIRECTION('',(-1.,0.,0.));
#1292=DIRECTION('',(0.,0.,1.));
#1293=DIRECTION('',(1.,0.,0.));
#1294=DIRECTION('center_axis',(0.,0.,1.));
#1295=DIRECTION('ref_axis',(1.,0.,0.));
#1296=DIRECTION('',(0.,1.,0.));
#1297=DIRECTION('',(0.,1.,0.));
#1298=DIRECTION('center_axis',(-1.,0.,0.));
#1299=DIRECTION('ref_axis',(0.,0.,1.));
#1300=DIRECTION('',(0.,1.,0.));
#1301=DIRECTION('center_axis',(0.,0.,-1.));
#1302=DIRECTION('ref_axis',(-1.,0.,0.));
#1303=DIRECTION('',(0.,1.,0.));
#1304=DIRECTION('center_axis',(0.0714315777110984,0.,-0.99744550212315));
#1305=DIRECTION('ref_axis',(-0.99744550212315,0.,-0.0714315777110984));
#1306=DIRECTION('',(0.,1.,0.));
#1307=DIRECTION('center_axis',(0.,1.,0.));
#1308=DIRECTION('ref_axis',(1.,0.,0.));
#1309=DIRECTION('',(0.,1.,0.));
#1310=DIRECTION('center_axis',(0.0714315777110984,0.,0.99744550212315));
#1311=DIRECTION('ref_axis',(0.99744550212315,0.,-0.0714315777110984));
#1312=CARTESIAN_POINT('',(0.,0.,0.));
#1313=CARTESIAN_POINT('Origin',(20.7416415534142,-53.35,-10.));
#1314=CARTESIAN_POINT('',(19.1416415534142,-53.35,-10.));
#1315=CARTESIAN_POINT('Origin',(20.7416415534142,-53.35,-10.));
#1316=CARTESIAN_POINT('',(19.1416415534142,-49.35,-10.));
#1317=CARTESIAN_POINT('',(19.1416415534142,-53.35,-10.));
#1318=CARTESIAN_POINT('Origin',(20.7416415534142,-49.35,-10.));
#1319=CARTESIAN_POINT('Origin',(20.7416415534142,-49.35,-10.));
#1320=CARTESIAN_POINT('Origin',(20.7416415534142,-53.35,1.12323403464173E-15));
#1321=CARTESIAN_POINT('',(19.1416415534142,-53.35,9.27290546778152E-16));
#1322=CARTESIAN_POINT('Origin',(20.7416415534142,-53.35,1.12323403464173E-15));
#1323=CARTESIAN_POINT('',(19.1416415534142,-49.35,9.27290546778152E-16));
#1324=CARTESIAN_POINT('',(19.1416415534142,-53.35,1.31917752250531E-15));
#1325=CARTESIAN_POINT('Origin',(20.7416415534142,-49.35,1.12323403464173E-15));
#1326=CARTESIAN_POINT('Origin',(20.7416415534142,-49.35,1.11022302462516E-15));
#1327=CARTESIAN_POINT('Origin',(20.7416415534142,-53.35,10.));
#1328=CARTESIAN_POINT('',(19.1416415534142,-53.35,10.));
#1329=CARTESIAN_POINT('Origin',(20.7416415534142,-53.35,10.));
#1330=CARTESIAN_POINT('',(19.1416415534142,-49.35,10.));
#1331=CARTESIAN_POINT('',(19.1416415534142,-53.35,10.));
#1332=CARTESIAN_POINT('Origin',(20.7416415534142,-49.35,10.));
#1333=CARTESIAN_POINT('Origin',(20.7416415534142,-49.35,10.));
#1334=CARTESIAN_POINT('Origin',(3.75,-11.35,-10.));
#1335=CARTESIAN_POINT('',(3.75,-11.35,-8.4));
#1336=CARTESIAN_POINT('Origin',(3.75,-11.35,-10.));
#1337=CARTESIAN_POINT('',(-3.75,-11.35,-8.4));
#1338=CARTESIAN_POINT('',(3.75,-11.35,-8.4));
#1339=CARTESIAN_POINT('Origin',(-3.75,-11.35,-10.));
#1340=CARTESIAN_POINT('Origin',(3.75,-11.35,10.));
#1341=CARTESIAN_POINT('',(3.75,-11.35,11.6));
#1342=CARTESIAN_POINT('Origin',(3.75,-11.35,10.));
#1343=CARTESIAN_POINT('',(-3.75,-11.35,11.6));
#1344=CARTESIAN_POINT('',(3.75,-11.35,11.6));
#1345=CARTESIAN_POINT('Origin',(-3.75,-11.35,10.));
#1346=CARTESIAN_POINT('Origin',(66.05,1.6,7.));
#1347=CARTESIAN_POINT('',(65.3,1.6,7.));
#1348=CARTESIAN_POINT('Origin',(66.05,1.6,7.));
#1349=CARTESIAN_POINT('',(65.3,7.,7.));
#1350=CARTESIAN_POINT('',(65.3,1.6,7.));
#1351=CARTESIAN_POINT('Origin',(66.05,7.,7.));
#1352=CARTESIAN_POINT('Origin',(59.05,1.6,0.));
#1353=CARTESIAN_POINT('',(58.3,1.6,-9.18485099360517E-17));
#1354=CARTESIAN_POINT('Origin',(59.05,1.6,0.));
#1355=CARTESIAN_POINT('',(58.3,7.,-9.18485099360517E-17));
#1356=CARTESIAN_POINT('',(58.3,1.6,9.18485099360517E-17));
#1357=CARTESIAN_POINT('Origin',(59.05,7.,0.));
#1358=CARTESIAN_POINT('Origin',(73.05,1.6,0.));
#1359=CARTESIAN_POINT('',(72.3,1.6,-9.18485099360517E-17));
#1360=CARTESIAN_POINT('Origin',(73.05,1.6,0.));
#1361=CARTESIAN_POINT('',(72.3,7.,-9.18485099360517E-17));
#1362=CARTESIAN_POINT('',(72.3,1.6,9.18485099360517E-17));
#1363=CARTESIAN_POINT('Origin',(73.05,7.,0.));
#1364=CARTESIAN_POINT('Origin',(66.05,1.6,0.));
#1365=CARTESIAN_POINT('',(64.45,1.6,-1.95943487863577E-16));
#1366=CARTESIAN_POINT('Origin',(66.05,1.6,0.));
#1367=CARTESIAN_POINT('',(64.45,7.,-1.95943487863577E-16));
#1368=CARTESIAN_POINT('',(64.45,1.6,1.95943487863577E-16));
#1369=CARTESIAN_POINT('Origin',(66.05,7.,0.));
#1370=CARTESIAN_POINT('Origin',(66.05,1.6,-7.));
#1371=CARTESIAN_POINT('',(65.3,1.6,-7.));
#1372=CARTESIAN_POINT('Origin',(66.05,1.6,-7.));
#1373=CARTESIAN_POINT('',(65.3,7.,-7.));
#1374=CARTESIAN_POINT('',(65.3,1.6,-7.));
#1375=CARTESIAN_POINT('Origin',(66.05,7.,-7.));
#1376=CARTESIAN_POINT('Origin',(66.05,0.,0.));
#1377=CARTESIAN_POINT('',(55.7,0.,-1.26750943711751E-15));
#1378=CARTESIAN_POINT('Origin',(66.05,0.,0.));
#1379=CARTESIAN_POINT('',(55.7,1.6,-1.26750943711751E-15));
#1380=CARTESIAN_POINT('',(55.7,0.,1.26750943711751E-15));
#1381=CARTESIAN_POINT('Origin',(66.05,1.6,0.));
#1382=CARTESIAN_POINT('Origin',(66.05,1.6,0.));
#1383=CARTESIAN_POINT('Origin',(23.698910042463,-37.4365764788099,12.071368445778));
#1384=CARTESIAN_POINT('',(17.7142370297241,-36.5344013188512,11.6399985572211));
#1385=CARTESIAN_POINT('',(17.7142370297241,-37.4365764788099,13.071368445778));
#1386=CARTESIAN_POINT('Origin',(17.7142370297241,-37.4365764788099,12.071368445778));
#1387=CARTESIAN_POINT('',(23.698910042463,-36.5344013188512,11.6399985572211));
#1388=CARTESIAN_POINT('',(23.698910042463,-36.5344013188512,11.6399985572211));
#1389=CARTESIAN_POINT('',(23.698910042463,-37.4365764788099,13.071368445778));
#1390=CARTESIAN_POINT('Origin',(23.698910042463,-37.4365764788099,12.071368445778));
#1391=CARTESIAN_POINT('',(23.698910042463,-37.4365764788099,13.071368445778));
#1392=CARTESIAN_POINT('Origin',(23.698910042463,-46.35,13.071368445778));
#1393=CARTESIAN_POINT('',(17.7142370297241,-46.35,13.071368445778));
#1394=CARTESIAN_POINT('',(17.7142370297241,-23.175,13.071368445778));
#1395=CARTESIAN_POINT('',(23.698910042463,-46.35,13.071368445778));
#1396=CARTESIAN_POINT('',(23.698910042463,-23.175,13.071368445778));
#1397=CARTESIAN_POINT('',(23.698910042463,-46.35,13.071368445778));
#1398=CARTESIAN_POINT('Origin',(23.698910042463,-46.35,11.071368445778));
#1399=CARTESIAN_POINT('',(17.7142370297241,-48.35,11.071368445778));
#1400=CARTESIAN_POINT('Origin',(17.7142370297241,-46.35,11.071368445778));
#1401=CARTESIAN_POINT('',(23.698910042463,-48.35,11.071368445778));
#1402=CARTESIAN_POINT('Origin',(23.698910042463,-46.35,11.071368445778));
#1403=CARTESIAN_POINT('',(23.698910042463,-48.35,11.071368445778));
#1404=CARTESIAN_POINT('Origin',(23.698910042463,-48.35,-8.66175337894494));
#1405=CARTESIAN_POINT('',(17.7142370297241,-48.35,-8.66175337894494));
#1406=CARTESIAN_POINT('',(17.7142370297241,-48.35,4.91910226654984));
#1407=CARTESIAN_POINT('',(23.698910042463,-48.35,-8.66175337894494));
#1408=CARTESIAN_POINT('',(23.698910042463,-48.35,-13.3665609123615));
#1409=CARTESIAN_POINT('',(23.698910042463,-48.35,-8.66175337894494));
#1410=CARTESIAN_POINT('Origin',(23.698910042463,-47.35,-8.66175337894494));
#1411=CARTESIAN_POINT('',(17.7142370297241,-46.4478248400414,-9.09312326750185));
#1412=CARTESIAN_POINT('Origin',(17.7142370297241,-47.35,-8.66175337894494));
#1413=CARTESIAN_POINT('',(23.698910042463,-46.4478248400414,-9.09312326750185));
#1414=CARTESIAN_POINT('Origin',(23.698910042463,-47.35,-8.66175337894494));
#1415=CARTESIAN_POINT('',(23.698910042463,-46.4478248400414,-9.09312326750185));
#1416=CARTESIAN_POINT('Origin',(23.698910042463,-36.5344013188512,11.6399985572211));
#1417=CARTESIAN_POINT('',(17.7142370297241,-31.8003916708284,21.5407960508491));
#1418=CARTESIAN_POINT('',(23.698910042463,-38.9166451202328,6.65772872433636));
#1419=CARTESIAN_POINT('Origin',(23.698910042463,-28.1514396354537,-13.071368445778));
#1420=CARTESIAN_POINT('',(17.7142370297241,-38.4701352817852,-13.071368445778));
#1421=CARTESIAN_POINT('',(17.7142370297241,-28.1514396354537,-13.071368445778));
#1422=CARTESIAN_POINT('',(17.7142370297241,-14.0757198177269,-13.071368445778));
#1423=CARTESIAN_POINT('',(23.698910042463,-38.4701352817852,-13.071368445778));
#1424=CARTESIAN_POINT('',(23.698910042463,-38.4701352817852,-13.071368445778));
#1425=CARTESIAN_POINT('',(23.698910042463,-28.1514396354537,-13.071368445778));
#1426=CARTESIAN_POINT('',(23.698910042463,-14.0757198177269,-13.071368445778));
#1427=CARTESIAN_POINT('',(23.698910042463,-28.1514396354537,-13.071368445778));
#1428=CARTESIAN_POINT('Origin',(23.698910042463,-28.1514396354537,-8.07136844577803));
#1429=CARTESIAN_POINT('',(17.7142370297241,-23.6405638356605,-10.2282178885626));
#1430=CARTESIAN_POINT('Origin',(17.7142370297241,-28.1514396354537,-8.07136844577803));
#1431=CARTESIAN_POINT('',(23.698910042463,-23.6405638356605,-10.2282178885626));
#1432=CARTESIAN_POINT('Origin',(23.698910042463,-28.1514396354537,-8.07136844577803));
#1433=CARTESIAN_POINT('',(23.698910042463,-23.6405638356605,-10.2282178885626));
#1434=CARTESIAN_POINT('Origin',(23.698910042463,-13.5266019782768,10.9243136129427));
#1435=CARTESIAN_POINT('',(17.7142370297241,-13.5266019782768,10.9243136129427));
#1436=CARTESIAN_POINT('',(17.7142370297241,-10.7939757758394,16.6393798396062));
#1437=CARTESIAN_POINT('',(23.698910042463,-13.5266019782768,10.9243136129427));
#1438=CARTESIAN_POINT('',(23.698910042463,-17.9102292252439,1.75631251309342));
#1439=CARTESIAN_POINT('',(23.698910042463,-13.5266019782768,10.9243136129427));
#1440=CARTESIAN_POINT('Origin',(23.698910042463,-14.8798647182148,11.571368445778));
#1441=CARTESIAN_POINT('',(17.7142370297241,-14.8798647182148,13.071368445778));
#1442=CARTESIAN_POINT('Origin',(17.7142370297241,-14.8798647182148,11.571368445778));
#1443=CARTESIAN_POINT('',(23.698910042463,-14.8798647182148,13.071368445778));
#1444=CARTESIAN_POINT('Origin',(23.698910042463,-14.8798647182148,11.571368445778));
#1445=CARTESIAN_POINT('',(23.698910042463,-14.8798647182148,13.071368445778));
#1446=CARTESIAN_POINT('Origin',(23.698910042463,-25.1985603645463,13.071368445778));
#1447=CARTESIAN_POINT('',(17.7142370297241,-25.1985603645463,13.071368445778));
#1448=CARTESIAN_POINT('',(17.7142370297241,-12.5992801822731,13.071368445778));
#1449=CARTESIAN_POINT('',(23.698910042463,-25.1985603645463,13.071368445778));
#1450=CARTESIAN_POINT('',(23.698910042463,-12.5992801822731,13.071368445778));
#1451=CARTESIAN_POINT('',(23.698910042463,-25.1985603645463,13.071368445778));
#1452=CARTESIAN_POINT('Origin',(23.698910042463,-25.1985603645463,8.07136844577805));
#1453=CARTESIAN_POINT('',(17.7142370297241,-29.7094361643395,10.2282178885626));
#1454=CARTESIAN_POINT('Origin',(17.7142370297241,-25.1985603645463,8.07136844577805));
#1455=CARTESIAN_POINT('',(23.698910042463,-29.7094361643395,10.2282178885626));
#1456=CARTESIAN_POINT('Origin',(23.698910042463,-25.1985603645463,8.07136844577805));
#1457=CARTESIAN_POINT('',(23.698910042463,-29.7094361643395,10.2282178885626));
#1458=CARTESIAN_POINT('Origin',(23.698910042463,-39.8233980217232,-10.9243136129427));
#1459=CARTESIAN_POINT('',(17.7142370297241,-39.8233980217232,-10.9243136129427));
#1460=CARTESIAN_POINT('',(17.7142370297241,-30.3926899500903,8.79924797247908));
#1461=CARTESIAN_POINT('',(23.698910042463,-39.8233980217232,-10.9243136129427));
#1462=CARTESIAN_POINT('',(23.698910042463,-37.5089433994948,-6.08381935403368));
#1463=CARTESIAN_POINT('',(23.698910042463,-39.8233980217232,-10.9243136129427));
#1464=CARTESIAN_POINT('Origin',(23.698910042463,-38.4701352817852,-11.571368445778));
#1465=CARTESIAN_POINT('Origin',(17.7142370297241,-38.4701352817852,-11.571368445778));
#1466=CARTESIAN_POINT('Origin',(23.698910042463,-38.4701352817852,-11.571368445778));
#1467=CARTESIAN_POINT('Origin',(23.698910042463,-6.,8.66175337894495));
#1468=CARTESIAN_POINT('',(17.7142370297241,-5.,8.66175337894495));
#1469=CARTESIAN_POINT('',(17.7142370297241,-6.90217515995864,9.09312326750185));
#1470=CARTESIAN_POINT('Origin',(17.7142370297241,-6.,8.66175337894495));
#1471=CARTESIAN_POINT('',(23.698910042463,-5.,8.66175337894495));
#1472=CARTESIAN_POINT('',(23.698910042463,-5.,8.66175337894495));
#1473=CARTESIAN_POINT('',(23.698910042463,-6.90217515995864,9.09312326750185));
#1474=CARTESIAN_POINT('Origin',(23.698910042463,-6.,8.66175337894495));
#1475=CARTESIAN_POINT('',(23.698910042463,-6.90217515995864,9.09312326750185));
#1476=CARTESIAN_POINT('Origin',(23.698910042463,-16.8155986811488,-11.6399985572211));
#1477=CARTESIAN_POINT('',(17.7142370297241,-16.8155986811488,-11.6399985572211));
#1478=CARTESIAN_POINT('',(17.7142370297241,-9.38627405510137,3.89783176123613));
#1479=CARTESIAN_POINT('',(23.698910042463,-16.8155986811488,-11.6399985572211));
#1480=CARTESIAN_POINT('',(23.698910042463,-16.5025275045058,-10.9852355652766));
#1481=CARTESIAN_POINT('',(23.698910042463,-16.8155986811488,-11.6399985572211));
#1482=CARTESIAN_POINT('Origin',(23.698910042463,-15.9134235211901,-12.071368445778));
#1483=CARTESIAN_POINT('',(17.7142370297241,-15.9134235211901,-13.071368445778));
#1484=CARTESIAN_POINT('Origin',(17.7142370297241,-15.9134235211901,-12.071368445778));
#1485=CARTESIAN_POINT('',(23.698910042463,-15.9134235211901,-13.071368445778));
#1486=CARTESIAN_POINT('Origin',(23.698910042463,-15.9134235211901,-12.071368445778));
#1487=CARTESIAN_POINT('',(23.698910042463,-15.9134235211901,-13.071368445778));
#1488=CARTESIAN_POINT('Origin',(23.698910042463,-7.,-13.071368445778));
#1489=CARTESIAN_POINT('',(17.7142370297241,-7.,-13.071368445778));
#1490=CARTESIAN_POINT('',(17.7142370297241,-3.5,-13.071368445778));
#1491=CARTESIAN_POINT('',(23.698910042463,-7.,-13.071368445778));
#1492=CARTESIAN_POINT('',(23.698910042463,-3.5,-13.071368445778));
#1493=CARTESIAN_POINT('',(23.698910042463,-7.,-13.071368445778));
#1494=CARTESIAN_POINT('Origin',(23.698910042463,-7.,-11.071368445778));
#1495=CARTESIAN_POINT('',(17.7142370297241,-5.,-11.071368445778));
#1496=CARTESIAN_POINT('Origin',(17.7142370297241,-7.,-11.071368445778));
#1497=CARTESIAN_POINT('',(23.698910042463,-5.,-11.071368445778));
#1498=CARTESIAN_POINT('Origin',(23.698910042463,-7.,-11.071368445778));
#1499=CARTESIAN_POINT('',(23.698910042463,-5.,-11.071368445778));
#1500=CARTESIAN_POINT('Origin',(23.698910042463,-5.,8.66175337894495));
#1501=CARTESIAN_POINT('',(17.7142370297241,-5.,13.5808556454948));
#1502=CARTESIAN_POINT('',(23.698910042463,-5.,-4.70480753341654));
#1503=CARTESIAN_POINT('Origin',(23.698910042463,0.,-18.071368445778));
#1504=CARTESIAN_POINT('',(23.698910042463,0.,18.071368445778));
#1505=CARTESIAN_POINT('',(23.698910042463,0.,-18.071368445778));
#1506=CARTESIAN_POINT('',(23.698910042463,0.,-9.03568422288902));
#1507=CARTESIAN_POINT('',(23.698910042463,-53.35,18.071368445778));
#1508=CARTESIAN_POINT('',(23.698910042463,0.,18.071368445778));
#1509=CARTESIAN_POINT('',(23.698910042463,-53.35,-18.071368445778));
#1510=CARTESIAN_POINT('',(23.698910042463,-53.35,18.071368445778));
#1511=CARTESIAN_POINT('',(23.698910042463,0.,-18.071368445778));
#1512=CARTESIAN_POINT('Origin',(17.7142370297241,0.,18.4999579120446));
#1513=CARTESIAN_POINT('',(17.7142370297241,0.,-18.4999579120446));
#1514=CARTESIAN_POINT('',(17.7142370297241,0.,18.4999579120446));
#1515=CARTESIAN_POINT('',(17.7142370297241,0.,9.24997895602231));
#1516=CARTESIAN_POINT('',(17.7142370297241,-53.35,-18.4999579120446));
#1517=CARTESIAN_POINT('',(17.7142370297241,0.,-18.4999579120446));
#1518=CARTESIAN_POINT('',(17.7142370297241,-53.35,18.4999579120446));
#1519=CARTESIAN_POINT('',(17.7142370297241,-53.35,18.4999579120446));
#1520=CARTESIAN_POINT('',(17.7142370297241,0.,18.4999579120446));
#1521=CARTESIAN_POINT('Origin',(20.7065735360936,-53.35,0.));
#1522=CARTESIAN_POINT('',(17.7142370297241,-53.35,18.4999579120446));
#1523=CARTESIAN_POINT('',(17.7142370297241,-53.35,-18.4999579120446));
#1524=CARTESIAN_POINT('Origin',(38.65,0.,0.));
#1525=CARTESIAN_POINT('',(67.1214736656665,0.,-14.9616825318473));
#1526=CARTESIAN_POINT('',(3.75,0.,-19.5));
#1527=CARTESIAN_POINT('',(67.1214736656665,0.,14.9616825318473));
#1528=CARTESIAN_POINT('Origin',(66.05,0.,0.));
#1529=CARTESIAN_POINT('',(3.75,0.,19.5));
#1530=CARTESIAN_POINT('Origin',(38.65,0.,0.));
#1531=CARTESIAN_POINT('',(3.75,0.,19.5));
#1532=CARTESIAN_POINT('',(3.75,0.,19.5));
#1533=CARTESIAN_POINT('',(3.75,0.,-19.5));
#1534=CARTESIAN_POINT('',(3.75,0.,-9.75));
#1535=CARTESIAN_POINT('',(3.75,0.,-19.5));
#1536=CARTESIAN_POINT('Origin',(-3.75,-19.22,-19.5));
#1537=CARTESIAN_POINT('',(-3.75,-19.22,-19.5));
#1538=CARTESIAN_POINT('',(3.75,-16.35,-19.5));
#1539=CARTESIAN_POINT('',(-3.75,-19.22,-19.5));
#1540=CARTESIAN_POINT('',(3.75,-16.35,19.5));
#1541=CARTESIAN_POINT('',(3.75,-16.35,-19.5));
#1542=CARTESIAN_POINT('',(-3.75,-19.22,19.5));
#1543=CARTESIAN_POINT('',(-3.75,-19.22,19.5));
#1544=CARTESIAN_POINT('',(-3.75,-19.22,-19.5));
#1545=CARTESIAN_POINT('Origin',(3.75,7.,-19.5));
#1546=CARTESIAN_POINT('',(3.75,7.,19.5));
#1547=CARTESIAN_POINT('',(3.75,7.,-19.5));
#1548=CARTESIAN_POINT('Origin',(38.65,7.,0.));
#1549=CARTESIAN_POINT('',(3.75,7.,19.5));
#1550=CARTESIAN_POINT('',(67.1214736656665,7.,14.9616825318473));
#1551=CARTESIAN_POINT('',(3.75,7.,19.5));
#1552=CARTESIAN_POINT('',(67.1214736656665,7.,-14.9616825318473));
#1553=CARTESIAN_POINT('Origin',(66.05,7.,0.));
#1554=CARTESIAN_POINT('',(3.75,7.,-19.5));
#1555=CARTESIAN_POINT('',(3.75,7.,-19.5));
#1556=CARTESIAN_POINT('',(-3.75,7.,-19.5));
#1557=CARTESIAN_POINT('',(-3.75,7.,-19.5));
#1558=CARTESIAN_POINT('',(-3.75,7.,19.5));
#1559=CARTESIAN_POINT('',(-3.75,7.,19.5));
#1560=CARTESIAN_POINT('',(3.75,7.,19.5));
#1561=CARTESIAN_POINT('Origin',(-3.75,0.,19.5));
#1562=CARTESIAN_POINT('',(3.75,0.,19.5));
#1563=CARTESIAN_POINT('',(-3.75,0.,19.5));
#1564=CARTESIAN_POINT('Origin',(-3.75,0.,-19.5));
#1565=CARTESIAN_POINT('',(-3.75,0.,-19.5));
#1566=CARTESIAN_POINT('Origin',(3.75,0.,-19.5));
#1567=CARTESIAN_POINT('',(3.75,0.,-19.5));
#1568=CARTESIAN_POINT('Origin',(67.1214736656665,0.,-14.9616825318473));
#1569=CARTESIAN_POINT('',(67.1214736656665,0.,-14.9616825318473));
#1570=CARTESIAN_POINT('Origin',(66.05,0.,0.));
#1571=CARTESIAN_POINT('',(67.1214736656665,0.,14.9616825318473));
#1572=CARTESIAN_POINT('Origin',(3.75,0.,19.5));
#1573=UNCERTAINTY_MEASURE_WITH_UNIT(LENGTH_MEASURE(0.01),#1577,
'DISTANCE_ACCURACY_VALUE',
'Maximum model space distance between geometric entities at asserted c
onnectivities');
#1574=UNCERTAINTY_MEASURE_WITH_UNIT(LENGTH_MEASURE(0.01),#1577,
'DISTANCE_ACCURACY_VALUE',
'Maximum model space distance between geometric entities at asserted c
onnectivities');
#1575=(
GEOMETRIC_REPRESENTATION_CONTEXT(3)
GLOBAL_UNCERTAINTY_ASSIGNED_CONTEXT((#1573))
GLOBAL_UNIT_ASSIGNED_CONTEXT((#1577,#1579,#1580))
REPRESENTATION_CONTEXT('','3D')
);
#1576=(
GEOMETRIC_REPRESENTATION_CONTEXT(3)
GLOBAL_UNCERTAINTY_ASSIGNED_CONTEXT((#1574))
GLOBAL_UNIT_ASSIGNED_CONTEXT((#1577,#1579,#1580))
REPRESENTATION_CONTEXT('','3D')
);
#1577=(
LENGTH_UNIT()
NAMED_UNIT(*)
SI_UNIT(.MILLI.,.METRE.)
);
#1578=(
LENGTH_UNIT()
NAMED_UNIT(*)
SI_UNIT($,.METRE.)
);
#1579=(
NAMED_UNIT(*)
PLANE_ANGLE_UNIT()
SI_UNIT($,.RADIAN.)
);
#1580=(
NAMED_UNIT(*)
SI_UNIT($,.STERADIAN.)
SOLID_ANGLE_UNIT()
);
#1581=SHAPE_DEFINITION_REPRESENTATION(#1582,#1583);
#1582=PRODUCT_DEFINITION_SHAPE('',$,#1585);
#1583=SHAPE_REPRESENTATION('',(#947),#1575);
#1584=PRODUCT_DEFINITION_CONTEXT('part definition',#1589,'design');
#1585=PRODUCT_DEFINITION('Femur(1)','Femur(1) v2',#1586,#1584);
#1586=PRODUCT_DEFINITION_FORMATION('',$,#1591);
#1587=PRODUCT_RELATED_PRODUCT_CATEGORY('Femur(1) v2','Femur(1) v2',(#1591));
#1588=APPLICATION_PROTOCOL_DEFINITION('international standard',
'automotive_design',2009,#1589);
#1589=APPLICATION_CONTEXT(
'Core Data for Automotive Mechanical Design Process');
#1590=PRODUCT_CONTEXT('part definition',#1589,'mechanical');
#1591=PRODUCT('Femur(1)','Femur(1) v2',$,(#1590));
#1592=PRESENTATION_STYLE_ASSIGNMENT((#1593));
#1593=SURFACE_STYLE_USAGE(.BOTH.,#1594);
#1594=SURFACE_SIDE_STYLE('',(#1595));
#1595=SURFACE_STYLE_FILL_AREA(#1596);
#1596=FILL_AREA_STYLE('Steel - Satin',(#1597));
#1597=FILL_AREA_STYLE_COLOUR('Steel - Satin',#1598);
#1598=COLOUR_RGB('Steel - Satin',0.627450980392157,0.627450980392157,0.627450980392157);
ENDSEC;
END-ISO-10303-21;
