ISO-10303-21;
HEADER;
/* Generated by software containing ST-Developer
 * from STEP Tools, Inc. (www.steptools.com) 
 */

FILE_DESCRIPTION(
/* description */ (''),
/* implementation_level */ '2;1');

FILE_NAME(
/* name */ 'Coxa Link 2_Part 1.step',
/* time_stamp */ '2026-09-01T13:30:44+04:00',
/* author */ (''),
/* organization */ (''),
/* preprocessor_version */ 'ST-DEVELOPER v20.1',
/* originating_system */ 'Autodesk Translation Framework v15.8.0.0',
/* authorisation */ '');

FILE_SCHEMA (('AUTOMOTIVE_DESIGN { 1 0 10303 214 3 1 1 }'));
ENDSEC;

DATA;
#10=MECHANICAL_DESIGN_GEOMETRIC_PRESENTATION_REPRESENTATION('',(#17),#817);
#11=ITEM_DEFINED_TRANSFORMATION($,$,#489,#539);
#12=(
REPRESENTATION_RELATIONSHIP($,$,#828,#827)
REPRESENTATION_RELATIONSHIP_WITH_TRANSFORMATION(#11)
SHAPE_REPRESENTATION_RELATIONSHIP()
);
#13=CONTEXT_DEPENDENT_SHAPE_REPRESENTATION(#12,#826);
#14=NEXT_ASSEMBLY_USAGE_OCCURRENCE('Component1:1','Component1:1',
'Component1:1',#830,#831,'Component1:1');
#15=SHAPE_REPRESENTATION_RELATIONSHIP('SRR','None',#828,#16);
#16=ADVANCED_BREP_SHAPE_REPRESENTATION('',(#18),#816);
#17=STYLED_ITEM('',(#841),#18);
#18=MANIFOLD_SOLID_BREP('Body1',#475);
#19=CYLINDRICAL_SURFACE('',#521,1.6);
#20=CYLINDRICAL_SURFACE('',#522,1.6);
#21=CYLINDRICAL_SURFACE('',#523,1.6);
#22=CYLINDRICAL_SURFACE('',#524,1.6);
#23=CYLINDRICAL_SURFACE('',#525,1.6);
#24=CYLINDRICAL_SURFACE('',#526,1.6);
#25=CYLINDRICAL_SURFACE('',#527,1.6);
#26=CYLINDRICAL_SURFACE('',#528,1.6);
#27=CYLINDRICAL_SURFACE('',#529,3.);
#28=CYLINDRICAL_SURFACE('',#533,4.);
#29=CYLINDRICAL_SURFACE('',#537,15.);
#30=FACE_BOUND('',#97,.T.);
#31=FACE_BOUND('',#98,.T.);
#32=FACE_BOUND('',#99,.T.);
#33=FACE_BOUND('',#100,.T.);
#34=FACE_BOUND('',#101,.T.);
#35=FACE_BOUND('',#106,.T.);
#36=FACE_BOUND('',#111,.T.);
#37=FACE_BOUND('',#112,.T.);
#38=FACE_BOUND('',#113,.T.);
#39=FACE_BOUND('',#115,.T.);
#40=FACE_BOUND('',#116,.T.);
#41=FACE_BOUND('',#117,.T.);
#42=FACE_BOUND('',#118,.T.);
#43=FACE_BOUND('',#119,.T.);
#44=FACE_BOUND('',#132,.T.);
#45=CIRCLE('',#493,1.6);
#46=CIRCLE('',#494,1.6);
#47=CIRCLE('',#495,1.6);
#48=CIRCLE('',#496,1.6);
#49=CIRCLE('',#497,1.6);
#50=CIRCLE('',#501,15.);
#51=CIRCLE('',#503,15.);
#52=CIRCLE('',#504,4.);
#53=CIRCLE('',#506,1.6);
#54=CIRCLE('',#508,1.6);
#55=CIRCLE('',#510,1.6);
#56=CIRCLE('',#512,1.6);
#57=CIRCLE('',#513,1.6);
#58=CIRCLE('',#514,1.6);
#59=CIRCLE('',#516,1.6);
#60=CIRCLE('',#517,1.6);
#61=CIRCLE('',#518,1.6);
#62=CIRCLE('',#519,1.6);
#63=CIRCLE('',#520,1.6);
#64=CIRCLE('',#530,3.);
#65=CIRCLE('',#531,3.);
#66=CIRCLE('',#534,4.);
#67=FACE_OUTER_BOUND('',#94,.T.);
#68=FACE_OUTER_BOUND('',#95,.T.);
#69=FACE_OUTER_BOUND('',#96,.T.);
#70=FACE_OUTER_BOUND('',#102,.T.);
#71=FACE_OUTER_BOUND('',#103,.T.);
#72=FACE_OUTER_BOUND('',#104,.T.);
#73=FACE_OUTER_BOUND('',#105,.T.);
#74=FACE_OUTER_BOUND('',#107,.T.);
#75=FACE_OUTER_BOUND('',#108,.T.);
#76=FACE_OUTER_BOUND('',#109,.T.);
#77=FACE_OUTER_BOUND('',#110,.T.);
#78=FACE_OUTER_BOUND('',#114,.T.);
#79=FACE_OUTER_BOUND('',#120,.T.);
#80=FACE_OUTER_BOUND('',#121,.T.);
#81=FACE_OUTER_BOUND('',#122,.T.);
#82=FACE_OUTER_BOUND('',#123,.T.);
#83=FACE_OUTER_BOUND('',#124,.T.);
#84=FACE_OUTER_BOUND('',#125,.T.);
#85=FACE_OUTER_BOUND('',#126,.T.);
#86=FACE_OUTER_BOUND('',#127,.T.);
#87=FACE_OUTER_BOUND('',#128,.T.);
#88=FACE_OUTER_BOUND('',#129,.T.);
#89=FACE_OUTER_BOUND('',#130,.T.);
#90=FACE_OUTER_BOUND('',#131,.T.);
#91=FACE_OUTER_BOUND('',#133,.T.);
#92=FACE_OUTER_BOUND('',#134,.T.);
#93=FACE_OUTER_BOUND('',#135,.T.);
#94=EDGE_LOOP('',(#312,#313,#314,#315));
#95=EDGE_LOOP('',(#316,#317,#318,#319));
#96=EDGE_LOOP('',(#320,#321,#322,#323));
#97=EDGE_LOOP('',(#324));
#98=EDGE_LOOP('',(#325));
#99=EDGE_LOOP('',(#326));
#100=EDGE_LOOP('',(#327));
#101=EDGE_LOOP('',(#328));
#102=EDGE_LOOP('',(#329,#330,#331,#332,#333,#334,#335,#336));
#103=EDGE_LOOP('',(#337,#338,#339,#340,#341,#342,#343,#344));
#104=EDGE_LOOP('',(#345,#346,#347,#348,#349,#350));
#105=EDGE_LOOP('',(#351,#352,#353,#354,#355,#356));
#106=EDGE_LOOP('',(#357));
#107=EDGE_LOOP('',(#358));
#108=EDGE_LOOP('',(#359));
#109=EDGE_LOOP('',(#360));
#110=EDGE_LOOP('',(#361,#362,#363,#364));
#111=EDGE_LOOP('',(#365));
#112=EDGE_LOOP('',(#366));
#113=EDGE_LOOP('',(#367));
#114=EDGE_LOOP('',(#368,#369,#370,#371));
#115=EDGE_LOOP('',(#372));
#116=EDGE_LOOP('',(#373));
#117=EDGE_LOOP('',(#374));
#118=EDGE_LOOP('',(#375));
#119=EDGE_LOOP('',(#376));
#120=EDGE_LOOP('',(#377,#378,#379,#380));
#121=EDGE_LOOP('',(#381,#382,#383,#384));
#122=EDGE_LOOP('',(#385,#386,#387,#388));
#123=EDGE_LOOP('',(#389,#390,#391,#392));
#124=EDGE_LOOP('',(#393,#394,#395,#396));
#125=EDGE_LOOP('',(#397,#398,#399,#400));
#126=EDGE_LOOP('',(#401,#402,#403,#404));
#127=EDGE_LOOP('',(#405,#406,#407,#408));
#128=EDGE_LOOP('',(#409,#410,#411,#412));
#129=EDGE_LOOP('',(#413));
#130=EDGE_LOOP('',(#414,#415,#416,#417));
#131=EDGE_LOOP('',(#418));
#132=EDGE_LOOP('',(#419));
#133=EDGE_LOOP('',(#420,#421,#422,#423));
#134=EDGE_LOOP('',(#424,#425,#426,#427));
#135=EDGE_LOOP('',(#428,#429,#430,#431));
#136=LINE('',#687,#174);
#137=LINE('',#689,#175);
#138=LINE('',#691,#176);
#139=LINE('',#692,#177);
#140=LINE('',#695,#178);
#141=LINE('',#697,#179);
#142=LINE('',#698,#180);
#143=LINE('',#701,#181);
#144=LINE('',#703,#182);
#145=LINE('',#704,#183);
#146=LINE('',#717,#184);
#147=LINE('',#719,#185);
#148=LINE('',#721,#186);
#149=LINE('',#723,#187);
#150=LINE('',#724,#188);
#151=LINE('',#727,#189);
#152=LINE('',#729,#190);
#153=LINE('',#731,#191);
#154=LINE('',#733,#192);
#155=LINE('',#734,#193);
#156=LINE('',#737,#194);
#157=LINE('',#740,#195);
#158=LINE('',#742,#196);
#159=LINE('',#744,#197);
#160=LINE('',#747,#198);
#161=LINE('',#760,#199);
#162=LINE('',#779,#200);
#163=LINE('',#781,#201);
#164=LINE('',#783,#202);
#165=LINE('',#785,#203);
#166=LINE('',#787,#204);
#167=LINE('',#789,#205);
#168=LINE('',#791,#206);
#169=LINE('',#793,#207);
#170=LINE('',#798,#208);
#171=LINE('',#804,#209);
#172=LINE('',#807,#210);
#173=LINE('',#809,#211);
#174=VECTOR('',#546,10.);
#175=VECTOR('',#547,10.);
#176=VECTOR('',#548,10.);
#177=VECTOR('',#549,10.);
#178=VECTOR('',#552,10.);
#179=VECTOR('',#553,10.);
#180=VECTOR('',#554,10.);
#181=VECTOR('',#557,10.);
#182=VECTOR('',#558,10.);
#183=VECTOR('',#559,10.);
#184=VECTOR('',#572,10.);
#185=VECTOR('',#573,10.);
#186=VECTOR('',#574,10.);
#187=VECTOR('',#575,10.);
#188=VECTOR('',#576,10.);
#189=VECTOR('',#579,10.);
#190=VECTOR('',#580,10.);
#191=VECTOR('',#581,10.);
#192=VECTOR('',#582,10.);
#193=VECTOR('',#583,10.);
#194=VECTOR('',#586,10.);
#195=VECTOR('',#589,10.);
#196=VECTOR('',#592,10.);
#197=VECTOR('',#593,10.);
#198=VECTOR('',#596,10.);
#199=VECTOR('',#613,10.);
#200=VECTOR('',#634,1.6);
#201=VECTOR('',#637,1.6);
#202=VECTOR('',#640,1.6);
#203=VECTOR('',#643,1.6);
#204=VECTOR('',#646,1.6);
#205=VECTOR('',#649,1.6);
#206=VECTOR('',#652,1.6);
#207=VECTOR('',#655,1.6);
#208=VECTOR('',#660,3.);
#209=VECTOR('',#669,4.);
#210=VECTOR('',#674,10.);
#211=VECTOR('',#677,10.);
#212=VERTEX_POINT('',#685);
#213=VERTEX_POINT('',#686);
#214=VERTEX_POINT('',#688);
#215=VERTEX_POINT('',#690);
#216=VERTEX_POINT('',#694);
#217=VERTEX_POINT('',#696);
#218=VERTEX_POINT('',#700);
#219=VERTEX_POINT('',#702);
#220=VERTEX_POINT('',#705);
#221=VERTEX_POINT('',#707);
#222=VERTEX_POINT('',#709);
#223=VERTEX_POINT('',#711);
#224=VERTEX_POINT('',#713);
#225=VERTEX_POINT('',#716);
#226=VERTEX_POINT('',#718);
#227=VERTEX_POINT('',#720);
#228=VERTEX_POINT('',#722);
#229=VERTEX_POINT('',#726);
#230=VERTEX_POINT('',#728);
#231=VERTEX_POINT('',#730);
#232=VERTEX_POINT('',#732);
#233=VERTEX_POINT('',#736);
#234=VERTEX_POINT('',#738);
#235=VERTEX_POINT('',#743);
#236=VERTEX_POINT('',#745);
#237=VERTEX_POINT('',#748);
#238=VERTEX_POINT('',#751);
#239=VERTEX_POINT('',#754);
#240=VERTEX_POINT('',#757);
#241=VERTEX_POINT('',#761);
#242=VERTEX_POINT('',#763);
#243=VERTEX_POINT('',#765);
#244=VERTEX_POINT('',#768);
#245=VERTEX_POINT('',#770);
#246=VERTEX_POINT('',#772);
#247=VERTEX_POINT('',#774);
#248=VERTEX_POINT('',#776);
#249=VERTEX_POINT('',#795);
#250=VERTEX_POINT('',#797);
#251=VERTEX_POINT('',#802);
#252=EDGE_CURVE('',#212,#213,#136,.T.);
#253=EDGE_CURVE('',#213,#214,#137,.T.);
#254=EDGE_CURVE('',#215,#214,#138,.T.);
#255=EDGE_CURVE('',#212,#215,#139,.T.);
#256=EDGE_CURVE('',#216,#212,#140,.T.);
#257=EDGE_CURVE('',#217,#215,#141,.T.);
#258=EDGE_CURVE('',#216,#217,#142,.T.);
#259=EDGE_CURVE('',#218,#217,#143,.T.);
#260=EDGE_CURVE('',#218,#219,#144,.T.);
#261=EDGE_CURVE('',#216,#219,#145,.T.);
#262=EDGE_CURVE('',#220,#220,#45,.T.);
#263=EDGE_CURVE('',#221,#221,#46,.T.);
#264=EDGE_CURVE('',#222,#222,#47,.T.);
#265=EDGE_CURVE('',#223,#223,#48,.T.);
#266=EDGE_CURVE('',#224,#224,#49,.T.);
#267=EDGE_CURVE('',#219,#225,#146,.T.);
#268=EDGE_CURVE('',#225,#226,#147,.T.);
#269=EDGE_CURVE('',#226,#227,#148,.T.);
#270=EDGE_CURVE('',#228,#227,#149,.T.);
#271=EDGE_CURVE('',#213,#228,#150,.T.);
#272=EDGE_CURVE('',#214,#229,#151,.T.);
#273=EDGE_CURVE('',#229,#230,#152,.T.);
#274=EDGE_CURVE('',#230,#231,#153,.T.);
#275=EDGE_CURVE('',#231,#232,#154,.T.);
#276=EDGE_CURVE('',#232,#218,#155,.T.);
#277=EDGE_CURVE('',#228,#233,#156,.T.);
#278=EDGE_CURVE('',#233,#234,#50,.T.);
#279=EDGE_CURVE('',#234,#229,#157,.T.);
#280=EDGE_CURVE('',#231,#226,#158,.T.);
#281=EDGE_CURVE('',#235,#230,#159,.T.);
#282=EDGE_CURVE('',#236,#235,#51,.T.);
#283=EDGE_CURVE('',#227,#236,#160,.T.);
#284=EDGE_CURVE('',#237,#237,#52,.T.);
#285=EDGE_CURVE('',#238,#238,#53,.T.);
#286=EDGE_CURVE('',#239,#239,#54,.T.);
#287=EDGE_CURVE('',#240,#240,#55,.T.);
#288=EDGE_CURVE('',#225,#232,#161,.T.);
#289=EDGE_CURVE('',#241,#241,#56,.T.);
#290=EDGE_CURVE('',#242,#242,#57,.T.);
#291=EDGE_CURVE('',#243,#243,#58,.T.);
#292=EDGE_CURVE('',#244,#244,#59,.T.);
#293=EDGE_CURVE('',#245,#245,#60,.T.);
#294=EDGE_CURVE('',#246,#246,#61,.T.);
#295=EDGE_CURVE('',#247,#247,#62,.T.);
#296=EDGE_CURVE('',#248,#248,#63,.T.);
#297=EDGE_CURVE('',#241,#238,#162,.T.);
#298=EDGE_CURVE('',#242,#240,#163,.T.);
#299=EDGE_CURVE('',#243,#239,#164,.T.);
#300=EDGE_CURVE('',#220,#244,#165,.T.);
#301=EDGE_CURVE('',#221,#245,#166,.T.);
#302=EDGE_CURVE('',#222,#246,#167,.T.);
#303=EDGE_CURVE('',#223,#247,#168,.T.);
#304=EDGE_CURVE('',#224,#248,#169,.T.);
#305=EDGE_CURVE('',#249,#249,#64,.T.);
#306=EDGE_CURVE('',#249,#250,#170,.T.);
#307=EDGE_CURVE('',#250,#250,#65,.T.);
#308=EDGE_CURVE('',#251,#251,#66,.T.);
#309=EDGE_CURVE('',#251,#237,#171,.T.);
#310=EDGE_CURVE('',#233,#236,#172,.T.);
#311=EDGE_CURVE('',#234,#235,#173,.T.);
#312=ORIENTED_EDGE('',*,*,#252,.T.);
#313=ORIENTED_EDGE('',*,*,#253,.T.);
#314=ORIENTED_EDGE('',*,*,#254,.F.);
#315=ORIENTED_EDGE('',*,*,#255,.F.);
#316=ORIENTED_EDGE('',*,*,#256,.T.);
#317=ORIENTED_EDGE('',*,*,#255,.T.);
#318=ORIENTED_EDGE('',*,*,#257,.F.);
#319=ORIENTED_EDGE('',*,*,#258,.F.);
#320=ORIENTED_EDGE('',*,*,#258,.T.);
#321=ORIENTED_EDGE('',*,*,#259,.F.);
#322=ORIENTED_EDGE('',*,*,#260,.T.);
#323=ORIENTED_EDGE('',*,*,#261,.F.);
#324=ORIENTED_EDGE('',*,*,#262,.T.);
#325=ORIENTED_EDGE('',*,*,#263,.T.);
#326=ORIENTED_EDGE('',*,*,#264,.T.);
#327=ORIENTED_EDGE('',*,*,#265,.T.);
#328=ORIENTED_EDGE('',*,*,#266,.T.);
#329=ORIENTED_EDGE('',*,*,#261,.T.);
#330=ORIENTED_EDGE('',*,*,#267,.T.);
#331=ORIENTED_EDGE('',*,*,#268,.T.);
#332=ORIENTED_EDGE('',*,*,#269,.T.);
#333=ORIENTED_EDGE('',*,*,#270,.F.);
#334=ORIENTED_EDGE('',*,*,#271,.F.);
#335=ORIENTED_EDGE('',*,*,#252,.F.);
#336=ORIENTED_EDGE('',*,*,#256,.F.);
#337=ORIENTED_EDGE('',*,*,#259,.T.);
#338=ORIENTED_EDGE('',*,*,#257,.T.);
#339=ORIENTED_EDGE('',*,*,#254,.T.);
#340=ORIENTED_EDGE('',*,*,#272,.T.);
#341=ORIENTED_EDGE('',*,*,#273,.T.);
#342=ORIENTED_EDGE('',*,*,#274,.T.);
#343=ORIENTED_EDGE('',*,*,#275,.T.);
#344=ORIENTED_EDGE('',*,*,#276,.T.);
#345=ORIENTED_EDGE('',*,*,#271,.T.);
#346=ORIENTED_EDGE('',*,*,#277,.T.);
#347=ORIENTED_EDGE('',*,*,#278,.T.);
#348=ORIENTED_EDGE('',*,*,#279,.T.);
#349=ORIENTED_EDGE('',*,*,#272,.F.);
#350=ORIENTED_EDGE('',*,*,#253,.F.);
#351=ORIENTED_EDGE('',*,*,#280,.F.);
#352=ORIENTED_EDGE('',*,*,#274,.F.);
#353=ORIENTED_EDGE('',*,*,#281,.F.);
#354=ORIENTED_EDGE('',*,*,#282,.F.);
#355=ORIENTED_EDGE('',*,*,#283,.F.);
#356=ORIENTED_EDGE('',*,*,#269,.F.);
#357=ORIENTED_EDGE('',*,*,#284,.F.);
#358=ORIENTED_EDGE('',*,*,#285,.F.);
#359=ORIENTED_EDGE('',*,*,#286,.F.);
#360=ORIENTED_EDGE('',*,*,#287,.F.);
#361=ORIENTED_EDGE('',*,*,#288,.F.);
#362=ORIENTED_EDGE('',*,*,#267,.F.);
#363=ORIENTED_EDGE('',*,*,#260,.F.);
#364=ORIENTED_EDGE('',*,*,#276,.F.);
#365=ORIENTED_EDGE('',*,*,#289,.F.);
#366=ORIENTED_EDGE('',*,*,#290,.F.);
#367=ORIENTED_EDGE('',*,*,#291,.F.);
#368=ORIENTED_EDGE('',*,*,#288,.T.);
#369=ORIENTED_EDGE('',*,*,#275,.F.);
#370=ORIENTED_EDGE('',*,*,#280,.T.);
#371=ORIENTED_EDGE('',*,*,#268,.F.);
#372=ORIENTED_EDGE('',*,*,#292,.T.);
#373=ORIENTED_EDGE('',*,*,#293,.T.);
#374=ORIENTED_EDGE('',*,*,#294,.T.);
#375=ORIENTED_EDGE('',*,*,#295,.T.);
#376=ORIENTED_EDGE('',*,*,#296,.T.);
#377=ORIENTED_EDGE('',*,*,#289,.T.);
#378=ORIENTED_EDGE('',*,*,#297,.T.);
#379=ORIENTED_EDGE('',*,*,#285,.T.);
#380=ORIENTED_EDGE('',*,*,#297,.F.);
#381=ORIENTED_EDGE('',*,*,#290,.T.);
#382=ORIENTED_EDGE('',*,*,#298,.T.);
#383=ORIENTED_EDGE('',*,*,#287,.T.);
#384=ORIENTED_EDGE('',*,*,#298,.F.);
#385=ORIENTED_EDGE('',*,*,#291,.T.);
#386=ORIENTED_EDGE('',*,*,#299,.T.);
#387=ORIENTED_EDGE('',*,*,#286,.T.);
#388=ORIENTED_EDGE('',*,*,#299,.F.);
#389=ORIENTED_EDGE('',*,*,#262,.F.);
#390=ORIENTED_EDGE('',*,*,#300,.T.);
#391=ORIENTED_EDGE('',*,*,#292,.F.);
#392=ORIENTED_EDGE('',*,*,#300,.F.);
#393=ORIENTED_EDGE('',*,*,#263,.F.);
#394=ORIENTED_EDGE('',*,*,#301,.T.);
#395=ORIENTED_EDGE('',*,*,#293,.F.);
#396=ORIENTED_EDGE('',*,*,#301,.F.);
#397=ORIENTED_EDGE('',*,*,#264,.F.);
#398=ORIENTED_EDGE('',*,*,#302,.T.);
#399=ORIENTED_EDGE('',*,*,#294,.F.);
#400=ORIENTED_EDGE('',*,*,#302,.F.);
#401=ORIENTED_EDGE('',*,*,#265,.F.);
#402=ORIENTED_EDGE('',*,*,#303,.T.);
#403=ORIENTED_EDGE('',*,*,#295,.F.);
#404=ORIENTED_EDGE('',*,*,#303,.F.);
#405=ORIENTED_EDGE('',*,*,#266,.F.);
#406=ORIENTED_EDGE('',*,*,#304,.T.);
#407=ORIENTED_EDGE('',*,*,#296,.F.);
#408=ORIENTED_EDGE('',*,*,#304,.F.);
#409=ORIENTED_EDGE('',*,*,#305,.F.);
#410=ORIENTED_EDGE('',*,*,#306,.T.);
#411=ORIENTED_EDGE('',*,*,#307,.F.);
#412=ORIENTED_EDGE('',*,*,#306,.F.);
#413=ORIENTED_EDGE('',*,*,#305,.T.);
#414=ORIENTED_EDGE('',*,*,#308,.F.);
#415=ORIENTED_EDGE('',*,*,#309,.T.);
#416=ORIENTED_EDGE('',*,*,#284,.T.);
#417=ORIENTED_EDGE('',*,*,#309,.F.);
#418=ORIENTED_EDGE('',*,*,#308,.T.);
#419=ORIENTED_EDGE('',*,*,#307,.T.);
#420=ORIENTED_EDGE('',*,*,#283,.T.);
#421=ORIENTED_EDGE('',*,*,#310,.F.);
#422=ORIENTED_EDGE('',*,*,#277,.F.);
#423=ORIENTED_EDGE('',*,*,#270,.T.);
#424=ORIENTED_EDGE('',*,*,#282,.T.);
#425=ORIENTED_EDGE('',*,*,#311,.F.);
#426=ORIENTED_EDGE('',*,*,#278,.F.);
#427=ORIENTED_EDGE('',*,*,#310,.T.);
#428=ORIENTED_EDGE('',*,*,#281,.T.);
#429=ORIENTED_EDGE('',*,*,#273,.F.);
#430=ORIENTED_EDGE('',*,*,#279,.F.);
#431=ORIENTED_EDGE('',*,*,#311,.T.);
#432=PLANE('',#490);
#433=PLANE('',#491);
#434=PLANE('',#492);
#435=PLANE('',#498);
#436=PLANE('',#499);
#437=PLANE('',#500);
#438=PLANE('',#502);
#439=PLANE('',#505);
#440=PLANE('',#507);
#441=PLANE('',#509);
#442=PLANE('',#511);
#443=PLANE('',#515);
#444=PLANE('',#532);
#445=PLANE('',#535);
#446=PLANE('',#536);
#447=PLANE('',#538);
#448=ADVANCED_FACE('',(#67),#432,.T.);
#449=ADVANCED_FACE('',(#68),#433,.T.);
#450=ADVANCED_FACE('',(#69,#30,#31,#32,#33,#34),#434,.T.);
#451=ADVANCED_FACE('',(#70),#435,.T.);
#452=ADVANCED_FACE('',(#71),#436,.T.);
#453=ADVANCED_FACE('',(#72),#437,.F.);
#454=ADVANCED_FACE('',(#73,#35),#438,.T.);
#455=ADVANCED_FACE('',(#74),#439,.T.);
#456=ADVANCED_FACE('',(#75),#440,.T.);
#457=ADVANCED_FACE('',(#76),#441,.T.);
#458=ADVANCED_FACE('',(#77,#36,#37,#38),#442,.T.);
#459=ADVANCED_FACE('',(#78,#39,#40,#41,#42,#43),#443,.T.);
#460=ADVANCED_FACE('',(#79),#19,.F.);
#461=ADVANCED_FACE('',(#80),#20,.F.);
#462=ADVANCED_FACE('',(#81),#21,.F.);
#463=ADVANCED_FACE('',(#82),#22,.F.);
#464=ADVANCED_FACE('',(#83),#23,.F.);
#465=ADVANCED_FACE('',(#84),#24,.F.);
#466=ADVANCED_FACE('',(#85),#25,.F.);
#467=ADVANCED_FACE('',(#86),#26,.F.);
#468=ADVANCED_FACE('',(#87),#27,.T.);
#469=ADVANCED_FACE('',(#88),#444,.T.);
#470=ADVANCED_FACE('',(#89),#28,.T.);
#471=ADVANCED_FACE('',(#90,#44),#445,.T.);
#472=ADVANCED_FACE('',(#91),#446,.T.);
#473=ADVANCED_FACE('',(#92),#29,.T.);
#474=ADVANCED_FACE('',(#93),#447,.T.);
#475=CLOSED_SHELL('',(#448,#449,#450,#451,#452,#453,#454,#455,#456,#457,
#458,#459,#460,#461,#462,#463,#464,#465,#466,#467,#468,#469,#470,#471,#472,
#473,#474));
#476=DERIVED_UNIT_ELEMENT(#478,1.);
#477=DERIVED_UNIT_ELEMENT(#819,-3.);
#478=(
MASS_UNIT()
NAMED_UNIT(*)
SI_UNIT(.KILO.,.GRAM.)
);
#479=DERIVED_UNIT((#476,#477));
#480=MEASURE_REPRESENTATION_ITEM('density measure',
POSITIVE_RATIO_MEASURE(7850.),#479);
#481=PROPERTY_DEFINITION_REPRESENTATION(#486,#483);
#482=PROPERTY_DEFINITION_REPRESENTATION(#487,#484);
#483=REPRESENTATION('material name',(#485),#816);
#484=REPRESENTATION('density',(#480),#816);
#485=DESCRIPTIVE_REPRESENTATION_ITEM('Steel','Steel');
#486=PROPERTY_DEFINITION('material property','material name',#831);
#487=PROPERTY_DEFINITION('material property','density of part',#831);
#488=AXIS2_PLACEMENT_3D('',#682,#540,#541);
#489=AXIS2_PLACEMENT_3D('',#683,#542,#543);
#490=AXIS2_PLACEMENT_3D('',#684,#544,#545);
#491=AXIS2_PLACEMENT_3D('',#693,#550,#551);
#492=AXIS2_PLACEMENT_3D('',#699,#555,#556);
#493=AXIS2_PLACEMENT_3D('',#706,#560,#561);
#494=AXIS2_PLACEMENT_3D('',#708,#562,#563);
#495=AXIS2_PLACEMENT_3D('',#710,#564,#565);
#496=AXIS2_PLACEMENT_3D('',#712,#566,#567);
#497=AXIS2_PLACEMENT_3D('',#714,#568,#569);
#498=AXIS2_PLACEMENT_3D('',#715,#570,#571);
#499=AXIS2_PLACEMENT_3D('',#725,#577,#578);
#500=AXIS2_PLACEMENT_3D('',#735,#584,#585);
#501=AXIS2_PLACEMENT_3D('',#739,#587,#588);
#502=AXIS2_PLACEMENT_3D('',#741,#590,#591);
#503=AXIS2_PLACEMENT_3D('',#746,#594,#595);
#504=AXIS2_PLACEMENT_3D('',#749,#597,#598);
#505=AXIS2_PLACEMENT_3D('',#750,#599,#600);
#506=AXIS2_PLACEMENT_3D('',#752,#601,#602);
#507=AXIS2_PLACEMENT_3D('',#753,#603,#604);
#508=AXIS2_PLACEMENT_3D('',#755,#605,#606);
#509=AXIS2_PLACEMENT_3D('',#756,#607,#608);
#510=AXIS2_PLACEMENT_3D('',#758,#609,#610);
#511=AXIS2_PLACEMENT_3D('',#759,#611,#612);
#512=AXIS2_PLACEMENT_3D('',#762,#614,#615);
#513=AXIS2_PLACEMENT_3D('',#764,#616,#617);
#514=AXIS2_PLACEMENT_3D('',#766,#618,#619);
#515=AXIS2_PLACEMENT_3D('',#767,#620,#621);
#516=AXIS2_PLACEMENT_3D('',#769,#622,#623);
#517=AXIS2_PLACEMENT_3D('',#771,#624,#625);
#518=AXIS2_PLACEMENT_3D('',#773,#626,#627);
#519=AXIS2_PLACEMENT_3D('',#775,#628,#629);
#520=AXIS2_PLACEMENT_3D('',#777,#630,#631);
#521=AXIS2_PLACEMENT_3D('',#778,#632,#633);
#522=AXIS2_PLACEMENT_3D('',#780,#635,#636);
#523=AXIS2_PLACEMENT_3D('',#782,#638,#639);
#524=AXIS2_PLACEMENT_3D('',#784,#641,#642);
#525=AXIS2_PLACEMENT_3D('',#786,#644,#645);
#526=AXIS2_PLACEMENT_3D('',#788,#647,#648);
#527=AXIS2_PLACEMENT_3D('',#790,#650,#651);
#528=AXIS2_PLACEMENT_3D('',#792,#653,#654);
#529=AXIS2_PLACEMENT_3D('',#794,#656,#657);
#530=AXIS2_PLACEMENT_3D('',#796,#658,#659);
#531=AXIS2_PLACEMENT_3D('',#799,#661,#662);
#532=AXIS2_PLACEMENT_3D('',#800,#663,#664);
#533=AXIS2_PLACEMENT_3D('',#801,#665,#666);
#534=AXIS2_PLACEMENT_3D('',#803,#667,#668);
#535=AXIS2_PLACEMENT_3D('',#805,#670,#671);
#536=AXIS2_PLACEMENT_3D('',#806,#672,#673);
#537=AXIS2_PLACEMENT_3D('',#808,#675,#676);
#538=AXIS2_PLACEMENT_3D('',#810,#678,#679);
#539=AXIS2_PLACEMENT_3D('',#811,#680,#681);
#540=DIRECTION('axis',(0.,0.,1.));
#541=DIRECTION('refdir',(1.,0.,0.));
#542=DIRECTION('axis',(0.,0.,1.));
#543=DIRECTION('refdir',(1.,0.,0.));
#544=DIRECTION('center_axis',(0.743958313799762,-0.668226030118713,0.));
#545=DIRECTION('ref_axis',(-0.668226030118713,-0.743958313799762,0.));
#546=DIRECTION('',(-0.668226030118713,-0.743958313799762,0.));
#547=DIRECTION('',(0.,0.,-1.));
#548=DIRECTION('',(-0.668226030118713,-0.743958313799762,0.));
#549=DIRECTION('',(0.,0.,-1.));
#550=DIRECTION('center_axis',(-1.78814000643494E-10,1.,0.));
#551=DIRECTION('ref_axis',(1.,1.78814000643494E-10,0.));
#552=DIRECTION('',(1.,1.78814000643494E-10,0.));
#553=DIRECTION('',(1.,1.78814000643494E-10,0.));
#554=DIRECTION('',(0.,0.,-1.));
#555=DIRECTION('center_axis',(1.,0.,0.));
#556=DIRECTION('ref_axis',(0.,0.,-1.));
#557=DIRECTION('',(0.,-1.,0.));
#558=DIRECTION('',(0.,0.,1.));
#559=DIRECTION('',(0.,1.,0.));
#560=DIRECTION('center_axis',(-1.,0.,0.));
#561=DIRECTION('ref_axis',(0.,0.,-1.));
#562=DIRECTION('center_axis',(-1.,0.,0.));
#563=DIRECTION('ref_axis',(0.,0.,-1.));
#564=DIRECTION('center_axis',(-1.,0.,0.));
#565=DIRECTION('ref_axis',(0.,0.,-1.));
#566=DIRECTION('center_axis',(-1.,0.,0.));
#567=DIRECTION('ref_axis',(0.,0.,-1.));
#568=DIRECTION('center_axis',(-1.,0.,0.));
#569=DIRECTION('ref_axis',(0.,0.,-1.));
#570=DIRECTION('center_axis',(0.,0.,1.));
#571=DIRECTION('ref_axis',(1.,0.,0.));
#572=DIRECTION('',(-1.,0.,0.));
#573=DIRECTION('',(0.,-1.,0.));
#574=DIRECTION('',(-1.,0.,0.));
#575=DIRECTION('',(0.,1.,0.));
#576=DIRECTION('',(-1.,0.,0.));
#577=DIRECTION('center_axis',(0.,0.,-1.));
#578=DIRECTION('ref_axis',(-1.,0.,0.));
#579=DIRECTION('',(-1.,0.,0.));
#580=DIRECTION('',(0.,1.,0.));
#581=DIRECTION('',(1.,0.,0.));
#582=DIRECTION('',(0.,1.,0.));
#583=DIRECTION('',(1.,0.,0.));
#584=DIRECTION('center_axis',(0.,1.,0.));
#585=DIRECTION('ref_axis',(1.,0.,0.));
#586=DIRECTION('',(-0.961730605046194,0.,-0.273996794356216));
#587=DIRECTION('center_axis',(0.,-1.,0.));
#588=DIRECTION('ref_axis',(1.,0.,0.));
#589=DIRECTION('',(0.961730605046194,0.,-0.273996794356216));
#590=DIRECTION('center_axis',(0.,1.,0.));
#591=DIRECTION('ref_axis',(1.,0.,0.));
#592=DIRECTION('',(0.,0.,1.));
#593=DIRECTION('',(0.961730605046194,0.,-0.273996794356216));
#594=DIRECTION('center_axis',(0.,-1.,0.));
#595=DIRECTION('ref_axis',(1.,0.,0.));
#596=DIRECTION('',(-0.961730605046194,0.,-0.273996794356216));
#597=DIRECTION('center_axis',(0.,1.,0.));
#598=DIRECTION('ref_axis',(-1.,0.,0.));
#599=DIRECTION('center_axis',(0.,1.,0.));
#600=DIRECTION('ref_axis',(-1.,0.,0.));
#601=DIRECTION('center_axis',(0.,-1.,0.));
#602=DIRECTION('ref_axis',(-1.,0.,0.));
#603=DIRECTION('center_axis',(0.,1.,0.));
#604=DIRECTION('ref_axis',(-1.,0.,0.));
#605=DIRECTION('center_axis',(0.,-1.,0.));
#606=DIRECTION('ref_axis',(-1.,0.,0.));
#607=DIRECTION('center_axis',(0.,1.,0.));
#608=DIRECTION('ref_axis',(-1.,0.,0.));
#609=DIRECTION('center_axis',(0.,-1.,0.));
#610=DIRECTION('ref_axis',(-1.,0.,0.));
#611=DIRECTION('center_axis',(0.,1.,0.));
#612=DIRECTION('ref_axis',(0.,0.,1.));
#613=DIRECTION('',(0.,0.,-1.));
#614=DIRECTION('center_axis',(0.,1.,0.));
#615=DIRECTION('ref_axis',(-1.,0.,0.));
#616=DIRECTION('center_axis',(0.,1.,0.));
#617=DIRECTION('ref_axis',(-1.,0.,0.));
#618=DIRECTION('center_axis',(0.,1.,0.));
#619=DIRECTION('ref_axis',(-1.,0.,0.));
#620=DIRECTION('center_axis',(-1.,0.,0.));
#621=DIRECTION('ref_axis',(0.,0.,1.));
#622=DIRECTION('center_axis',(1.,0.,0.));
#623=DIRECTION('ref_axis',(0.,0.,-1.));
#624=DIRECTION('center_axis',(1.,0.,0.));
#625=DIRECTION('ref_axis',(0.,0.,-1.));
#626=DIRECTION('center_axis',(1.,0.,0.));
#627=DIRECTION('ref_axis',(0.,0.,-1.));
#628=DIRECTION('center_axis',(1.,0.,0.));
#629=DIRECTION('ref_axis',(0.,0.,-1.));
#630=DIRECTION('center_axis',(1.,0.,0.));
#631=DIRECTION('ref_axis',(0.,0.,-1.));
#632=DIRECTION('center_axis',(0.,-1.,0.));
#633=DIRECTION('ref_axis',(-1.,0.,0.));
#634=DIRECTION('',(0.,-1.,0.));
#635=DIRECTION('center_axis',(0.,-1.,0.));
#636=DIRECTION('ref_axis',(-1.,0.,0.));
#637=DIRECTION('',(0.,-1.,0.));
#638=DIRECTION('center_axis',(0.,-1.,0.));
#639=DIRECTION('ref_axis',(-1.,0.,0.));
#640=DIRECTION('',(0.,-1.,0.));
#641=DIRECTION('center_axis',(-1.,0.,0.));
#642=DIRECTION('ref_axis',(0.,0.,-1.));
#643=DIRECTION('',(-1.,0.,0.));
#644=DIRECTION('center_axis',(-1.,0.,0.));
#645=DIRECTION('ref_axis',(0.,0.,-1.));
#646=DIRECTION('',(-1.,0.,0.));
#647=DIRECTION('center_axis',(-1.,0.,0.));
#648=DIRECTION('ref_axis',(0.,0.,-1.));
#649=DIRECTION('',(-1.,0.,0.));
#650=DIRECTION('center_axis',(-1.,0.,0.));
#651=DIRECTION('ref_axis',(0.,0.,-1.));
#652=DIRECTION('',(-1.,0.,0.));
#653=DIRECTION('center_axis',(-1.,0.,0.));
#654=DIRECTION('ref_axis',(0.,0.,-1.));
#655=DIRECTION('',(-1.,0.,0.));
#656=DIRECTION('center_axis',(0.,1.,0.));
#657=DIRECTION('ref_axis',(-1.,0.,0.));
#658=DIRECTION('center_axis',(0.,1.,0.));
#659=DIRECTION('ref_axis',(-1.,0.,0.));
#660=DIRECTION('',(0.,-1.,0.));
#661=DIRECTION('center_axis',(0.,-1.,0.));
#662=DIRECTION('ref_axis',(-1.,0.,0.));
#663=DIRECTION('center_axis',(0.,1.,0.));
#664=DIRECTION('ref_axis',(-1.,0.,0.));
#665=DIRECTION('center_axis',(0.,1.,0.));
#666=DIRECTION('ref_axis',(-1.,0.,0.));
#667=DIRECTION('center_axis',(0.,1.,0.));
#668=DIRECTION('ref_axis',(-1.,0.,0.));
#669=DIRECTION('',(0.,-1.,0.));
#670=DIRECTION('center_axis',(0.,1.,0.));
#671=DIRECTION('ref_axis',(-1.,0.,0.));
#672=DIRECTION('center_axis',(-0.273996794356216,0.,0.961730605046194));
#673=DIRECTION('ref_axis',(0.961730605046194,0.,0.273996794356216));
#674=DIRECTION('',(0.,1.,0.));
#675=DIRECTION('center_axis',(0.,1.,0.));
#676=DIRECTION('ref_axis',(-1.,0.,-1.22464679914735E-16));
#677=DIRECTION('',(0.,1.,0.));
#678=DIRECTION('center_axis',(-0.273996794356216,0.,-0.961730605046194));
#679=DIRECTION('ref_axis',(-0.961730605046194,0.,0.273996794356216));
#680=DIRECTION('',(0.,0.,1.));
#681=DIRECTION('',(1.,0.,0.));
#682=CARTESIAN_POINT('',(0.,0.,0.));
#683=CARTESIAN_POINT('',(0.,0.,0.));
#684=CARTESIAN_POINT('Origin',(13.7499998588085,8.25000000357628,24.5));
#685=CARTESIAN_POINT('',(13.7499998588085,8.25000000357628,24.5));
#686=CARTESIAN_POINT('',(6.24999986030161,-0.0999999977648258,24.5));
#687=CARTESIAN_POINT('',(13.7499998588085,8.25000000357628,24.5));
#688=CARTESIAN_POINT('',(6.24999986030161,-0.0999999977648258,-24.5));
#689=CARTESIAN_POINT('',(6.24999986030161,-0.0999999977648258,24.5));
#690=CARTESIAN_POINT('',(13.7499998588085,8.25000000357628,-24.5));
#691=CARTESIAN_POINT('',(13.7499998588085,8.25000000357628,-24.5));
#692=CARTESIAN_POINT('',(13.7499998588085,8.25000000357628,24.5));
#693=CARTESIAN_POINT('Origin',(6.24999985880852,8.25000000223517,24.5));
#694=CARTESIAN_POINT('',(6.24999985880852,8.25000000223517,24.5));
#695=CARTESIAN_POINT('',(6.24999985880852,8.25000000223517,24.5));
#696=CARTESIAN_POINT('',(6.24999985880852,8.25000000223517,-24.5));
#697=CARTESIAN_POINT('',(6.24999985880852,8.25000000223517,-24.5));
#698=CARTESIAN_POINT('',(6.25,8.25000000223517,24.5));
#699=CARTESIAN_POINT('Origin',(6.25,0.,24.5));
#700=CARTESIAN_POINT('',(6.25,59.25,-24.5));
#701=CARTESIAN_POINT('',(6.24999986030161,0.0999999977648258,-24.5));
#702=CARTESIAN_POINT('',(6.25,59.25,24.5));
#703=CARTESIAN_POINT('',(6.25,59.25,12.25));
#704=CARTESIAN_POINT('',(6.25,0.,24.5));
#705=CARTESIAN_POINT('',(6.25,32.75,-6.4));
#706=CARTESIAN_POINT('Origin',(6.25,32.75,-8.));
#707=CARTESIAN_POINT('',(6.25,32.75,1.6));
#708=CARTESIAN_POINT('Origin',(6.25,32.75,0.));
#709=CARTESIAN_POINT('',(6.25,32.75,9.6));
#710=CARTESIAN_POINT('Origin',(6.25,32.75,8.));
#711=CARTESIAN_POINT('',(6.25,40.75,1.6));
#712=CARTESIAN_POINT('Origin',(6.25,40.75,0.));
#713=CARTESIAN_POINT('',(6.25,24.75,1.6));
#714=CARTESIAN_POINT('Origin',(6.25,24.75,0.));
#715=CARTESIAN_POINT('Origin',(-6.25,0.,24.5));
#716=CARTESIAN_POINT('',(-1.25,59.25,24.5));
#717=CARTESIAN_POINT('',(-1.875,59.25,24.5));
#718=CARTESIAN_POINT('',(-1.25,5.9,24.5));
#719=CARTESIAN_POINT('',(-1.25,3.,24.5));
#720=CARTESIAN_POINT('',(-6.25,5.9,24.5));
#721=CARTESIAN_POINT('',(-14.6875,5.9,24.5));
#722=CARTESIAN_POINT('',(-6.25,-0.1,24.5));
#723=CARTESIAN_POINT('',(-6.25,0.,24.5));
#724=CARTESIAN_POINT('',(6.25,-0.1,24.5));
#725=CARTESIAN_POINT('Origin',(6.25,0.,-24.5));
#726=CARTESIAN_POINT('',(-6.25,-0.1,-24.5));
#727=CARTESIAN_POINT('',(6.04999986477196,-0.0999999977648258,-24.5));
#728=CARTESIAN_POINT('',(-6.25,5.9,-24.5));
#729=CARTESIAN_POINT('',(-6.25,0.,-24.5));
#730=CARTESIAN_POINT('',(-1.25,5.9,-24.5));
#731=CARTESIAN_POINT('',(-8.4375,5.9,-24.5));
#732=CARTESIAN_POINT('',(-1.25,59.25,-24.5));
#733=CARTESIAN_POINT('',(-1.25,3.,-24.5));
#734=CARTESIAN_POINT('',(4.375,59.25,-24.5));
#735=CARTESIAN_POINT('Origin',(-23.125,-0.1,0.));
#736=CARTESIAN_POINT('',(-41.6099519153432,-0.1,14.4259590756929));
#737=CARTESIAN_POINT('',(-6.25,-0.1,24.5));
#738=CARTESIAN_POINT('',(-41.6099519153432,-0.1,-14.4259590756929));
#739=CARTESIAN_POINT('Origin',(-37.5,-0.1,0.));
#740=CARTESIAN_POINT('',(-6.25,-0.1,-24.5));
#741=CARTESIAN_POINT('Origin',(-23.125,5.9,0.));
#742=CARTESIAN_POINT('',(-1.25,5.9,-12.25));
#743=CARTESIAN_POINT('',(-41.6099519153432,5.9,-14.4259590756929));
#744=CARTESIAN_POINT('',(-17.282072081516,5.9,-21.3569655893431));
#745=CARTESIAN_POINT('',(-41.6099519153432,5.9,14.4259590756929));
#746=CARTESIAN_POINT('Origin',(-37.5,5.9,0.));
#747=CARTESIAN_POINT('',(-34.9620480391876,5.9,16.3199451271895));
#748=CARTESIAN_POINT('',(-33.5,5.9,-4.89858719658942E-16));
#749=CARTESIAN_POINT('Origin',(-37.5,5.9,0.));
#750=CARTESIAN_POINT('Origin',(2.5,55.25,0.));
#751=CARTESIAN_POINT('',(4.1,55.25,-1.95943487863577E-16));
#752=CARTESIAN_POINT('Origin',(2.5,55.25,0.));
#753=CARTESIAN_POINT('Origin',(2.5,55.25,13.));
#754=CARTESIAN_POINT('',(4.1,55.25,13.));
#755=CARTESIAN_POINT('Origin',(2.5,55.25,13.));
#756=CARTESIAN_POINT('Origin',(2.5,55.25,-13.));
#757=CARTESIAN_POINT('',(4.1,55.25,-13.));
#758=CARTESIAN_POINT('Origin',(2.5,55.25,-13.));
#759=CARTESIAN_POINT('Origin',(2.5,59.25,0.));
#760=CARTESIAN_POINT('',(-1.25,59.25,-12.25));
#761=CARTESIAN_POINT('',(4.1,59.25,-1.95943487863577E-16));
#762=CARTESIAN_POINT('Origin',(2.5,59.25,0.));
#763=CARTESIAN_POINT('',(4.1,59.25,-13.));
#764=CARTESIAN_POINT('Origin',(2.5,59.25,-13.));
#765=CARTESIAN_POINT('',(4.1,59.25,13.));
#766=CARTESIAN_POINT('Origin',(2.5,59.25,13.));
#767=CARTESIAN_POINT('Origin',(-1.25,6.,-24.5));
#768=CARTESIAN_POINT('',(-1.25,32.75,-6.4));
#769=CARTESIAN_POINT('Origin',(-1.25,32.75,-8.));
#770=CARTESIAN_POINT('',(-1.25,32.75,1.6));
#771=CARTESIAN_POINT('Origin',(-1.25,32.75,0.));
#772=CARTESIAN_POINT('',(-1.25,32.75,9.6));
#773=CARTESIAN_POINT('Origin',(-1.25,32.75,8.));
#774=CARTESIAN_POINT('',(-1.25,40.75,1.6));
#775=CARTESIAN_POINT('Origin',(-1.25,40.75,0.));
#776=CARTESIAN_POINT('',(-1.25,24.75,1.6));
#777=CARTESIAN_POINT('Origin',(-1.25,24.75,0.));
#778=CARTESIAN_POINT('Origin',(2.5,60.25,0.));
#779=CARTESIAN_POINT('',(4.1,60.25,1.95943487863577E-16));
#780=CARTESIAN_POINT('Origin',(2.5,66.25,-13.));
#781=CARTESIAN_POINT('',(4.1,66.25,-13.));
#782=CARTESIAN_POINT('Origin',(2.5,66.25,13.));
#783=CARTESIAN_POINT('',(4.1,66.25,13.));
#784=CARTESIAN_POINT('Origin',(6.25,32.75,-8.));
#785=CARTESIAN_POINT('',(6.25,32.75,-6.4));
#786=CARTESIAN_POINT('Origin',(6.25,32.75,0.));
#787=CARTESIAN_POINT('',(6.25,32.75,1.6));
#788=CARTESIAN_POINT('Origin',(6.25,32.75,8.));
#789=CARTESIAN_POINT('',(6.25,32.75,9.6));
#790=CARTESIAN_POINT('Origin',(6.25,40.75,0.));
#791=CARTESIAN_POINT('',(6.25,40.75,1.6));
#792=CARTESIAN_POINT('Origin',(6.25,24.75,0.));
#793=CARTESIAN_POINT('',(6.25,24.75,1.6));
#794=CARTESIAN_POINT('Origin',(-37.5,8.9,0.));
#795=CARTESIAN_POINT('',(-34.5,14.9,-3.67394039744206E-16));
#796=CARTESIAN_POINT('Origin',(-37.5,14.9,0.));
#797=CARTESIAN_POINT('',(-34.5,8.9,-3.67394039744206E-16));
#798=CARTESIAN_POINT('',(-34.5,8.9,-3.67394039744206E-16));
#799=CARTESIAN_POINT('Origin',(-37.5,8.9,0.));
#800=CARTESIAN_POINT('Origin',(-37.5,14.9,0.));
#801=CARTESIAN_POINT('Origin',(-37.5,6.,0.));
#802=CARTESIAN_POINT('',(-33.5,8.9,-4.89858719658942E-16));
#803=CARTESIAN_POINT('Origin',(-37.5,8.9,0.));
#804=CARTESIAN_POINT('',(-33.5,6.,-4.89858719658942E-16));
#805=CARTESIAN_POINT('Origin',(-37.5,8.9,0.));
#806=CARTESIAN_POINT('Origin',(-41.6099519153432,0.,14.4259590756929));
#807=CARTESIAN_POINT('',(-41.6099519153432,0.,14.4259590756929));
#808=CARTESIAN_POINT('Origin',(-37.5,0.,0.));
#809=CARTESIAN_POINT('',(-41.6099519153432,0.,-14.4259590756929));
#810=CARTESIAN_POINT('Origin',(-6.25,0.,-24.5));
#811=CARTESIAN_POINT('',(0.,0.,0.));
#812=UNCERTAINTY_MEASURE_WITH_UNIT(LENGTH_MEASURE(0.01),#818,
'DISTANCE_ACCURACY_VALUE',
'Maximum model space distance between geometric entities at asserted c
onnectivities');
#813=UNCERTAINTY_MEASURE_WITH_UNIT(LENGTH_MEASURE(0.01),#818,
'DISTANCE_ACCURACY_VALUE',
'Maximum model space distance between geometric entities at asserted c
onnectivities');
#814=UNCERTAINTY_MEASURE_WITH_UNIT(LENGTH_MEASURE(0.01),#818,
'DISTANCE_ACCURACY_VALUE',
'Maximum model space distance between geometric entities at asserted c
onnectivities');
#815=(
GEOMETRIC_REPRESENTATION_CONTEXT(3)
GLOBAL_UNCERTAINTY_ASSIGNED_CONTEXT((#812))
GLOBAL_UNIT_ASSIGNED_CONTEXT((#818,#820,#821))
REPRESENTATION_CONTEXT('','3D')
);
#816=(
GEOMETRIC_REPRESENTATION_CONTEXT(3)
GLOBAL_UNCERTAINTY_ASSIGNED_CONTEXT((#813))
GLOBAL_UNIT_ASSIGNED_CONTEXT((#818,#820,#821))
REPRESENTATION_CONTEXT('','3D')
);
#817=(
GEOMETRIC_REPRESENTATION_CONTEXT(3)
GLOBAL_UNCERTAINTY_ASSIGNED_CONTEXT((#814))
GLOBAL_UNIT_ASSIGNED_CONTEXT((#818,#820,#821))
REPRESENTATION_CONTEXT('','3D')
);
#818=(
LENGTH_UNIT()
NAMED_UNIT(*)
SI_UNIT(.MILLI.,.METRE.)
);
#819=(
LENGTH_UNIT()
NAMED_UNIT(*)
SI_UNIT($,.METRE.)
);
#820=(
NAMED_UNIT(*)
PLANE_ANGLE_UNIT()
SI_UNIT($,.RADIAN.)
);
#821=(
NAMED_UNIT(*)
SI_UNIT($,.STERADIAN.)
SOLID_ANGLE_UNIT()
);
#822=SHAPE_DEFINITION_REPRESENTATION(#824,#827);
#823=SHAPE_DEFINITION_REPRESENTATION(#825,#828);
#824=PRODUCT_DEFINITION_SHAPE('',$,#830);
#825=PRODUCT_DEFINITION_SHAPE('',$,#831);
#826=PRODUCT_DEFINITION_SHAPE($,$,#14);
#827=SHAPE_REPRESENTATION('',(#488,#539),#815);
#828=SHAPE_REPRESENTATION('',(#489),#816);
#829=PRODUCT_DEFINITION_CONTEXT('part definition',#837,'design');
#830=PRODUCT_DEFINITION('coxa link with femur(1)',
'coxa link with femur(1) v7',#832,#829);
#831=PRODUCT_DEFINITION('Component1','Component1',#833,#829);
#832=PRODUCT_DEFINITION_FORMATION('',$,#839);
#833=PRODUCT_DEFINITION_FORMATION('',$,#840);
#834=PRODUCT_RELATED_PRODUCT_CATEGORY('coxa link with femur(1) v7',
'coxa link with femur(1) v7',(#839));
#835=PRODUCT_RELATED_PRODUCT_CATEGORY('Component1','Component1',(#840));
#836=APPLICATION_PROTOCOL_DEFINITION('international standard',
'automotive_design',2009,#837);
#837=APPLICATION_CONTEXT(
'Core Data for Automotive Mechanical Design Process');
#838=PRODUCT_CONTEXT('part definition',#837,'mechanical');
#839=PRODUCT('coxa link with femur(1)','coxa link with femur(1) v7',$,(#838));
#840=PRODUCT('Component1','Component1',$,(#838));
#841=PRESENTATION_STYLE_ASSIGNMENT((#842));
#842=SURFACE_STYLE_USAGE(.BOTH.,#843);
#843=SURFACE_SIDE_STYLE('',(#844));
#844=SURFACE_STYLE_FILL_AREA(#845);
#845=FILL_AREA_STYLE('Steel - Satin',(#846));
#846=FILL_AREA_STYLE_COLOUR('Steel - Satin',#847);
#847=COLOUR_RGB('Steel - Satin',0.627450980392157,0.627450980392157,0.627450980392157);
ENDSEC;
END-ISO-10303-21;
