ISO-10303-21;
HEADER;
/* Generated by software containing ST-Developer
 * from STEP Tools, Inc. (www.steptools.com) 
 */

FILE_DESCRIPTION(
/* description */ (''),
/* implementation_level */ '2;1');

FILE_NAME(
/* name */ 'Coxa Link 2_Part 2.step',
/* time_stamp */ '2026-09-01T13:36:19+04:00',
/* author */ (''),
/* organization */ (''),
/* preprocessor_version */ 'ST-DEVELOPER v20.1',
/* originating_system */ 'Autodesk Translation Framework v15.8.0.0',
/* authorisation */ '');

FILE_SCHEMA (('AUTOMOTIVE_DESIGN { 1 0 10303 214 3 1 1 }'));
ENDSEC;

DATA;
#10=MECHANICAL_DESIGN_GEOMETRIC_PRESENTATION_REPRESENTATION('',(#17),#688);
#11=ITEM_DEFINED_TRANSFORMATION($,$,#416,#457);
#12=(
REPRESENTATION_RELATIONSHIP($,$,#699,#698)
REPRESENTATION_RELATIONSHIP_WITH_TRANSFORMATION(#11)
SHAPE_REPRESENTATION_RELATIONSHIP()
);
#13=CONTEXT_DEPENDENT_SHAPE_REPRESENTATION(#12,#697);
#14=NEXT_ASSEMBLY_USAGE_OCCURRENCE('Component2:1','Component2:1',
'Component2:1',#701,#702,'Component2:1');
#15=SHAPE_REPRESENTATION_RELATIONSHIP('SRR','None',#699,#16);
#16=ADVANCED_BREP_SHAPE_REPRESENTATION('',(#18),#687);
#17=STYLED_ITEM('',(#712),#18);
#18=MANIFOLD_SOLID_BREP('Body1',#402);
#19=CYLINDRICAL_SURFACE('',#428,10.35);
#20=CYLINDRICAL_SURFACE('',#435,1.6);
#21=CYLINDRICAL_SURFACE('',#437,1.6);
#22=CYLINDRICAL_SURFACE('',#439,1.6);
#23=CYLINDRICAL_SURFACE('',#441,0.75);
#24=CYLINDRICAL_SURFACE('',#443,0.75);
#25=CYLINDRICAL_SURFACE('',#445,0.75);
#26=CYLINDRICAL_SURFACE('',#447,0.75);
#27=CYLINDRICAL_SURFACE('',#449,1.5);
#28=CYLINDRICAL_SURFACE('',#453,15.);
#29=FACE_BOUND('',#91,.T.);
#30=FACE_BOUND('',#92,.T.);
#31=FACE_BOUND('',#93,.T.);
#32=FACE_BOUND('',#94,.T.);
#33=FACE_BOUND('',#95,.T.);
#34=FACE_BOUND('',#98,.T.);
#35=FACE_BOUND('',#99,.T.);
#36=FACE_BOUND('',#100,.T.);
#37=FACE_BOUND('',#101,.T.);
#38=FACE_BOUND('',#115,.T.);
#39=FACE_BOUND('',#116,.T.);
#40=FACE_BOUND('',#117,.T.);
#41=FACE_BOUND('',#118,.T.);
#42=FACE_BOUND('',#119,.T.);
#43=FACE_BOUND('',#120,.T.);
#44=FACE_BOUND('',#121,.T.);
#45=FACE_BOUND('',#122,.T.);
#46=CIRCLE('',#422,10.35);
#47=CIRCLE('',#423,0.75);
#48=CIRCLE('',#424,0.75);
#49=CIRCLE('',#425,0.75);
#50=CIRCLE('',#426,0.75);
#51=CIRCLE('',#427,1.5);
#52=CIRCLE('',#429,10.35);
#53=CIRCLE('',#431,15.);
#54=CIRCLE('',#432,1.6);
#55=CIRCLE('',#433,1.6);
#56=CIRCLE('',#434,1.6);
#57=CIRCLE('',#436,1.6);
#58=CIRCLE('',#438,1.6);
#59=CIRCLE('',#440,1.6);
#60=CIRCLE('',#442,0.75);
#61=CIRCLE('',#444,0.75);
#62=CIRCLE('',#446,0.75);
#63=CIRCLE('',#448,0.75);
#64=CIRCLE('',#450,1.5);
#65=CIRCLE('',#454,15.);
#66=FACE_OUTER_BOUND('',#86,.T.);
#67=FACE_OUTER_BOUND('',#87,.T.);
#68=FACE_OUTER_BOUND('',#88,.T.);
#69=FACE_OUTER_BOUND('',#89,.T.);
#70=FACE_OUTER_BOUND('',#90,.T.);
#71=FACE_OUTER_BOUND('',#96,.T.);
#72=FACE_OUTER_BOUND('',#97,.T.);
#73=FACE_OUTER_BOUND('',#102,.T.);
#74=FACE_OUTER_BOUND('',#103,.T.);
#75=FACE_OUTER_BOUND('',#104,.T.);
#76=FACE_OUTER_BOUND('',#105,.T.);
#77=FACE_OUTER_BOUND('',#106,.T.);
#78=FACE_OUTER_BOUND('',#107,.T.);
#79=FACE_OUTER_BOUND('',#108,.T.);
#80=FACE_OUTER_BOUND('',#109,.T.);
#81=FACE_OUTER_BOUND('',#110,.T.);
#82=FACE_OUTER_BOUND('',#111,.T.);
#83=FACE_OUTER_BOUND('',#112,.T.);
#84=FACE_OUTER_BOUND('',#113,.T.);
#85=FACE_OUTER_BOUND('',#114,.T.);
#86=EDGE_LOOP('',(#270,#271,#272,#273));
#87=EDGE_LOOP('',(#274,#275,#276,#277));
#88=EDGE_LOOP('',(#278,#279,#280,#281));
#89=EDGE_LOOP('',(#282,#283,#284,#285,#286,#287));
#90=EDGE_LOOP('',(#288));
#91=EDGE_LOOP('',(#289));
#92=EDGE_LOOP('',(#290));
#93=EDGE_LOOP('',(#291));
#94=EDGE_LOOP('',(#292));
#95=EDGE_LOOP('',(#293));
#96=EDGE_LOOP('',(#294,#295,#296,#297));
#97=EDGE_LOOP('',(#298,#299,#300,#301,#302,#303));
#98=EDGE_LOOP('',(#304));
#99=EDGE_LOOP('',(#305));
#100=EDGE_LOOP('',(#306));
#101=EDGE_LOOP('',(#307));
#102=EDGE_LOOP('',(#308,#309,#310,#311));
#103=EDGE_LOOP('',(#312,#313,#314,#315));
#104=EDGE_LOOP('',(#316,#317,#318,#319));
#105=EDGE_LOOP('',(#320,#321,#322,#323));
#106=EDGE_LOOP('',(#324,#325,#326,#327));
#107=EDGE_LOOP('',(#328,#329,#330,#331));
#108=EDGE_LOOP('',(#332,#333,#334,#335));
#109=EDGE_LOOP('',(#336,#337,#338,#339));
#110=EDGE_LOOP('',(#340,#341,#342,#343,#344,#345));
#111=EDGE_LOOP('',(#346,#347,#348,#349));
#112=EDGE_LOOP('',(#350,#351,#352,#353));
#113=EDGE_LOOP('',(#354,#355,#356,#357));
#114=EDGE_LOOP('',(#358,#359,#360,#361,#362,#363));
#115=EDGE_LOOP('',(#364));
#116=EDGE_LOOP('',(#365));
#117=EDGE_LOOP('',(#366));
#118=EDGE_LOOP('',(#367));
#119=EDGE_LOOP('',(#368));
#120=EDGE_LOOP('',(#369));
#121=EDGE_LOOP('',(#370));
#122=EDGE_LOOP('',(#371));
#123=LINE('',#580,#154);
#124=LINE('',#582,#155);
#125=LINE('',#584,#156);
#126=LINE('',#585,#157);
#127=LINE('',#588,#158);
#128=LINE('',#590,#159);
#129=LINE('',#591,#160);
#130=LINE('',#594,#161);
#131=LINE('',#596,#162);
#132=LINE('',#597,#163);
#133=LINE('',#600,#164);
#134=LINE('',#602,#165);
#135=LINE('',#603,#166);
#136=LINE('',#620,#167);
#137=LINE('',#623,#168);
#138=LINE('',#625,#169);
#139=LINE('',#628,#170);
#140=LINE('',#638,#171);
#141=LINE('',#642,#172);
#142=LINE('',#646,#173);
#143=LINE('',#649,#174);
#144=LINE('',#653,#175);
#145=LINE('',#657,#176);
#146=LINE('',#661,#177);
#147=LINE('',#665,#178);
#148=LINE('',#669,#179);
#149=LINE('',#670,#180);
#150=LINE('',#673,#181);
#151=LINE('',#674,#182);
#152=LINE('',#678,#183);
#153=LINE('',#680,#184);
#154=VECTOR('',#464,10.);
#155=VECTOR('',#465,10.);
#156=VECTOR('',#466,10.);
#157=VECTOR('',#467,10.);
#158=VECTOR('',#470,10.);
#159=VECTOR('',#471,10.);
#160=VECTOR('',#472,10.);
#161=VECTOR('',#475,10.);
#162=VECTOR('',#476,10.);
#163=VECTOR('',#477,10.);
#164=VECTOR('',#480,10.);
#165=VECTOR('',#481,10.);
#166=VECTOR('',#482,10.);
#167=VECTOR('',#501,10.35);
#168=VECTOR('',#504,10.);
#169=VECTOR('',#505,10.);
#170=VECTOR('',#508,10.);
#171=VECTOR('',#519,1.6);
#172=VECTOR('',#524,1.6);
#173=VECTOR('',#529,1.6);
#174=VECTOR('',#532,0.75);
#175=VECTOR('',#537,0.75);
#176=VECTOR('',#542,0.75);
#177=VECTOR('',#547,0.75);
#178=VECTOR('',#552,1.5);
#179=VECTOR('',#557,10.);
#180=VECTOR('',#558,10.);
#181=VECTOR('',#561,10.);
#182=VECTOR('',#562,10.);
#183=VECTOR('',#567,10.);
#184=VECTOR('',#570,10.);
#185=VERTEX_POINT('',#578);
#186=VERTEX_POINT('',#579);
#187=VERTEX_POINT('',#581);
#188=VERTEX_POINT('',#583);
#189=VERTEX_POINT('',#587);
#190=VERTEX_POINT('',#589);
#191=VERTEX_POINT('',#593);
#192=VERTEX_POINT('',#595);
#193=VERTEX_POINT('',#599);
#194=VERTEX_POINT('',#601);
#195=VERTEX_POINT('',#605);
#196=VERTEX_POINT('',#607);
#197=VERTEX_POINT('',#609);
#198=VERTEX_POINT('',#611);
#199=VERTEX_POINT('',#613);
#200=VERTEX_POINT('',#615);
#201=VERTEX_POINT('',#618);
#202=VERTEX_POINT('',#622);
#203=VERTEX_POINT('',#624);
#204=VERTEX_POINT('',#626);
#205=VERTEX_POINT('',#629);
#206=VERTEX_POINT('',#631);
#207=VERTEX_POINT('',#633);
#208=VERTEX_POINT('',#636);
#209=VERTEX_POINT('',#640);
#210=VERTEX_POINT('',#644);
#211=VERTEX_POINT('',#648);
#212=VERTEX_POINT('',#652);
#213=VERTEX_POINT('',#656);
#214=VERTEX_POINT('',#660);
#215=VERTEX_POINT('',#664);
#216=VERTEX_POINT('',#668);
#217=VERTEX_POINT('',#672);
#218=VERTEX_POINT('',#676);
#219=EDGE_CURVE('',#185,#186,#123,.T.);
#220=EDGE_CURVE('',#187,#186,#124,.T.);
#221=EDGE_CURVE('',#188,#187,#125,.T.);
#222=EDGE_CURVE('',#185,#188,#126,.T.);
#223=EDGE_CURVE('',#188,#189,#127,.T.);
#224=EDGE_CURVE('',#190,#187,#128,.T.);
#225=EDGE_CURVE('',#189,#190,#129,.T.);
#226=EDGE_CURVE('',#189,#191,#130,.T.);
#227=EDGE_CURVE('',#192,#190,#131,.T.);
#228=EDGE_CURVE('',#191,#192,#132,.T.);
#229=EDGE_CURVE('',#193,#186,#133,.T.);
#230=EDGE_CURVE('',#193,#194,#134,.T.);
#231=EDGE_CURVE('',#192,#194,#135,.T.);
#232=EDGE_CURVE('',#195,#195,#46,.T.);
#233=EDGE_CURVE('',#196,#196,#47,.T.);
#234=EDGE_CURVE('',#197,#197,#48,.T.);
#235=EDGE_CURVE('',#198,#198,#49,.T.);
#236=EDGE_CURVE('',#199,#199,#50,.T.);
#237=EDGE_CURVE('',#200,#200,#51,.T.);
#238=EDGE_CURVE('',#201,#201,#52,.T.);
#239=EDGE_CURVE('',#201,#195,#136,.T.);
#240=EDGE_CURVE('',#185,#202,#137,.T.);
#241=EDGE_CURVE('',#202,#203,#138,.T.);
#242=EDGE_CURVE('',#203,#204,#53,.T.);
#243=EDGE_CURVE('',#204,#193,#139,.T.);
#244=EDGE_CURVE('',#205,#205,#54,.T.);
#245=EDGE_CURVE('',#206,#206,#55,.T.);
#246=EDGE_CURVE('',#207,#207,#56,.T.);
#247=EDGE_CURVE('',#208,#208,#57,.T.);
#248=EDGE_CURVE('',#208,#207,#140,.T.);
#249=EDGE_CURVE('',#209,#209,#58,.T.);
#250=EDGE_CURVE('',#209,#206,#141,.T.);
#251=EDGE_CURVE('',#210,#210,#59,.T.);
#252=EDGE_CURVE('',#210,#205,#142,.T.);
#253=EDGE_CURVE('',#198,#211,#143,.T.);
#254=EDGE_CURVE('',#211,#211,#60,.T.);
#255=EDGE_CURVE('',#196,#212,#144,.T.);
#256=EDGE_CURVE('',#212,#212,#61,.T.);
#257=EDGE_CURVE('',#197,#213,#145,.T.);
#258=EDGE_CURVE('',#213,#213,#62,.T.);
#259=EDGE_CURVE('',#199,#214,#146,.T.);
#260=EDGE_CURVE('',#214,#214,#63,.T.);
#261=EDGE_CURVE('',#200,#215,#147,.T.);
#262=EDGE_CURVE('',#215,#215,#64,.T.);
#263=EDGE_CURVE('',#216,#191,#148,.T.);
#264=EDGE_CURVE('',#202,#216,#149,.T.);
#265=EDGE_CURVE('',#217,#216,#150,.T.);
#266=EDGE_CURVE('',#203,#217,#151,.T.);
#267=EDGE_CURVE('',#218,#217,#65,.T.);
#268=EDGE_CURVE('',#204,#218,#152,.T.);
#269=EDGE_CURVE('',#194,#218,#153,.T.);
#270=ORIENTED_EDGE('',*,*,#219,.T.);
#271=ORIENTED_EDGE('',*,*,#220,.F.);
#272=ORIENTED_EDGE('',*,*,#221,.F.);
#273=ORIENTED_EDGE('',*,*,#222,.F.);
#274=ORIENTED_EDGE('',*,*,#223,.F.);
#275=ORIENTED_EDGE('',*,*,#221,.T.);
#276=ORIENTED_EDGE('',*,*,#224,.F.);
#277=ORIENTED_EDGE('',*,*,#225,.F.);
#278=ORIENTED_EDGE('',*,*,#226,.F.);
#279=ORIENTED_EDGE('',*,*,#225,.T.);
#280=ORIENTED_EDGE('',*,*,#227,.F.);
#281=ORIENTED_EDGE('',*,*,#228,.F.);
#282=ORIENTED_EDGE('',*,*,#229,.F.);
#283=ORIENTED_EDGE('',*,*,#230,.T.);
#284=ORIENTED_EDGE('',*,*,#231,.F.);
#285=ORIENTED_EDGE('',*,*,#227,.T.);
#286=ORIENTED_EDGE('',*,*,#224,.T.);
#287=ORIENTED_EDGE('',*,*,#220,.T.);
#288=ORIENTED_EDGE('',*,*,#232,.T.);
#289=ORIENTED_EDGE('',*,*,#233,.F.);
#290=ORIENTED_EDGE('',*,*,#234,.F.);
#291=ORIENTED_EDGE('',*,*,#235,.F.);
#292=ORIENTED_EDGE('',*,*,#236,.F.);
#293=ORIENTED_EDGE('',*,*,#237,.F.);
#294=ORIENTED_EDGE('',*,*,#238,.F.);
#295=ORIENTED_EDGE('',*,*,#239,.T.);
#296=ORIENTED_EDGE('',*,*,#232,.F.);
#297=ORIENTED_EDGE('',*,*,#239,.F.);
#298=ORIENTED_EDGE('',*,*,#229,.T.);
#299=ORIENTED_EDGE('',*,*,#219,.F.);
#300=ORIENTED_EDGE('',*,*,#240,.T.);
#301=ORIENTED_EDGE('',*,*,#241,.T.);
#302=ORIENTED_EDGE('',*,*,#242,.T.);
#303=ORIENTED_EDGE('',*,*,#243,.T.);
#304=ORIENTED_EDGE('',*,*,#244,.T.);
#305=ORIENTED_EDGE('',*,*,#245,.T.);
#306=ORIENTED_EDGE('',*,*,#246,.T.);
#307=ORIENTED_EDGE('',*,*,#238,.T.);
#308=ORIENTED_EDGE('',*,*,#247,.F.);
#309=ORIENTED_EDGE('',*,*,#248,.T.);
#310=ORIENTED_EDGE('',*,*,#246,.F.);
#311=ORIENTED_EDGE('',*,*,#248,.F.);
#312=ORIENTED_EDGE('',*,*,#249,.F.);
#313=ORIENTED_EDGE('',*,*,#250,.T.);
#314=ORIENTED_EDGE('',*,*,#245,.F.);
#315=ORIENTED_EDGE('',*,*,#250,.F.);
#316=ORIENTED_EDGE('',*,*,#251,.F.);
#317=ORIENTED_EDGE('',*,*,#252,.T.);
#318=ORIENTED_EDGE('',*,*,#244,.F.);
#319=ORIENTED_EDGE('',*,*,#252,.F.);
#320=ORIENTED_EDGE('',*,*,#235,.T.);
#321=ORIENTED_EDGE('',*,*,#253,.T.);
#322=ORIENTED_EDGE('',*,*,#254,.F.);
#323=ORIENTED_EDGE('',*,*,#253,.F.);
#324=ORIENTED_EDGE('',*,*,#233,.T.);
#325=ORIENTED_EDGE('',*,*,#255,.T.);
#326=ORIENTED_EDGE('',*,*,#256,.F.);
#327=ORIENTED_EDGE('',*,*,#255,.F.);
#328=ORIENTED_EDGE('',*,*,#234,.T.);
#329=ORIENTED_EDGE('',*,*,#257,.T.);
#330=ORIENTED_EDGE('',*,*,#258,.F.);
#331=ORIENTED_EDGE('',*,*,#257,.F.);
#332=ORIENTED_EDGE('',*,*,#236,.T.);
#333=ORIENTED_EDGE('',*,*,#259,.T.);
#334=ORIENTED_EDGE('',*,*,#260,.F.);
#335=ORIENTED_EDGE('',*,*,#259,.F.);
#336=ORIENTED_EDGE('',*,*,#237,.T.);
#337=ORIENTED_EDGE('',*,*,#261,.T.);
#338=ORIENTED_EDGE('',*,*,#262,.F.);
#339=ORIENTED_EDGE('',*,*,#261,.F.);
#340=ORIENTED_EDGE('',*,*,#263,.F.);
#341=ORIENTED_EDGE('',*,*,#264,.F.);
#342=ORIENTED_EDGE('',*,*,#240,.F.);
#343=ORIENTED_EDGE('',*,*,#222,.T.);
#344=ORIENTED_EDGE('',*,*,#223,.T.);
#345=ORIENTED_EDGE('',*,*,#226,.T.);
#346=ORIENTED_EDGE('',*,*,#264,.T.);
#347=ORIENTED_EDGE('',*,*,#265,.F.);
#348=ORIENTED_EDGE('',*,*,#266,.F.);
#349=ORIENTED_EDGE('',*,*,#241,.F.);
#350=ORIENTED_EDGE('',*,*,#266,.T.);
#351=ORIENTED_EDGE('',*,*,#267,.F.);
#352=ORIENTED_EDGE('',*,*,#268,.F.);
#353=ORIENTED_EDGE('',*,*,#242,.F.);
#354=ORIENTED_EDGE('',*,*,#268,.T.);
#355=ORIENTED_EDGE('',*,*,#269,.F.);
#356=ORIENTED_EDGE('',*,*,#230,.F.);
#357=ORIENTED_EDGE('',*,*,#243,.F.);
#358=ORIENTED_EDGE('',*,*,#231,.T.);
#359=ORIENTED_EDGE('',*,*,#269,.T.);
#360=ORIENTED_EDGE('',*,*,#267,.T.);
#361=ORIENTED_EDGE('',*,*,#265,.T.);
#362=ORIENTED_EDGE('',*,*,#263,.T.);
#363=ORIENTED_EDGE('',*,*,#228,.T.);
#364=ORIENTED_EDGE('',*,*,#249,.T.);
#365=ORIENTED_EDGE('',*,*,#251,.T.);
#366=ORIENTED_EDGE('',*,*,#262,.T.);
#367=ORIENTED_EDGE('',*,*,#260,.T.);
#368=ORIENTED_EDGE('',*,*,#258,.T.);
#369=ORIENTED_EDGE('',*,*,#256,.T.);
#370=ORIENTED_EDGE('',*,*,#254,.T.);
#371=ORIENTED_EDGE('',*,*,#247,.T.);
#372=PLANE('',#417);
#373=PLANE('',#418);
#374=PLANE('',#419);
#375=PLANE('',#420);
#376=PLANE('',#421);
#377=PLANE('',#430);
#378=PLANE('',#451);
#379=PLANE('',#452);
#380=PLANE('',#455);
#381=PLANE('',#456);
#382=ADVANCED_FACE('',(#66),#372,.T.);
#383=ADVANCED_FACE('',(#67),#373,.T.);
#384=ADVANCED_FACE('',(#68),#374,.T.);
#385=ADVANCED_FACE('',(#69),#375,.T.);
#386=ADVANCED_FACE('',(#70,#29,#30,#31,#32,#33),#376,.T.);
#387=ADVANCED_FACE('',(#71),#19,.F.);
#388=ADVANCED_FACE('',(#72,#34,#35,#36,#37),#377,.F.);
#389=ADVANCED_FACE('',(#73),#20,.F.);
#390=ADVANCED_FACE('',(#74),#21,.F.);
#391=ADVANCED_FACE('',(#75),#22,.F.);
#392=ADVANCED_FACE('',(#76),#23,.F.);
#393=ADVANCED_FACE('',(#77),#24,.F.);
#394=ADVANCED_FACE('',(#78),#25,.F.);
#395=ADVANCED_FACE('',(#79),#26,.F.);
#396=ADVANCED_FACE('',(#80),#27,.F.);
#397=ADVANCED_FACE('',(#81),#378,.T.);
#398=ADVANCED_FACE('',(#82),#379,.T.);
#399=ADVANCED_FACE('',(#83),#28,.T.);
#400=ADVANCED_FACE('',(#84),#380,.T.);
#401=ADVANCED_FACE('',(#85,#38,#39,#40,#41,#42,#43,#44,#45),#381,.T.);
#402=CLOSED_SHELL('',(#382,#383,#384,#385,#386,#387,#388,#389,#390,#391,
#392,#393,#394,#395,#396,#397,#398,#399,#400,#401));
#403=DERIVED_UNIT_ELEMENT(#405,1.);
#404=DERIVED_UNIT_ELEMENT(#690,-3.);
#405=(
MASS_UNIT()
NAMED_UNIT(*)
SI_UNIT(.KILO.,.GRAM.)
);
#406=DERIVED_UNIT((#403,#404));
#407=MEASURE_REPRESENTATION_ITEM('density measure',
POSITIVE_RATIO_MEASURE(7850.),#406);
#408=PROPERTY_DEFINITION_REPRESENTATION(#413,#410);
#409=PROPERTY_DEFINITION_REPRESENTATION(#414,#411);
#410=REPRESENTATION('material name',(#412),#687);
#411=REPRESENTATION('density',(#407),#687);
#412=DESCRIPTIVE_REPRESENTATION_ITEM('Steel','Steel');
#413=PROPERTY_DEFINITION('material property','material name',#702);
#414=PROPERTY_DEFINITION('material property','density of part',#702);
#415=AXIS2_PLACEMENT_3D('',#575,#458,#459);
#416=AXIS2_PLACEMENT_3D('',#576,#460,#461);
#417=AXIS2_PLACEMENT_3D('',#577,#462,#463);
#418=AXIS2_PLACEMENT_3D('',#586,#468,#469);
#419=AXIS2_PLACEMENT_3D('',#592,#473,#474);
#420=AXIS2_PLACEMENT_3D('',#598,#478,#479);
#421=AXIS2_PLACEMENT_3D('',#604,#483,#484);
#422=AXIS2_PLACEMENT_3D('',#606,#485,#486);
#423=AXIS2_PLACEMENT_3D('',#608,#487,#488);
#424=AXIS2_PLACEMENT_3D('',#610,#489,#490);
#425=AXIS2_PLACEMENT_3D('',#612,#491,#492);
#426=AXIS2_PLACEMENT_3D('',#614,#493,#494);
#427=AXIS2_PLACEMENT_3D('',#616,#495,#496);
#428=AXIS2_PLACEMENT_3D('',#617,#497,#498);
#429=AXIS2_PLACEMENT_3D('',#619,#499,#500);
#430=AXIS2_PLACEMENT_3D('',#621,#502,#503);
#431=AXIS2_PLACEMENT_3D('',#627,#506,#507);
#432=AXIS2_PLACEMENT_3D('',#630,#509,#510);
#433=AXIS2_PLACEMENT_3D('',#632,#511,#512);
#434=AXIS2_PLACEMENT_3D('',#634,#513,#514);
#435=AXIS2_PLACEMENT_3D('',#635,#515,#516);
#436=AXIS2_PLACEMENT_3D('',#637,#517,#518);
#437=AXIS2_PLACEMENT_3D('',#639,#520,#521);
#438=AXIS2_PLACEMENT_3D('',#641,#522,#523);
#439=AXIS2_PLACEMENT_3D('',#643,#525,#526);
#440=AXIS2_PLACEMENT_3D('',#645,#527,#528);
#441=AXIS2_PLACEMENT_3D('',#647,#530,#531);
#442=AXIS2_PLACEMENT_3D('',#650,#533,#534);
#443=AXIS2_PLACEMENT_3D('',#651,#535,#536);
#444=AXIS2_PLACEMENT_3D('',#654,#538,#539);
#445=AXIS2_PLACEMENT_3D('',#655,#540,#541);
#446=AXIS2_PLACEMENT_3D('',#658,#543,#544);
#447=AXIS2_PLACEMENT_3D('',#659,#545,#546);
#448=AXIS2_PLACEMENT_3D('',#662,#548,#549);
#449=AXIS2_PLACEMENT_3D('',#663,#550,#551);
#450=AXIS2_PLACEMENT_3D('',#666,#553,#554);
#451=AXIS2_PLACEMENT_3D('',#667,#555,#556);
#452=AXIS2_PLACEMENT_3D('',#671,#559,#560);
#453=AXIS2_PLACEMENT_3D('',#675,#563,#564);
#454=AXIS2_PLACEMENT_3D('',#677,#565,#566);
#455=AXIS2_PLACEMENT_3D('',#679,#568,#569);
#456=AXIS2_PLACEMENT_3D('',#681,#571,#572);
#457=AXIS2_PLACEMENT_3D('',#682,#573,#574);
#458=DIRECTION('axis',(0.,0.,1.));
#459=DIRECTION('refdir',(1.,0.,0.));
#460=DIRECTION('axis',(0.,0.,1.));
#461=DIRECTION('refdir',(1.,0.,0.));
#462=DIRECTION('center_axis',(-1.,0.,0.));
#463=DIRECTION('ref_axis',(0.,1.,0.));
#464=DIRECTION('',(0.,0.,-1.));
#465=DIRECTION('',(0.,1.,0.));
#466=DIRECTION('',(0.,0.,-1.));
#467=DIRECTION('',(0.,-1.,0.));
#468=DIRECTION('center_axis',(0.,-1.,0.));
#469=DIRECTION('ref_axis',(-1.,0.,0.));
#470=DIRECTION('',(1.,0.,0.));
#471=DIRECTION('',(-1.,0.,0.));
#472=DIRECTION('',(0.,0.,-1.));
#473=DIRECTION('center_axis',(0.768221279597376,0.64018439966448,0.));
#474=DIRECTION('ref_axis',(0.64018439966448,-0.768221279597376,0.));
#475=DIRECTION('',(-0.64018439966448,0.768221279597376,0.));
#476=DIRECTION('',(0.64018439966448,-0.768221279597376,0.));
#477=DIRECTION('',(0.,0.,-1.));
#478=DIRECTION('center_axis',(0.,0.,-1.));
#479=DIRECTION('ref_axis',(-1.,0.,0.));
#480=DIRECTION('',(1.,0.,0.));
#481=DIRECTION('',(0.,1.,0.));
#482=DIRECTION('',(-1.,0.,0.));
#483=DIRECTION('center_axis',(0.,-1.,0.));
#484=DIRECTION('ref_axis',(0.,0.,-1.));
#485=DIRECTION('center_axis',(0.,-1.,0.));
#486=DIRECTION('ref_axis',(0.,0.,-1.));
#487=DIRECTION('center_axis',(0.,-1.,0.));
#488=DIRECTION('ref_axis',(0.,0.,1.));
#489=DIRECTION('center_axis',(0.,-1.,0.));
#490=DIRECTION('ref_axis',(0.,0.,1.));
#491=DIRECTION('center_axis',(0.,-1.,0.));
#492=DIRECTION('ref_axis',(0.,0.,1.));
#493=DIRECTION('center_axis',(0.,-1.,0.));
#494=DIRECTION('ref_axis',(0.,0.,1.));
#495=DIRECTION('center_axis',(0.,-1.,0.));
#496=DIRECTION('ref_axis',(0.,0.,1.));
#497=DIRECTION('center_axis',(0.,1.,0.));
#498=DIRECTION('ref_axis',(0.,0.,1.));
#499=DIRECTION('center_axis',(0.,1.,0.));
#500=DIRECTION('ref_axis',(0.,0.,1.));
#501=DIRECTION('',(0.,1.,0.));
#502=DIRECTION('center_axis',(0.,1.,0.));
#503=DIRECTION('ref_axis',(1.,0.,0.));
#504=DIRECTION('',(-1.,0.,0.));
#505=DIRECTION('',(-0.961730605046194,0.,-0.273996794356216));
#506=DIRECTION('center_axis',(0.,-1.,0.));
#507=DIRECTION('ref_axis',(1.,0.,0.));
#508=DIRECTION('',(0.961730605046194,0.,-0.273996794356216));
#509=DIRECTION('center_axis',(0.,1.,0.));
#510=DIRECTION('ref_axis',(-1.,0.,0.));
#511=DIRECTION('center_axis',(0.,1.,0.));
#512=DIRECTION('ref_axis',(-1.,0.,0.));
#513=DIRECTION('center_axis',(0.,1.,0.));
#514=DIRECTION('ref_axis',(-1.,0.,0.));
#515=DIRECTION('center_axis',(0.,-1.,0.));
#516=DIRECTION('ref_axis',(-1.,0.,0.));
#517=DIRECTION('center_axis',(0.,-1.,0.));
#518=DIRECTION('ref_axis',(-1.,0.,0.));
#519=DIRECTION('',(0.,-1.,0.));
#520=DIRECTION('center_axis',(0.,-1.,0.));
#521=DIRECTION('ref_axis',(-1.,0.,0.));
#522=DIRECTION('center_axis',(0.,-1.,0.));
#523=DIRECTION('ref_axis',(-1.,0.,0.));
#524=DIRECTION('',(0.,-1.,0.));
#525=DIRECTION('center_axis',(0.,-1.,0.));
#526=DIRECTION('ref_axis',(-1.,0.,0.));
#527=DIRECTION('center_axis',(0.,-1.,0.));
#528=DIRECTION('ref_axis',(-1.,0.,0.));
#529=DIRECTION('',(0.,-1.,0.));
#530=DIRECTION('center_axis',(0.,1.,0.));
#531=DIRECTION('ref_axis',(0.,0.,1.));
#532=DIRECTION('',(0.,1.,0.));
#533=DIRECTION('center_axis',(0.,-1.,0.));
#534=DIRECTION('ref_axis',(0.,0.,1.));
#535=DIRECTION('center_axis',(0.,1.,0.));
#536=DIRECTION('ref_axis',(0.,0.,1.));
#537=DIRECTION('',(0.,1.,0.));
#538=DIRECTION('center_axis',(0.,-1.,0.));
#539=DIRECTION('ref_axis',(0.,0.,1.));
#540=DIRECTION('center_axis',(0.,1.,0.));
#541=DIRECTION('ref_axis',(0.,0.,1.));
#542=DIRECTION('',(0.,1.,0.));
#543=DIRECTION('center_axis',(0.,-1.,0.));
#544=DIRECTION('ref_axis',(0.,0.,1.));
#545=DIRECTION('center_axis',(0.,1.,0.));
#546=DIRECTION('ref_axis',(0.,0.,1.));
#547=DIRECTION('',(0.,1.,0.));
#548=DIRECTION('center_axis',(0.,-1.,0.));
#549=DIRECTION('ref_axis',(0.,0.,1.));
#550=DIRECTION('center_axis',(0.,1.,0.));
#551=DIRECTION('ref_axis',(0.,0.,1.));
#552=DIRECTION('',(0.,1.,0.));
#553=DIRECTION('center_axis',(0.,-1.,0.));
#554=DIRECTION('ref_axis',(0.,0.,1.));
#555=DIRECTION('center_axis',(0.,0.,1.));
#556=DIRECTION('ref_axis',(1.,0.,0.));
#557=DIRECTION('',(1.,0.,0.));
#558=DIRECTION('',(0.,1.,0.));
#559=DIRECTION('center_axis',(-0.273996794356216,0.,0.961730605046194));
#560=DIRECTION('ref_axis',(0.961730605046194,0.,0.273996794356216));
#561=DIRECTION('',(0.961730605046194,0.,0.273996794356216));
#562=DIRECTION('',(0.,1.,0.));
#563=DIRECTION('center_axis',(0.,1.,0.));
#564=DIRECTION('ref_axis',(-1.,0.,1.22464679914735E-16));
#565=DIRECTION('center_axis',(0.,1.,0.));
#566=DIRECTION('ref_axis',(1.,0.,0.));
#567=DIRECTION('',(0.,1.,0.));
#568=DIRECTION('center_axis',(-0.273996794356216,0.,-0.961730605046194));
#569=DIRECTION('ref_axis',(-0.961730605046194,0.,0.273996794356216));
#570=DIRECTION('',(-0.961730605046194,0.,0.273996794356216));
#571=DIRECTION('center_axis',(0.,1.,0.));
#572=DIRECTION('ref_axis',(1.,0.,0.));
#573=DIRECTION('',(0.,0.,1.));
#574=DIRECTION('',(1.,0.,0.));
#575=CARTESIAN_POINT('',(0.,0.,0.));
#576=CARTESIAN_POINT('',(0.,0.,0.));
#577=CARTESIAN_POINT('Origin',(6.25,57.25,24.5));
#578=CARTESIAN_POINT('',(6.25,59.25,24.5));
#579=CARTESIAN_POINT('',(6.25,59.25,-24.5));
#580=CARTESIAN_POINT('',(6.25,59.25,-12.25));
#581=CARTESIAN_POINT('',(6.25,57.25,-24.5));
#582=CARTESIAN_POINT('',(6.25,66.25,-24.5));
#583=CARTESIAN_POINT('',(6.25,57.25,24.5));
#584=CARTESIAN_POINT('',(6.25,57.25,24.5));
#585=CARTESIAN_POINT('',(6.25,66.25,24.5));
#586=CARTESIAN_POINT('Origin',(13.75,57.25,24.5));
#587=CARTESIAN_POINT('',(13.75,57.25,24.5));
#588=CARTESIAN_POINT('',(6.25,57.25,24.5));
#589=CARTESIAN_POINT('',(13.75,57.25,-24.5));
#590=CARTESIAN_POINT('',(6.25,57.25,-24.5));
#591=CARTESIAN_POINT('',(13.75,57.25,24.5));
#592=CARTESIAN_POINT('Origin',(6.25,66.25,24.5));
#593=CARTESIAN_POINT('',(6.25,66.25,24.5));
#594=CARTESIAN_POINT('',(13.75,57.25,24.5));
#595=CARTESIAN_POINT('',(6.25,66.25,-24.5));
#596=CARTESIAN_POINT('',(13.75,57.25,-24.5));
#597=CARTESIAN_POINT('',(6.25,66.25,-24.5));
#598=CARTESIAN_POINT('Origin',(6.25,6.,-24.5));
#599=CARTESIAN_POINT('',(-6.25,59.25,-24.5));
#600=CARTESIAN_POINT('',(-8.4375,59.25,-24.5));
#601=CARTESIAN_POINT('',(-6.25,66.25,-24.5));
#602=CARTESIAN_POINT('',(-6.25,6.,-24.5));
#603=CARTESIAN_POINT('',(-6.25,66.25,-24.5));
#604=CARTESIAN_POINT('Origin',(-37.5,60.85,0.));
#605=CARTESIAN_POINT('',(-37.5,60.85,-10.35));
#606=CARTESIAN_POINT('Origin',(-37.5,60.85,0.));
#607=CARTESIAN_POINT('',(-37.5,60.85,-7.75));
#608=CARTESIAN_POINT('Origin',(-37.5,60.85,-6.99999999999997));
#609=CARTESIAN_POINT('',(-30.5,60.85,-0.75));
#610=CARTESIAN_POINT('Origin',(-30.5,60.85,2.66453525910038E-14));
#611=CARTESIAN_POINT('',(-37.5,60.85,6.25));
#612=CARTESIAN_POINT('Origin',(-37.5,60.85,7.00000000000003));
#613=CARTESIAN_POINT('',(-44.5,60.85,-0.75));
#614=CARTESIAN_POINT('Origin',(-44.5,60.85,2.66453525910038E-14));
#615=CARTESIAN_POINT('',(-37.5,60.85,-1.49999999999997));
#616=CARTESIAN_POINT('Origin',(-37.5,60.85,2.66453525910038E-14));
#617=CARTESIAN_POINT('Origin',(-37.5,58.5,0.));
#618=CARTESIAN_POINT('',(-37.5,59.25,-10.35));
#619=CARTESIAN_POINT('Origin',(-37.5,59.25,0.));
#620=CARTESIAN_POINT('',(-37.5,58.5,-10.35));
#621=CARTESIAN_POINT('Origin',(-23.125,59.25,0.));
#622=CARTESIAN_POINT('',(-6.25,59.25,24.5));
#623=CARTESIAN_POINT('',(-14.6875,59.25,24.5));
#624=CARTESIAN_POINT('',(-41.6099519153432,59.25,14.4259590756929));
#625=CARTESIAN_POINT('',(-34.9620480391876,59.25,16.3199451271895));
#626=CARTESIAN_POINT('',(-41.6099519153432,59.25,-14.4259590756929));
#627=CARTESIAN_POINT('Origin',(-37.5,59.25,0.));
#628=CARTESIAN_POINT('',(-17.282072081516,59.25,-21.3569655893431));
#629=CARTESIAN_POINT('',(4.1,59.25,13.));
#630=CARTESIAN_POINT('Origin',(2.5,59.25,13.));
#631=CARTESIAN_POINT('',(4.1,59.25,-13.));
#632=CARTESIAN_POINT('Origin',(2.5,59.25,-13.));
#633=CARTESIAN_POINT('',(4.1,59.25,-2.77555756156289E-16));
#634=CARTESIAN_POINT('Origin',(2.5,59.25,0.));
#635=CARTESIAN_POINT('Origin',(2.5,66.25,0.));
#636=CARTESIAN_POINT('',(4.1,66.25,-1.95943487863577E-16));
#637=CARTESIAN_POINT('Origin',(2.5,66.25,0.));
#638=CARTESIAN_POINT('',(4.1,66.25,1.95943487863577E-16));
#639=CARTESIAN_POINT('Origin',(2.5,66.25,-13.));
#640=CARTESIAN_POINT('',(4.1,66.25,-13.));
#641=CARTESIAN_POINT('Origin',(2.5,66.25,-13.));
#642=CARTESIAN_POINT('',(4.1,66.25,-13.));
#643=CARTESIAN_POINT('Origin',(2.5,66.25,13.));
#644=CARTESIAN_POINT('',(4.1,66.25,13.));
#645=CARTESIAN_POINT('Origin',(2.5,66.25,13.));
#646=CARTESIAN_POINT('',(4.1,66.25,13.));
#647=CARTESIAN_POINT('Origin',(-37.5,60.25,7.00000000000003));
#648=CARTESIAN_POINT('',(-37.5,66.25,6.25000000000003));
#649=CARTESIAN_POINT('',(-37.5,60.25,6.25000000000003));
#650=CARTESIAN_POINT('Origin',(-37.5,66.25,7.00000000000003));
#651=CARTESIAN_POINT('Origin',(-37.5,60.25,-6.99999999999997));
#652=CARTESIAN_POINT('',(-37.5,66.25,-7.74999999999998));
#653=CARTESIAN_POINT('',(-37.5,60.25,-7.74999999999998));
#654=CARTESIAN_POINT('Origin',(-37.5,66.25,-6.99999999999997));
#655=CARTESIAN_POINT('Origin',(-30.5,60.25,2.66453525910038E-14));
#656=CARTESIAN_POINT('',(-30.5,66.25,-0.749999999999973));
#657=CARTESIAN_POINT('',(-30.5,60.25,-0.749999999999973));
#658=CARTESIAN_POINT('Origin',(-30.5,66.25,2.66453525910038E-14));
#659=CARTESIAN_POINT('Origin',(-44.5,60.25,2.66453525910038E-14));
#660=CARTESIAN_POINT('',(-44.5,66.25,-0.749999999999973));
#661=CARTESIAN_POINT('',(-44.5,60.25,-0.749999999999973));
#662=CARTESIAN_POINT('Origin',(-44.5,66.25,2.66453525910038E-14));
#663=CARTESIAN_POINT('Origin',(-37.5,60.25,2.66453525910038E-14));
#664=CARTESIAN_POINT('',(-37.5,66.25,-1.49999999999997));
#665=CARTESIAN_POINT('',(-37.5,60.25,-1.49999999999997));
#666=CARTESIAN_POINT('Origin',(-37.5,66.25,2.66453525910038E-14));
#667=CARTESIAN_POINT('Origin',(-6.25,6.,24.5));
#668=CARTESIAN_POINT('',(-6.25,66.25,24.5));
#669=CARTESIAN_POINT('',(6.25,66.25,24.5));
#670=CARTESIAN_POINT('',(-6.25,6.,24.5));
#671=CARTESIAN_POINT('Origin',(-41.6099519153432,6.,14.4259590756929));
#672=CARTESIAN_POINT('',(-41.6099519153432,66.25,14.4259590756929));
#673=CARTESIAN_POINT('',(-6.25,66.25,24.5));
#674=CARTESIAN_POINT('',(-41.6099519153432,6.,14.4259590756929));
#675=CARTESIAN_POINT('Origin',(-37.5,6.,0.));
#676=CARTESIAN_POINT('',(-41.6099519153432,66.25,-14.4259590756929));
#677=CARTESIAN_POINT('Origin',(-37.5,66.25,0.));
#678=CARTESIAN_POINT('',(-41.6099519153432,6.,-14.4259590756929));
#679=CARTESIAN_POINT('Origin',(-6.25,6.,-24.5));
#680=CARTESIAN_POINT('',(-6.25,66.25,-24.5));
#681=CARTESIAN_POINT('Origin',(-23.125,66.25,0.));
#682=CARTESIAN_POINT('',(0.,0.,0.));
#683=UNCERTAINTY_MEASURE_WITH_UNIT(LENGTH_MEASURE(0.01),#689,
'DISTANCE_ACCURACY_VALUE',
'Maximum model space distance between geometric entities at asserted c
onnectivities');
#684=UNCERTAINTY_MEASURE_WITH_UNIT(LENGTH_MEASURE(0.01),#689,
'DISTANCE_ACCURACY_VALUE',
'Maximum model space distance between geometric entities at asserted c
onnectivities');
#685=UNCERTAINTY_MEASURE_WITH_UNIT(LENGTH_MEASURE(0.01),#689,
'DISTANCE_ACCURACY_VALUE',
'Maximum model space distance between geometric entities at asserted c
onnectivities');
#686=(
GEOMETRIC_REPRESENTATION_CONTEXT(3)
GLOBAL_UNCERTAINTY_ASSIGNED_CONTEXT((#683))
GLOBAL_UNIT_ASSIGNED_CONTEXT((#689,#691,#692))
REPRESENTATION_CONTEXT('','3D')
);
#687=(
GEOMETRIC_REPRESENTATION_CONTEXT(3)
GLOBAL_UNCERTAINTY_ASSIGNED_CONTEXT((#684))
GLOBAL_UNIT_ASSIGNED_CONTEXT((#689,#691,#692))
REPRESENTATION_CONTEXT('','3D')
);
#688=(
GEOMETRIC_REPRESENTATION_CONTEXT(3)
GLOBAL_UNCERTAINTY_ASSIGNED_CONTEXT((#685))
GLOBAL_UNIT_ASSIGNED_CONTEXT((#689,#691,#692))
REPRESENTATION_CONTEXT('','3D')
);
#689=(
LENGTH_UNIT()
NAMED_UNIT(*)
SI_UNIT(.MILLI.,.METRE.)
);
#690=(
LENGTH_UNIT()
NAMED_UNIT(*)
SI_UNIT($,.METRE.)
);
#691=(
NAMED_UNIT(*)
PLANE_ANGLE_UNIT()
SI_UNIT($,.RADIAN.)
);
#692=(
NAMED_UNIT(*)
SI_UNIT($,.STERADIAN.)
SOLID_ANGLE_UNIT()
);
#693=SHAPE_DEFINITION_REPRESENTATION(#695,#698);
#694=SHAPE_DEFINITION_REPRESENTATION(#696,#699);
#695=PRODUCT_DEFINITION_SHAPE('',$,#701);
#696=PRODUCT_DEFINITION_SHAPE('',$,#702);
#697=PRODUCT_DEFINITION_SHAPE($,$,#14);
#698=SHAPE_REPRESENTATION('',(#415,#457),#686);
#699=SHAPE_REPRESENTATION('',(#416),#687);
#700=PRODUCT_DEFINITION_CONTEXT('part definition',#708,'design');
#701=PRODUCT_DEFINITION('Coxa Link With Femur(2)',
'Coxa Link With Femur(2) v6',#703,#700);
#702=PRODUCT_DEFINITION('Component2','Component2',#704,#700);
#703=PRODUCT_DEFINITION_FORMATION('',$,#710);
#704=PRODUCT_DEFINITION_FORMATION('',$,#711);
#705=PRODUCT_RELATED_PRODUCT_CATEGORY('Coxa Link With Femur(2) v6',
'Coxa Link With Femur(2) v6',(#710));
#706=PRODUCT_RELATED_PRODUCT_CATEGORY('Component2','Component2',(#711));
#707=APPLICATION_PROTOCOL_DEFINITION('international standard',
'automotive_design',2009,#708);
#708=APPLICATION_CONTEXT(
'Core Data for Automotive Mechanical Design Process');
#709=PRODUCT_CONTEXT('part definition',#708,'mechanical');
#710=PRODUCT('Coxa Link With Femur(2)','Coxa Link With Femur(2) v6',$,(#709));
#711=PRODUCT('Component2','Component2',$,(#709));
#712=PRESENTATION_STYLE_ASSIGNMENT((#713));
#713=SURFACE_STYLE_USAGE(.BOTH.,#714);
#714=SURFACE_SIDE_STYLE('',(#715));
#715=SURFACE_STYLE_FILL_AREA(#716);
#716=FILL_AREA_STYLE('Steel - Satin',(#717));
#717=FILL_AREA_STYLE_COLOUR('Steel - Satin',#718);
#718=COLOUR_RGB('Steel - Satin',0.627450980392157,0.627450980392157,0.627450980392157);
ENDSEC;
END-ISO-10303-21;
