ISO-10303-21;
HEADER;
/* Generated by software containing ST-Developer
 * from STEP Tools, Inc. (www.steptools.com) 
 */

FILE_DESCRIPTION(
/* description */ (''),
/* implementation_level */ '2;1');

FILE_NAME(
/* name */ 'Servo Mount Coxa Bottom.step',
/* time_stamp */ '2026-09-01T13:44:14+04:00',
/* author */ (''),
/* organization */ (''),
/* preprocessor_version */ 'ST-DEVELOPER v20.1',
/* originating_system */ 'Autodesk Translation Framework v15.8.0.0',
/* authorisation */ '');

FILE_SCHEMA (('AUTOMOTIVE_DESIGN { 1 0 10303 214 3 1 1 }'));
ENDSEC;

DATA;
#10=MECHANICAL_DESIGN_GEOMETRIC_PRESENTATION_REPRESENTATION('',(#17),#951);
#11=ITEM_DEFINED_TRANSFORMATION($,$,#571,#627);
#12=(
REPRESENTATION_RELATIONSHIP($,$,#962,#961)
REPRESENTATION_RELATIONSHIP_WITH_TRANSFORMATION(#11)
SHAPE_REPRESENTATION_RELATIONSHIP()
);
#13=CONTEXT_DEPENDENT_SHAPE_REPRESENTATION(#12,#960);
#14=NEXT_ASSEMBLY_USAGE_OCCURRENCE('Component2:1','Component2:1',
'Component2:1',#964,#965,'Component2:1');
#15=SHAPE_REPRESENTATION_RELATIONSHIP('SRR','None',#962,#16);
#16=ADVANCED_BREP_SHAPE_REPRESENTATION('',(#18),#950);
#17=STYLED_ITEM('',(#976),#18);
#18=MANIFOLD_SOLID_BREP('Body1',#557);
#19=FACE_BOUND('',#99,.T.);
#20=FACE_BOUND('',#100,.T.);
#21=FACE_BOUND('',#101,.T.);
#22=FACE_BOUND('',#102,.T.);
#23=FACE_BOUND('',#103,.T.);
#24=FACE_BOUND('',#105,.T.);
#25=FACE_BOUND('',#109,.T.);
#26=FACE_BOUND('',#110,.T.);
#27=FACE_BOUND('',#111,.T.);
#28=FACE_BOUND('',#112,.T.);
#29=FACE_BOUND('',#120,.T.);
#30=FACE_BOUND('',#122,.T.);
#31=FACE_BOUND('',#123,.T.);
#32=FACE_BOUND('',#127,.T.);
#33=FACE_BOUND('',#130,.T.);
#34=CONICAL_SURFACE('',#600,5.5,0.785398163397448);
#35=PLANE('',#575);
#36=PLANE('',#579);
#37=PLANE('',#583);
#38=PLANE('',#587);
#39=PLANE('',#603);
#40=PLANE('',#604);
#41=PLANE('',#606);
#42=PLANE('',#607);
#43=PLANE('',#608);
#44=PLANE('',#609);
#45=PLANE('',#612);
#46=PLANE('',#613);
#47=PLANE('',#616);
#48=PLANE('',#619);
#49=PLANE('',#620);
#50=PLANE('',#623);
#51=PLANE('',#624);
#52=PLANE('',#625);
#53=PLANE('',#626);
#54=FACE_OUTER_BOUND('',#85,.T.);
#55=FACE_OUTER_BOUND('',#86,.T.);
#56=FACE_OUTER_BOUND('',#87,.T.);
#57=FACE_OUTER_BOUND('',#88,.T.);
#58=FACE_OUTER_BOUND('',#89,.T.);
#59=FACE_OUTER_BOUND('',#90,.T.);
#60=FACE_OUTER_BOUND('',#91,.T.);
#61=FACE_OUTER_BOUND('',#92,.T.);
#62=FACE_OUTER_BOUND('',#93,.T.);
#63=FACE_OUTER_BOUND('',#94,.T.);
#64=FACE_OUTER_BOUND('',#95,.T.);
#65=FACE_OUTER_BOUND('',#96,.T.);
#66=FACE_OUTER_BOUND('',#97,.T.);
#67=FACE_OUTER_BOUND('',#98,.T.);
#68=FACE_OUTER_BOUND('',#104,.T.);
#69=FACE_OUTER_BOUND('',#106,.T.);
#70=FACE_OUTER_BOUND('',#107,.T.);
#71=FACE_OUTER_BOUND('',#108,.T.);
#72=FACE_OUTER_BOUND('',#113,.T.);
#73=FACE_OUTER_BOUND('',#114,.T.);
#74=FACE_OUTER_BOUND('',#115,.T.);
#75=FACE_OUTER_BOUND('',#116,.T.);
#76=FACE_OUTER_BOUND('',#117,.T.);
#77=FACE_OUTER_BOUND('',#118,.T.);
#78=FACE_OUTER_BOUND('',#119,.T.);
#79=FACE_OUTER_BOUND('',#121,.T.);
#80=FACE_OUTER_BOUND('',#124,.T.);
#81=FACE_OUTER_BOUND('',#125,.T.);
#82=FACE_OUTER_BOUND('',#126,.T.);
#83=FACE_OUTER_BOUND('',#128,.T.);
#84=FACE_OUTER_BOUND('',#129,.T.);
#85=EDGE_LOOP('',(#371,#372,#373,#374));
#86=EDGE_LOOP('',(#375));
#87=EDGE_LOOP('',(#376,#377,#378,#379));
#88=EDGE_LOOP('',(#380));
#89=EDGE_LOOP('',(#381,#382,#383,#384));
#90=EDGE_LOOP('',(#385));
#91=EDGE_LOOP('',(#386,#387,#388,#389));
#92=EDGE_LOOP('',(#390));
#93=EDGE_LOOP('',(#391,#392,#393,#394));
#94=EDGE_LOOP('',(#395,#396,#397,#398));
#95=EDGE_LOOP('',(#399,#400,#401,#402));
#96=EDGE_LOOP('',(#403,#404,#405,#406));
#97=EDGE_LOOP('',(#407,#408,#409,#410));
#98=EDGE_LOOP('',(#411,#412,#413,#414));
#99=EDGE_LOOP('',(#415));
#100=EDGE_LOOP('',(#416));
#101=EDGE_LOOP('',(#417));
#102=EDGE_LOOP('',(#418));
#103=EDGE_LOOP('',(#419));
#104=EDGE_LOOP('',(#420,#421,#422,#423));
#105=EDGE_LOOP('',(#424));
#106=EDGE_LOOP('',(#425,#426,#427,#428));
#107=EDGE_LOOP('',(#429,#430,#431,#432));
#108=EDGE_LOOP('',(#433,#434,#435,#436,#437,#438,#439,#440,#441,#442,#443,
#444));
#109=EDGE_LOOP('',(#445));
#110=EDGE_LOOP('',(#446));
#111=EDGE_LOOP('',(#447));
#112=EDGE_LOOP('',(#448));
#113=EDGE_LOOP('',(#449,#450,#451,#452,#453,#454,#455,#456,#457,#458));
#114=EDGE_LOOP('',(#459,#460,#461,#462));
#115=EDGE_LOOP('',(#463,#464,#465,#466));
#116=EDGE_LOOP('',(#467,#468,#469,#470));
#117=EDGE_LOOP('',(#471,#472,#473,#474));
#118=EDGE_LOOP('',(#475,#476,#477,#478));
#119=EDGE_LOOP('',(#479,#480,#481,#482));
#120=EDGE_LOOP('',(#483));
#121=EDGE_LOOP('',(#484,#485,#486,#487));
#122=EDGE_LOOP('',(#488));
#123=EDGE_LOOP('',(#489));
#124=EDGE_LOOP('',(#490,#491,#492,#493));
#125=EDGE_LOOP('',(#494,#495,#496,#497));
#126=EDGE_LOOP('',(#498,#499,#500,#501));
#127=EDGE_LOOP('',(#502));
#128=EDGE_LOOP('',(#503,#504,#505,#506,#507,#508,#509,#510,#511,#512));
#129=EDGE_LOOP('',(#513));
#130=EDGE_LOOP('',(#514));
#131=LINE('',#798,#179);
#132=LINE('',#805,#180);
#133=LINE('',#812,#181);
#134=LINE('',#819,#182);
#135=LINE('',#826,#183);
#136=LINE('',#832,#184);
#137=LINE('',#838,#185);
#138=LINE('',#844,#186);
#139=LINE('',#850,#187);
#140=LINE('',#855,#188);
#141=LINE('',#857,#189);
#142=LINE('',#859,#190);
#143=LINE('',#860,#191);
#144=LINE('',#864,#192);
#145=LINE('',#866,#193);
#146=LINE('',#868,#194);
#147=LINE('',#869,#195);
#148=LINE('',#874,#196);
#149=LINE('',#876,#197);
#150=LINE('',#877,#198);
#151=LINE('',#880,#199);
#152=LINE('',#881,#200);
#153=LINE('',#885,#201);
#154=LINE('',#887,#202);
#155=LINE('',#889,#203);
#156=LINE('',#891,#204);
#157=LINE('',#893,#205);
#158=LINE('',#895,#206);
#159=LINE('',#897,#207);
#160=LINE('',#899,#208);
#161=LINE('',#900,#209);
#162=LINE('',#901,#210);
#163=LINE('',#904,#211);
#164=LINE('',#905,#212);
#165=LINE('',#907,#213);
#166=LINE('',#911,#214);
#167=LINE('',#915,#215);
#168=LINE('',#916,#216);
#169=LINE('',#919,#217);
#170=LINE('',#920,#218);
#171=LINE('',#923,#219);
#172=LINE('',#927,#220);
#173=LINE('',#928,#221);
#174=LINE('',#932,#222);
#175=LINE('',#933,#223);
#176=LINE('',#935,#224);
#177=LINE('',#938,#225);
#178=LINE('',#942,#226);
#179=VECTOR('',#636,1.6);
#180=VECTOR('',#645,1.6);
#181=VECTOR('',#654,1.6);
#182=VECTOR('',#663,1.6);
#183=VECTOR('',#672,1.6);
#184=VECTOR('',#679,1.6);
#185=VECTOR('',#686,1.6);
#186=VECTOR('',#693,1.6);
#187=VECTOR('',#700,5.5);
#188=VECTOR('',#705,10.);
#189=VECTOR('',#706,10.);
#190=VECTOR('',#707,10.);
#191=VECTOR('',#708,10.);
#192=VECTOR('',#711,10.);
#193=VECTOR('',#712,10.);
#194=VECTOR('',#713,10.);
#195=VECTOR('',#714,10.);
#196=VECTOR('',#719,10.);
#197=VECTOR('',#720,10.);
#198=VECTOR('',#721,10.);
#199=VECTOR('',#724,10.);
#200=VECTOR('',#725,10.);
#201=VECTOR('',#728,10.);
#202=VECTOR('',#729,10.);
#203=VECTOR('',#730,10.);
#204=VECTOR('',#731,10.);
#205=VECTOR('',#732,10.);
#206=VECTOR('',#733,10.);
#207=VECTOR('',#734,10.);
#208=VECTOR('',#735,10.);
#209=VECTOR('',#736,10.);
#210=VECTOR('',#737,10.);
#211=VECTOR('',#740,10.);
#212=VECTOR('',#741,10.);
#213=VECTOR('',#742,10.);
#214=VECTOR('',#745,10.);
#215=VECTOR('',#750,10.);
#216=VECTOR('',#751,10.);
#217=VECTOR('',#754,10.);
#218=VECTOR('',#755,10.);
#219=VECTOR('',#758,10.);
#220=VECTOR('',#763,10.);
#221=VECTOR('',#764,10.);
#222=VECTOR('',#771,10.);
#223=VECTOR('',#772,10.);
#224=VECTOR('',#775,10.);
#225=VECTOR('',#778,8.5);
#226=VECTOR('',#785,10.);
#227=CIRCLE('',#573,1.6);
#228=CIRCLE('',#574,1.6);
#229=CIRCLE('',#577,1.6);
#230=CIRCLE('',#578,1.6);
#231=CIRCLE('',#581,1.6);
#232=CIRCLE('',#582,1.6);
#233=CIRCLE('',#585,1.6);
#234=CIRCLE('',#586,1.6);
#235=CIRCLE('',#589,1.6);
#236=CIRCLE('',#590,1.6);
#237=CIRCLE('',#592,1.6);
#238=CIRCLE('',#593,1.6);
#239=CIRCLE('',#595,1.6);
#240=CIRCLE('',#596,1.6);
#241=CIRCLE('',#598,1.6);
#242=CIRCLE('',#599,1.6);
#243=CIRCLE('',#601,6.);
#244=CIRCLE('',#602,5.);
#245=CIRCLE('',#605,8.5);
#246=CIRCLE('',#610,0.5);
#247=CIRCLE('',#611,0.5);
#248=CIRCLE('',#615,0.5);
#249=CIRCLE('',#618,0.5);
#250=CIRCLE('',#622,8.5);
#251=VERTEX_POINT('',#795);
#252=VERTEX_POINT('',#797);
#253=VERTEX_POINT('',#802);
#254=VERTEX_POINT('',#804);
#255=VERTEX_POINT('',#809);
#256=VERTEX_POINT('',#811);
#257=VERTEX_POINT('',#816);
#258=VERTEX_POINT('',#818);
#259=VERTEX_POINT('',#823);
#260=VERTEX_POINT('',#825);
#261=VERTEX_POINT('',#829);
#262=VERTEX_POINT('',#831);
#263=VERTEX_POINT('',#835);
#264=VERTEX_POINT('',#837);
#265=VERTEX_POINT('',#841);
#266=VERTEX_POINT('',#843);
#267=VERTEX_POINT('',#847);
#268=VERTEX_POINT('',#849);
#269=VERTEX_POINT('',#853);
#270=VERTEX_POINT('',#854);
#271=VERTEX_POINT('',#856);
#272=VERTEX_POINT('',#858);
#273=VERTEX_POINT('',#862);
#274=VERTEX_POINT('',#863);
#275=VERTEX_POINT('',#865);
#276=VERTEX_POINT('',#867);
#277=VERTEX_POINT('',#870);
#278=VERTEX_POINT('',#873);
#279=VERTEX_POINT('',#875);
#280=VERTEX_POINT('',#879);
#281=VERTEX_POINT('',#883);
#282=VERTEX_POINT('',#884);
#283=VERTEX_POINT('',#886);
#284=VERTEX_POINT('',#888);
#285=VERTEX_POINT('',#890);
#286=VERTEX_POINT('',#892);
#287=VERTEX_POINT('',#894);
#288=VERTEX_POINT('',#896);
#289=VERTEX_POINT('',#898);
#290=VERTEX_POINT('',#903);
#291=VERTEX_POINT('',#906);
#292=VERTEX_POINT('',#908);
#293=VERTEX_POINT('',#910);
#294=VERTEX_POINT('',#914);
#295=VERTEX_POINT('',#918);
#296=VERTEX_POINT('',#922);
#297=VERTEX_POINT('',#926);
#298=VERTEX_POINT('',#937);
#299=EDGE_CURVE('',#251,#251,#227,.T.);
#300=EDGE_CURVE('',#251,#252,#131,.T.);
#301=EDGE_CURVE('',#252,#252,#228,.T.);
#302=EDGE_CURVE('',#253,#253,#229,.T.);
#303=EDGE_CURVE('',#253,#254,#132,.T.);
#304=EDGE_CURVE('',#254,#254,#230,.T.);
#305=EDGE_CURVE('',#255,#255,#231,.T.);
#306=EDGE_CURVE('',#255,#256,#133,.T.);
#307=EDGE_CURVE('',#256,#256,#232,.T.);
#308=EDGE_CURVE('',#257,#257,#233,.T.);
#309=EDGE_CURVE('',#257,#258,#134,.T.);
#310=EDGE_CURVE('',#258,#258,#234,.T.);
#311=EDGE_CURVE('',#259,#259,#235,.T.);
#312=EDGE_CURVE('',#259,#260,#135,.T.);
#313=EDGE_CURVE('',#260,#260,#236,.T.);
#314=EDGE_CURVE('',#261,#261,#237,.T.);
#315=EDGE_CURVE('',#261,#262,#136,.T.);
#316=EDGE_CURVE('',#262,#262,#238,.T.);
#317=EDGE_CURVE('',#263,#263,#239,.T.);
#318=EDGE_CURVE('',#263,#264,#137,.T.);
#319=EDGE_CURVE('',#264,#264,#240,.T.);
#320=EDGE_CURVE('',#265,#265,#241,.T.);
#321=EDGE_CURVE('',#265,#266,#138,.T.);
#322=EDGE_CURVE('',#266,#266,#242,.T.);
#323=EDGE_CURVE('',#267,#267,#243,.T.);
#324=EDGE_CURVE('',#267,#268,#139,.T.);
#325=EDGE_CURVE('',#268,#268,#244,.T.);
#326=EDGE_CURVE('',#269,#270,#140,.T.);
#327=EDGE_CURVE('',#270,#271,#141,.T.);
#328=EDGE_CURVE('',#271,#272,#142,.T.);
#329=EDGE_CURVE('',#272,#269,#143,.T.);
#330=EDGE_CURVE('',#273,#274,#144,.T.);
#331=EDGE_CURVE('',#275,#273,#145,.T.);
#332=EDGE_CURVE('',#276,#275,#146,.T.);
#333=EDGE_CURVE('',#274,#276,#147,.T.);
#334=EDGE_CURVE('',#277,#277,#245,.T.);
#335=EDGE_CURVE('',#274,#278,#148,.T.);
#336=EDGE_CURVE('',#279,#278,#149,.T.);
#337=EDGE_CURVE('',#279,#273,#150,.T.);
#338=EDGE_CURVE('',#280,#276,#151,.T.);
#339=EDGE_CURVE('',#278,#280,#152,.T.);
#340=EDGE_CURVE('',#281,#282,#153,.T.);
#341=EDGE_CURVE('',#282,#283,#154,.T.);
#342=EDGE_CURVE('',#283,#284,#155,.T.);
#343=EDGE_CURVE('',#284,#285,#156,.T.);
#344=EDGE_CURVE('',#285,#286,#157,.T.);
#345=EDGE_CURVE('',#286,#287,#158,.T.);
#346=EDGE_CURVE('',#287,#288,#159,.T.);
#347=EDGE_CURVE('',#288,#289,#160,.T.);
#348=EDGE_CURVE('',#289,#279,#161,.T.);
#349=EDGE_CURVE('',#280,#281,#162,.T.);
#350=EDGE_CURVE('',#290,#281,#163,.T.);
#351=EDGE_CURVE('',#289,#275,#164,.T.);
#352=EDGE_CURVE('',#288,#291,#165,.T.);
#353=EDGE_CURVE('',#291,#292,#246,.T.);
#354=EDGE_CURVE('',#292,#293,#166,.T.);
#355=EDGE_CURVE('',#293,#290,#247,.T.);
#356=EDGE_CURVE('',#294,#287,#167,.T.);
#357=EDGE_CURVE('',#291,#294,#168,.T.);
#358=EDGE_CURVE('',#295,#290,#169,.T.);
#359=EDGE_CURVE('',#295,#282,#170,.T.);
#360=EDGE_CURVE('',#296,#293,#171,.T.);
#361=EDGE_CURVE('',#295,#296,#248,.T.);
#362=EDGE_CURVE('',#297,#292,#172,.T.);
#363=EDGE_CURVE('',#296,#297,#173,.T.);
#364=EDGE_CURVE('',#297,#294,#249,.T.);
#365=EDGE_CURVE('',#285,#271,#174,.T.);
#366=EDGE_CURVE('',#286,#270,#175,.T.);
#367=EDGE_CURVE('',#284,#272,#176,.T.);
#368=EDGE_CURVE('',#277,#298,#177,.T.);
#369=EDGE_CURVE('',#298,#298,#250,.T.);
#370=EDGE_CURVE('',#269,#283,#178,.T.);
#371=ORIENTED_EDGE('',*,*,#299,.F.);
#372=ORIENTED_EDGE('',*,*,#300,.T.);
#373=ORIENTED_EDGE('',*,*,#301,.T.);
#374=ORIENTED_EDGE('',*,*,#300,.F.);
#375=ORIENTED_EDGE('',*,*,#301,.F.);
#376=ORIENTED_EDGE('',*,*,#302,.F.);
#377=ORIENTED_EDGE('',*,*,#303,.T.);
#378=ORIENTED_EDGE('',*,*,#304,.T.);
#379=ORIENTED_EDGE('',*,*,#303,.F.);
#380=ORIENTED_EDGE('',*,*,#304,.F.);
#381=ORIENTED_EDGE('',*,*,#305,.F.);
#382=ORIENTED_EDGE('',*,*,#306,.T.);
#383=ORIENTED_EDGE('',*,*,#307,.T.);
#384=ORIENTED_EDGE('',*,*,#306,.F.);
#385=ORIENTED_EDGE('',*,*,#307,.F.);
#386=ORIENTED_EDGE('',*,*,#308,.F.);
#387=ORIENTED_EDGE('',*,*,#309,.T.);
#388=ORIENTED_EDGE('',*,*,#310,.T.);
#389=ORIENTED_EDGE('',*,*,#309,.F.);
#390=ORIENTED_EDGE('',*,*,#310,.F.);
#391=ORIENTED_EDGE('',*,*,#311,.F.);
#392=ORIENTED_EDGE('',*,*,#312,.T.);
#393=ORIENTED_EDGE('',*,*,#313,.F.);
#394=ORIENTED_EDGE('',*,*,#312,.F.);
#395=ORIENTED_EDGE('',*,*,#314,.F.);
#396=ORIENTED_EDGE('',*,*,#315,.T.);
#397=ORIENTED_EDGE('',*,*,#316,.F.);
#398=ORIENTED_EDGE('',*,*,#315,.F.);
#399=ORIENTED_EDGE('',*,*,#317,.F.);
#400=ORIENTED_EDGE('',*,*,#318,.T.);
#401=ORIENTED_EDGE('',*,*,#319,.F.);
#402=ORIENTED_EDGE('',*,*,#318,.F.);
#403=ORIENTED_EDGE('',*,*,#320,.F.);
#404=ORIENTED_EDGE('',*,*,#321,.T.);
#405=ORIENTED_EDGE('',*,*,#322,.F.);
#406=ORIENTED_EDGE('',*,*,#321,.F.);
#407=ORIENTED_EDGE('',*,*,#323,.T.);
#408=ORIENTED_EDGE('',*,*,#324,.T.);
#409=ORIENTED_EDGE('',*,*,#325,.F.);
#410=ORIENTED_EDGE('',*,*,#324,.F.);
#411=ORIENTED_EDGE('',*,*,#326,.T.);
#412=ORIENTED_EDGE('',*,*,#327,.T.);
#413=ORIENTED_EDGE('',*,*,#328,.T.);
#414=ORIENTED_EDGE('',*,*,#329,.T.);
#415=ORIENTED_EDGE('',*,*,#323,.F.);
#416=ORIENTED_EDGE('',*,*,#322,.T.);
#417=ORIENTED_EDGE('',*,*,#319,.T.);
#418=ORIENTED_EDGE('',*,*,#316,.T.);
#419=ORIENTED_EDGE('',*,*,#313,.T.);
#420=ORIENTED_EDGE('',*,*,#330,.F.);
#421=ORIENTED_EDGE('',*,*,#331,.F.);
#422=ORIENTED_EDGE('',*,*,#332,.F.);
#423=ORIENTED_EDGE('',*,*,#333,.F.);
#424=ORIENTED_EDGE('',*,*,#334,.F.);
#425=ORIENTED_EDGE('',*,*,#335,.T.);
#426=ORIENTED_EDGE('',*,*,#336,.F.);
#427=ORIENTED_EDGE('',*,*,#337,.T.);
#428=ORIENTED_EDGE('',*,*,#330,.T.);
#429=ORIENTED_EDGE('',*,*,#338,.F.);
#430=ORIENTED_EDGE('',*,*,#339,.F.);
#431=ORIENTED_EDGE('',*,*,#335,.F.);
#432=ORIENTED_EDGE('',*,*,#333,.T.);
#433=ORIENTED_EDGE('',*,*,#340,.T.);
#434=ORIENTED_EDGE('',*,*,#341,.T.);
#435=ORIENTED_EDGE('',*,*,#342,.T.);
#436=ORIENTED_EDGE('',*,*,#343,.T.);
#437=ORIENTED_EDGE('',*,*,#344,.T.);
#438=ORIENTED_EDGE('',*,*,#345,.T.);
#439=ORIENTED_EDGE('',*,*,#346,.T.);
#440=ORIENTED_EDGE('',*,*,#347,.T.);
#441=ORIENTED_EDGE('',*,*,#348,.T.);
#442=ORIENTED_EDGE('',*,*,#336,.T.);
#443=ORIENTED_EDGE('',*,*,#339,.T.);
#444=ORIENTED_EDGE('',*,*,#349,.T.);
#445=ORIENTED_EDGE('',*,*,#320,.T.);
#446=ORIENTED_EDGE('',*,*,#317,.T.);
#447=ORIENTED_EDGE('',*,*,#314,.T.);
#448=ORIENTED_EDGE('',*,*,#311,.T.);
#449=ORIENTED_EDGE('',*,*,#350,.T.);
#450=ORIENTED_EDGE('',*,*,#349,.F.);
#451=ORIENTED_EDGE('',*,*,#338,.T.);
#452=ORIENTED_EDGE('',*,*,#332,.T.);
#453=ORIENTED_EDGE('',*,*,#351,.F.);
#454=ORIENTED_EDGE('',*,*,#347,.F.);
#455=ORIENTED_EDGE('',*,*,#352,.T.);
#456=ORIENTED_EDGE('',*,*,#353,.T.);
#457=ORIENTED_EDGE('',*,*,#354,.T.);
#458=ORIENTED_EDGE('',*,*,#355,.T.);
#459=ORIENTED_EDGE('',*,*,#356,.F.);
#460=ORIENTED_EDGE('',*,*,#357,.F.);
#461=ORIENTED_EDGE('',*,*,#352,.F.);
#462=ORIENTED_EDGE('',*,*,#346,.F.);
#463=ORIENTED_EDGE('',*,*,#358,.F.);
#464=ORIENTED_EDGE('',*,*,#359,.T.);
#465=ORIENTED_EDGE('',*,*,#340,.F.);
#466=ORIENTED_EDGE('',*,*,#350,.F.);
#467=ORIENTED_EDGE('',*,*,#360,.F.);
#468=ORIENTED_EDGE('',*,*,#361,.F.);
#469=ORIENTED_EDGE('',*,*,#358,.T.);
#470=ORIENTED_EDGE('',*,*,#355,.F.);
#471=ORIENTED_EDGE('',*,*,#362,.F.);
#472=ORIENTED_EDGE('',*,*,#363,.F.);
#473=ORIENTED_EDGE('',*,*,#360,.T.);
#474=ORIENTED_EDGE('',*,*,#354,.F.);
#475=ORIENTED_EDGE('',*,*,#357,.T.);
#476=ORIENTED_EDGE('',*,*,#364,.F.);
#477=ORIENTED_EDGE('',*,*,#362,.T.);
#478=ORIENTED_EDGE('',*,*,#353,.F.);
#479=ORIENTED_EDGE('',*,*,#365,.T.);
#480=ORIENTED_EDGE('',*,*,#327,.F.);
#481=ORIENTED_EDGE('',*,*,#366,.F.);
#482=ORIENTED_EDGE('',*,*,#344,.F.);
#483=ORIENTED_EDGE('',*,*,#308,.T.);
#484=ORIENTED_EDGE('',*,*,#367,.T.);
#485=ORIENTED_EDGE('',*,*,#328,.F.);
#486=ORIENTED_EDGE('',*,*,#365,.F.);
#487=ORIENTED_EDGE('',*,*,#343,.F.);
#488=ORIENTED_EDGE('',*,*,#302,.T.);
#489=ORIENTED_EDGE('',*,*,#305,.T.);
#490=ORIENTED_EDGE('',*,*,#334,.T.);
#491=ORIENTED_EDGE('',*,*,#368,.T.);
#492=ORIENTED_EDGE('',*,*,#369,.T.);
#493=ORIENTED_EDGE('',*,*,#368,.F.);
#494=ORIENTED_EDGE('',*,*,#337,.F.);
#495=ORIENTED_EDGE('',*,*,#348,.F.);
#496=ORIENTED_EDGE('',*,*,#351,.T.);
#497=ORIENTED_EDGE('',*,*,#331,.T.);
#498=ORIENTED_EDGE('',*,*,#370,.F.);
#499=ORIENTED_EDGE('',*,*,#329,.F.);
#500=ORIENTED_EDGE('',*,*,#367,.F.);
#501=ORIENTED_EDGE('',*,*,#342,.F.);
#502=ORIENTED_EDGE('',*,*,#299,.T.);
#503=ORIENTED_EDGE('',*,*,#356,.T.);
#504=ORIENTED_EDGE('',*,*,#345,.F.);
#505=ORIENTED_EDGE('',*,*,#366,.T.);
#506=ORIENTED_EDGE('',*,*,#326,.F.);
#507=ORIENTED_EDGE('',*,*,#370,.T.);
#508=ORIENTED_EDGE('',*,*,#341,.F.);
#509=ORIENTED_EDGE('',*,*,#359,.F.);
#510=ORIENTED_EDGE('',*,*,#361,.T.);
#511=ORIENTED_EDGE('',*,*,#363,.T.);
#512=ORIENTED_EDGE('',*,*,#364,.T.);
#513=ORIENTED_EDGE('',*,*,#369,.F.);
#514=ORIENTED_EDGE('',*,*,#325,.T.);
#515=CYLINDRICAL_SURFACE('',#572,1.6);
#516=CYLINDRICAL_SURFACE('',#576,1.6);
#517=CYLINDRICAL_SURFACE('',#580,1.6);
#518=CYLINDRICAL_SURFACE('',#584,1.6);
#519=CYLINDRICAL_SURFACE('',#588,1.6);
#520=CYLINDRICAL_SURFACE('',#591,1.6);
#521=CYLINDRICAL_SURFACE('',#594,1.6);
#522=CYLINDRICAL_SURFACE('',#597,1.6);
#523=CYLINDRICAL_SURFACE('',#614,0.5);
#524=CYLINDRICAL_SURFACE('',#617,0.5);
#525=CYLINDRICAL_SURFACE('',#621,8.5);
#526=ADVANCED_FACE('',(#54),#515,.F.);
#527=ADVANCED_FACE('',(#55),#35,.T.);
#528=ADVANCED_FACE('',(#56),#516,.F.);
#529=ADVANCED_FACE('',(#57),#36,.T.);
#530=ADVANCED_FACE('',(#58),#517,.F.);
#531=ADVANCED_FACE('',(#59),#37,.T.);
#532=ADVANCED_FACE('',(#60),#518,.F.);
#533=ADVANCED_FACE('',(#61),#38,.T.);
#534=ADVANCED_FACE('',(#62),#519,.F.);
#535=ADVANCED_FACE('',(#63),#520,.F.);
#536=ADVANCED_FACE('',(#64),#521,.F.);
#537=ADVANCED_FACE('',(#65),#522,.F.);
#538=ADVANCED_FACE('',(#66),#34,.F.);
#539=ADVANCED_FACE('',(#67,#19,#20,#21,#22,#23),#39,.T.);
#540=ADVANCED_FACE('',(#68,#24),#40,.F.);
#541=ADVANCED_FACE('',(#69),#41,.T.);
#542=ADVANCED_FACE('',(#70),#42,.T.);
#543=ADVANCED_FACE('',(#71,#25,#26,#27,#28),#43,.T.);
#544=ADVANCED_FACE('',(#72),#44,.T.);
#545=ADVANCED_FACE('',(#73),#45,.F.);
#546=ADVANCED_FACE('',(#74),#46,.F.);
#547=ADVANCED_FACE('',(#75),#523,.F.);
#548=ADVANCED_FACE('',(#76),#47,.F.);
#549=ADVANCED_FACE('',(#77),#524,.F.);
#550=ADVANCED_FACE('',(#78,#29),#48,.T.);
#551=ADVANCED_FACE('',(#79,#30,#31),#49,.T.);
#552=ADVANCED_FACE('',(#80),#525,.F.);
#553=ADVANCED_FACE('',(#81),#50,.T.);
#554=ADVANCED_FACE('',(#82,#32),#51,.T.);
#555=ADVANCED_FACE('',(#83),#52,.T.);
#556=ADVANCED_FACE('',(#84,#33),#53,.T.);
#557=CLOSED_SHELL('',(#526,#527,#528,#529,#530,#531,#532,#533,#534,#535,
#536,#537,#538,#539,#540,#541,#542,#543,#544,#545,#546,#547,#548,#549,#550,
#551,#552,#553,#554,#555,#556));
#558=DERIVED_UNIT_ELEMENT(#560,1.);
#559=DERIVED_UNIT_ELEMENT(#953,-3.);
#560=(
MASS_UNIT()
NAMED_UNIT(*)
SI_UNIT(.KILO.,.GRAM.)
);
#561=DERIVED_UNIT((#558,#559));
#562=MEASURE_REPRESENTATION_ITEM('density measure',
POSITIVE_RATIO_MEASURE(7850.),#561);
#563=PROPERTY_DEFINITION_REPRESENTATION(#568,#565);
#564=PROPERTY_DEFINITION_REPRESENTATION(#569,#566);
#565=REPRESENTATION('material name',(#567),#950);
#566=REPRESENTATION('density',(#562),#950);
#567=DESCRIPTIVE_REPRESENTATION_ITEM('Steel','Steel');
#568=PROPERTY_DEFINITION('material property','material name',#965);
#569=PROPERTY_DEFINITION('material property','density of part',#965);
#570=AXIS2_PLACEMENT_3D('',#792,#628,#629);
#571=AXIS2_PLACEMENT_3D('',#793,#630,#631);
#572=AXIS2_PLACEMENT_3D('',#794,#632,#633);
#573=AXIS2_PLACEMENT_3D('',#796,#634,#635);
#574=AXIS2_PLACEMENT_3D('',#799,#637,#638);
#575=AXIS2_PLACEMENT_3D('',#800,#639,#640);
#576=AXIS2_PLACEMENT_3D('',#801,#641,#642);
#577=AXIS2_PLACEMENT_3D('',#803,#643,#644);
#578=AXIS2_PLACEMENT_3D('',#806,#646,#647);
#579=AXIS2_PLACEMENT_3D('',#807,#648,#649);
#580=AXIS2_PLACEMENT_3D('',#808,#650,#651);
#581=AXIS2_PLACEMENT_3D('',#810,#652,#653);
#582=AXIS2_PLACEMENT_3D('',#813,#655,#656);
#583=AXIS2_PLACEMENT_3D('',#814,#657,#658);
#584=AXIS2_PLACEMENT_3D('',#815,#659,#660);
#585=AXIS2_PLACEMENT_3D('',#817,#661,#662);
#586=AXIS2_PLACEMENT_3D('',#820,#664,#665);
#587=AXIS2_PLACEMENT_3D('',#821,#666,#667);
#588=AXIS2_PLACEMENT_3D('',#822,#668,#669);
#589=AXIS2_PLACEMENT_3D('',#824,#670,#671);
#590=AXIS2_PLACEMENT_3D('',#827,#673,#674);
#591=AXIS2_PLACEMENT_3D('',#828,#675,#676);
#592=AXIS2_PLACEMENT_3D('',#830,#677,#678);
#593=AXIS2_PLACEMENT_3D('',#833,#680,#681);
#594=AXIS2_PLACEMENT_3D('',#834,#682,#683);
#595=AXIS2_PLACEMENT_3D('',#836,#684,#685);
#596=AXIS2_PLACEMENT_3D('',#839,#687,#688);
#597=AXIS2_PLACEMENT_3D('',#840,#689,#690);
#598=AXIS2_PLACEMENT_3D('',#842,#691,#692);
#599=AXIS2_PLACEMENT_3D('',#845,#694,#695);
#600=AXIS2_PLACEMENT_3D('',#846,#696,#697);
#601=AXIS2_PLACEMENT_3D('',#848,#698,#699);
#602=AXIS2_PLACEMENT_3D('',#851,#701,#702);
#603=AXIS2_PLACEMENT_3D('',#852,#703,#704);
#604=AXIS2_PLACEMENT_3D('',#861,#709,#710);
#605=AXIS2_PLACEMENT_3D('',#871,#715,#716);
#606=AXIS2_PLACEMENT_3D('',#872,#717,#718);
#607=AXIS2_PLACEMENT_3D('',#878,#722,#723);
#608=AXIS2_PLACEMENT_3D('',#882,#726,#727);
#609=AXIS2_PLACEMENT_3D('',#902,#738,#739);
#610=AXIS2_PLACEMENT_3D('',#909,#743,#744);
#611=AXIS2_PLACEMENT_3D('',#912,#746,#747);
#612=AXIS2_PLACEMENT_3D('',#913,#748,#749);
#613=AXIS2_PLACEMENT_3D('',#917,#752,#753);
#614=AXIS2_PLACEMENT_3D('',#921,#756,#757);
#615=AXIS2_PLACEMENT_3D('',#924,#759,#760);
#616=AXIS2_PLACEMENT_3D('',#925,#761,#762);
#617=AXIS2_PLACEMENT_3D('',#929,#765,#766);
#618=AXIS2_PLACEMENT_3D('',#930,#767,#768);
#619=AXIS2_PLACEMENT_3D('',#931,#769,#770);
#620=AXIS2_PLACEMENT_3D('',#934,#773,#774);
#621=AXIS2_PLACEMENT_3D('',#936,#776,#777);
#622=AXIS2_PLACEMENT_3D('',#939,#779,#780);
#623=AXIS2_PLACEMENT_3D('',#940,#781,#782);
#624=AXIS2_PLACEMENT_3D('',#941,#783,#784);
#625=AXIS2_PLACEMENT_3D('',#943,#786,#787);
#626=AXIS2_PLACEMENT_3D('',#944,#788,#789);
#627=AXIS2_PLACEMENT_3D('',#945,#790,#791);
#628=DIRECTION('axis',(0.,0.,1.));
#629=DIRECTION('refdir',(1.,0.,0.));
#630=DIRECTION('axis',(0.,0.,1.));
#631=DIRECTION('refdir',(1.,0.,0.));
#632=DIRECTION('center_axis',(-1.,-2.4980018054066E-16,-1.11022302462516E-15));
#633=DIRECTION('ref_axis',(1.11022302462516E-15,-1.07852076885686E-32,-1.));
#634=DIRECTION('center_axis',(-1.,0.,0.));
#635=DIRECTION('ref_axis',(1.11022302462516E-15,-1.07852076885686E-32,-1.));
#636=DIRECTION('',(-1.,-2.4980018054066E-16,-1.11022302462516E-15));
#637=DIRECTION('center_axis',(-1.,-2.43236114486082E-16,-1.0547118733939E-15));
#638=DIRECTION('ref_axis',(1.0547118733939E-15,-2.46519032881566E-32,-1.));
#639=DIRECTION('center_axis',(1.,2.43236114486082E-16,1.0547118733939E-15));
#640=DIRECTION('ref_axis',(1.0547118733939E-15,-2.46519032881566E-32,-1.));
#641=DIRECTION('center_axis',(5.9211894646675E-16,0.,1.));
#642=DIRECTION('ref_axis',(-1.,1.23259516440783E-32,5.9211894646675E-16));
#643=DIRECTION('center_axis',(0.,0.,1.));
#644=DIRECTION('ref_axis',(-1.,1.23259516440783E-32,5.9211894646675E-16));
#645=DIRECTION('',(5.9211894646675E-16,0.,1.));
#646=DIRECTION('center_axis',(6.10622663543836E-16,1.23259516440783E-31,
1.));
#647=DIRECTION('ref_axis',(-1.,1.23259516440783E-32,6.10622663543836E-16));
#648=DIRECTION('center_axis',(-6.10622663543836E-16,-1.23259516440783E-31,
-1.));
#649=DIRECTION('ref_axis',(-1.,1.23259516440783E-32,6.10622663543836E-16));
#650=DIRECTION('center_axis',(5.9211894646675E-16,0.,1.));
#651=DIRECTION('ref_axis',(-1.,1.23259516440783E-32,5.9211894646675E-16));
#652=DIRECTION('center_axis',(0.,0.,1.));
#653=DIRECTION('ref_axis',(-1.,1.23259516440783E-32,5.9211894646675E-16));
#654=DIRECTION('',(5.9211894646675E-16,0.,1.));
#655=DIRECTION('center_axis',(6.10622663543836E-16,1.23259516440783E-31,
1.));
#656=DIRECTION('ref_axis',(-1.,1.23259516440783E-32,6.10622663543836E-16));
#657=DIRECTION('center_axis',(-6.10622663543836E-16,-1.23259516440783E-31,
-1.));
#658=DIRECTION('ref_axis',(-1.,1.23259516440783E-32,6.10622663543836E-16));
#659=DIRECTION('center_axis',(1.,2.4980018054066E-16,0.));
#660=DIRECTION('ref_axis',(0.,1.07852076885685E-32,1.));
#661=DIRECTION('center_axis',(1.,0.,0.));
#662=DIRECTION('ref_axis',(0.,1.07852076885685E-32,1.));
#663=DIRECTION('',(1.,2.4980018054066E-16,0.));
#664=DIRECTION('center_axis',(1.,2.43236114486082E-16,-5.55111512312578E-17));
#665=DIRECTION('ref_axis',(5.55111512312578E-17,2.46519032881566E-32,1.));
#666=DIRECTION('center_axis',(-1.,-2.43236114486082E-16,5.55111512312578E-17));
#667=DIRECTION('ref_axis',(5.55111512312578E-17,2.46519032881566E-32,1.));
#668=DIRECTION('center_axis',(0.,-1.,0.));
#669=DIRECTION('ref_axis',(-1.,0.,0.));
#670=DIRECTION('center_axis',(0.,-1.,0.));
#671=DIRECTION('ref_axis',(-1.,0.,0.));
#672=DIRECTION('',(0.,-1.,0.));
#673=DIRECTION('center_axis',(0.,1.,0.));
#674=DIRECTION('ref_axis',(-1.,0.,0.));
#675=DIRECTION('center_axis',(0.,-1.,0.));
#676=DIRECTION('ref_axis',(-1.,0.,0.));
#677=DIRECTION('center_axis',(0.,-1.,0.));
#678=DIRECTION('ref_axis',(-1.,0.,0.));
#679=DIRECTION('',(0.,-1.,0.));
#680=DIRECTION('center_axis',(0.,1.,0.));
#681=DIRECTION('ref_axis',(-1.,0.,0.));
#682=DIRECTION('center_axis',(0.,-1.,0.));
#683=DIRECTION('ref_axis',(-1.,0.,0.));
#684=DIRECTION('center_axis',(0.,-1.,0.));
#685=DIRECTION('ref_axis',(-1.,0.,0.));
#686=DIRECTION('',(0.,-1.,0.));
#687=DIRECTION('center_axis',(0.,1.,0.));
#688=DIRECTION('ref_axis',(-1.,0.,0.));
#689=DIRECTION('center_axis',(0.,-1.,0.));
#690=DIRECTION('ref_axis',(-1.,0.,0.));
#691=DIRECTION('center_axis',(0.,-1.,0.));
#692=DIRECTION('ref_axis',(-1.,0.,0.));
#693=DIRECTION('',(0.,-1.,0.));
#694=DIRECTION('center_axis',(0.,1.,0.));
#695=DIRECTION('ref_axis',(-1.,0.,0.));
#696=DIRECTION('center_axis',(0.,-1.,0.));
#697=DIRECTION('ref_axis',(1.,0.,0.));
#698=DIRECTION('center_axis',(0.,-1.,0.));
#699=DIRECTION('ref_axis',(1.,0.,0.));
#700=DIRECTION('',(0.707106781186548,0.707106781186548,8.65956056235493E-17));
#701=DIRECTION('center_axis',(0.,-1.,0.));
#702=DIRECTION('ref_axis',(1.,0.,0.));
#703=DIRECTION('center_axis',(0.,-1.,0.));
#704=DIRECTION('ref_axis',(0.,0.,-1.));
#705=DIRECTION('',(-1.,0.,0.));
#706=DIRECTION('',(0.,0.,-1.));
#707=DIRECTION('',(1.,0.,0.));
#708=DIRECTION('',(0.,0.,1.));
#709=DIRECTION('center_axis',(0.,-1.,0.));
#710=DIRECTION('ref_axis',(0.,0.,-1.));
#711=DIRECTION('',(1.,0.,0.));
#712=DIRECTION('',(0.,0.,-1.));
#713=DIRECTION('',(-1.,0.,0.));
#714=DIRECTION('',(0.,0.,1.));
#715=DIRECTION('center_axis',(0.,1.,0.));
#716=DIRECTION('ref_axis',(-1.,0.,0.));
#717=DIRECTION('center_axis',(0.,0.,1.));
#718=DIRECTION('ref_axis',(1.,0.,0.));
#719=DIRECTION('',(0.,1.,0.));
#720=DIRECTION('',(1.,0.,0.));
#721=DIRECTION('',(0.,-1.,0.));
#722=DIRECTION('center_axis',(-1.,0.,0.));
#723=DIRECTION('ref_axis',(0.,0.,1.));
#724=DIRECTION('',(0.,-1.,0.));
#725=DIRECTION('',(0.,0.,1.));
#726=DIRECTION('center_axis',(0.,1.,0.));
#727=DIRECTION('ref_axis',(0.,0.,1.));
#728=DIRECTION('',(0.,0.,1.));
#729=DIRECTION('',(1.,0.,0.));
#730=DIRECTION('',(0.,0.,-1.));
#731=DIRECTION('',(-1.,0.,0.));
#732=DIRECTION('',(0.,0.,1.));
#733=DIRECTION('',(1.,0.,0.));
#734=DIRECTION('',(0.,0.,-1.));
#735=DIRECTION('',(-1.,0.,0.));
#736=DIRECTION('',(0.,0.,-1.));
#737=DIRECTION('',(-1.,0.,0.));
#738=DIRECTION('center_axis',(0.,0.,-1.));
#739=DIRECTION('ref_axis',(-1.,0.,0.));
#740=DIRECTION('',(0.,1.,0.));
#741=DIRECTION('',(0.,-1.,0.));
#742=DIRECTION('',(0.,-1.,0.));
#743=DIRECTION('center_axis',(0.,0.,1.));
#744=DIRECTION('ref_axis',(-0.707106781186548,-0.707106781186548,0.));
#745=DIRECTION('',(1.,-1.58603289232165E-16,0.));
#746=DIRECTION('center_axis',(0.,0.,1.));
#747=DIRECTION('ref_axis',(0.707106781186548,-0.707106781186548,0.));
#748=DIRECTION('center_axis',(-1.,0.,0.));
#749=DIRECTION('ref_axis',(0.,-1.,0.));
#750=DIRECTION('',(0.,1.,0.));
#751=DIRECTION('',(0.,0.,1.));
#752=DIRECTION('center_axis',(1.,0.,0.));
#753=DIRECTION('ref_axis',(0.,1.,0.));
#754=DIRECTION('',(0.,0.,-1.));
#755=DIRECTION('',(0.,1.,0.));
#756=DIRECTION('center_axis',(0.,0.,1.));
#757=DIRECTION('ref_axis',(0.707106781186548,-0.707106781186548,0.));
#758=DIRECTION('',(0.,0.,-1.));
#759=DIRECTION('center_axis',(0.,0.,-1.));
#760=DIRECTION('ref_axis',(0.707106781186548,-0.707106781186548,0.));
#761=DIRECTION('center_axis',(-1.58603289232165E-16,-1.,0.));
#762=DIRECTION('ref_axis',(1.,-1.58603289232165E-16,0.));
#763=DIRECTION('',(0.,0.,-1.));
#764=DIRECTION('',(-1.,1.58603289232165E-16,0.));
#765=DIRECTION('center_axis',(0.,0.,1.));
#766=DIRECTION('ref_axis',(-0.707106781186548,-0.707106781186548,0.));
#767=DIRECTION('center_axis',(0.,0.,-1.));
#768=DIRECTION('ref_axis',(-0.707106781186548,-0.707106781186548,0.));
#769=DIRECTION('center_axis',(-1.,0.,0.));
#770=DIRECTION('ref_axis',(0.,0.,1.));
#771=DIRECTION('',(0.,-1.,0.));
#772=DIRECTION('',(0.,-1.,0.));
#773=DIRECTION('center_axis',(0.,0.,-1.));
#774=DIRECTION('ref_axis',(-1.,0.,0.));
#775=DIRECTION('',(0.,-1.,0.));
#776=DIRECTION('center_axis',(0.,-1.,0.));
#777=DIRECTION('ref_axis',(-1.,0.,0.));
#778=DIRECTION('',(0.,-1.,0.));
#779=DIRECTION('center_axis',(0.,-1.,0.));
#780=DIRECTION('ref_axis',(-1.,0.,0.));
#781=DIRECTION('center_axis',(1.,0.,0.));
#782=DIRECTION('ref_axis',(0.,0.,-1.));
#783=DIRECTION('center_axis',(1.,0.,0.));
#784=DIRECTION('ref_axis',(0.,0.,-1.));
#785=DIRECTION('',(0.,1.,0.));
#786=DIRECTION('center_axis',(0.,0.,1.));
#787=DIRECTION('ref_axis',(1.,0.,0.));
#788=DIRECTION('center_axis',(0.,1.,0.));
#789=DIRECTION('ref_axis',(-1.,0.,0.));
#790=DIRECTION('',(0.,0.,1.));
#791=DIRECTION('',(1.,0.,0.));
#792=CARTESIAN_POINT('',(0.,0.,0.));
#793=CARTESIAN_POINT('',(0.,0.,0.));
#794=CARTESIAN_POINT('Origin',(25.,1.30000000000003,-18.6));
#795=CARTESIAN_POINT('',(19.5000000000001,1.30000000000002,-17.));
#796=CARTESIAN_POINT('Origin',(19.5000000000001,1.30000000000002,-18.6));
#797=CARTESIAN_POINT('',(15.,1.30000000000002,-17.));
#798=CARTESIAN_POINT('',(25.,1.30000000000003,-17.));
#799=CARTESIAN_POINT('Origin',(15.,1.30000000000002,-18.6));
#800=CARTESIAN_POINT('Origin',(15.,1.30000000000002,-18.6));
#801=CARTESIAN_POINT('Origin',(9.99999999999997,-1.70000000000001,-40.));
#802=CARTESIAN_POINT('',(11.6,-1.70000000000001,-30.));
#803=CARTESIAN_POINT('Origin',(9.99999999999998,-1.70000000000001,-30.));
#804=CARTESIAN_POINT('',(11.6,-1.70000000000001,-25.));
#805=CARTESIAN_POINT('',(11.6,-1.70000000000001,-40.));
#806=CARTESIAN_POINT('Origin',(9.99999999999998,-1.70000000000001,-25.));
#807=CARTESIAN_POINT('Origin',(9.99999999999998,-1.70000000000001,-25.));
#808=CARTESIAN_POINT('Origin',(-10.,-1.7,-40.));
#809=CARTESIAN_POINT('',(-8.40000000000002,-1.7,-30.));
#810=CARTESIAN_POINT('Origin',(-10.,-1.7,-30.));
#811=CARTESIAN_POINT('',(-8.40000000000002,-1.7,-25.));
#812=CARTESIAN_POINT('',(-8.40000000000003,-1.7,-40.));
#813=CARTESIAN_POINT('Origin',(-10.,-1.7,-25.));
#814=CARTESIAN_POINT('Origin',(-10.,-1.7,-25.));
#815=CARTESIAN_POINT('Origin',(-25.,1.30000000000001,-18.6));
#816=CARTESIAN_POINT('',(-19.5,1.30000000000001,-20.2));
#817=CARTESIAN_POINT('Origin',(-19.5,1.30000000000001,-18.6));
#818=CARTESIAN_POINT('',(-15.,1.30000000000001,-20.2));
#819=CARTESIAN_POINT('',(-25.,1.30000000000001,-20.2));
#820=CARTESIAN_POINT('Origin',(-15.,1.30000000000001,-18.6));
#821=CARTESIAN_POINT('Origin',(-15.,1.30000000000001,-18.6));
#822=CARTESIAN_POINT('Origin',(14.5,37.3,25.));
#823=CARTESIAN_POINT('',(16.1,4.5,25.));
#824=CARTESIAN_POINT('Origin',(14.5,4.5,25.));
#825=CARTESIAN_POINT('',(16.1,-7.7,25.));
#826=CARTESIAN_POINT('',(16.1,37.3,25.));
#827=CARTESIAN_POINT('Origin',(14.5,-7.7,25.));
#828=CARTESIAN_POINT('Origin',(14.5,37.3,-25.));
#829=CARTESIAN_POINT('',(16.1,4.5,-25.));
#830=CARTESIAN_POINT('Origin',(14.5,4.5,-25.));
#831=CARTESIAN_POINT('',(16.1,-7.7,-25.));
#832=CARTESIAN_POINT('',(16.1,37.3,-25.));
#833=CARTESIAN_POINT('Origin',(14.5,-7.7,-25.));
#834=CARTESIAN_POINT('Origin',(-14.5,37.3,25.));
#835=CARTESIAN_POINT('',(-12.9,4.5,25.));
#836=CARTESIAN_POINT('Origin',(-14.5,4.5,25.));
#837=CARTESIAN_POINT('',(-12.9,-7.7,25.));
#838=CARTESIAN_POINT('',(-12.9,37.3,25.));
#839=CARTESIAN_POINT('Origin',(-14.5,-7.7,25.));
#840=CARTESIAN_POINT('Origin',(-14.5,37.3,-25.));
#841=CARTESIAN_POINT('',(-12.9,4.5,-25.));
#842=CARTESIAN_POINT('Origin',(-14.5,4.5,-25.));
#843=CARTESIAN_POINT('',(-12.9,-7.7,-25.));
#844=CARTESIAN_POINT('',(-12.9,37.3,-25.));
#845=CARTESIAN_POINT('Origin',(-14.5,-7.7,-25.));
#846=CARTESIAN_POINT('Origin',(0.,-7.2,10.2));
#847=CARTESIAN_POINT('',(-6.,-7.7,10.2));
#848=CARTESIAN_POINT('Origin',(0.,-7.7,10.2));
#849=CARTESIAN_POINT('',(-5.,-6.7,10.2));
#850=CARTESIAN_POINT('',(-5.5,-7.2,10.2));
#851=CARTESIAN_POINT('Origin',(0.,-6.7,10.2));
#852=CARTESIAN_POINT('Origin',(0.,-7.7,0.));
#853=CARTESIAN_POINT('',(19.5,-7.7,30.));
#854=CARTESIAN_POINT('',(-19.5,-7.7,30.));
#855=CARTESIAN_POINT('',(19.5,-7.7,30.));
#856=CARTESIAN_POINT('',(-19.5,-7.7,-30.));
#857=CARTESIAN_POINT('',(-19.5,-7.7,30.));
#858=CARTESIAN_POINT('',(19.5,-7.7,-30.));
#859=CARTESIAN_POINT('',(-19.5,-7.7,-30.));
#860=CARTESIAN_POINT('',(19.5,-7.7,-30.));
#861=CARTESIAN_POINT('Origin',(0.,-0.2,0.));
#862=CARTESIAN_POINT('',(-9.5,-0.2,-20.));
#863=CARTESIAN_POINT('',(9.5,-0.2,-20.));
#864=CARTESIAN_POINT('',(-4.75,-0.2,-20.));
#865=CARTESIAN_POINT('',(-9.5,-0.2,20.));
#866=CARTESIAN_POINT('',(-9.5,-0.2,10.));
#867=CARTESIAN_POINT('',(9.5,-0.2,20.));
#868=CARTESIAN_POINT('',(4.75,-0.2,20.));
#869=CARTESIAN_POINT('',(9.5,-0.2,-10.));
#870=CARTESIAN_POINT('',(8.49999999999998,-0.2,10.2000000000005));
#871=CARTESIAN_POINT('Origin',(-2.36269337428041E-14,-0.2,10.2000000000005));
#872=CARTESIAN_POINT('Origin',(-9.5,-3.7,-20.));
#873=CARTESIAN_POINT('',(9.5,4.5,-20.));
#874=CARTESIAN_POINT('',(9.5,3.8,-20.));
#875=CARTESIAN_POINT('',(-9.5,4.5,-20.));
#876=CARTESIAN_POINT('',(-4.75,4.5,-20.));
#877=CARTESIAN_POINT('',(-9.5,0.3,-20.));
#878=CARTESIAN_POINT('Origin',(9.5,-3.7,-20.));
#879=CARTESIAN_POINT('',(9.5,4.5,20.));
#880=CARTESIAN_POINT('',(9.5,-0.7,20.));
#881=CARTESIAN_POINT('',(9.5,4.5,-10.));
#882=CARTESIAN_POINT('Origin',(0.,4.5,0.));
#883=CARTESIAN_POINT('',(3.5,4.5,20.));
#884=CARTESIAN_POINT('',(3.5,4.5,30.));
#885=CARTESIAN_POINT('',(3.5,4.5,10.5));
#886=CARTESIAN_POINT('',(19.5,4.5,30.));
#887=CARTESIAN_POINT('',(-9.75,4.5,30.));
#888=CARTESIAN_POINT('',(19.5,4.5,-30.));
#889=CARTESIAN_POINT('',(19.5,4.5,15.));
#890=CARTESIAN_POINT('',(-19.5,4.5,-30.));
#891=CARTESIAN_POINT('',(9.75,4.5,-30.));
#892=CARTESIAN_POINT('',(-19.5,4.5,30.));
#893=CARTESIAN_POINT('',(-19.5,4.5,-15.));
#894=CARTESIAN_POINT('',(-3.5,4.5,30.));
#895=CARTESIAN_POINT('',(-9.75,4.5,30.));
#896=CARTESIAN_POINT('',(-3.5,4.5,20.));
#897=CARTESIAN_POINT('',(-3.5,4.5,10.5));
#898=CARTESIAN_POINT('',(-9.5,4.5,20.));
#899=CARTESIAN_POINT('',(4.75,4.5,20.));
#900=CARTESIAN_POINT('',(-9.5,4.5,10.));
#901=CARTESIAN_POINT('',(4.75,4.5,20.));
#902=CARTESIAN_POINT('Origin',(9.5,-3.7,20.));
#903=CARTESIAN_POINT('',(3.5,3.3,20.));
#904=CARTESIAN_POINT('',(3.5,0.4,20.));
#905=CARTESIAN_POINT('',(-9.5,-0.7,20.));
#906=CARTESIAN_POINT('',(-3.5,3.3,20.));
#907=CARTESIAN_POINT('',(-3.5,-0.200000000000001,20.));
#908=CARTESIAN_POINT('',(-3.,2.8,20.));
#909=CARTESIAN_POINT('Origin',(-3.,3.3,20.));
#910=CARTESIAN_POINT('',(3.,2.8,20.));
#911=CARTESIAN_POINT('',(6.25,2.8,20.));
#912=CARTESIAN_POINT('Origin',(3.,3.3,20.));
#913=CARTESIAN_POINT('Origin',(-3.5,6.3,21.));
#914=CARTESIAN_POINT('',(-3.5,3.3,30.));
#915=CARTESIAN_POINT('',(-3.5,3.8,30.));
#916=CARTESIAN_POINT('',(-3.5,3.3,21.));
#917=CARTESIAN_POINT('Origin',(3.5,3.3,21.));
#918=CARTESIAN_POINT('',(3.5,3.3,30.));
#919=CARTESIAN_POINT('',(3.5,3.3,21.));
#920=CARTESIAN_POINT('',(3.5,3.8,30.));
#921=CARTESIAN_POINT('Origin',(3.,3.3,21.));
#922=CARTESIAN_POINT('',(3.,2.8,30.));
#923=CARTESIAN_POINT('',(3.,2.8,21.));
#924=CARTESIAN_POINT('Origin',(3.,3.3,30.));
#925=CARTESIAN_POINT('Origin',(-3.,2.8,21.));
#926=CARTESIAN_POINT('',(-3.,2.8,30.));
#927=CARTESIAN_POINT('',(-3.,2.8,21.));
#928=CARTESIAN_POINT('',(-11.25,2.8,30.));
#929=CARTESIAN_POINT('Origin',(-3.,3.3,21.));
#930=CARTESIAN_POINT('Origin',(-3.,3.3,30.));
#931=CARTESIAN_POINT('Origin',(-19.5,-3.7,-30.));
#932=CARTESIAN_POINT('',(-19.5,-3.7,-30.));
#933=CARTESIAN_POINT('',(-19.5,-3.7,30.));
#934=CARTESIAN_POINT('Origin',(19.5,-3.7,-30.));
#935=CARTESIAN_POINT('',(19.5,-3.7,-30.));
#936=CARTESIAN_POINT('Origin',(-2.36269337428041E-14,-0.4,10.2000000000005));
#937=CARTESIAN_POINT('',(8.49999999999998,-6.7,10.2000000000005));
#938=CARTESIAN_POINT('',(8.49999999999998,-0.4,10.2000000000005));
#939=CARTESIAN_POINT('Origin',(-2.36269337428041E-14,-6.7,10.2000000000005));
#940=CARTESIAN_POINT('Origin',(-9.5,-3.7,20.));
#941=CARTESIAN_POINT('Origin',(19.5,-3.7,30.));
#942=CARTESIAN_POINT('',(19.5,-3.7,30.));
#943=CARTESIAN_POINT('Origin',(-19.5,-3.7,30.));
#944=CARTESIAN_POINT('Origin',(-2.33146835171283E-14,-6.7,10.2000000000005));
#945=CARTESIAN_POINT('',(0.,0.,0.));
#946=UNCERTAINTY_MEASURE_WITH_UNIT(LENGTH_MEASURE(0.01),#952,
'DISTANCE_ACCURACY_VALUE',
'Maximum model space distance between geometric entities at asserted c
onnectivities');
#947=UNCERTAINTY_MEASURE_WITH_UNIT(LENGTH_MEASURE(0.01),#952,
'DISTANCE_ACCURACY_VALUE',
'Maximum model space distance between geometric entities at asserted c
onnectivities');
#948=UNCERTAINTY_MEASURE_WITH_UNIT(LENGTH_MEASURE(0.01),#952,
'DISTANCE_ACCURACY_VALUE',
'Maximum model space distance between geometric entities at asserted c
onnectivities');
#949=(
GEOMETRIC_REPRESENTATION_CONTEXT(3)
GLOBAL_UNCERTAINTY_ASSIGNED_CONTEXT((#946))
GLOBAL_UNIT_ASSIGNED_CONTEXT((#952,#954,#955))
REPRESENTATION_CONTEXT('','3D')
);
#950=(
GEOMETRIC_REPRESENTATION_CONTEXT(3)
GLOBAL_UNCERTAINTY_ASSIGNED_CONTEXT((#947))
GLOBAL_UNIT_ASSIGNED_CONTEXT((#952,#954,#955))
REPRESENTATION_CONTEXT('','3D')
);
#951=(
GEOMETRIC_REPRESENTATION_CONTEXT(3)
GLOBAL_UNCERTAINTY_ASSIGNED_CONTEXT((#948))
GLOBAL_UNIT_ASSIGNED_CONTEXT((#952,#954,#955))
REPRESENTATION_CONTEXT('','3D')
);
#952=(
LENGTH_UNIT()
NAMED_UNIT(*)
SI_UNIT(.MILLI.,.METRE.)
);
#953=(
LENGTH_UNIT()
NAMED_UNIT(*)
SI_UNIT($,.METRE.)
);
#954=(
NAMED_UNIT(*)
PLANE_ANGLE_UNIT()
SI_UNIT($,.RADIAN.)
);
#955=(
NAMED_UNIT(*)
SI_UNIT($,.STERADIAN.)
SOLID_ANGLE_UNIT()
);
#956=SHAPE_DEFINITION_REPRESENTATION(#958,#961);
#957=SHAPE_DEFINITION_REPRESENTATION(#959,#962);
#958=PRODUCT_DEFINITION_SHAPE('',$,#964);
#959=PRODUCT_DEFINITION_SHAPE('',$,#965);
#960=PRODUCT_DEFINITION_SHAPE($,$,#14);
#961=SHAPE_REPRESENTATION('',(#570,#627),#949);
#962=SHAPE_REPRESENTATION('',(#571),#950);
#963=PRODUCT_DEFINITION_CONTEXT('part definition',#971,'design');
#964=PRODUCT_DEFINITION('Servo Mount Coxa  Joint Bottom',
'Servo Mount Coxa  Joint Bottom v3',#966,#963);
#965=PRODUCT_DEFINITION('Component2','Component2',#967,#963);
#966=PRODUCT_DEFINITION_FORMATION('',$,#973);
#967=PRODUCT_DEFINITION_FORMATION('',$,#974);
#968=PRODUCT_RELATED_PRODUCT_CATEGORY(
'Servo Mount Coxa  Joint Bottom v3','Servo Mount Coxa  Joint Bottom v3',
(#973));
#969=PRODUCT_RELATED_PRODUCT_CATEGORY('Component2','Component2',(#974));
#970=APPLICATION_PROTOCOL_DEFINITION('international standard',
'automotive_design',2009,#971);
#971=APPLICATION_CONTEXT(
'Core Data for Automotive Mechanical Design Process');
#972=PRODUCT_CONTEXT('part definition',#971,'mechanical');
#973=PRODUCT('Servo Mount Coxa  Joint Bottom',
'Servo Mount Coxa  Joint Bottom v3',$,(#972));
#974=PRODUCT('Component2','Component2',$,(#972));
#975=PRESENTATION_STYLE_ASSIGNMENT((#977));
#976=PRESENTATION_STYLE_ASSIGNMENT((#978));
#977=SURFACE_STYLE_USAGE(.BOTH.,#979);
#978=SURFACE_STYLE_USAGE(.BOTH.,#980);
#979=SURFACE_SIDE_STYLE('',(#981));
#980=SURFACE_SIDE_STYLE('',(#982));
#981=SURFACE_STYLE_FILL_AREA(#983);
#982=SURFACE_STYLE_FILL_AREA(#984);
#983=FILL_AREA_STYLE('Steel - Satin',(#985));
#984=FILL_AREA_STYLE('Nylon 12 (with Formlabs Fuse 1 3D Printer)',(#986));
#985=FILL_AREA_STYLE_COLOUR('Steel - Satin',#987);
#986=FILL_AREA_STYLE_COLOUR(
'Nylon 12 (with Formlabs Fuse 1 3D Printer)',#988);
#987=COLOUR_RGB('Steel - Satin',0.627450980392157,0.627450980392157,0.627450980392157);
#988=COLOUR_RGB('Nylon 12 (with Formlabs Fuse 1 3D Printer)',0.247058823529412,
0.247058823529412,0.247058823529412);
ENDSEC;
END-ISO-10303-21;
