ISO-10303-21;
HEADER;
/* Generated by software containing ST-Developer
 * from STEP Tools, Inc. (www.steptools.com) 
 */

FILE_DESCRIPTION(
/* description */ (''),
/* implementation_level */ '2;1');

FILE_NAME(
/* name */ 'Servo Mount Femur Bottom.step',
/* time_stamp */ '2026-09-01T13:48:10+04:00',
/* author */ (''),
/* organization */ (''),
/* preprocessor_version */ 'ST-DEVELOPER v20.1',
/* originating_system */ 'Autodesk Translation Framework v15.8.0.0',
/* authorisation */ '');

FILE_SCHEMA (('AUTOMOTIVE_DESIGN { 1 0 10303 214 3 1 1 }'));
ENDSEC;

DATA;
#10=MECHANICAL_DESIGN_GEOMETRIC_PRESENTATION_REPRESENTATION('',(#17),#861);
#11=ITEM_DEFINED_TRANSFORMATION($,$,#521,#569);
#12=(
REPRESENTATION_RELATIONSHIP($,$,#872,#871)
REPRESENTATION_RELATIONSHIP_WITH_TRANSFORMATION(#11)
SHAPE_REPRESENTATION_RELATIONSHIP()
);
#13=CONTEXT_DEPENDENT_SHAPE_REPRESENTATION(#12,#870);
#14=NEXT_ASSEMBLY_USAGE_OCCURRENCE('Component2:1','Component2:1',
'Component2:1',#874,#875,'Component2:1');
#15=SHAPE_REPRESENTATION_RELATIONSHIP('SRR','None',#872,#16);
#16=ADVANCED_BREP_SHAPE_REPRESENTATION('',(#18),#860);
#17=STYLED_ITEM('',(#886),#18);
#18=MANIFOLD_SOLID_BREP('Body1',#507);
#19=FACE_BOUND('',#87,.T.);
#20=FACE_BOUND('',#88,.T.);
#21=FACE_BOUND('',#89,.T.);
#22=FACE_BOUND('',#90,.T.);
#23=FACE_BOUND('',#91,.T.);
#24=FACE_BOUND('',#93,.T.);
#25=FACE_BOUND('',#97,.T.);
#26=FACE_BOUND('',#98,.T.);
#27=FACE_BOUND('',#99,.T.);
#28=FACE_BOUND('',#100,.T.);
#29=FACE_BOUND('',#109,.T.);
#30=FACE_BOUND('',#110,.T.);
#31=FACE_BOUND('',#116,.T.);
#32=CONICAL_SURFACE('',#542,5.5,0.785398163397448);
#33=PLANE('',#525);
#34=PLANE('',#529);
#35=PLANE('',#545);
#36=PLANE('',#546);
#37=PLANE('',#548);
#38=PLANE('',#549);
#39=PLANE('',#550);
#40=PLANE('',#551);
#41=PLANE('',#554);
#42=PLANE('',#555);
#43=PLANE('',#558);
#44=PLANE('',#561);
#45=PLANE('',#562);
#46=PLANE('',#565);
#47=PLANE('',#566);
#48=PLANE('',#567);
#49=PLANE('',#568);
#50=FACE_OUTER_BOUND('',#77,.T.);
#51=FACE_OUTER_BOUND('',#78,.T.);
#52=FACE_OUTER_BOUND('',#79,.T.);
#53=FACE_OUTER_BOUND('',#80,.T.);
#54=FACE_OUTER_BOUND('',#81,.T.);
#55=FACE_OUTER_BOUND('',#82,.T.);
#56=FACE_OUTER_BOUND('',#83,.T.);
#57=FACE_OUTER_BOUND('',#84,.T.);
#58=FACE_OUTER_BOUND('',#85,.T.);
#59=FACE_OUTER_BOUND('',#86,.T.);
#60=FACE_OUTER_BOUND('',#92,.T.);
#61=FACE_OUTER_BOUND('',#94,.T.);
#62=FACE_OUTER_BOUND('',#95,.T.);
#63=FACE_OUTER_BOUND('',#96,.T.);
#64=FACE_OUTER_BOUND('',#101,.T.);
#65=FACE_OUTER_BOUND('',#102,.T.);
#66=FACE_OUTER_BOUND('',#103,.T.);
#67=FACE_OUTER_BOUND('',#104,.T.);
#68=FACE_OUTER_BOUND('',#105,.T.);
#69=FACE_OUTER_BOUND('',#106,.T.);
#70=FACE_OUTER_BOUND('',#107,.T.);
#71=FACE_OUTER_BOUND('',#108,.T.);
#72=FACE_OUTER_BOUND('',#111,.T.);
#73=FACE_OUTER_BOUND('',#112,.T.);
#74=FACE_OUTER_BOUND('',#113,.T.);
#75=FACE_OUTER_BOUND('',#114,.T.);
#76=FACE_OUTER_BOUND('',#115,.T.);
#77=EDGE_LOOP('',(#339,#340,#341,#342));
#78=EDGE_LOOP('',(#343));
#79=EDGE_LOOP('',(#344,#345,#346,#347));
#80=EDGE_LOOP('',(#348));
#81=EDGE_LOOP('',(#349,#350,#351,#352));
#82=EDGE_LOOP('',(#353,#354,#355,#356));
#83=EDGE_LOOP('',(#357,#358,#359,#360));
#84=EDGE_LOOP('',(#361,#362,#363,#364));
#85=EDGE_LOOP('',(#365,#366,#367,#368));
#86=EDGE_LOOP('',(#369,#370,#371,#372));
#87=EDGE_LOOP('',(#373));
#88=EDGE_LOOP('',(#374));
#89=EDGE_LOOP('',(#375));
#90=EDGE_LOOP('',(#376));
#91=EDGE_LOOP('',(#377));
#92=EDGE_LOOP('',(#378,#379,#380,#381));
#93=EDGE_LOOP('',(#382));
#94=EDGE_LOOP('',(#383,#384,#385,#386));
#95=EDGE_LOOP('',(#387,#388,#389,#390));
#96=EDGE_LOOP('',(#391,#392,#393,#394,#395,#396,#397,#398,#399,#400,#401,
#402));
#97=EDGE_LOOP('',(#403));
#98=EDGE_LOOP('',(#404));
#99=EDGE_LOOP('',(#405));
#100=EDGE_LOOP('',(#406));
#101=EDGE_LOOP('',(#407,#408,#409,#410,#411,#412,#413,#414,#415,#416));
#102=EDGE_LOOP('',(#417,#418,#419,#420));
#103=EDGE_LOOP('',(#421,#422,#423,#424));
#104=EDGE_LOOP('',(#425,#426,#427,#428));
#105=EDGE_LOOP('',(#429,#430,#431,#432));
#106=EDGE_LOOP('',(#433,#434,#435,#436));
#107=EDGE_LOOP('',(#437,#438,#439,#440));
#108=EDGE_LOOP('',(#441,#442,#443,#444));
#109=EDGE_LOOP('',(#445));
#110=EDGE_LOOP('',(#446));
#111=EDGE_LOOP('',(#447,#448,#449,#450));
#112=EDGE_LOOP('',(#451,#452,#453,#454));
#113=EDGE_LOOP('',(#455,#456,#457,#458));
#114=EDGE_LOOP('',(#459,#460,#461,#462,#463,#464,#465,#466,#467,#468));
#115=EDGE_LOOP('',(#469));
#116=EDGE_LOOP('',(#470));
#117=LINE('',#722,#163);
#118=LINE('',#729,#164);
#119=LINE('',#736,#165);
#120=LINE('',#742,#166);
#121=LINE('',#748,#167);
#122=LINE('',#754,#168);
#123=LINE('',#760,#169);
#124=LINE('',#765,#170);
#125=LINE('',#767,#171);
#126=LINE('',#769,#172);
#127=LINE('',#770,#173);
#128=LINE('',#774,#174);
#129=LINE('',#776,#175);
#130=LINE('',#778,#176);
#131=LINE('',#779,#177);
#132=LINE('',#784,#178);
#133=LINE('',#786,#179);
#134=LINE('',#787,#180);
#135=LINE('',#790,#181);
#136=LINE('',#791,#182);
#137=LINE('',#795,#183);
#138=LINE('',#797,#184);
#139=LINE('',#799,#185);
#140=LINE('',#801,#186);
#141=LINE('',#803,#187);
#142=LINE('',#805,#188);
#143=LINE('',#807,#189);
#144=LINE('',#809,#190);
#145=LINE('',#810,#191);
#146=LINE('',#811,#192);
#147=LINE('',#814,#193);
#148=LINE('',#815,#194);
#149=LINE('',#817,#195);
#150=LINE('',#821,#196);
#151=LINE('',#825,#197);
#152=LINE('',#826,#198);
#153=LINE('',#829,#199);
#154=LINE('',#830,#200);
#155=LINE('',#833,#201);
#156=LINE('',#837,#202);
#157=LINE('',#838,#203);
#158=LINE('',#842,#204);
#159=LINE('',#843,#205);
#160=LINE('',#845,#206);
#161=LINE('',#848,#207);
#162=LINE('',#852,#208);
#163=VECTOR('',#578,1.6);
#164=VECTOR('',#587,1.6);
#165=VECTOR('',#596,1.6);
#166=VECTOR('',#603,1.6);
#167=VECTOR('',#610,1.6);
#168=VECTOR('',#617,1.6);
#169=VECTOR('',#624,5.5);
#170=VECTOR('',#629,10.);
#171=VECTOR('',#630,10.);
#172=VECTOR('',#631,10.);
#173=VECTOR('',#632,10.);
#174=VECTOR('',#635,10.);
#175=VECTOR('',#636,10.);
#176=VECTOR('',#637,10.);
#177=VECTOR('',#638,10.);
#178=VECTOR('',#643,10.);
#179=VECTOR('',#644,10.);
#180=VECTOR('',#645,10.);
#181=VECTOR('',#648,10.);
#182=VECTOR('',#649,10.);
#183=VECTOR('',#652,10.);
#184=VECTOR('',#653,10.);
#185=VECTOR('',#654,10.);
#186=VECTOR('',#655,10.);
#187=VECTOR('',#656,10.);
#188=VECTOR('',#657,10.);
#189=VECTOR('',#658,10.);
#190=VECTOR('',#659,10.);
#191=VECTOR('',#660,10.);
#192=VECTOR('',#661,10.);
#193=VECTOR('',#664,10.);
#194=VECTOR('',#665,10.);
#195=VECTOR('',#666,10.);
#196=VECTOR('',#669,10.);
#197=VECTOR('',#674,10.);
#198=VECTOR('',#675,10.);
#199=VECTOR('',#678,10.);
#200=VECTOR('',#679,10.);
#201=VECTOR('',#682,10.);
#202=VECTOR('',#687,10.);
#203=VECTOR('',#688,10.);
#204=VECTOR('',#695,10.);
#205=VECTOR('',#696,10.);
#206=VECTOR('',#699,10.);
#207=VECTOR('',#702,8.5);
#208=VECTOR('',#709,10.);
#209=CIRCLE('',#523,1.6);
#210=CIRCLE('',#524,1.6);
#211=CIRCLE('',#527,1.6);
#212=CIRCLE('',#528,1.6);
#213=CIRCLE('',#531,1.6);
#214=CIRCLE('',#532,1.6);
#215=CIRCLE('',#534,1.6);
#216=CIRCLE('',#535,1.6);
#217=CIRCLE('',#537,1.6);
#218=CIRCLE('',#538,1.6);
#219=CIRCLE('',#540,1.6);
#220=CIRCLE('',#541,1.6);
#221=CIRCLE('',#543,6.);
#222=CIRCLE('',#544,5.);
#223=CIRCLE('',#547,8.5);
#224=CIRCLE('',#552,0.5);
#225=CIRCLE('',#553,0.5);
#226=CIRCLE('',#557,0.5);
#227=CIRCLE('',#560,0.5);
#228=CIRCLE('',#564,8.5);
#229=VERTEX_POINT('',#719);
#230=VERTEX_POINT('',#721);
#231=VERTEX_POINT('',#726);
#232=VERTEX_POINT('',#728);
#233=VERTEX_POINT('',#733);
#234=VERTEX_POINT('',#735);
#235=VERTEX_POINT('',#739);
#236=VERTEX_POINT('',#741);
#237=VERTEX_POINT('',#745);
#238=VERTEX_POINT('',#747);
#239=VERTEX_POINT('',#751);
#240=VERTEX_POINT('',#753);
#241=VERTEX_POINT('',#757);
#242=VERTEX_POINT('',#759);
#243=VERTEX_POINT('',#763);
#244=VERTEX_POINT('',#764);
#245=VERTEX_POINT('',#766);
#246=VERTEX_POINT('',#768);
#247=VERTEX_POINT('',#772);
#248=VERTEX_POINT('',#773);
#249=VERTEX_POINT('',#775);
#250=VERTEX_POINT('',#777);
#251=VERTEX_POINT('',#780);
#252=VERTEX_POINT('',#783);
#253=VERTEX_POINT('',#785);
#254=VERTEX_POINT('',#789);
#255=VERTEX_POINT('',#793);
#256=VERTEX_POINT('',#794);
#257=VERTEX_POINT('',#796);
#258=VERTEX_POINT('',#798);
#259=VERTEX_POINT('',#800);
#260=VERTEX_POINT('',#802);
#261=VERTEX_POINT('',#804);
#262=VERTEX_POINT('',#806);
#263=VERTEX_POINT('',#808);
#264=VERTEX_POINT('',#813);
#265=VERTEX_POINT('',#816);
#266=VERTEX_POINT('',#818);
#267=VERTEX_POINT('',#820);
#268=VERTEX_POINT('',#824);
#269=VERTEX_POINT('',#828);
#270=VERTEX_POINT('',#832);
#271=VERTEX_POINT('',#836);
#272=VERTEX_POINT('',#847);
#273=EDGE_CURVE('',#229,#229,#209,.T.);
#274=EDGE_CURVE('',#229,#230,#117,.T.);
#275=EDGE_CURVE('',#230,#230,#210,.T.);
#276=EDGE_CURVE('',#231,#231,#211,.T.);
#277=EDGE_CURVE('',#231,#232,#118,.T.);
#278=EDGE_CURVE('',#232,#232,#212,.T.);
#279=EDGE_CURVE('',#233,#233,#213,.T.);
#280=EDGE_CURVE('',#233,#234,#119,.T.);
#281=EDGE_CURVE('',#234,#234,#214,.T.);
#282=EDGE_CURVE('',#235,#235,#215,.T.);
#283=EDGE_CURVE('',#235,#236,#120,.T.);
#284=EDGE_CURVE('',#236,#236,#216,.T.);
#285=EDGE_CURVE('',#237,#237,#217,.T.);
#286=EDGE_CURVE('',#237,#238,#121,.T.);
#287=EDGE_CURVE('',#238,#238,#218,.T.);
#288=EDGE_CURVE('',#239,#239,#219,.T.);
#289=EDGE_CURVE('',#239,#240,#122,.T.);
#290=EDGE_CURVE('',#240,#240,#220,.T.);
#291=EDGE_CURVE('',#241,#241,#221,.T.);
#292=EDGE_CURVE('',#241,#242,#123,.T.);
#293=EDGE_CURVE('',#242,#242,#222,.T.);
#294=EDGE_CURVE('',#243,#244,#124,.T.);
#295=EDGE_CURVE('',#244,#245,#125,.T.);
#296=EDGE_CURVE('',#245,#246,#126,.T.);
#297=EDGE_CURVE('',#246,#243,#127,.T.);
#298=EDGE_CURVE('',#247,#248,#128,.T.);
#299=EDGE_CURVE('',#249,#247,#129,.T.);
#300=EDGE_CURVE('',#250,#249,#130,.T.);
#301=EDGE_CURVE('',#248,#250,#131,.T.);
#302=EDGE_CURVE('',#251,#251,#223,.T.);
#303=EDGE_CURVE('',#248,#252,#132,.T.);
#304=EDGE_CURVE('',#253,#252,#133,.T.);
#305=EDGE_CURVE('',#253,#247,#134,.T.);
#306=EDGE_CURVE('',#254,#250,#135,.T.);
#307=EDGE_CURVE('',#252,#254,#136,.T.);
#308=EDGE_CURVE('',#255,#256,#137,.T.);
#309=EDGE_CURVE('',#256,#257,#138,.T.);
#310=EDGE_CURVE('',#257,#258,#139,.T.);
#311=EDGE_CURVE('',#258,#259,#140,.T.);
#312=EDGE_CURVE('',#259,#260,#141,.T.);
#313=EDGE_CURVE('',#260,#261,#142,.T.);
#314=EDGE_CURVE('',#261,#262,#143,.T.);
#315=EDGE_CURVE('',#262,#263,#144,.T.);
#316=EDGE_CURVE('',#263,#253,#145,.T.);
#317=EDGE_CURVE('',#254,#255,#146,.T.);
#318=EDGE_CURVE('',#264,#255,#147,.T.);
#319=EDGE_CURVE('',#263,#249,#148,.T.);
#320=EDGE_CURVE('',#262,#265,#149,.T.);
#321=EDGE_CURVE('',#265,#266,#224,.T.);
#322=EDGE_CURVE('',#266,#267,#150,.T.);
#323=EDGE_CURVE('',#267,#264,#225,.T.);
#324=EDGE_CURVE('',#268,#261,#151,.T.);
#325=EDGE_CURVE('',#265,#268,#152,.T.);
#326=EDGE_CURVE('',#269,#264,#153,.T.);
#327=EDGE_CURVE('',#269,#256,#154,.T.);
#328=EDGE_CURVE('',#270,#267,#155,.T.);
#329=EDGE_CURVE('',#269,#270,#226,.T.);
#330=EDGE_CURVE('',#271,#266,#156,.T.);
#331=EDGE_CURVE('',#270,#271,#157,.T.);
#332=EDGE_CURVE('',#271,#268,#227,.T.);
#333=EDGE_CURVE('',#259,#245,#158,.T.);
#334=EDGE_CURVE('',#260,#244,#159,.T.);
#335=EDGE_CURVE('',#258,#246,#160,.T.);
#336=EDGE_CURVE('',#251,#272,#161,.T.);
#337=EDGE_CURVE('',#272,#272,#228,.T.);
#338=EDGE_CURVE('',#243,#257,#162,.T.);
#339=ORIENTED_EDGE('',*,*,#273,.F.);
#340=ORIENTED_EDGE('',*,*,#274,.T.);
#341=ORIENTED_EDGE('',*,*,#275,.T.);
#342=ORIENTED_EDGE('',*,*,#274,.F.);
#343=ORIENTED_EDGE('',*,*,#275,.F.);
#344=ORIENTED_EDGE('',*,*,#276,.F.);
#345=ORIENTED_EDGE('',*,*,#277,.T.);
#346=ORIENTED_EDGE('',*,*,#278,.T.);
#347=ORIENTED_EDGE('',*,*,#277,.F.);
#348=ORIENTED_EDGE('',*,*,#278,.F.);
#349=ORIENTED_EDGE('',*,*,#279,.F.);
#350=ORIENTED_EDGE('',*,*,#280,.T.);
#351=ORIENTED_EDGE('',*,*,#281,.F.);
#352=ORIENTED_EDGE('',*,*,#280,.F.);
#353=ORIENTED_EDGE('',*,*,#282,.F.);
#354=ORIENTED_EDGE('',*,*,#283,.T.);
#355=ORIENTED_EDGE('',*,*,#284,.F.);
#356=ORIENTED_EDGE('',*,*,#283,.F.);
#357=ORIENTED_EDGE('',*,*,#285,.F.);
#358=ORIENTED_EDGE('',*,*,#286,.T.);
#359=ORIENTED_EDGE('',*,*,#287,.F.);
#360=ORIENTED_EDGE('',*,*,#286,.F.);
#361=ORIENTED_EDGE('',*,*,#288,.F.);
#362=ORIENTED_EDGE('',*,*,#289,.T.);
#363=ORIENTED_EDGE('',*,*,#290,.F.);
#364=ORIENTED_EDGE('',*,*,#289,.F.);
#365=ORIENTED_EDGE('',*,*,#291,.T.);
#366=ORIENTED_EDGE('',*,*,#292,.T.);
#367=ORIENTED_EDGE('',*,*,#293,.F.);
#368=ORIENTED_EDGE('',*,*,#292,.F.);
#369=ORIENTED_EDGE('',*,*,#294,.T.);
#370=ORIENTED_EDGE('',*,*,#295,.T.);
#371=ORIENTED_EDGE('',*,*,#296,.T.);
#372=ORIENTED_EDGE('',*,*,#297,.T.);
#373=ORIENTED_EDGE('',*,*,#291,.F.);
#374=ORIENTED_EDGE('',*,*,#290,.T.);
#375=ORIENTED_EDGE('',*,*,#287,.T.);
#376=ORIENTED_EDGE('',*,*,#284,.T.);
#377=ORIENTED_EDGE('',*,*,#281,.T.);
#378=ORIENTED_EDGE('',*,*,#298,.F.);
#379=ORIENTED_EDGE('',*,*,#299,.F.);
#380=ORIENTED_EDGE('',*,*,#300,.F.);
#381=ORIENTED_EDGE('',*,*,#301,.F.);
#382=ORIENTED_EDGE('',*,*,#302,.F.);
#383=ORIENTED_EDGE('',*,*,#303,.T.);
#384=ORIENTED_EDGE('',*,*,#304,.F.);
#385=ORIENTED_EDGE('',*,*,#305,.T.);
#386=ORIENTED_EDGE('',*,*,#298,.T.);
#387=ORIENTED_EDGE('',*,*,#306,.F.);
#388=ORIENTED_EDGE('',*,*,#307,.F.);
#389=ORIENTED_EDGE('',*,*,#303,.F.);
#390=ORIENTED_EDGE('',*,*,#301,.T.);
#391=ORIENTED_EDGE('',*,*,#308,.T.);
#392=ORIENTED_EDGE('',*,*,#309,.T.);
#393=ORIENTED_EDGE('',*,*,#310,.T.);
#394=ORIENTED_EDGE('',*,*,#311,.T.);
#395=ORIENTED_EDGE('',*,*,#312,.T.);
#396=ORIENTED_EDGE('',*,*,#313,.T.);
#397=ORIENTED_EDGE('',*,*,#314,.T.);
#398=ORIENTED_EDGE('',*,*,#315,.T.);
#399=ORIENTED_EDGE('',*,*,#316,.T.);
#400=ORIENTED_EDGE('',*,*,#304,.T.);
#401=ORIENTED_EDGE('',*,*,#307,.T.);
#402=ORIENTED_EDGE('',*,*,#317,.T.);
#403=ORIENTED_EDGE('',*,*,#288,.T.);
#404=ORIENTED_EDGE('',*,*,#285,.T.);
#405=ORIENTED_EDGE('',*,*,#282,.T.);
#406=ORIENTED_EDGE('',*,*,#279,.T.);
#407=ORIENTED_EDGE('',*,*,#318,.T.);
#408=ORIENTED_EDGE('',*,*,#317,.F.);
#409=ORIENTED_EDGE('',*,*,#306,.T.);
#410=ORIENTED_EDGE('',*,*,#300,.T.);
#411=ORIENTED_EDGE('',*,*,#319,.F.);
#412=ORIENTED_EDGE('',*,*,#315,.F.);
#413=ORIENTED_EDGE('',*,*,#320,.T.);
#414=ORIENTED_EDGE('',*,*,#321,.T.);
#415=ORIENTED_EDGE('',*,*,#322,.T.);
#416=ORIENTED_EDGE('',*,*,#323,.T.);
#417=ORIENTED_EDGE('',*,*,#324,.F.);
#418=ORIENTED_EDGE('',*,*,#325,.F.);
#419=ORIENTED_EDGE('',*,*,#320,.F.);
#420=ORIENTED_EDGE('',*,*,#314,.F.);
#421=ORIENTED_EDGE('',*,*,#326,.F.);
#422=ORIENTED_EDGE('',*,*,#327,.T.);
#423=ORIENTED_EDGE('',*,*,#308,.F.);
#424=ORIENTED_EDGE('',*,*,#318,.F.);
#425=ORIENTED_EDGE('',*,*,#328,.F.);
#426=ORIENTED_EDGE('',*,*,#329,.F.);
#427=ORIENTED_EDGE('',*,*,#326,.T.);
#428=ORIENTED_EDGE('',*,*,#323,.F.);
#429=ORIENTED_EDGE('',*,*,#330,.F.);
#430=ORIENTED_EDGE('',*,*,#331,.F.);
#431=ORIENTED_EDGE('',*,*,#328,.T.);
#432=ORIENTED_EDGE('',*,*,#322,.F.);
#433=ORIENTED_EDGE('',*,*,#325,.T.);
#434=ORIENTED_EDGE('',*,*,#332,.F.);
#435=ORIENTED_EDGE('',*,*,#330,.T.);
#436=ORIENTED_EDGE('',*,*,#321,.F.);
#437=ORIENTED_EDGE('',*,*,#333,.T.);
#438=ORIENTED_EDGE('',*,*,#295,.F.);
#439=ORIENTED_EDGE('',*,*,#334,.F.);
#440=ORIENTED_EDGE('',*,*,#312,.F.);
#441=ORIENTED_EDGE('',*,*,#335,.T.);
#442=ORIENTED_EDGE('',*,*,#296,.F.);
#443=ORIENTED_EDGE('',*,*,#333,.F.);
#444=ORIENTED_EDGE('',*,*,#311,.F.);
#445=ORIENTED_EDGE('',*,*,#273,.T.);
#446=ORIENTED_EDGE('',*,*,#276,.T.);
#447=ORIENTED_EDGE('',*,*,#302,.T.);
#448=ORIENTED_EDGE('',*,*,#336,.T.);
#449=ORIENTED_EDGE('',*,*,#337,.T.);
#450=ORIENTED_EDGE('',*,*,#336,.F.);
#451=ORIENTED_EDGE('',*,*,#305,.F.);
#452=ORIENTED_EDGE('',*,*,#316,.F.);
#453=ORIENTED_EDGE('',*,*,#319,.T.);
#454=ORIENTED_EDGE('',*,*,#299,.T.);
#455=ORIENTED_EDGE('',*,*,#338,.F.);
#456=ORIENTED_EDGE('',*,*,#297,.F.);
#457=ORIENTED_EDGE('',*,*,#335,.F.);
#458=ORIENTED_EDGE('',*,*,#310,.F.);
#459=ORIENTED_EDGE('',*,*,#324,.T.);
#460=ORIENTED_EDGE('',*,*,#313,.F.);
#461=ORIENTED_EDGE('',*,*,#334,.T.);
#462=ORIENTED_EDGE('',*,*,#294,.F.);
#463=ORIENTED_EDGE('',*,*,#338,.T.);
#464=ORIENTED_EDGE('',*,*,#309,.F.);
#465=ORIENTED_EDGE('',*,*,#327,.F.);
#466=ORIENTED_EDGE('',*,*,#329,.T.);
#467=ORIENTED_EDGE('',*,*,#331,.T.);
#468=ORIENTED_EDGE('',*,*,#332,.T.);
#469=ORIENTED_EDGE('',*,*,#337,.F.);
#470=ORIENTED_EDGE('',*,*,#293,.T.);
#471=CYLINDRICAL_SURFACE('',#522,1.6);
#472=CYLINDRICAL_SURFACE('',#526,1.6);
#473=CYLINDRICAL_SURFACE('',#530,1.6);
#474=CYLINDRICAL_SURFACE('',#533,1.6);
#475=CYLINDRICAL_SURFACE('',#536,1.6);
#476=CYLINDRICAL_SURFACE('',#539,1.6);
#477=CYLINDRICAL_SURFACE('',#556,0.5);
#478=CYLINDRICAL_SURFACE('',#559,0.5);
#479=CYLINDRICAL_SURFACE('',#563,8.5);
#480=ADVANCED_FACE('',(#50),#471,.F.);
#481=ADVANCED_FACE('',(#51),#33,.T.);
#482=ADVANCED_FACE('',(#52),#472,.F.);
#483=ADVANCED_FACE('',(#53),#34,.T.);
#484=ADVANCED_FACE('',(#54),#473,.F.);
#485=ADVANCED_FACE('',(#55),#474,.F.);
#486=ADVANCED_FACE('',(#56),#475,.F.);
#487=ADVANCED_FACE('',(#57),#476,.F.);
#488=ADVANCED_FACE('',(#58),#32,.F.);
#489=ADVANCED_FACE('',(#59,#19,#20,#21,#22,#23),#35,.T.);
#490=ADVANCED_FACE('',(#60,#24),#36,.F.);
#491=ADVANCED_FACE('',(#61),#37,.T.);
#492=ADVANCED_FACE('',(#62),#38,.T.);
#493=ADVANCED_FACE('',(#63,#25,#26,#27,#28),#39,.T.);
#494=ADVANCED_FACE('',(#64),#40,.T.);
#495=ADVANCED_FACE('',(#65),#41,.F.);
#496=ADVANCED_FACE('',(#66),#42,.F.);
#497=ADVANCED_FACE('',(#67),#477,.F.);
#498=ADVANCED_FACE('',(#68),#43,.F.);
#499=ADVANCED_FACE('',(#69),#478,.F.);
#500=ADVANCED_FACE('',(#70),#44,.T.);
#501=ADVANCED_FACE('',(#71,#29,#30),#45,.T.);
#502=ADVANCED_FACE('',(#72),#479,.F.);
#503=ADVANCED_FACE('',(#73),#46,.T.);
#504=ADVANCED_FACE('',(#74),#47,.T.);
#505=ADVANCED_FACE('',(#75),#48,.T.);
#506=ADVANCED_FACE('',(#76,#31),#49,.T.);
#507=CLOSED_SHELL('',(#480,#481,#482,#483,#484,#485,#486,#487,#488,#489,
#490,#491,#492,#493,#494,#495,#496,#497,#498,#499,#500,#501,#502,#503,#504,
#505,#506));
#508=DERIVED_UNIT_ELEMENT(#510,1.);
#509=DERIVED_UNIT_ELEMENT(#863,-3.);
#510=(
MASS_UNIT()
NAMED_UNIT(*)
SI_UNIT(.KILO.,.GRAM.)
);
#511=DERIVED_UNIT((#508,#509));
#512=MEASURE_REPRESENTATION_ITEM('density measure',
POSITIVE_RATIO_MEASURE(7850.),#511);
#513=PROPERTY_DEFINITION_REPRESENTATION(#518,#515);
#514=PROPERTY_DEFINITION_REPRESENTATION(#519,#516);
#515=REPRESENTATION('material name',(#517),#860);
#516=REPRESENTATION('density',(#512),#860);
#517=DESCRIPTIVE_REPRESENTATION_ITEM('Steel','Steel');
#518=PROPERTY_DEFINITION('material property','material name',#875);
#519=PROPERTY_DEFINITION('material property','density of part',#875);
#520=AXIS2_PLACEMENT_3D('',#716,#570,#571);
#521=AXIS2_PLACEMENT_3D('',#717,#572,#573);
#522=AXIS2_PLACEMENT_3D('',#718,#574,#575);
#523=AXIS2_PLACEMENT_3D('',#720,#576,#577);
#524=AXIS2_PLACEMENT_3D('',#723,#579,#580);
#525=AXIS2_PLACEMENT_3D('',#724,#581,#582);
#526=AXIS2_PLACEMENT_3D('',#725,#583,#584);
#527=AXIS2_PLACEMENT_3D('',#727,#585,#586);
#528=AXIS2_PLACEMENT_3D('',#730,#588,#589);
#529=AXIS2_PLACEMENT_3D('',#731,#590,#591);
#530=AXIS2_PLACEMENT_3D('',#732,#592,#593);
#531=AXIS2_PLACEMENT_3D('',#734,#594,#595);
#532=AXIS2_PLACEMENT_3D('',#737,#597,#598);
#533=AXIS2_PLACEMENT_3D('',#738,#599,#600);
#534=AXIS2_PLACEMENT_3D('',#740,#601,#602);
#535=AXIS2_PLACEMENT_3D('',#743,#604,#605);
#536=AXIS2_PLACEMENT_3D('',#744,#606,#607);
#537=AXIS2_PLACEMENT_3D('',#746,#608,#609);
#538=AXIS2_PLACEMENT_3D('',#749,#611,#612);
#539=AXIS2_PLACEMENT_3D('',#750,#613,#614);
#540=AXIS2_PLACEMENT_3D('',#752,#615,#616);
#541=AXIS2_PLACEMENT_3D('',#755,#618,#619);
#542=AXIS2_PLACEMENT_3D('',#756,#620,#621);
#543=AXIS2_PLACEMENT_3D('',#758,#622,#623);
#544=AXIS2_PLACEMENT_3D('',#761,#625,#626);
#545=AXIS2_PLACEMENT_3D('',#762,#627,#628);
#546=AXIS2_PLACEMENT_3D('',#771,#633,#634);
#547=AXIS2_PLACEMENT_3D('',#781,#639,#640);
#548=AXIS2_PLACEMENT_3D('',#782,#641,#642);
#549=AXIS2_PLACEMENT_3D('',#788,#646,#647);
#550=AXIS2_PLACEMENT_3D('',#792,#650,#651);
#551=AXIS2_PLACEMENT_3D('',#812,#662,#663);
#552=AXIS2_PLACEMENT_3D('',#819,#667,#668);
#553=AXIS2_PLACEMENT_3D('',#822,#670,#671);
#554=AXIS2_PLACEMENT_3D('',#823,#672,#673);
#555=AXIS2_PLACEMENT_3D('',#827,#676,#677);
#556=AXIS2_PLACEMENT_3D('',#831,#680,#681);
#557=AXIS2_PLACEMENT_3D('',#834,#683,#684);
#558=AXIS2_PLACEMENT_3D('',#835,#685,#686);
#559=AXIS2_PLACEMENT_3D('',#839,#689,#690);
#560=AXIS2_PLACEMENT_3D('',#840,#691,#692);
#561=AXIS2_PLACEMENT_3D('',#841,#693,#694);
#562=AXIS2_PLACEMENT_3D('',#844,#697,#698);
#563=AXIS2_PLACEMENT_3D('',#846,#700,#701);
#564=AXIS2_PLACEMENT_3D('',#849,#703,#704);
#565=AXIS2_PLACEMENT_3D('',#850,#705,#706);
#566=AXIS2_PLACEMENT_3D('',#851,#707,#708);
#567=AXIS2_PLACEMENT_3D('',#853,#710,#711);
#568=AXIS2_PLACEMENT_3D('',#854,#712,#713);
#569=AXIS2_PLACEMENT_3D('',#855,#714,#715);
#570=DIRECTION('axis',(0.,0.,1.));
#571=DIRECTION('refdir',(1.,0.,0.));
#572=DIRECTION('axis',(0.,0.,1.));
#573=DIRECTION('refdir',(1.,0.,0.));
#574=DIRECTION('center_axis',(0.,0.,1.));
#575=DIRECTION('ref_axis',(-1.,0.,0.));
#576=DIRECTION('center_axis',(0.,0.,1.));
#577=DIRECTION('ref_axis',(-1.,0.,0.));
#578=DIRECTION('',(0.,0.,1.));
#579=DIRECTION('center_axis',(0.,0.,1.));
#580=DIRECTION('ref_axis',(-1.,0.,0.));
#581=DIRECTION('center_axis',(0.,0.,-1.));
#582=DIRECTION('ref_axis',(-1.,0.,0.));
#583=DIRECTION('center_axis',(0.,0.,1.));
#584=DIRECTION('ref_axis',(-1.,0.,0.));
#585=DIRECTION('center_axis',(0.,0.,1.));
#586=DIRECTION('ref_axis',(-1.,0.,0.));
#587=DIRECTION('',(0.,0.,1.));
#588=DIRECTION('center_axis',(0.,0.,1.));
#589=DIRECTION('ref_axis',(-1.,0.,0.));
#590=DIRECTION('center_axis',(0.,0.,-1.));
#591=DIRECTION('ref_axis',(-1.,0.,0.));
#592=DIRECTION('center_axis',(0.,-1.,0.));
#593=DIRECTION('ref_axis',(-1.,0.,0.));
#594=DIRECTION('center_axis',(0.,-1.,0.));
#595=DIRECTION('ref_axis',(-1.,0.,0.));
#596=DIRECTION('',(0.,-1.,0.));
#597=DIRECTION('center_axis',(0.,1.,0.));
#598=DIRECTION('ref_axis',(-1.,0.,0.));
#599=DIRECTION('center_axis',(0.,-1.,0.));
#600=DIRECTION('ref_axis',(-1.,0.,0.));
#601=DIRECTION('center_axis',(0.,-1.,0.));
#602=DIRECTION('ref_axis',(-1.,0.,0.));
#603=DIRECTION('',(0.,-1.,0.));
#604=DIRECTION('center_axis',(0.,1.,0.));
#605=DIRECTION('ref_axis',(-1.,0.,0.));
#606=DIRECTION('center_axis',(0.,-1.,0.));
#607=DIRECTION('ref_axis',(-1.,0.,0.));
#608=DIRECTION('center_axis',(0.,-1.,0.));
#609=DIRECTION('ref_axis',(-1.,0.,0.));
#610=DIRECTION('',(0.,-1.,0.));
#611=DIRECTION('center_axis',(0.,1.,0.));
#612=DIRECTION('ref_axis',(-1.,0.,0.));
#613=DIRECTION('center_axis',(0.,-1.,0.));
#614=DIRECTION('ref_axis',(-1.,0.,0.));
#615=DIRECTION('center_axis',(0.,-1.,0.));
#616=DIRECTION('ref_axis',(-1.,0.,0.));
#617=DIRECTION('',(0.,-1.,0.));
#618=DIRECTION('center_axis',(0.,1.,0.));
#619=DIRECTION('ref_axis',(-1.,0.,0.));
#620=DIRECTION('center_axis',(0.,-1.,0.));
#621=DIRECTION('ref_axis',(1.,0.,0.));
#622=DIRECTION('center_axis',(0.,-1.,0.));
#623=DIRECTION('ref_axis',(1.,0.,0.));
#624=DIRECTION('',(0.707106781186548,0.707106781186548,8.65956056235493E-17));
#625=DIRECTION('center_axis',(0.,-1.,0.));
#626=DIRECTION('ref_axis',(1.,0.,0.));
#627=DIRECTION('center_axis',(0.,-1.,0.));
#628=DIRECTION('ref_axis',(0.,0.,-1.));
#629=DIRECTION('',(-1.,0.,0.));
#630=DIRECTION('',(0.,0.,-1.));
#631=DIRECTION('',(1.,0.,0.));
#632=DIRECTION('',(0.,0.,1.));
#633=DIRECTION('center_axis',(0.,-1.,0.));
#634=DIRECTION('ref_axis',(0.,0.,-1.));
#635=DIRECTION('',(1.,0.,0.));
#636=DIRECTION('',(0.,0.,-1.));
#637=DIRECTION('',(-1.,0.,0.));
#638=DIRECTION('',(0.,0.,1.));
#639=DIRECTION('center_axis',(0.,1.,0.));
#640=DIRECTION('ref_axis',(-1.,0.,0.));
#641=DIRECTION('center_axis',(0.,0.,1.));
#642=DIRECTION('ref_axis',(1.,0.,0.));
#643=DIRECTION('',(0.,1.,0.));
#644=DIRECTION('',(1.,0.,0.));
#645=DIRECTION('',(0.,-1.,0.));
#646=DIRECTION('center_axis',(-1.,0.,0.));
#647=DIRECTION('ref_axis',(0.,0.,1.));
#648=DIRECTION('',(0.,-1.,0.));
#649=DIRECTION('',(0.,0.,1.));
#650=DIRECTION('center_axis',(0.,1.,0.));
#651=DIRECTION('ref_axis',(0.,0.,1.));
#652=DIRECTION('',(0.,0.,1.));
#653=DIRECTION('',(1.,0.,0.));
#654=DIRECTION('',(0.,0.,-1.));
#655=DIRECTION('',(-1.,0.,0.));
#656=DIRECTION('',(0.,0.,1.));
#657=DIRECTION('',(1.,0.,0.));
#658=DIRECTION('',(0.,0.,-1.));
#659=DIRECTION('',(-1.,0.,0.));
#660=DIRECTION('',(0.,0.,-1.));
#661=DIRECTION('',(-1.,0.,0.));
#662=DIRECTION('center_axis',(0.,0.,-1.));
#663=DIRECTION('ref_axis',(-1.,0.,0.));
#664=DIRECTION('',(0.,1.,0.));
#665=DIRECTION('',(0.,-1.,0.));
#666=DIRECTION('',(0.,-1.,0.));
#667=DIRECTION('center_axis',(0.,0.,1.));
#668=DIRECTION('ref_axis',(-0.707106781186548,-0.707106781186548,0.));
#669=DIRECTION('',(1.,-1.58603289232165E-16,0.));
#670=DIRECTION('center_axis',(0.,0.,1.));
#671=DIRECTION('ref_axis',(0.707106781186548,-0.707106781186548,0.));
#672=DIRECTION('center_axis',(-1.,0.,0.));
#673=DIRECTION('ref_axis',(0.,-1.,0.));
#674=DIRECTION('',(0.,1.,0.));
#675=DIRECTION('',(0.,0.,1.));
#676=DIRECTION('center_axis',(1.,0.,0.));
#677=DIRECTION('ref_axis',(0.,1.,0.));
#678=DIRECTION('',(0.,0.,-1.));
#679=DIRECTION('',(0.,1.,0.));
#680=DIRECTION('center_axis',(0.,0.,1.));
#681=DIRECTION('ref_axis',(0.707106781186548,-0.707106781186548,0.));
#682=DIRECTION('',(0.,0.,-1.));
#683=DIRECTION('center_axis',(0.,0.,-1.));
#684=DIRECTION('ref_axis',(0.707106781186548,-0.707106781186548,0.));
#685=DIRECTION('center_axis',(-1.58603289232165E-16,-1.,0.));
#686=DIRECTION('ref_axis',(1.,-1.58603289232165E-16,0.));
#687=DIRECTION('',(0.,0.,-1.));
#688=DIRECTION('',(-1.,1.58603289232165E-16,0.));
#689=DIRECTION('center_axis',(0.,0.,1.));
#690=DIRECTION('ref_axis',(-0.707106781186548,-0.707106781186548,0.));
#691=DIRECTION('center_axis',(0.,0.,-1.));
#692=DIRECTION('ref_axis',(-0.707106781186548,-0.707106781186548,0.));
#693=DIRECTION('center_axis',(-1.,0.,0.));
#694=DIRECTION('ref_axis',(0.,0.,1.));
#695=DIRECTION('',(0.,-1.,0.));
#696=DIRECTION('',(0.,-1.,0.));
#697=DIRECTION('center_axis',(0.,0.,-1.));
#698=DIRECTION('ref_axis',(-1.,0.,0.));
#699=DIRECTION('',(0.,-1.,0.));
#700=DIRECTION('center_axis',(0.,-1.,0.));
#701=DIRECTION('ref_axis',(-1.,0.,0.));
#702=DIRECTION('',(0.,-1.,0.));
#703=DIRECTION('center_axis',(0.,-1.,0.));
#704=DIRECTION('ref_axis',(-1.,0.,0.));
#705=DIRECTION('center_axis',(1.,0.,0.));
#706=DIRECTION('ref_axis',(0.,0.,-1.));
#707=DIRECTION('center_axis',(1.,0.,0.));
#708=DIRECTION('ref_axis',(0.,0.,-1.));
#709=DIRECTION('',(0.,1.,0.));
#710=DIRECTION('center_axis',(0.,0.,1.));
#711=DIRECTION('ref_axis',(1.,0.,0.));
#712=DIRECTION('center_axis',(0.,1.,0.));
#713=DIRECTION('ref_axis',(-1.,0.,0.));
#714=DIRECTION('',(0.,0.,1.));
#715=DIRECTION('',(1.,0.,0.));
#716=CARTESIAN_POINT('',(0.,0.,0.));
#717=CARTESIAN_POINT('',(0.,0.,0.));
#718=CARTESIAN_POINT('Origin',(9.847,-1.6,-30.));
#719=CARTESIAN_POINT('',(11.447,-1.6,-30.));
#720=CARTESIAN_POINT('Origin',(9.847,-1.6,-30.));
#721=CARTESIAN_POINT('',(11.447,-1.6,-25.5));
#722=CARTESIAN_POINT('',(11.447,-1.6,-30.));
#723=CARTESIAN_POINT('Origin',(9.847,-1.6,-25.5));
#724=CARTESIAN_POINT('Origin',(9.847,-1.6,-25.5));
#725=CARTESIAN_POINT('Origin',(-10.153,-1.6,-30.));
#726=CARTESIAN_POINT('',(-8.553,-1.6,-30.));
#727=CARTESIAN_POINT('Origin',(-10.153,-1.6,-30.));
#728=CARTESIAN_POINT('',(-8.553,-1.6,-25.5));
#729=CARTESIAN_POINT('',(-8.553,-1.6,-30.));
#730=CARTESIAN_POINT('Origin',(-10.153,-1.6,-25.5));
#731=CARTESIAN_POINT('Origin',(-10.153,-1.6,-25.5));
#732=CARTESIAN_POINT('Origin',(14.5,37.3,25.));
#733=CARTESIAN_POINT('',(16.1,4.5,25.));
#734=CARTESIAN_POINT('Origin',(14.5,4.5,25.));
#735=CARTESIAN_POINT('',(16.1,-7.7,25.));
#736=CARTESIAN_POINT('',(16.1,37.3,25.));
#737=CARTESIAN_POINT('Origin',(14.5,-7.7,25.));
#738=CARTESIAN_POINT('Origin',(14.5,37.3,-25.));
#739=CARTESIAN_POINT('',(16.1,4.5,-25.));
#740=CARTESIAN_POINT('Origin',(14.5,4.5,-25.));
#741=CARTESIAN_POINT('',(16.1,-7.7,-25.));
#742=CARTESIAN_POINT('',(16.1,37.3,-25.));
#743=CARTESIAN_POINT('Origin',(14.5,-7.7,-25.));
#744=CARTESIAN_POINT('Origin',(-14.5,37.3,25.));
#745=CARTESIAN_POINT('',(-12.9,4.5,25.));
#746=CARTESIAN_POINT('Origin',(-14.5,4.5,25.));
#747=CARTESIAN_POINT('',(-12.9,-7.7,25.));
#748=CARTESIAN_POINT('',(-12.9,37.3,25.));
#749=CARTESIAN_POINT('Origin',(-14.5,-7.7,25.));
#750=CARTESIAN_POINT('Origin',(-14.5,37.3,-25.));
#751=CARTESIAN_POINT('',(-12.9,4.5,-25.));
#752=CARTESIAN_POINT('Origin',(-14.5,4.5,-25.));
#753=CARTESIAN_POINT('',(-12.9,-7.7,-25.));
#754=CARTESIAN_POINT('',(-12.9,37.3,-25.));
#755=CARTESIAN_POINT('Origin',(-14.5,-7.7,-25.));
#756=CARTESIAN_POINT('Origin',(0.,-7.2,10.2));
#757=CARTESIAN_POINT('',(-6.,-7.7,10.2));
#758=CARTESIAN_POINT('Origin',(0.,-7.7,10.2));
#759=CARTESIAN_POINT('',(-5.,-6.7,10.2));
#760=CARTESIAN_POINT('',(-5.5,-7.2,10.2));
#761=CARTESIAN_POINT('Origin',(0.,-6.7,10.2));
#762=CARTESIAN_POINT('Origin',(0.,-7.7,0.));
#763=CARTESIAN_POINT('',(19.5,-7.7,30.));
#764=CARTESIAN_POINT('',(-19.5,-7.7,30.));
#765=CARTESIAN_POINT('',(19.5,-7.7,30.));
#766=CARTESIAN_POINT('',(-19.5,-7.7,-30.));
#767=CARTESIAN_POINT('',(-19.5,-7.7,30.));
#768=CARTESIAN_POINT('',(19.5,-7.7,-30.));
#769=CARTESIAN_POINT('',(-19.5,-7.7,-30.));
#770=CARTESIAN_POINT('',(19.5,-7.7,-30.));
#771=CARTESIAN_POINT('Origin',(0.,-0.2,0.));
#772=CARTESIAN_POINT('',(-9.5,-0.2,-20.));
#773=CARTESIAN_POINT('',(9.5,-0.2,-20.));
#774=CARTESIAN_POINT('',(-4.75,-0.2,-20.));
#775=CARTESIAN_POINT('',(-9.5,-0.2,20.));
#776=CARTESIAN_POINT('',(-9.5,-0.2,10.));
#777=CARTESIAN_POINT('',(9.5,-0.2,20.));
#778=CARTESIAN_POINT('',(4.75,-0.2,20.));
#779=CARTESIAN_POINT('',(9.5,-0.2,-10.));
#780=CARTESIAN_POINT('',(8.49999999999998,-0.2,10.2000000000005));
#781=CARTESIAN_POINT('Origin',(-2.36269337428041E-14,-0.2,10.2000000000005));
#782=CARTESIAN_POINT('Origin',(-9.5,-3.7,-20.));
#783=CARTESIAN_POINT('',(9.5,4.5,-20.));
#784=CARTESIAN_POINT('',(9.5,3.8,-20.));
#785=CARTESIAN_POINT('',(-9.5,4.5,-20.));
#786=CARTESIAN_POINT('',(-4.75,4.5,-20.));
#787=CARTESIAN_POINT('',(-9.5,0.3,-20.));
#788=CARTESIAN_POINT('Origin',(9.5,-3.7,-20.));
#789=CARTESIAN_POINT('',(9.5,4.5,20.));
#790=CARTESIAN_POINT('',(9.5,-0.7,20.));
#791=CARTESIAN_POINT('',(9.5,4.5,-10.));
#792=CARTESIAN_POINT('Origin',(0.,4.5,0.));
#793=CARTESIAN_POINT('',(3.5,4.5,20.));
#794=CARTESIAN_POINT('',(3.5,4.5,30.));
#795=CARTESIAN_POINT('',(3.5,4.5,10.5));
#796=CARTESIAN_POINT('',(19.5,4.5,30.));
#797=CARTESIAN_POINT('',(-9.75,4.5,30.));
#798=CARTESIAN_POINT('',(19.5,4.5,-30.));
#799=CARTESIAN_POINT('',(19.5,4.5,15.));
#800=CARTESIAN_POINT('',(-19.5,4.5,-30.));
#801=CARTESIAN_POINT('',(9.75,4.5,-30.));
#802=CARTESIAN_POINT('',(-19.5,4.5,30.));
#803=CARTESIAN_POINT('',(-19.5,4.5,-15.));
#804=CARTESIAN_POINT('',(-3.5,4.5,30.));
#805=CARTESIAN_POINT('',(-9.75,4.5,30.));
#806=CARTESIAN_POINT('',(-3.5,4.5,20.));
#807=CARTESIAN_POINT('',(-3.5,4.5,10.5));
#808=CARTESIAN_POINT('',(-9.5,4.5,20.));
#809=CARTESIAN_POINT('',(4.75,4.5,20.));
#810=CARTESIAN_POINT('',(-9.5,4.5,10.));
#811=CARTESIAN_POINT('',(4.75,4.5,20.));
#812=CARTESIAN_POINT('Origin',(9.5,-3.7,20.));
#813=CARTESIAN_POINT('',(3.5,3.3,20.));
#814=CARTESIAN_POINT('',(3.5,0.4,20.));
#815=CARTESIAN_POINT('',(-9.5,-0.7,20.));
#816=CARTESIAN_POINT('',(-3.5,3.3,20.));
#817=CARTESIAN_POINT('',(-3.5,-0.200000000000001,20.));
#818=CARTESIAN_POINT('',(-3.,2.8,20.));
#819=CARTESIAN_POINT('Origin',(-3.,3.3,20.));
#820=CARTESIAN_POINT('',(3.,2.8,20.));
#821=CARTESIAN_POINT('',(6.25,2.8,20.));
#822=CARTESIAN_POINT('Origin',(3.,3.3,20.));
#823=CARTESIAN_POINT('Origin',(-3.5,6.3,21.));
#824=CARTESIAN_POINT('',(-3.5,3.3,30.));
#825=CARTESIAN_POINT('',(-3.5,3.8,30.));
#826=CARTESIAN_POINT('',(-3.5,3.3,21.));
#827=CARTESIAN_POINT('Origin',(3.5,3.3,21.));
#828=CARTESIAN_POINT('',(3.5,3.3,30.));
#829=CARTESIAN_POINT('',(3.5,3.3,21.));
#830=CARTESIAN_POINT('',(3.5,3.8,30.));
#831=CARTESIAN_POINT('Origin',(3.,3.3,21.));
#832=CARTESIAN_POINT('',(3.,2.8,30.));
#833=CARTESIAN_POINT('',(3.,2.8,21.));
#834=CARTESIAN_POINT('Origin',(3.,3.3,30.));
#835=CARTESIAN_POINT('Origin',(-3.,2.8,21.));
#836=CARTESIAN_POINT('',(-3.,2.8,30.));
#837=CARTESIAN_POINT('',(-3.,2.8,21.));
#838=CARTESIAN_POINT('',(-11.25,2.8,30.));
#839=CARTESIAN_POINT('Origin',(-3.,3.3,21.));
#840=CARTESIAN_POINT('Origin',(-3.,3.3,30.));
#841=CARTESIAN_POINT('Origin',(-19.5,-3.7,-30.));
#842=CARTESIAN_POINT('',(-19.5,-3.7,-30.));
#843=CARTESIAN_POINT('',(-19.5,-3.7,30.));
#844=CARTESIAN_POINT('Origin',(19.5,-3.7,-30.));
#845=CARTESIAN_POINT('',(19.5,-3.7,-30.));
#846=CARTESIAN_POINT('Origin',(-2.36269337428041E-14,-0.4,10.2000000000005));
#847=CARTESIAN_POINT('',(8.49999999999998,-6.7,10.2000000000005));
#848=CARTESIAN_POINT('',(8.49999999999998,-0.4,10.2000000000005));
#849=CARTESIAN_POINT('Origin',(-2.36269337428041E-14,-6.7,10.2000000000005));
#850=CARTESIAN_POINT('Origin',(-9.5,-3.7,20.));
#851=CARTESIAN_POINT('Origin',(19.5,-3.7,30.));
#852=CARTESIAN_POINT('',(19.5,-3.7,30.));
#853=CARTESIAN_POINT('Origin',(-19.5,-3.7,30.));
#854=CARTESIAN_POINT('Origin',(-2.33146835171283E-14,-6.7,10.2000000000005));
#855=CARTESIAN_POINT('',(0.,0.,0.));
#856=UNCERTAINTY_MEASURE_WITH_UNIT(LENGTH_MEASURE(0.01),#862,
'DISTANCE_ACCURACY_VALUE',
'Maximum model space distance between geometric entities at asserted c
onnectivities');
#857=UNCERTAINTY_MEASURE_WITH_UNIT(LENGTH_MEASURE(0.01),#862,
'DISTANCE_ACCURACY_VALUE',
'Maximum model space distance between geometric entities at asserted c
onnectivities');
#858=UNCERTAINTY_MEASURE_WITH_UNIT(LENGTH_MEASURE(0.01),#862,
'DISTANCE_ACCURACY_VALUE',
'Maximum model space distance between geometric entities at asserted c
onnectivities');
#859=(
GEOMETRIC_REPRESENTATION_CONTEXT(3)
GLOBAL_UNCERTAINTY_ASSIGNED_CONTEXT((#856))
GLOBAL_UNIT_ASSIGNED_CONTEXT((#862,#864,#865))
REPRESENTATION_CONTEXT('','3D')
);
#860=(
GEOMETRIC_REPRESENTATION_CONTEXT(3)
GLOBAL_UNCERTAINTY_ASSIGNED_CONTEXT((#857))
GLOBAL_UNIT_ASSIGNED_CONTEXT((#862,#864,#865))
REPRESENTATION_CONTEXT('','3D')
);
#861=(
GEOMETRIC_REPRESENTATION_CONTEXT(3)
GLOBAL_UNCERTAINTY_ASSIGNED_CONTEXT((#858))
GLOBAL_UNIT_ASSIGNED_CONTEXT((#862,#864,#865))
REPRESENTATION_CONTEXT('','3D')
);
#862=(
LENGTH_UNIT()
NAMED_UNIT(*)
SI_UNIT(.MILLI.,.METRE.)
);
#863=(
LENGTH_UNIT()
NAMED_UNIT(*)
SI_UNIT($,.METRE.)
);
#864=(
NAMED_UNIT(*)
PLANE_ANGLE_UNIT()
SI_UNIT($,.RADIAN.)
);
#865=(
NAMED_UNIT(*)
SI_UNIT($,.STERADIAN.)
SOLID_ANGLE_UNIT()
);
#866=SHAPE_DEFINITION_REPRESENTATION(#868,#871);
#867=SHAPE_DEFINITION_REPRESENTATION(#869,#872);
#868=PRODUCT_DEFINITION_SHAPE('',$,#874);
#869=PRODUCT_DEFINITION_SHAPE('',$,#875);
#870=PRODUCT_DEFINITION_SHAPE($,$,#14);
#871=SHAPE_REPRESENTATION('',(#520,#569),#859);
#872=SHAPE_REPRESENTATION('',(#521),#860);
#873=PRODUCT_DEFINITION_CONTEXT('part definition',#881,'design');
#874=PRODUCT_DEFINITION('Servo Mount Femur Joint Bottom',
'Servo Mount Femur Joint Bottom v3',#876,#873);
#875=PRODUCT_DEFINITION('Component2','Component2',#877,#873);
#876=PRODUCT_DEFINITION_FORMATION('',$,#883);
#877=PRODUCT_DEFINITION_FORMATION('',$,#884);
#878=PRODUCT_RELATED_PRODUCT_CATEGORY(
'Servo Mount Femur Joint Bottom v3','Servo Mount Femur Joint Bottom v3',
(#883));
#879=PRODUCT_RELATED_PRODUCT_CATEGORY('Component2','Component2',(#884));
#880=APPLICATION_PROTOCOL_DEFINITION('international standard',
'automotive_design',2009,#881);
#881=APPLICATION_CONTEXT(
'Core Data for Automotive Mechanical Design Process');
#882=PRODUCT_CONTEXT('part definition',#881,'mechanical');
#883=PRODUCT('Servo Mount Femur Joint Bottom',
'Servo Mount Femur Joint Bottom v3',$,(#882));
#884=PRODUCT('Component2','Component2',$,(#882));
#885=PRESENTATION_STYLE_ASSIGNMENT((#887));
#886=PRESENTATION_STYLE_ASSIGNMENT((#888));
#887=SURFACE_STYLE_USAGE(.BOTH.,#889);
#888=SURFACE_STYLE_USAGE(.BOTH.,#890);
#889=SURFACE_SIDE_STYLE('',(#891));
#890=SURFACE_SIDE_STYLE('',(#892));
#891=SURFACE_STYLE_FILL_AREA(#893);
#892=SURFACE_STYLE_FILL_AREA(#894);
#893=FILL_AREA_STYLE('Steel - Satin',(#895));
#894=FILL_AREA_STYLE('Nylon 12 (with Formlabs Fuse 1 3D Printer)',(#896));
#895=FILL_AREA_STYLE_COLOUR('Steel - Satin',#897);
#896=FILL_AREA_STYLE_COLOUR(
'Nylon 12 (with Formlabs Fuse 1 3D Printer)',#898);
#897=COLOUR_RGB('Steel - Satin',0.627450980392157,0.627450980392157,0.627450980392157);
#898=COLOUR_RGB('Nylon 12 (with Formlabs Fuse 1 3D Printer)',0.247058823529412,
0.247058823529412,0.247058823529412);
ENDSEC;
END-ISO-10303-21;
