ISO-10303-21;
HEADER;
/* Generated by software containing ST-Developer
 * from STEP Tools, Inc. (www.steptools.com) 
 */

FILE_DESCRIPTION(
/* description */ (''),
/* implementation_level */ '2;1');

FILE_NAME(
/* name */ 'Servo Mount Tibia Bottom.step',
/* time_stamp */ '2026-09-01T13:58:25+04:00',
/* author */ (''),
/* organization */ (''),
/* preprocessor_version */ 'ST-DEVELOPER v20.1',
/* originating_system */ 'Autodesk Translation Framework v15.8.0.0',
/* authorisation */ '');

FILE_SCHEMA (('AUTOMOTIVE_DESIGN { 1 0 10303 214 3 1 1 }'));
ENDSEC;

DATA;
#10=MECHANICAL_DESIGN_GEOMETRIC_PRESENTATION_REPRESENTATION('',(#17),#927);
#11=ITEM_DEFINED_TRANSFORMATION($,$,#563,#613);
#12=(
REPRESENTATION_RELATIONSHIP($,$,#938,#937)
REPRESENTATION_RELATIONSHIP_WITH_TRANSFORMATION(#11)
SHAPE_REPRESENTATION_RELATIONSHIP()
);
#13=CONTEXT_DEPENDENT_SHAPE_REPRESENTATION(#12,#936);
#14=NEXT_ASSEMBLY_USAGE_OCCURRENCE('Component2:1','Component2:1',
'Component2:1',#940,#941,'Component2:1');
#15=SHAPE_REPRESENTATION_RELATIONSHIP('SRR','None',#938,#16);
#16=ADVANCED_BREP_SHAPE_REPRESENTATION('',(#18),#926);
#17=STYLED_ITEM('',(#952),#18);
#18=MANIFOLD_SOLID_BREP('Body1',#549);
#19=CONICAL_SURFACE('',#589,5.5,0.785398163397448);
#20=FACE_BOUND('',#91,.T.);
#21=FACE_BOUND('',#92,.T.);
#22=FACE_BOUND('',#93,.T.);
#23=FACE_BOUND('',#94,.T.);
#24=FACE_BOUND('',#95,.T.);
#25=FACE_BOUND('',#97,.T.);
#26=FACE_BOUND('',#98,.T.);
#27=FACE_BOUND('',#102,.T.);
#28=FACE_BOUND('',#106,.T.);
#29=FACE_BOUND('',#107,.T.);
#30=FACE_BOUND('',#108,.T.);
#31=FACE_BOUND('',#109,.T.);
#32=FACE_BOUND('',#122,.T.);
#33=PLANE('',#567);
#34=PLANE('',#571);
#35=PLANE('',#584);
#36=PLANE('',#585);
#37=PLANE('',#587);
#38=PLANE('',#588);
#39=PLANE('',#591);
#40=PLANE('',#593);
#41=PLANE('',#594);
#42=PLANE('',#595);
#43=PLANE('',#596);
#44=PLANE('',#599);
#45=PLANE('',#600);
#46=PLANE('',#603);
#47=PLANE('',#606);
#48=PLANE('',#609);
#49=PLANE('',#610);
#50=PLANE('',#611);
#51=PLANE('',#612);
#52=FACE_OUTER_BOUND('',#81,.T.);
#53=FACE_OUTER_BOUND('',#82,.T.);
#54=FACE_OUTER_BOUND('',#83,.T.);
#55=FACE_OUTER_BOUND('',#84,.T.);
#56=FACE_OUTER_BOUND('',#85,.T.);
#57=FACE_OUTER_BOUND('',#86,.T.);
#58=FACE_OUTER_BOUND('',#87,.T.);
#59=FACE_OUTER_BOUND('',#88,.T.);
#60=FACE_OUTER_BOUND('',#89,.T.);
#61=FACE_OUTER_BOUND('',#90,.T.);
#62=FACE_OUTER_BOUND('',#96,.T.);
#63=FACE_OUTER_BOUND('',#99,.T.);
#64=FACE_OUTER_BOUND('',#100,.T.);
#65=FACE_OUTER_BOUND('',#101,.T.);
#66=FACE_OUTER_BOUND('',#103,.T.);
#67=FACE_OUTER_BOUND('',#104,.T.);
#68=FACE_OUTER_BOUND('',#105,.T.);
#69=FACE_OUTER_BOUND('',#110,.T.);
#70=FACE_OUTER_BOUND('',#111,.T.);
#71=FACE_OUTER_BOUND('',#112,.T.);
#72=FACE_OUTER_BOUND('',#113,.T.);
#73=FACE_OUTER_BOUND('',#114,.T.);
#74=FACE_OUTER_BOUND('',#115,.T.);
#75=FACE_OUTER_BOUND('',#116,.T.);
#76=FACE_OUTER_BOUND('',#117,.T.);
#77=FACE_OUTER_BOUND('',#118,.T.);
#78=FACE_OUTER_BOUND('',#119,.T.);
#79=FACE_OUTER_BOUND('',#120,.T.);
#80=FACE_OUTER_BOUND('',#121,.T.);
#81=EDGE_LOOP('',(#367,#368,#369,#370));
#82=EDGE_LOOP('',(#371));
#83=EDGE_LOOP('',(#372,#373,#374,#375));
#84=EDGE_LOOP('',(#376));
#85=EDGE_LOOP('',(#377,#378,#379,#380));
#86=EDGE_LOOP('',(#381,#382,#383,#384));
#87=EDGE_LOOP('',(#385,#386,#387,#388));
#88=EDGE_LOOP('',(#389,#390,#391,#392));
#89=EDGE_LOOP('',(#393,#394,#395,#396));
#90=EDGE_LOOP('',(#397,#398,#399,#400));
#91=EDGE_LOOP('',(#401));
#92=EDGE_LOOP('',(#402));
#93=EDGE_LOOP('',(#403));
#94=EDGE_LOOP('',(#404));
#95=EDGE_LOOP('',(#405));
#96=EDGE_LOOP('',(#406,#407,#408,#409,#410,#411));
#97=EDGE_LOOP('',(#412));
#98=EDGE_LOOP('',(#413));
#99=EDGE_LOOP('',(#414,#415,#416,#417));
#100=EDGE_LOOP('',(#418,#419,#420,#421));
#101=EDGE_LOOP('',(#422,#423,#424,#425));
#102=EDGE_LOOP('',(#426));
#103=EDGE_LOOP('',(#427,#428,#429,#430));
#104=EDGE_LOOP('',(#431,#432,#433,#434));
#105=EDGE_LOOP('',(#435,#436,#437,#438,#439,#440,#441,#442,#443,#444,#445,
#446));
#106=EDGE_LOOP('',(#447));
#107=EDGE_LOOP('',(#448));
#108=EDGE_LOOP('',(#449));
#109=EDGE_LOOP('',(#450));
#110=EDGE_LOOP('',(#451,#452,#453,#454,#455,#456,#457,#458,#459,#460));
#111=EDGE_LOOP('',(#461,#462,#463,#464));
#112=EDGE_LOOP('',(#465,#466,#467,#468));
#113=EDGE_LOOP('',(#469,#470,#471,#472));
#114=EDGE_LOOP('',(#473,#474,#475,#476));
#115=EDGE_LOOP('',(#477,#478,#479,#480));
#116=EDGE_LOOP('',(#481,#482,#483,#484));
#117=EDGE_LOOP('',(#485,#486,#487,#488));
#118=EDGE_LOOP('',(#489,#490,#491,#492));
#119=EDGE_LOOP('',(#493,#494,#495,#496));
#120=EDGE_LOOP('',(#497,#498,#499,#500,#501,#502,#503,#504,#505,#506,#507,
#508));
#121=EDGE_LOOP('',(#509));
#122=EDGE_LOOP('',(#510));
#123=LINE('',#776,#175);
#124=LINE('',#783,#176);
#125=LINE('',#790,#177);
#126=LINE('',#796,#178);
#127=LINE('',#802,#179);
#128=LINE('',#808,#180);
#129=LINE('',#813,#181);
#130=LINE('',#815,#182);
#131=LINE('',#817,#183);
#132=LINE('',#818,#184);
#133=LINE('',#821,#185);
#134=LINE('',#823,#186);
#135=LINE('',#824,#187);
#136=LINE('',#829,#188);
#137=LINE('',#831,#189);
#138=LINE('',#833,#190);
#139=LINE('',#834,#191);
#140=LINE('',#837,#192);
#141=LINE('',#838,#193);
#142=LINE('',#841,#194);
#143=LINE('',#846,#195);
#144=LINE('',#848,#196);
#145=LINE('',#850,#197);
#146=LINE('',#851,#198);
#147=LINE('',#856,#199);
#148=LINE('',#858,#200);
#149=LINE('',#859,#201);
#150=LINE('',#862,#202);
#151=LINE('',#863,#203);
#152=LINE('',#867,#204);
#153=LINE('',#869,#205);
#154=LINE('',#870,#206);
#155=LINE('',#872,#207);
#156=LINE('',#874,#208);
#157=LINE('',#876,#209);
#158=LINE('',#878,#210);
#159=LINE('',#879,#211);
#160=LINE('',#880,#212);
#161=LINE('',#883,#213);
#162=LINE('',#884,#214);
#163=LINE('',#886,#215);
#164=LINE('',#890,#216);
#165=LINE('',#894,#217);
#166=LINE('',#895,#218);
#167=LINE('',#898,#219);
#168=LINE('',#899,#220);
#169=LINE('',#902,#221);
#170=LINE('',#906,#222);
#171=LINE('',#907,#223);
#172=LINE('',#911,#224);
#173=LINE('',#914,#225);
#174=LINE('',#918,#226);
#175=VECTOR('',#622,1.59999999999973);
#176=VECTOR('',#631,1.59999999999977);
#177=VECTOR('',#640,1.6);
#178=VECTOR('',#647,1.6);
#179=VECTOR('',#654,1.6);
#180=VECTOR('',#661,1.6);
#181=VECTOR('',#666,10.);
#182=VECTOR('',#667,10.);
#183=VECTOR('',#668,10.);
#184=VECTOR('',#669,10.);
#185=VECTOR('',#672,10.);
#186=VECTOR('',#673,10.);
#187=VECTOR('',#674,10.);
#188=VECTOR('',#679,10.);
#189=VECTOR('',#680,10.);
#190=VECTOR('',#681,10.);
#191=VECTOR('',#682,10.);
#192=VECTOR('',#685,10.);
#193=VECTOR('',#686,10.);
#194=VECTOR('',#689,5.5);
#195=VECTOR('',#694,10.);
#196=VECTOR('',#695,10.);
#197=VECTOR('',#696,10.);
#198=VECTOR('',#697,10.);
#199=VECTOR('',#702,10.);
#200=VECTOR('',#703,10.);
#201=VECTOR('',#704,10.);
#202=VECTOR('',#707,10.);
#203=VECTOR('',#708,10.);
#204=VECTOR('',#711,10.);
#205=VECTOR('',#712,10.);
#206=VECTOR('',#713,10.);
#207=VECTOR('',#714,10.);
#208=VECTOR('',#715,10.);
#209=VECTOR('',#716,10.);
#210=VECTOR('',#717,10.);
#211=VECTOR('',#718,10.);
#212=VECTOR('',#719,10.);
#213=VECTOR('',#722,10.);
#214=VECTOR('',#723,10.);
#215=VECTOR('',#724,10.);
#216=VECTOR('',#727,10.);
#217=VECTOR('',#732,10.);
#218=VECTOR('',#733,10.);
#219=VECTOR('',#736,10.);
#220=VECTOR('',#737,10.);
#221=VECTOR('',#740,10.);
#222=VECTOR('',#745,10.);
#223=VECTOR('',#746,10.);
#224=VECTOR('',#753,10.);
#225=VECTOR('',#756,8.5);
#226=VECTOR('',#763,10.);
#227=CIRCLE('',#565,1.59999999999973);
#228=CIRCLE('',#566,1.59999999999973);
#229=CIRCLE('',#569,1.59999999999977);
#230=CIRCLE('',#570,1.59999999999977);
#231=CIRCLE('',#573,1.6);
#232=CIRCLE('',#574,1.6);
#233=CIRCLE('',#576,1.6);
#234=CIRCLE('',#577,1.6);
#235=CIRCLE('',#579,1.6);
#236=CIRCLE('',#580,1.6);
#237=CIRCLE('',#582,1.6);
#238=CIRCLE('',#583,1.6);
#239=CIRCLE('',#586,6.);
#240=CIRCLE('',#590,5.);
#241=CIRCLE('',#592,8.5);
#242=CIRCLE('',#597,0.5);
#243=CIRCLE('',#598,0.5);
#244=CIRCLE('',#602,0.5);
#245=CIRCLE('',#605,0.5);
#246=CIRCLE('',#608,8.5);
#247=VERTEX_POINT('',#773);
#248=VERTEX_POINT('',#775);
#249=VERTEX_POINT('',#780);
#250=VERTEX_POINT('',#782);
#251=VERTEX_POINT('',#787);
#252=VERTEX_POINT('',#789);
#253=VERTEX_POINT('',#793);
#254=VERTEX_POINT('',#795);
#255=VERTEX_POINT('',#799);
#256=VERTEX_POINT('',#801);
#257=VERTEX_POINT('',#805);
#258=VERTEX_POINT('',#807);
#259=VERTEX_POINT('',#811);
#260=VERTEX_POINT('',#812);
#261=VERTEX_POINT('',#814);
#262=VERTEX_POINT('',#816);
#263=VERTEX_POINT('',#820);
#264=VERTEX_POINT('',#822);
#265=VERTEX_POINT('',#825);
#266=VERTEX_POINT('',#828);
#267=VERTEX_POINT('',#830);
#268=VERTEX_POINT('',#832);
#269=VERTEX_POINT('',#836);
#270=VERTEX_POINT('',#840);
#271=VERTEX_POINT('',#844);
#272=VERTEX_POINT('',#845);
#273=VERTEX_POINT('',#847);
#274=VERTEX_POINT('',#849);
#275=VERTEX_POINT('',#852);
#276=VERTEX_POINT('',#855);
#277=VERTEX_POINT('',#857);
#278=VERTEX_POINT('',#861);
#279=VERTEX_POINT('',#865);
#280=VERTEX_POINT('',#866);
#281=VERTEX_POINT('',#868);
#282=VERTEX_POINT('',#871);
#283=VERTEX_POINT('',#873);
#284=VERTEX_POINT('',#875);
#285=VERTEX_POINT('',#877);
#286=VERTEX_POINT('',#882);
#287=VERTEX_POINT('',#885);
#288=VERTEX_POINT('',#887);
#289=VERTEX_POINT('',#889);
#290=VERTEX_POINT('',#893);
#291=VERTEX_POINT('',#897);
#292=VERTEX_POINT('',#901);
#293=VERTEX_POINT('',#905);
#294=VERTEX_POINT('',#913);
#295=EDGE_CURVE('',#247,#247,#227,.T.);
#296=EDGE_CURVE('',#247,#248,#123,.T.);
#297=EDGE_CURVE('',#248,#248,#228,.T.);
#298=EDGE_CURVE('',#249,#249,#229,.T.);
#299=EDGE_CURVE('',#249,#250,#124,.T.);
#300=EDGE_CURVE('',#250,#250,#230,.T.);
#301=EDGE_CURVE('',#251,#251,#231,.T.);
#302=EDGE_CURVE('',#251,#252,#125,.T.);
#303=EDGE_CURVE('',#252,#252,#232,.T.);
#304=EDGE_CURVE('',#253,#253,#233,.T.);
#305=EDGE_CURVE('',#253,#254,#126,.T.);
#306=EDGE_CURVE('',#254,#254,#234,.T.);
#307=EDGE_CURVE('',#255,#255,#235,.T.);
#308=EDGE_CURVE('',#255,#256,#127,.T.);
#309=EDGE_CURVE('',#256,#256,#236,.T.);
#310=EDGE_CURVE('',#257,#257,#237,.T.);
#311=EDGE_CURVE('',#257,#258,#128,.T.);
#312=EDGE_CURVE('',#258,#258,#238,.T.);
#313=EDGE_CURVE('',#259,#260,#129,.T.);
#314=EDGE_CURVE('',#260,#261,#130,.T.);
#315=EDGE_CURVE('',#261,#262,#131,.T.);
#316=EDGE_CURVE('',#262,#259,#132,.T.);
#317=EDGE_CURVE('',#260,#263,#133,.T.);
#318=EDGE_CURVE('',#264,#263,#134,.T.);
#319=EDGE_CURVE('',#264,#261,#135,.T.);
#320=EDGE_CURVE('',#265,#265,#239,.T.);
#321=EDGE_CURVE('',#266,#259,#136,.T.);
#322=EDGE_CURVE('',#267,#266,#137,.T.);
#323=EDGE_CURVE('',#267,#268,#138,.T.);
#324=EDGE_CURVE('',#263,#268,#139,.T.);
#325=EDGE_CURVE('',#269,#264,#140,.T.);
#326=EDGE_CURVE('',#268,#269,#141,.T.);
#327=EDGE_CURVE('',#265,#270,#142,.T.);
#328=EDGE_CURVE('',#270,#270,#240,.T.);
#329=EDGE_CURVE('',#271,#272,#143,.T.);
#330=EDGE_CURVE('',#273,#271,#144,.T.);
#331=EDGE_CURVE('',#274,#273,#145,.T.);
#332=EDGE_CURVE('',#272,#274,#146,.T.);
#333=EDGE_CURVE('',#275,#275,#241,.T.);
#334=EDGE_CURVE('',#272,#276,#147,.T.);
#335=EDGE_CURVE('',#277,#276,#148,.T.);
#336=EDGE_CURVE('',#277,#271,#149,.T.);
#337=EDGE_CURVE('',#278,#274,#150,.T.);
#338=EDGE_CURVE('',#276,#278,#151,.T.);
#339=EDGE_CURVE('',#279,#280,#152,.T.);
#340=EDGE_CURVE('',#280,#281,#153,.T.);
#341=EDGE_CURVE('',#281,#267,#154,.T.);
#342=EDGE_CURVE('',#266,#282,#155,.T.);
#343=EDGE_CURVE('',#282,#283,#156,.T.);
#344=EDGE_CURVE('',#283,#284,#157,.T.);
#345=EDGE_CURVE('',#284,#285,#158,.T.);
#346=EDGE_CURVE('',#285,#277,#159,.T.);
#347=EDGE_CURVE('',#278,#279,#160,.T.);
#348=EDGE_CURVE('',#286,#279,#161,.T.);
#349=EDGE_CURVE('',#285,#273,#162,.T.);
#350=EDGE_CURVE('',#284,#287,#163,.T.);
#351=EDGE_CURVE('',#287,#288,#242,.T.);
#352=EDGE_CURVE('',#288,#289,#164,.T.);
#353=EDGE_CURVE('',#289,#286,#243,.T.);
#354=EDGE_CURVE('',#290,#283,#165,.T.);
#355=EDGE_CURVE('',#287,#290,#166,.T.);
#356=EDGE_CURVE('',#291,#286,#167,.T.);
#357=EDGE_CURVE('',#291,#280,#168,.T.);
#358=EDGE_CURVE('',#292,#289,#169,.T.);
#359=EDGE_CURVE('',#291,#292,#244,.T.);
#360=EDGE_CURVE('',#293,#288,#170,.T.);
#361=EDGE_CURVE('',#292,#293,#171,.T.);
#362=EDGE_CURVE('',#293,#290,#245,.T.);
#363=EDGE_CURVE('',#282,#262,#172,.T.);
#364=EDGE_CURVE('',#275,#294,#173,.T.);
#365=EDGE_CURVE('',#294,#294,#246,.T.);
#366=EDGE_CURVE('',#269,#281,#174,.T.);
#367=ORIENTED_EDGE('',*,*,#295,.F.);
#368=ORIENTED_EDGE('',*,*,#296,.T.);
#369=ORIENTED_EDGE('',*,*,#297,.T.);
#370=ORIENTED_EDGE('',*,*,#296,.F.);
#371=ORIENTED_EDGE('',*,*,#297,.F.);
#372=ORIENTED_EDGE('',*,*,#298,.F.);
#373=ORIENTED_EDGE('',*,*,#299,.T.);
#374=ORIENTED_EDGE('',*,*,#300,.T.);
#375=ORIENTED_EDGE('',*,*,#299,.F.);
#376=ORIENTED_EDGE('',*,*,#300,.F.);
#377=ORIENTED_EDGE('',*,*,#301,.F.);
#378=ORIENTED_EDGE('',*,*,#302,.T.);
#379=ORIENTED_EDGE('',*,*,#303,.F.);
#380=ORIENTED_EDGE('',*,*,#302,.F.);
#381=ORIENTED_EDGE('',*,*,#304,.F.);
#382=ORIENTED_EDGE('',*,*,#305,.T.);
#383=ORIENTED_EDGE('',*,*,#306,.F.);
#384=ORIENTED_EDGE('',*,*,#305,.F.);
#385=ORIENTED_EDGE('',*,*,#307,.F.);
#386=ORIENTED_EDGE('',*,*,#308,.T.);
#387=ORIENTED_EDGE('',*,*,#309,.F.);
#388=ORIENTED_EDGE('',*,*,#308,.F.);
#389=ORIENTED_EDGE('',*,*,#310,.F.);
#390=ORIENTED_EDGE('',*,*,#311,.T.);
#391=ORIENTED_EDGE('',*,*,#312,.F.);
#392=ORIENTED_EDGE('',*,*,#311,.F.);
#393=ORIENTED_EDGE('',*,*,#313,.T.);
#394=ORIENTED_EDGE('',*,*,#314,.T.);
#395=ORIENTED_EDGE('',*,*,#315,.T.);
#396=ORIENTED_EDGE('',*,*,#316,.T.);
#397=ORIENTED_EDGE('',*,*,#314,.F.);
#398=ORIENTED_EDGE('',*,*,#317,.T.);
#399=ORIENTED_EDGE('',*,*,#318,.F.);
#400=ORIENTED_EDGE('',*,*,#319,.T.);
#401=ORIENTED_EDGE('',*,*,#320,.F.);
#402=ORIENTED_EDGE('',*,*,#312,.T.);
#403=ORIENTED_EDGE('',*,*,#309,.T.);
#404=ORIENTED_EDGE('',*,*,#306,.T.);
#405=ORIENTED_EDGE('',*,*,#303,.T.);
#406=ORIENTED_EDGE('',*,*,#313,.F.);
#407=ORIENTED_EDGE('',*,*,#321,.F.);
#408=ORIENTED_EDGE('',*,*,#322,.F.);
#409=ORIENTED_EDGE('',*,*,#323,.T.);
#410=ORIENTED_EDGE('',*,*,#324,.F.);
#411=ORIENTED_EDGE('',*,*,#317,.F.);
#412=ORIENTED_EDGE('',*,*,#295,.T.);
#413=ORIENTED_EDGE('',*,*,#298,.T.);
#414=ORIENTED_EDGE('',*,*,#325,.T.);
#415=ORIENTED_EDGE('',*,*,#318,.T.);
#416=ORIENTED_EDGE('',*,*,#324,.T.);
#417=ORIENTED_EDGE('',*,*,#326,.T.);
#418=ORIENTED_EDGE('',*,*,#320,.T.);
#419=ORIENTED_EDGE('',*,*,#327,.T.);
#420=ORIENTED_EDGE('',*,*,#328,.F.);
#421=ORIENTED_EDGE('',*,*,#327,.F.);
#422=ORIENTED_EDGE('',*,*,#329,.F.);
#423=ORIENTED_EDGE('',*,*,#330,.F.);
#424=ORIENTED_EDGE('',*,*,#331,.F.);
#425=ORIENTED_EDGE('',*,*,#332,.F.);
#426=ORIENTED_EDGE('',*,*,#333,.F.);
#427=ORIENTED_EDGE('',*,*,#334,.T.);
#428=ORIENTED_EDGE('',*,*,#335,.F.);
#429=ORIENTED_EDGE('',*,*,#336,.T.);
#430=ORIENTED_EDGE('',*,*,#329,.T.);
#431=ORIENTED_EDGE('',*,*,#337,.F.);
#432=ORIENTED_EDGE('',*,*,#338,.F.);
#433=ORIENTED_EDGE('',*,*,#334,.F.);
#434=ORIENTED_EDGE('',*,*,#332,.T.);
#435=ORIENTED_EDGE('',*,*,#339,.T.);
#436=ORIENTED_EDGE('',*,*,#340,.T.);
#437=ORIENTED_EDGE('',*,*,#341,.T.);
#438=ORIENTED_EDGE('',*,*,#322,.T.);
#439=ORIENTED_EDGE('',*,*,#342,.T.);
#440=ORIENTED_EDGE('',*,*,#343,.T.);
#441=ORIENTED_EDGE('',*,*,#344,.T.);
#442=ORIENTED_EDGE('',*,*,#345,.T.);
#443=ORIENTED_EDGE('',*,*,#346,.T.);
#444=ORIENTED_EDGE('',*,*,#335,.T.);
#445=ORIENTED_EDGE('',*,*,#338,.T.);
#446=ORIENTED_EDGE('',*,*,#347,.T.);
#447=ORIENTED_EDGE('',*,*,#301,.T.);
#448=ORIENTED_EDGE('',*,*,#304,.T.);
#449=ORIENTED_EDGE('',*,*,#307,.T.);
#450=ORIENTED_EDGE('',*,*,#310,.T.);
#451=ORIENTED_EDGE('',*,*,#348,.T.);
#452=ORIENTED_EDGE('',*,*,#347,.F.);
#453=ORIENTED_EDGE('',*,*,#337,.T.);
#454=ORIENTED_EDGE('',*,*,#331,.T.);
#455=ORIENTED_EDGE('',*,*,#349,.F.);
#456=ORIENTED_EDGE('',*,*,#345,.F.);
#457=ORIENTED_EDGE('',*,*,#350,.T.);
#458=ORIENTED_EDGE('',*,*,#351,.T.);
#459=ORIENTED_EDGE('',*,*,#352,.T.);
#460=ORIENTED_EDGE('',*,*,#353,.T.);
#461=ORIENTED_EDGE('',*,*,#354,.F.);
#462=ORIENTED_EDGE('',*,*,#355,.F.);
#463=ORIENTED_EDGE('',*,*,#350,.F.);
#464=ORIENTED_EDGE('',*,*,#344,.F.);
#465=ORIENTED_EDGE('',*,*,#356,.F.);
#466=ORIENTED_EDGE('',*,*,#357,.T.);
#467=ORIENTED_EDGE('',*,*,#339,.F.);
#468=ORIENTED_EDGE('',*,*,#348,.F.);
#469=ORIENTED_EDGE('',*,*,#358,.F.);
#470=ORIENTED_EDGE('',*,*,#359,.F.);
#471=ORIENTED_EDGE('',*,*,#356,.T.);
#472=ORIENTED_EDGE('',*,*,#353,.F.);
#473=ORIENTED_EDGE('',*,*,#360,.F.);
#474=ORIENTED_EDGE('',*,*,#361,.F.);
#475=ORIENTED_EDGE('',*,*,#358,.T.);
#476=ORIENTED_EDGE('',*,*,#352,.F.);
#477=ORIENTED_EDGE('',*,*,#355,.T.);
#478=ORIENTED_EDGE('',*,*,#362,.F.);
#479=ORIENTED_EDGE('',*,*,#360,.T.);
#480=ORIENTED_EDGE('',*,*,#351,.F.);
#481=ORIENTED_EDGE('',*,*,#316,.F.);
#482=ORIENTED_EDGE('',*,*,#363,.F.);
#483=ORIENTED_EDGE('',*,*,#342,.F.);
#484=ORIENTED_EDGE('',*,*,#321,.T.);
#485=ORIENTED_EDGE('',*,*,#333,.T.);
#486=ORIENTED_EDGE('',*,*,#364,.T.);
#487=ORIENTED_EDGE('',*,*,#365,.T.);
#488=ORIENTED_EDGE('',*,*,#364,.F.);
#489=ORIENTED_EDGE('',*,*,#336,.F.);
#490=ORIENTED_EDGE('',*,*,#346,.F.);
#491=ORIENTED_EDGE('',*,*,#349,.T.);
#492=ORIENTED_EDGE('',*,*,#330,.T.);
#493=ORIENTED_EDGE('',*,*,#326,.F.);
#494=ORIENTED_EDGE('',*,*,#323,.F.);
#495=ORIENTED_EDGE('',*,*,#341,.F.);
#496=ORIENTED_EDGE('',*,*,#366,.F.);
#497=ORIENTED_EDGE('',*,*,#315,.F.);
#498=ORIENTED_EDGE('',*,*,#319,.F.);
#499=ORIENTED_EDGE('',*,*,#325,.F.);
#500=ORIENTED_EDGE('',*,*,#366,.T.);
#501=ORIENTED_EDGE('',*,*,#340,.F.);
#502=ORIENTED_EDGE('',*,*,#357,.F.);
#503=ORIENTED_EDGE('',*,*,#359,.T.);
#504=ORIENTED_EDGE('',*,*,#361,.T.);
#505=ORIENTED_EDGE('',*,*,#362,.T.);
#506=ORIENTED_EDGE('',*,*,#354,.T.);
#507=ORIENTED_EDGE('',*,*,#343,.F.);
#508=ORIENTED_EDGE('',*,*,#363,.T.);
#509=ORIENTED_EDGE('',*,*,#365,.F.);
#510=ORIENTED_EDGE('',*,*,#328,.T.);
#511=CYLINDRICAL_SURFACE('',#564,1.59999999999973);
#512=CYLINDRICAL_SURFACE('',#568,1.59999999999977);
#513=CYLINDRICAL_SURFACE('',#572,1.6);
#514=CYLINDRICAL_SURFACE('',#575,1.6);
#515=CYLINDRICAL_SURFACE('',#578,1.6);
#516=CYLINDRICAL_SURFACE('',#581,1.6);
#517=CYLINDRICAL_SURFACE('',#601,0.5);
#518=CYLINDRICAL_SURFACE('',#604,0.5);
#519=CYLINDRICAL_SURFACE('',#607,8.5);
#520=ADVANCED_FACE('',(#52),#511,.F.);
#521=ADVANCED_FACE('',(#53),#33,.T.);
#522=ADVANCED_FACE('',(#54),#512,.F.);
#523=ADVANCED_FACE('',(#55),#34,.T.);
#524=ADVANCED_FACE('',(#56),#513,.F.);
#525=ADVANCED_FACE('',(#57),#514,.F.);
#526=ADVANCED_FACE('',(#58),#515,.F.);
#527=ADVANCED_FACE('',(#59),#516,.F.);
#528=ADVANCED_FACE('',(#60),#35,.T.);
#529=ADVANCED_FACE('',(#61,#20,#21,#22,#23,#24),#36,.T.);
#530=ADVANCED_FACE('',(#62,#25,#26),#37,.T.);
#531=ADVANCED_FACE('',(#63),#38,.T.);
#532=ADVANCED_FACE('',(#64),#19,.F.);
#533=ADVANCED_FACE('',(#65,#27),#39,.F.);
#534=ADVANCED_FACE('',(#66),#40,.T.);
#535=ADVANCED_FACE('',(#67),#41,.T.);
#536=ADVANCED_FACE('',(#68,#28,#29,#30,#31),#42,.T.);
#537=ADVANCED_FACE('',(#69),#43,.T.);
#538=ADVANCED_FACE('',(#70),#44,.F.);
#539=ADVANCED_FACE('',(#71),#45,.F.);
#540=ADVANCED_FACE('',(#72),#517,.F.);
#541=ADVANCED_FACE('',(#73),#46,.F.);
#542=ADVANCED_FACE('',(#74),#518,.F.);
#543=ADVANCED_FACE('',(#75),#47,.T.);
#544=ADVANCED_FACE('',(#76),#519,.F.);
#545=ADVANCED_FACE('',(#77),#48,.T.);
#546=ADVANCED_FACE('',(#78),#49,.T.);
#547=ADVANCED_FACE('',(#79),#50,.T.);
#548=ADVANCED_FACE('',(#80,#32),#51,.T.);
#549=CLOSED_SHELL('',(#520,#521,#522,#523,#524,#525,#526,#527,#528,#529,
#530,#531,#532,#533,#534,#535,#536,#537,#538,#539,#540,#541,#542,#543,#544,
#545,#546,#547,#548));
#550=DERIVED_UNIT_ELEMENT(#552,1.);
#551=DERIVED_UNIT_ELEMENT(#929,-3.);
#552=(
MASS_UNIT()
NAMED_UNIT(*)
SI_UNIT(.KILO.,.GRAM.)
);
#553=DERIVED_UNIT((#550,#551));
#554=MEASURE_REPRESENTATION_ITEM('density measure',
POSITIVE_RATIO_MEASURE(7850.),#553);
#555=PROPERTY_DEFINITION_REPRESENTATION(#560,#557);
#556=PROPERTY_DEFINITION_REPRESENTATION(#561,#558);
#557=REPRESENTATION('material name',(#559),#926);
#558=REPRESENTATION('density',(#554),#926);
#559=DESCRIPTIVE_REPRESENTATION_ITEM('Steel','Steel');
#560=PROPERTY_DEFINITION('material property','material name',#941);
#561=PROPERTY_DEFINITION('material property','density of part',#941);
#562=AXIS2_PLACEMENT_3D('',#770,#614,#615);
#563=AXIS2_PLACEMENT_3D('',#771,#616,#617);
#564=AXIS2_PLACEMENT_3D('',#772,#618,#619);
#565=AXIS2_PLACEMENT_3D('',#774,#620,#621);
#566=AXIS2_PLACEMENT_3D('',#777,#623,#624);
#567=AXIS2_PLACEMENT_3D('',#778,#625,#626);
#568=AXIS2_PLACEMENT_3D('',#779,#627,#628);
#569=AXIS2_PLACEMENT_3D('',#781,#629,#630);
#570=AXIS2_PLACEMENT_3D('',#784,#632,#633);
#571=AXIS2_PLACEMENT_3D('',#785,#634,#635);
#572=AXIS2_PLACEMENT_3D('',#786,#636,#637);
#573=AXIS2_PLACEMENT_3D('',#788,#638,#639);
#574=AXIS2_PLACEMENT_3D('',#791,#641,#642);
#575=AXIS2_PLACEMENT_3D('',#792,#643,#644);
#576=AXIS2_PLACEMENT_3D('',#794,#645,#646);
#577=AXIS2_PLACEMENT_3D('',#797,#648,#649);
#578=AXIS2_PLACEMENT_3D('',#798,#650,#651);
#579=AXIS2_PLACEMENT_3D('',#800,#652,#653);
#580=AXIS2_PLACEMENT_3D('',#803,#655,#656);
#581=AXIS2_PLACEMENT_3D('',#804,#657,#658);
#582=AXIS2_PLACEMENT_3D('',#806,#659,#660);
#583=AXIS2_PLACEMENT_3D('',#809,#662,#663);
#584=AXIS2_PLACEMENT_3D('',#810,#664,#665);
#585=AXIS2_PLACEMENT_3D('',#819,#670,#671);
#586=AXIS2_PLACEMENT_3D('',#826,#675,#676);
#587=AXIS2_PLACEMENT_3D('',#827,#677,#678);
#588=AXIS2_PLACEMENT_3D('',#835,#683,#684);
#589=AXIS2_PLACEMENT_3D('',#839,#687,#688);
#590=AXIS2_PLACEMENT_3D('',#842,#690,#691);
#591=AXIS2_PLACEMENT_3D('',#843,#692,#693);
#592=AXIS2_PLACEMENT_3D('',#853,#698,#699);
#593=AXIS2_PLACEMENT_3D('',#854,#700,#701);
#594=AXIS2_PLACEMENT_3D('',#860,#705,#706);
#595=AXIS2_PLACEMENT_3D('',#864,#709,#710);
#596=AXIS2_PLACEMENT_3D('',#881,#720,#721);
#597=AXIS2_PLACEMENT_3D('',#888,#725,#726);
#598=AXIS2_PLACEMENT_3D('',#891,#728,#729);
#599=AXIS2_PLACEMENT_3D('',#892,#730,#731);
#600=AXIS2_PLACEMENT_3D('',#896,#734,#735);
#601=AXIS2_PLACEMENT_3D('',#900,#738,#739);
#602=AXIS2_PLACEMENT_3D('',#903,#741,#742);
#603=AXIS2_PLACEMENT_3D('',#904,#743,#744);
#604=AXIS2_PLACEMENT_3D('',#908,#747,#748);
#605=AXIS2_PLACEMENT_3D('',#909,#749,#750);
#606=AXIS2_PLACEMENT_3D('',#910,#751,#752);
#607=AXIS2_PLACEMENT_3D('',#912,#754,#755);
#608=AXIS2_PLACEMENT_3D('',#915,#757,#758);
#609=AXIS2_PLACEMENT_3D('',#916,#759,#760);
#610=AXIS2_PLACEMENT_3D('',#917,#761,#762);
#611=AXIS2_PLACEMENT_3D('',#919,#764,#765);
#612=AXIS2_PLACEMENT_3D('',#920,#766,#767);
#613=AXIS2_PLACEMENT_3D('',#921,#768,#769);
#614=DIRECTION('axis',(0.,0.,1.));
#615=DIRECTION('refdir',(1.,0.,0.));
#616=DIRECTION('axis',(0.,0.,1.));
#617=DIRECTION('refdir',(1.,0.,0.));
#618=DIRECTION('center_axis',(-2.22044604925031E-15,0.,1.));
#619=DIRECTION('ref_axis',(-1.,-1.23259516440783E-32,-2.22044604925031E-15));
#620=DIRECTION('center_axis',(0.,0.,1.));
#621=DIRECTION('ref_axis',(-1.,-1.23259516440783E-32,-2.22044604925031E-15));
#622=DIRECTION('',(-2.22044604925031E-15,0.,1.));
#623=DIRECTION('center_axis',(-2.22044604925031E-15,-2.56379794196829E-29,
1.));
#624=DIRECTION('ref_axis',(-1.,-1.23259516440783E-32,-2.22044604925031E-15));
#625=DIRECTION('center_axis',(2.22044604925031E-15,2.56379794196829E-29,
-1.));
#626=DIRECTION('ref_axis',(-1.,-1.23259516440783E-32,-2.22044604925031E-15));
#627=DIRECTION('center_axis',(-2.22044604925031E-15,0.,1.));
#628=DIRECTION('ref_axis',(-1.,-1.23259516440783E-32,-2.22044604925031E-15));
#629=DIRECTION('center_axis',(0.,0.,1.));
#630=DIRECTION('ref_axis',(-1.,-1.23259516440783E-32,-2.22044604925031E-15));
#631=DIRECTION('',(-2.22044604925031E-15,0.,1.));
#632=DIRECTION('center_axis',(-2.22044604925031E-15,-3.94430452610505E-31,
1.));
#633=DIRECTION('ref_axis',(-1.,-1.23259516440783E-32,-2.22044604925031E-15));
#634=DIRECTION('center_axis',(2.22044604925031E-15,3.94430452610505E-31,
-1.));
#635=DIRECTION('ref_axis',(-1.,-1.23259516440783E-32,-2.22044604925031E-15));
#636=DIRECTION('center_axis',(0.,-1.,0.));
#637=DIRECTION('ref_axis',(0.,0.,1.));
#638=DIRECTION('center_axis',(0.,-1.,0.));
#639=DIRECTION('ref_axis',(0.,0.,1.));
#640=DIRECTION('',(0.,-1.,0.));
#641=DIRECTION('center_axis',(0.,1.,0.));
#642=DIRECTION('ref_axis',(0.,0.,1.));
#643=DIRECTION('center_axis',(0.,-1.,0.));
#644=DIRECTION('ref_axis',(0.,0.,1.));
#645=DIRECTION('center_axis',(0.,-1.,0.));
#646=DIRECTION('ref_axis',(0.,0.,1.));
#647=DIRECTION('',(0.,-1.,0.));
#648=DIRECTION('center_axis',(0.,1.,0.));
#649=DIRECTION('ref_axis',(0.,0.,1.));
#650=DIRECTION('center_axis',(0.,-1.,0.));
#651=DIRECTION('ref_axis',(0.,0.,1.));
#652=DIRECTION('center_axis',(0.,-1.,0.));
#653=DIRECTION('ref_axis',(0.,0.,1.));
#654=DIRECTION('',(0.,-1.,0.));
#655=DIRECTION('center_axis',(0.,1.,0.));
#656=DIRECTION('ref_axis',(0.,0.,1.));
#657=DIRECTION('center_axis',(0.,-1.,0.));
#658=DIRECTION('ref_axis',(0.,0.,1.));
#659=DIRECTION('center_axis',(0.,-1.,0.));
#660=DIRECTION('ref_axis',(0.,0.,1.));
#661=DIRECTION('',(0.,-1.,0.));
#662=DIRECTION('center_axis',(0.,1.,0.));
#663=DIRECTION('ref_axis',(0.,0.,1.));
#664=DIRECTION('center_axis',(-0.707106781186547,-0.707106781186548,0.));
#665=DIRECTION('ref_axis',(0.,0.,1.));
#666=DIRECTION('',(0.707106781186548,-0.707106781186547,0.));
#667=DIRECTION('',(0.,0.,1.));
#668=DIRECTION('',(-0.707106781186548,0.707106781186547,0.));
#669=DIRECTION('',(0.,0.,-1.));
#670=DIRECTION('center_axis',(0.,-1.,0.));
#671=DIRECTION('ref_axis',(0.,0.,-1.));
#672=DIRECTION('',(1.,0.,0.));
#673=DIRECTION('',(0.,0.,-1.));
#674=DIRECTION('',(-1.,0.,0.));
#675=DIRECTION('center_axis',(0.,-1.,0.));
#676=DIRECTION('ref_axis',(1.,0.,0.));
#677=DIRECTION('center_axis',(0.,0.,-1.));
#678=DIRECTION('ref_axis',(-1.,0.,0.));
#679=DIRECTION('',(0.,-1.,0.));
#680=DIRECTION('',(-1.,0.,0.));
#681=DIRECTION('',(0.,-1.,0.));
#682=DIRECTION('',(0.707106781186548,0.707106781186547,0.));
#683=DIRECTION('center_axis',(0.707106781186547,-0.707106781186548,0.));
#684=DIRECTION('ref_axis',(0.,0.,-1.));
#685=DIRECTION('',(-0.707106781186548,-0.707106781186547,0.));
#686=DIRECTION('',(0.,0.,1.));
#687=DIRECTION('center_axis',(0.,-1.,0.));
#688=DIRECTION('ref_axis',(1.,0.,0.));
#689=DIRECTION('',(0.707106781186548,0.707106781186548,8.65956056235493E-17));
#690=DIRECTION('center_axis',(0.,-1.,0.));
#691=DIRECTION('ref_axis',(1.,0.,0.));
#692=DIRECTION('center_axis',(0.,-1.,0.));
#693=DIRECTION('ref_axis',(0.,0.,-1.));
#694=DIRECTION('',(1.,0.,0.));
#695=DIRECTION('',(0.,0.,-1.));
#696=DIRECTION('',(-1.,0.,0.));
#697=DIRECTION('',(0.,0.,1.));
#698=DIRECTION('center_axis',(0.,1.,0.));
#699=DIRECTION('ref_axis',(-1.,0.,0.));
#700=DIRECTION('center_axis',(0.,0.,1.));
#701=DIRECTION('ref_axis',(1.,0.,0.));
#702=DIRECTION('',(0.,1.,0.));
#703=DIRECTION('',(1.,0.,0.));
#704=DIRECTION('',(0.,-1.,0.));
#705=DIRECTION('center_axis',(-1.,0.,0.));
#706=DIRECTION('ref_axis',(0.,0.,1.));
#707=DIRECTION('',(0.,-1.,0.));
#708=DIRECTION('',(0.,0.,1.));
#709=DIRECTION('center_axis',(0.,1.,0.));
#710=DIRECTION('ref_axis',(0.,0.,1.));
#711=DIRECTION('',(0.,0.,1.));
#712=DIRECTION('',(1.,0.,0.));
#713=DIRECTION('',(0.,0.,-1.));
#714=DIRECTION('',(0.,0.,1.));
#715=DIRECTION('',(1.,0.,0.));
#716=DIRECTION('',(0.,0.,-1.));
#717=DIRECTION('',(-1.,0.,0.));
#718=DIRECTION('',(0.,0.,-1.));
#719=DIRECTION('',(-1.,0.,0.));
#720=DIRECTION('center_axis',(0.,0.,-1.));
#721=DIRECTION('ref_axis',(-1.,0.,0.));
#722=DIRECTION('',(0.,1.,0.));
#723=DIRECTION('',(0.,-1.,0.));
#724=DIRECTION('',(0.,-1.,0.));
#725=DIRECTION('center_axis',(0.,0.,1.));
#726=DIRECTION('ref_axis',(-0.707106781186548,-0.707106781186548,0.));
#727=DIRECTION('',(1.,-1.58603289232165E-16,0.));
#728=DIRECTION('center_axis',(0.,0.,1.));
#729=DIRECTION('ref_axis',(0.707106781186548,-0.707106781186548,0.));
#730=DIRECTION('center_axis',(-1.,0.,0.));
#731=DIRECTION('ref_axis',(0.,-1.,0.));
#732=DIRECTION('',(0.,1.,0.));
#733=DIRECTION('',(0.,0.,1.));
#734=DIRECTION('center_axis',(1.,0.,0.));
#735=DIRECTION('ref_axis',(0.,1.,0.));
#736=DIRECTION('',(0.,0.,-1.));
#737=DIRECTION('',(0.,1.,0.));
#738=DIRECTION('center_axis',(0.,0.,1.));
#739=DIRECTION('ref_axis',(0.707106781186548,-0.707106781186548,0.));
#740=DIRECTION('',(0.,0.,-1.));
#741=DIRECTION('center_axis',(0.,0.,-1.));
#742=DIRECTION('ref_axis',(0.707106781186548,-0.707106781186548,0.));
#743=DIRECTION('center_axis',(-1.58603289232165E-16,-1.,0.));
#744=DIRECTION('ref_axis',(1.,-1.58603289232165E-16,0.));
#745=DIRECTION('',(0.,0.,-1.));
#746=DIRECTION('',(-1.,1.58603289232165E-16,0.));
#747=DIRECTION('center_axis',(0.,0.,1.));
#748=DIRECTION('ref_axis',(-0.707106781186548,-0.707106781186548,0.));
#749=DIRECTION('center_axis',(0.,0.,-1.));
#750=DIRECTION('ref_axis',(-0.707106781186548,-0.707106781186548,0.));
#751=DIRECTION('center_axis',(-1.,0.,0.));
#752=DIRECTION('ref_axis',(0.,0.,1.));
#753=DIRECTION('',(0.,-1.,0.));
#754=DIRECTION('center_axis',(0.,-1.,0.));
#755=DIRECTION('ref_axis',(-1.,0.,0.));
#756=DIRECTION('',(0.,-1.,0.));
#757=DIRECTION('center_axis',(0.,-1.,0.));
#758=DIRECTION('ref_axis',(-1.,0.,0.));
#759=DIRECTION('center_axis',(1.,0.,0.));
#760=DIRECTION('ref_axis',(0.,0.,-1.));
#761=DIRECTION('center_axis',(1.,0.,0.));
#762=DIRECTION('ref_axis',(0.,0.,-1.));
#763=DIRECTION('',(0.,1.,0.));
#764=DIRECTION('center_axis',(0.,0.,1.));
#765=DIRECTION('ref_axis',(1.,0.,0.));
#766=DIRECTION('center_axis',(0.,1.,0.));
#767=DIRECTION('ref_axis',(-1.,0.,0.));
#768=DIRECTION('',(0.,0.,1.));
#769=DIRECTION('',(1.,0.,0.));
#770=CARTESIAN_POINT('',(0.,0.,0.));
#771=CARTESIAN_POINT('',(0.,0.,0.));
#772=CARTESIAN_POINT('Origin',(5.53897355814234,-1.70000000000774,-35.000000000005));
#773=CARTESIAN_POINT('',(7.13897355814206,-1.70000000000774,-30.));
#774=CARTESIAN_POINT('Origin',(5.53897355814233,-1.70000000000774,-30.));
#775=CARTESIAN_POINT('',(7.13897355814205,-1.70000000000774,-25.000000000005));
#776=CARTESIAN_POINT('',(7.13897355814207,-1.70000000000774,-35.000000000005));
#777=CARTESIAN_POINT('Origin',(5.53897355814232,-1.70000000000774,-25.000000000005));
#778=CARTESIAN_POINT('Origin',(5.53897355814232,-1.70000000000774,-25.000000000005));
#779=CARTESIAN_POINT('Origin',(-4.14400545942707,-1.70000000000772,-35.000000000005));
#780=CARTESIAN_POINT('',(-2.54400545942731,-1.70000000000772,-30.));
#781=CARTESIAN_POINT('Origin',(-4.14400545942708,-1.70000000000772,-30.0000000000001));
#782=CARTESIAN_POINT('',(-2.54400545942732,-1.70000000000772,-25.000000000005));
#783=CARTESIAN_POINT('',(-2.54400545942729,-1.70000000000772,-35.000000000005));
#784=CARTESIAN_POINT('Origin',(-4.14400545942709,-1.70000000000772,-25.000000000005));
#785=CARTESIAN_POINT('Origin',(-4.14400545942709,-1.70000000000772,-25.000000000005));
#786=CARTESIAN_POINT('Origin',(11.,14.8,-25.));
#787=CARTESIAN_POINT('',(11.,4.5,-26.6));
#788=CARTESIAN_POINT('Origin',(11.,4.5,-25.));
#789=CARTESIAN_POINT('',(11.,-7.7,-26.6));
#790=CARTESIAN_POINT('',(11.,14.8,-26.6));
#791=CARTESIAN_POINT('Origin',(11.,-7.7,-25.));
#792=CARTESIAN_POINT('Origin',(-11.,14.8,25.));
#793=CARTESIAN_POINT('',(-11.,4.5,23.4));
#794=CARTESIAN_POINT('Origin',(-11.,4.5,25.));
#795=CARTESIAN_POINT('',(-11.,-7.7,23.4));
#796=CARTESIAN_POINT('',(-11.,14.8,23.4));
#797=CARTESIAN_POINT('Origin',(-11.,-7.7,25.));
#798=CARTESIAN_POINT('Origin',(11.,14.8,25.));
#799=CARTESIAN_POINT('',(11.,4.5,23.4));
#800=CARTESIAN_POINT('Origin',(11.,4.5,25.));
#801=CARTESIAN_POINT('',(11.,-7.7,23.4));
#802=CARTESIAN_POINT('',(11.,14.8,23.4));
#803=CARTESIAN_POINT('Origin',(11.,-7.7,25.));
#804=CARTESIAN_POINT('Origin',(-11.,14.8,-25.));
#805=CARTESIAN_POINT('',(-11.,4.5,-26.6));
#806=CARTESIAN_POINT('Origin',(-11.,4.5,-25.));
#807=CARTESIAN_POINT('',(-11.,-7.7,-26.6));
#808=CARTESIAN_POINT('',(-11.,14.8,-26.6));
#809=CARTESIAN_POINT('Origin',(-11.,-7.7,-25.));
#810=CARTESIAN_POINT('Origin',(-17.75,-5.95,-15.));
#811=CARTESIAN_POINT('',(-19.5,-4.2,-30.));
#812=CARTESIAN_POINT('',(-16.,-7.7,-30.));
#813=CARTESIAN_POINT('',(-9.,-14.7,-30.));
#814=CARTESIAN_POINT('',(-16.,-7.7,30.));
#815=CARTESIAN_POINT('',(-16.,-7.7,-15.));
#816=CARTESIAN_POINT('',(-19.5,-4.2,30.));
#817=CARTESIAN_POINT('',(-18.75,-4.95,30.));
#818=CARTESIAN_POINT('',(-19.5,-4.2,-15.));
#819=CARTESIAN_POINT('Origin',(0.,-7.7,0.));
#820=CARTESIAN_POINT('',(16.,-7.7,-30.));
#821=CARTESIAN_POINT('',(-19.5,-7.7,-30.));
#822=CARTESIAN_POINT('',(16.,-7.7,30.));
#823=CARTESIAN_POINT('',(16.,-7.7,15.));
#824=CARTESIAN_POINT('',(19.5,-7.7,30.));
#825=CARTESIAN_POINT('',(-6.,-7.7,10.2));
#826=CARTESIAN_POINT('Origin',(0.,-7.7,10.2));
#827=CARTESIAN_POINT('Origin',(19.5,-3.7,-30.));
#828=CARTESIAN_POINT('',(-19.5,4.5,-30.));
#829=CARTESIAN_POINT('',(-19.5,-3.7,-30.));
#830=CARTESIAN_POINT('',(19.5,4.5,-30.));
#831=CARTESIAN_POINT('',(9.75,4.5,-30.));
#832=CARTESIAN_POINT('',(19.5,-4.2,-30.));
#833=CARTESIAN_POINT('',(19.5,-3.7,-30.));
#834=CARTESIAN_POINT('',(18.75,-4.95,-30.));
#835=CARTESIAN_POINT('Origin',(17.75,-5.95,15.));
#836=CARTESIAN_POINT('',(19.5,-4.2,30.));
#837=CARTESIAN_POINT('',(9.,-14.7,30.));
#838=CARTESIAN_POINT('',(19.5,-4.2,15.));
#839=CARTESIAN_POINT('Origin',(0.,-7.2,10.2));
#840=CARTESIAN_POINT('',(-5.,-6.7,10.2));
#841=CARTESIAN_POINT('',(-5.5,-7.2,10.2));
#842=CARTESIAN_POINT('Origin',(0.,-6.7,10.2));
#843=CARTESIAN_POINT('Origin',(0.,-0.2,0.));
#844=CARTESIAN_POINT('',(-9.5,-0.2,-20.));
#845=CARTESIAN_POINT('',(9.5,-0.2,-20.));
#846=CARTESIAN_POINT('',(-4.75,-0.2,-20.));
#847=CARTESIAN_POINT('',(-9.5,-0.2,20.));
#848=CARTESIAN_POINT('',(-9.5,-0.2,10.));
#849=CARTESIAN_POINT('',(9.5,-0.2,20.));
#850=CARTESIAN_POINT('',(4.75,-0.2,20.));
#851=CARTESIAN_POINT('',(9.5,-0.2,-10.));
#852=CARTESIAN_POINT('',(8.49999999999998,-0.2,10.2000000000005));
#853=CARTESIAN_POINT('Origin',(-2.36269337428041E-14,-0.2,10.2000000000005));
#854=CARTESIAN_POINT('Origin',(-9.5,-3.7,-20.));
#855=CARTESIAN_POINT('',(9.5,4.5,-20.));
#856=CARTESIAN_POINT('',(9.5,3.8,-20.));
#857=CARTESIAN_POINT('',(-9.5,4.5,-20.));
#858=CARTESIAN_POINT('',(-4.75,4.5,-20.));
#859=CARTESIAN_POINT('',(-9.5,0.3,-20.));
#860=CARTESIAN_POINT('Origin',(9.5,-3.7,-20.));
#861=CARTESIAN_POINT('',(9.5,4.5,20.));
#862=CARTESIAN_POINT('',(9.5,-0.7,20.));
#863=CARTESIAN_POINT('',(9.5,4.5,-10.));
#864=CARTESIAN_POINT('Origin',(0.,4.5,0.));
#865=CARTESIAN_POINT('',(3.5,4.5,20.));
#866=CARTESIAN_POINT('',(3.5,4.5,30.));
#867=CARTESIAN_POINT('',(3.5,4.5,10.5));
#868=CARTESIAN_POINT('',(19.5,4.5,30.));
#869=CARTESIAN_POINT('',(-9.75,4.5,30.));
#870=CARTESIAN_POINT('',(19.5,4.5,15.));
#871=CARTESIAN_POINT('',(-19.5,4.5,30.));
#872=CARTESIAN_POINT('',(-19.5,4.5,-15.));
#873=CARTESIAN_POINT('',(-3.5,4.5,30.));
#874=CARTESIAN_POINT('',(-9.75,4.5,30.));
#875=CARTESIAN_POINT('',(-3.5,4.5,20.));
#876=CARTESIAN_POINT('',(-3.5,4.5,10.5));
#877=CARTESIAN_POINT('',(-9.5,4.5,20.));
#878=CARTESIAN_POINT('',(4.75,4.5,20.));
#879=CARTESIAN_POINT('',(-9.5,4.5,10.));
#880=CARTESIAN_POINT('',(4.75,4.5,20.));
#881=CARTESIAN_POINT('Origin',(9.5,-3.7,20.));
#882=CARTESIAN_POINT('',(3.5,3.3,20.));
#883=CARTESIAN_POINT('',(3.5,0.4,20.));
#884=CARTESIAN_POINT('',(-9.5,-0.7,20.));
#885=CARTESIAN_POINT('',(-3.5,3.3,20.));
#886=CARTESIAN_POINT('',(-3.5,-0.200000000000001,20.));
#887=CARTESIAN_POINT('',(-3.,2.8,20.));
#888=CARTESIAN_POINT('Origin',(-3.,3.3,20.));
#889=CARTESIAN_POINT('',(3.,2.8,20.));
#890=CARTESIAN_POINT('',(6.25,2.8,20.));
#891=CARTESIAN_POINT('Origin',(3.,3.3,20.));
#892=CARTESIAN_POINT('Origin',(-3.5,6.3,21.));
#893=CARTESIAN_POINT('',(-3.5,3.3,30.));
#894=CARTESIAN_POINT('',(-3.5,3.8,30.));
#895=CARTESIAN_POINT('',(-3.5,3.3,21.));
#896=CARTESIAN_POINT('Origin',(3.5,3.3,21.));
#897=CARTESIAN_POINT('',(3.5,3.3,30.));
#898=CARTESIAN_POINT('',(3.5,3.3,21.));
#899=CARTESIAN_POINT('',(3.5,3.8,30.));
#900=CARTESIAN_POINT('Origin',(3.,3.3,21.));
#901=CARTESIAN_POINT('',(3.,2.8,30.));
#902=CARTESIAN_POINT('',(3.,2.8,21.));
#903=CARTESIAN_POINT('Origin',(3.,3.3,30.));
#904=CARTESIAN_POINT('Origin',(-3.,2.8,21.));
#905=CARTESIAN_POINT('',(-3.,2.8,30.));
#906=CARTESIAN_POINT('',(-3.,2.8,21.));
#907=CARTESIAN_POINT('',(-11.25,2.8,30.));
#908=CARTESIAN_POINT('Origin',(-3.,3.3,21.));
#909=CARTESIAN_POINT('Origin',(-3.,3.3,30.));
#910=CARTESIAN_POINT('Origin',(-19.5,-3.7,-30.));
#911=CARTESIAN_POINT('',(-19.5,-3.7,30.));
#912=CARTESIAN_POINT('Origin',(-2.36269337428041E-14,-0.4,10.2000000000005));
#913=CARTESIAN_POINT('',(8.49999999999998,-6.7,10.2000000000005));
#914=CARTESIAN_POINT('',(8.49999999999998,-0.4,10.2000000000005));
#915=CARTESIAN_POINT('Origin',(-2.36269337428041E-14,-6.7,10.2000000000005));
#916=CARTESIAN_POINT('Origin',(-9.5,-3.7,20.));
#917=CARTESIAN_POINT('Origin',(19.5,-3.7,30.));
#918=CARTESIAN_POINT('',(19.5,-3.7,30.));
#919=CARTESIAN_POINT('Origin',(-19.5,-3.7,30.));
#920=CARTESIAN_POINT('Origin',(-2.33146835171283E-14,-6.7,10.2000000000005));
#921=CARTESIAN_POINT('',(0.,0.,0.));
#922=UNCERTAINTY_MEASURE_WITH_UNIT(LENGTH_MEASURE(0.01),#928,
'DISTANCE_ACCURACY_VALUE',
'Maximum model space distance between geometric entities at asserted c
onnectivities');
#923=UNCERTAINTY_MEASURE_WITH_UNIT(LENGTH_MEASURE(0.01),#928,
'DISTANCE_ACCURACY_VALUE',
'Maximum model space distance between geometric entities at asserted c
onnectivities');
#924=UNCERTAINTY_MEASURE_WITH_UNIT(LENGTH_MEASURE(0.01),#928,
'DISTANCE_ACCURACY_VALUE',
'Maximum model space distance between geometric entities at asserted c
onnectivities');
#925=(
GEOMETRIC_REPRESENTATION_CONTEXT(3)
GLOBAL_UNCERTAINTY_ASSIGNED_CONTEXT((#922))
GLOBAL_UNIT_ASSIGNED_CONTEXT((#928,#930,#931))
REPRESENTATION_CONTEXT('','3D')
);
#926=(
GEOMETRIC_REPRESENTATION_CONTEXT(3)
GLOBAL_UNCERTAINTY_ASSIGNED_CONTEXT((#923))
GLOBAL_UNIT_ASSIGNED_CONTEXT((#928,#930,#931))
REPRESENTATION_CONTEXT('','3D')
);
#927=(
GEOMETRIC_REPRESENTATION_CONTEXT(3)
GLOBAL_UNCERTAINTY_ASSIGNED_CONTEXT((#924))
GLOBAL_UNIT_ASSIGNED_CONTEXT((#928,#930,#931))
REPRESENTATION_CONTEXT('','3D')
);
#928=(
LENGTH_UNIT()
NAMED_UNIT(*)
SI_UNIT(.MILLI.,.METRE.)
);
#929=(
LENGTH_UNIT()
NAMED_UNIT(*)
SI_UNIT($,.METRE.)
);
#930=(
NAMED_UNIT(*)
PLANE_ANGLE_UNIT()
SI_UNIT($,.RADIAN.)
);
#931=(
NAMED_UNIT(*)
SI_UNIT($,.STERADIAN.)
SOLID_ANGLE_UNIT()
);
#932=SHAPE_DEFINITION_REPRESENTATION(#934,#937);
#933=SHAPE_DEFINITION_REPRESENTATION(#935,#938);
#934=PRODUCT_DEFINITION_SHAPE('',$,#940);
#935=PRODUCT_DEFINITION_SHAPE('',$,#941);
#936=PRODUCT_DEFINITION_SHAPE($,$,#14);
#937=SHAPE_REPRESENTATION('',(#562,#613),#925);
#938=SHAPE_REPRESENTATION('',(#563),#926);
#939=PRODUCT_DEFINITION_CONTEXT('part definition',#947,'design');
#940=PRODUCT_DEFINITION('Servo Mount Tibia Joint Bottom',
'Servo Mount Tibia Joint Bottom v2',#942,#939);
#941=PRODUCT_DEFINITION('Component2','Component2',#943,#939);
#942=PRODUCT_DEFINITION_FORMATION('',$,#949);
#943=PRODUCT_DEFINITION_FORMATION('',$,#950);
#944=PRODUCT_RELATED_PRODUCT_CATEGORY(
'Servo Mount Tibia Joint Bottom v2','Servo Mount Tibia Joint Bottom v2',
(#949));
#945=PRODUCT_RELATED_PRODUCT_CATEGORY('Component2','Component2',(#950));
#946=APPLICATION_PROTOCOL_DEFINITION('international standard',
'automotive_design',2009,#947);
#947=APPLICATION_CONTEXT(
'Core Data for Automotive Mechanical Design Process');
#948=PRODUCT_CONTEXT('part definition',#947,'mechanical');
#949=PRODUCT('Servo Mount Tibia Joint Bottom',
'Servo Mount Tibia Joint Bottom v2',$,(#948));
#950=PRODUCT('Component2','Component2',$,(#948));
#951=PRESENTATION_STYLE_ASSIGNMENT((#953));
#952=PRESENTATION_STYLE_ASSIGNMENT((#954));
#953=SURFACE_STYLE_USAGE(.BOTH.,#955);
#954=SURFACE_STYLE_USAGE(.BOTH.,#956);
#955=SURFACE_SIDE_STYLE('',(#957));
#956=SURFACE_SIDE_STYLE('',(#958));
#957=SURFACE_STYLE_FILL_AREA(#959);
#958=SURFACE_STYLE_FILL_AREA(#960);
#959=FILL_AREA_STYLE('Steel - Satin',(#961));
#960=FILL_AREA_STYLE('Nylon 12 (with Formlabs Fuse 1 3D Printer)',(#962));
#961=FILL_AREA_STYLE_COLOUR('Steel - Satin',#963);
#962=FILL_AREA_STYLE_COLOUR(
'Nylon 12 (with Formlabs Fuse 1 3D Printer)',#964);
#963=COLOUR_RGB('Steel - Satin',0.627450980392157,0.627450980392157,0.627450980392157);
#964=COLOUR_RGB('Nylon 12 (with Formlabs Fuse 1 3D Printer)',0.247058823529412,
0.247058823529412,0.247058823529412);
ENDSEC;
END-ISO-10303-21;
